<?xml version="1.0" encoding="UTF-8"?>
<svg id="Capa_2" data-name="Capa 2" xmlns="http://www.w3.org/2000/svg" xmlns:xlink="http://www.w3.org/1999/xlink" viewBox="0 0 364.63 364.63">
  <defs>
    <style>
      .cls-1 {
        fill: #69b3e7;
      }

      .cls-2 {
        fill: #fff;
      }

      .cls-3, .cls-4 {
        fill: none;
      }

      .cls-4 {
        stroke: #b3b3b3;
        stroke-miterlimit: 10;
        stroke-width: 1.78px;
      }

      .cls-5 {
        fill: #c8d8eb;
      }

      .cls-6 {
        fill: #004b87;
      }

      .cls-7 {
        clip-path: url(#clippath);
      }
    </style>
    <clipPath id="clippath">
      <ellipse class="cls-3" cx="182.18" cy="167.87" rx="56.72" ry="56.75"/>
    </clipPath>
  </defs>
  <g id="Capa_1-2" data-name="Capa 1">
    <g>
      <rect class="cls-4" x=".89" y=".89" width="362.85" height="362.85"/>
      <g>
        <g>
          <path class="cls-6" d="M196.66,94.94c8.65-.06,19.39,4.15,19.39,4.15l18.06-26.76c-9.27-4.2-17.07,1.55-17.07,1.55,2.74,1.26,4.03,7-.13,11.07-4.18,4.09-9.62,3.85-13.7,2.88-4.07-.96-11.86-4.73-13.14-12.06-1.82-10.41,7.3-10.07,7.3-10.07-3.72-4.82-8.89-1.12-8.89-1.12.29-6.64-5.16-10.76-5.61-10.93h-.01s-.01,0-.01,0c-.45.17-6.04,4.76-5.47,10.91,0,0-5.14-3.67-8.92,1.07,0,0,9.35.07,7.15,10.43-1.56,7.34-8.71,10.77-12.78,11.74-4.07.96-10.1,1.34-14.05-2.93-3.95-4.27-1.19-8.61-.13-10.96,0,0-7.76-5.78-17.04-1.58l18.06,26.76s9.81-3.84,18.23-4.13c-34.11,6.72-59.84,36.78-59.84,72.86,0,40.87,33.02,74.03,73.83,74.26l2.38.02c-2.38-6.08-3.17-17.47-3.17-17.47l-2.99-.14c-29.42-2.16-52.61-26.71-52.61-56.67s25.44-56.83,56.83-56.83,56.83,25.44,56.83,56.83c0,21.33-11.76,39.92-29.14,49.64l-.92.46-3.91,1.92s1.09,14.06.84,18.37c29.39-9.89,50.57-37.67,50.57-70.4,0-36.11-25.77-66.19-59.92-72.87ZM187.6,87.73c-4.23-.71-7.8-.32-9.67.02-.21.02-.41.05-.61.08,0,0,4.11-2.29,5.54-6.7,1.43,4.41,5.54,6.7,5.54,6.7-.26-.04-.52-.07-.79-.09Z"/>
          <path class="cls-6" d="M194.88,80.05c6.22,5.85,12.93,6.03,12.93,6.03-4.02-3.98-1-9.46-1-9.46l-3.95-1.84c-3.99,5.96-7.99,5.27-7.99,5.27Z"/>
          <path class="cls-6" d="M170.34,80.05c-6.22,5.85-12.93,6.03-12.93,6.03,4.02-3.98,1-9.46,1-9.46l3.95-1.84c3.99,5.96,7.99,5.27,7.99,5.27Z"/>
          <ellipse class="cls-5" cx="182.35" cy="167.87" rx="56.94" ry="56.75"/>
          <g class="cls-7">
            <g>
              <path class="cls-2" d="M141.53,126.87c-.19.03-.39-.05-.5-.22L75.96,20.41c-.15-.23-.08-.54.15-.69.23-.15.54-.08.69.15l65.08,106.23c.15.23.08.54-.15.69-.06.04-.13.06-.19.07Z"/>
              <path class="cls-2" d="M142.84,126.2c-.23.04-.46-.09-.54-.32L104.41,20.85c-.1-.26.03-.55.29-.65.26-.1.55.03.65.29l37.88,105.04c.1.26-.03.55-.29.65-.03.01-.07.02-.1.03Z"/>
              <path class="cls-2" d="M144.18,125.84c-.27.04-.53-.14-.57-.42l-14.33-104.24c-.04-.27.14-.53.42-.57s.53.14.57.42l14.33,104.24c.04.27-.14.53-.42.57Z"/>
              <path class="cls-2" d="M145.53,125.77s-.07,0-.11,0c-.28-.02-.49-.25-.47-.53l7.38-105.17c.02-.28.25-.49.53-.47.28.02.49.25.47.53l-7.38,105.17c-.01.24-.19.43-.42.47Z"/>
              <path class="cls-2" d="M146.97,125.98c-.07.01-.14,0-.21-.01-.27-.07-.43-.35-.35-.61l30.82-106.75c.07-.27.35-.42.61-.35.27.07.43.35.35.61l-30.82,106.75c-.05.2-.22.33-.41.36Z"/>
              <path class="cls-2" d="M148.29,126.48c-.1.02-.21,0-.31-.05-.25-.13-.34-.43-.22-.67L206.23,15.01c.13-.25.43-.34.67-.22.25.13.34.43.22.67l-58.46,110.75c-.08.15-.22.24-.37.27Z"/>
              <path class="cls-2" d="M149.51,127.27c-.13.02-.28-.01-.39-.1-.22-.17-.25-.49-.08-.7L242.22,14.19c.17-.22.49-.25.7-.08.22.17.25.49.08.7l-93.18,112.27c-.08.1-.19.16-.31.18Z"/>
              <path class="cls-2" d="M150.51,128.26c-.17.03-.35-.04-.47-.18-.17-.21-.14-.53.07-.7L293.16,15.21c.22-.17.53-.14.7.07.17.21.14.53-.07.7l-143.05,112.16c-.07.06-.15.09-.24.11Z"/>
              <path class="cls-2" d="M151.29,129.46c-.21.03-.42-.07-.52-.27-.13-.25-.03-.55.22-.67l192.65-95.17c.25-.13.55-.03.67.22.13.25.03.55-.22.67l-192.65,95.17s-.1.04-.15.05Z"/>
              <path class="cls-2" d="M151.79,130.79c-.25.04-.49-.11-.56-.36-.07-.27.09-.54.35-.61l195.17-51.32c.27-.07.54.09.61.35.07.27-.09.54-.35.61l-195.17,51.32s-.04,0-.05.01Z"/>
              <path class="cls-2" d="M140.42,127.77c-.15.02-.32-.02-.43-.14L43.4,25.87c-.19-.2-.19-.51,0-.71.2-.19.51-.19.71,0l96.58,101.76c.19.2.19.51,0,.71-.08.08-.17.12-.27.14Z"/>
              <path class="cls-2" d="M139.55,128.86c-.12.02-.24,0-.35-.07L-3.64,31.63c-.23-.15-.3-.46-.15-.69.15-.23.46-.3.69-.15l142.84,97.16c.23.15.3.46.15.69-.08.12-.21.2-.34.22Z"/>
              <path class="cls-2" d="M138.92,130.07c-.08.01-.17,0-.26-.03L-9.65,73.11c-.26-.1-.39-.39-.29-.65.1-.26.39-.39.65-.29l148.31,56.94c.26.1.39.39.29.65-.07.17-.22.29-.39.31Z"/>
              <path class="cls-2" d="M138.55,131.41c-.05,0-.1,0-.16,0L-8.22,106.97c-.27-.04-.46-.3-.41-.57s.3-.46.58-.41l146.62,24.44c.27.04.46.3.41.57-.04.22-.21.38-.42.41Z"/>
              <path class="cls-2" d="M138.47,132.77s-.04,0-.05,0l-145.53,7c-.28.01-.51-.2-.52-.47-.01-.28.2-.51.48-.52l145.53-7c.28-.01.51.2.52.47.01.26-.17.48-.42.52Z"/>
              <path class="cls-2" d="M-2.73,171.79c-.25.04-.5-.12-.56-.37-.07-.27.09-.54.36-.61l141.4-37.69c.27-.07.54.09.61.36.07.27-.09.54-.36.61L-2.68,171.78s-.03,0-.05.01Z"/>
              <path class="cls-2" d="M.48,206.98c-.21.03-.42-.07-.52-.27-.12-.25-.03-.55.22-.67l138.69-71.47c.25-.12.55-.03.67.22.12.25.03.55-.22.67L.63,206.94s-.1.04-.15.05Z"/>
              <path class="cls-2" d="M6.41,247.31c-.17.03-.35-.04-.47-.18-.17-.21-.14-.53.07-.7,0,0,116.68-96.98,133.53-110.57.22-.17.53-.14.7.07s.14.53-.07.7C123.33,150.23,6.65,247.21,6.65,247.21c-.07.06-.15.09-.24.1Z"/>
              <path class="cls-2" d="M33.59,271.64c-.14.02-.28-.01-.39-.11-.21-.17-.25-.49-.07-.7l107.35-133.91c.17-.21.49-.25.7-.07.21.17.25.49.07.7l-107.35,133.91c-.08.1-.19.16-.31.18Z"/>
              <path class="cls-2" d="M76.25,271.26c-.1.02-.21,0-.31-.05-.25-.13-.34-.43-.22-.67l65.9-132.71c.13-.25.43-.34.67-.22s.34.43.22.67l-65.9,132.71c-.08.15-.22.24-.37.27Z"/>
              <path class="cls-2" d="M108.83,268.88c-.07.01-.14,0-.21-.01-.27-.07-.42-.35-.35-.61l34.64-129.83c.07-.27.35-.42.61-.35.27.07.42.35.35.61l-34.64,129.83c-.05.2-.22.33-.41.36Z"/>
              <path class="cls-2" d="M137.05,269.74s-.07,0-.11,0c-.28-.02-.49-.25-.47-.53l7.75-130.46c.02-.28.25-.49.53-.47.28.02.49.25.47.53l-7.75,130.46c-.01.24-.19.43-.42.47Z"/>
              <path class="cls-2" d="M165.47,268.74h0c-.27.04-.53-.15-.57-.42l-19.25-129.51c-.04-.27.14-.54.42-.57.27-.04.53.15.57.42l19.25,129.51c.04.27-.15.52-.42.57Z"/>
              <path class="cls-2" d="M193.93,264.72c-.23.04-.46-.09-.55-.32l-46.37-125.82c-.1-.26.03-.55.29-.65.26-.1.55.03.65.29l46.37,125.82c.1.26-.03.55-.29.64-.03.01-.07.02-.1.03Z"/>
              <path class="cls-2" d="M227.35,262.84c-.19.03-.39-.05-.5-.22l-78.43-124.64c-.15-.23-.08-.54.15-.69.23-.15.54-.08.69.15l78.43,124.64c.15.23.08.54-.15.69-.06.04-.13.06-.19.07Z"/>
              <path class="cls-2" d="M269.84,259.64c-.15.02-.32-.02-.43-.14l-119.84-122.3c-.19-.2-.19-.51,0-.71.2-.19.51-.19.71,0l119.84,122.3c.2.2.19.51,0,.71-.08.08-.17.12-.27.14Z"/>
              <path class="cls-2" d="M325.33,249.17c-.12.02-.24,0-.35-.07l-174.39-112.97c-.23-.15-.3-.46-.15-.69.15-.23.46-.3.69-.15l174.39,112.97c.23.15.3.46.15.69-.08.12-.21.2-.34.22Z"/>
              <path class="cls-2" d="M351.64,212.01c-.08.01-.17,0-.25-.03l-200.09-77.03c-.26-.1-.39-.39-.29-.64.1-.26.39-.39.65-.29l200.09,77.03c.26.1.39.39.29.64-.07.17-.22.29-.39.32Z"/>
              <path class="cls-2" d="M352.17,165.77c-.05,0-.1,0-.16,0l-200.22-32.19c-.27-.04-.46-.3-.42-.57.04-.27.3-.46.57-.42l200.22,32.19c.27.04.46.3.42.57-.03.22-.21.38-.42.42Z"/>
              <path class="cls-2" d="M348.19,121.4s-.03,0-.05,0l-196.18,10.81c-.28.02-.51-.19-.53-.47-.02-.28.19-.51.47-.53l196.18-10.81c.28-.02.51.19.53.47.02.26-.17.48-.42.52Z"/>
            </g>
          </g>
          <path class="cls-3" d="M195.8,195.77s-.09.08-.13.12c.06.02.28.1.65.33-.04-.05-.06-.07-.06-.07,6.76,4.31,10,10.96,10,10.96l3.08-13.43c-1.17-.87-3.64-3.68-5.39-7.38-1.18,2.16-3.81,6.3-8.14,9.47Z"/>
          <polygon class="cls-3" points="195.64 195.88 195.64 195.88 195.64 195.88 195.64 195.88"/>
          <path class="cls-2" d="M146.5,126.91s-.04,0-.06,0c.01,0,.02.01.04.02,0,0,.01,0,.02-.01Z"/>
          <path class="cls-2" d="M146.43,127.89s.05-.03.11-.08c-.07.02-.11.05-.11.08Z"/>
          <polygon class="cls-2" points="146.11 135.6 146.1 135.6 146.11 135.6 146.11 135.6"/>
          <path class="cls-6" d="M195.64,195.88s0,0,0,0c0,0,0,0,.02,0,.05-.04.09-.08.13-.12-.05.04-.1.08-.15.11Z"/>
          <path class="cls-6" d="M195.61,195.94s.04-.03.05-.05c-.01,0-.02,0-.02,0-.02.04-.03.05-.03.05Z"/>
          <path class="cls-6" d="M208.05,224.76c-.18-5.88-1.38-9.76-1.98-12.59-.2-.94-.48-1.86-.85-2.74-.96-2.32-3.04-6.99-5.13-9.56-1.79-2.2-3.07-3.21-3.79-3.65.69.78,7.05,8.3,8.54,20.54,0,0,1.57,15.97,1.14,21.44l2.15-8c0-1.52-.01-3.32-.07-5.43Z"/>
          <path class="cls-6" d="M146.5,126.91s-.01,0-.02.01c-.01,0-.02-.01-.04-.02.02,0,.04,0,.06,0Z"/>
          <path class="cls-6" d="M146.54,127.81c-.06.05-.1.08-.11.08,0-.03.04-.05.11-.08Z"/>
          <polygon class="cls-6" points="146.11 135.6 146.11 135.6 146.1 135.6 146.11 135.6"/>
          <path class="cls-2" d="M144.12,125.24s3.84-.2,6.21,2.23c2.37,2.43,2.25,6.12,1,8.11-1.25,2-3.76,3.41-3.76,3.41l2.74.9s-.08,5.41-4.31,7.95c0,0,.2.71.59.9s1.37.31,1.33.86-.27.86-.24,1.21c.04.35.35.74.04,1.29s.24,1.02,0,1.57-.78,1.57-.63,3.37c.16,1.8.04,2,2.51,7.68,2.47,5.68,3.53,6.5,4.62,9.4,1.1,2.9,1.92,5.84,1.92,5.84,0,0,.2.71,2.59-2.74s4.9-7.29,7.72-9.72c2.82-2.43,2.86-2.94,2.86-2.94,0,0-.31-1.76,1.65-4.9s2.55-3.68,2.59-6.5-.08-3.29.47-6.27c.55-2.98.98-7.21,3.84-10.15,2.86-2.94,6.58-2.35,9.17-1.53s4.62,3.49,5.52,7.68c.9,4.19.16,9.05,1.18,13.09,1.02,4.04,2.39,3.88,3.6,5.99,1.21,2.12,1.53,1.68,2.35,2.39.82.71,4.11,2.98,5.64,6.03,1.53,3.06,3.33,7.41,3.84,9.33.51,1.92-4.47,6.27-4.47,6.27,0,0-5.99,8.54-8.62,9.99,0,0,3.53,3.37,6.78,8.35,3.25,4.98,4.27,16.18,4.55,19.16.27,2.98.28,14.15.28,14.15l-1.64.63s-9.26,3.78-21.72,3.9l-2.04-.15s-1.72-6.47-2.23-12.97c-.51-6.5-1.06-9.52-.04-16.46,1.02-6.94,2.31-10.19,6.31-14.81,4-4.62,3.92-8.23.74-10.93-3.17-2.7-9.87-5.37-12.81-8.19-2.94-2.82-3.37-4.7-3.72-6.31-.35-1.61.24-4.9.24-4.9,0,0-4.23,3.13-4.74,7.17s-.12,5.76-.12,5.76c0,0-3.88,3.68-6.78,5.33-2.9,1.65-4.07,3.29-5.72,2.82-1.65-.47-3.06-2-4.58-7.09-1.53-5.09-3.37-16.22-3.37-16.22,0,0-1.68-7.44-2-8.11-.31-.67-1.68-2.12-1.72-2.82-.04-.71-.63-1.76-.39-2.51.24-.74,0-2.43.51-2.55.51-.12,1.49-.35,1.61-.9.12-.55-.78-1.49-.78-1.49,0,0-1.76-1.53-2.47-3.96-.71-2.43-.08-3.21-.08-3.21l2.59-.47s.31-.71-.39-1.21c-.71-.51-2.66-2.04-3.41-4.82-.74-2.78.67-7.52,5.21-7.95Z"/>
          <path class="cls-6" d="M184.77,145.96c.12-.05.09-.18-.09-.28,0,0-.35-.38-.63-.4-.29-.02-.47.22-.24.38s.85.35.96.31Z"/>
          <path class="cls-6" d="M183.28,149.03s-.82-.1-1.2.21.02.35.42.4c.4.05,1.04-.07,1.46,0,.42.07.7,0,.65-.15-.05-.16-.71-.49-1.33-.47Z"/>
          <path class="cls-6" d="M185.64,148.69c.05-.12-.52-.53-.82-.73-.31-.21-.92-.63-1.8-.55-.87.07-1.59.4-1.95.73-.35.32-.64.51-.73.53-.08.02-.16.21.32.18.49-.02.97-.5,1.12-.59.15-.09.21-.13.21-.13,0,0,.81-.37,1.61-.14.8.23,1.25.56,1.46.65.21.09.52.18.57.07Z"/>
          <g>
            <path class="cls-2" d="M233.12,117c-13.59-13.59-31.67-21.08-50.9-21.08s-37.3,7.49-50.9,21.08c-13.59,13.6-21.08,31.67-21.08,50.9s7.49,37.3,21.08,50.9c13.59,13.59,31.67,21.08,50.9,21.08s37.3-7.49,50.9-21.08c13.6-13.59,21.08-31.67,21.08-50.9s-7.49-37.3-21.08-50.9ZM182.22,239.11c-39.27,0-71.21-31.95-71.21-71.21s31.95-71.21,71.21-71.21,71.21,31.95,71.21,71.21-31.95,71.21-71.21,71.21Z"/>
            <path class="cls-2" d="M224.67,125.45c-11.34-11.34-26.41-17.58-42.45-17.58s-31.11,6.24-42.45,17.58c-11.34,11.34-17.58,26.41-17.58,42.45s6.24,31.11,17.58,42.45c11.34,11.34,26.41,17.58,42.45,17.58s31.11-6.24,42.45-17.58c11.34-11.34,17.58-26.41,17.58-42.45s-6.24-31.11-17.58-42.45ZM182.22,227.16c-32.68,0-59.26-26.59-59.26-59.26s26.59-59.26,59.26-59.26,59.27,26.59,59.27,59.26-26.59,59.26-59.27,59.26Z"/>
          </g>
          <g>
            <path class="cls-2" d="M119.67,167.14c0,.6-.13,1.12-.37,1.56-.24.44-.57.77-1,1-.43.23-.94.34-1.53.33-.47,0-.89-.09-1.26-.24-.37-.15-.7-.37-.97-.65-.27-.28-.47-.61-.61-1-.14-.39-.2-.82-.2-1.29,0-.26.03-.53.09-.79.05-.27.13-.52.22-.76.09-.24.2-.45.33-.63l1.18.65v.2s-1.48,1.23-1.48,1.23l.02-1.04h.78c-.18.11-.32.25-.41.43-.1.18-.15.39-.15.62,0,.31.09.6.29.85.2.25.46.45.8.61.34.15.72.23,1.15.24.47,0,.88-.06,1.24-.21.35-.15.63-.37.83-.65.2-.28.3-.62.31-1.01,0-.29-.06-.53-.19-.73-.13-.2-.34-.36-.61-.49l.16-.31c.44.13.79.38,1.04.75.25.37.37.82.36,1.35ZM119.71,164.75l-.81,1.25-1.39-.02-.57.66h-.18s.04-2.55.04-2.55h.18s.49.45.49.45l2.24.04v.19Z"/>
            <path class="cls-2" d="M120.21,159.88c-.08.61-.27,1.13-.57,1.56-.3.42-.68.73-1.15.92-.47.19-1,.25-1.59.17-.61-.08-1.12-.28-1.53-.6-.41-.32-.71-.72-.89-1.22-.18-.5-.23-1.07-.14-1.71.08-.62.27-1.14.57-1.56.3-.42.68-.73,1.15-.92.47-.19,1-.25,1.6-.17.6.08,1.11.28,1.53.6.41.32.71.72.89,1.22.18.5.23,1.07.14,1.71ZM119.66,159.7c.04-.3-.01-.58-.16-.82-.15-.24-.38-.44-.7-.6-.32-.16-.72-.27-1.19-.33-.52-.07-.97-.07-1.36.01s-.7.22-.94.43c-.24.21-.38.47-.42.8-.04.31,0,.58.15.82.15.24.38.44.7.59.32.16.72.27,1.19.33.51.07.96.07,1.36-.01.39-.08.71-.22.94-.43.24-.21.38-.47.42-.79Z"/>
            <path class="cls-2" d="M120.76,155.54l-.18-.04-.39-.7-4.09-1.03-.68.43-.18-.04.5-1.97,5.51,1.39-.5,1.97ZM118.13,153.37l-.08-.02.19-1.3c.04-.25,0-.46-.12-.63-.12-.17-.32-.29-.58-.35-.64-.16-1.04.09-1.21.76l-.28,1.12-.46-.12.32-1.27c.2-.78.44-1.32.73-1.64.29-.31.65-.42,1.08-.31.44.11.72.37.84.79.12.41.08,1.01-.12,1.79l-.3,1.18ZM121.08,154.28l-.46-.12.28-1.11c.11-.42.09-.76-.05-1.03-.14-.26-.39-.44-.77-.54-.35-.09-.64-.06-.88.08-.24.14-.4.38-.48.73l-.28,1.13-.4-.1.4-1.58c.18-.71.43-1.22.76-1.52.33-.3.72-.4,1.18-.28.37.09.66.28.86.55.2.27.31.63.34,1.07.02.44-.04.98-.2,1.59l-.29,1.13ZM118.64,151.41l-.29-.07.08-.3.29.07-.08.3Z"/>
            <path class="cls-2" d="M122.47,149.17l-.17-.06-.33-.73-3.99-1.36-.71.37-.17-.06.85-2.48.17.06.33.73,3.99,1.36.71-.37.17.06-.85,2.48Z"/>
            <path class="cls-2" d="M123.72,145.55l-.17-.07-.27-.76-3.87-1.67-.74.32-.17-.07.81-1.87,5.21,2.25-.81,1.87ZM120.8,139.49l-1.29,2.46-.36-.15,1.1-2.55.54.24ZM121.5,139.82l-1.37.69-.35-.15.38-1.16.06-.14,1.36.58-.08.19ZM122.79,141.11l-.94,1.87-.34-.15.71-1.97.57.25ZM123.34,141.32l-.98.43-.32-.14-.35-1.01.08-.19,1.65.71-.08.19ZM124.37,144.06l-.36-.15.91-2.63.54.24-1.1,2.55ZM125.02,142.55l-.35-.15-.54-1.61.08-.19,1.37.65-.56,1.3Z"/>
            <path class="cls-2" d="M126.15,140.04l-.16-.09-.2-.78-3.68-2.06-.77.24-.16-.09.99-1.77,4.32,2.41.77-.24.16.09-1.28,2.29ZM124.57,137.87l-.39-.22.61-1.09c.17-.31.21-.61.12-.9-.09-.3-.29-.53-.59-.7-.3-.17-.59-.21-.87-.12-.28.09-.51.28-.68.6l-.54.96-.42-.23.79-1.42c.36-.65.75-1.07,1.15-1.27.41-.2.83-.18,1.27.07.45.25.69.62.73,1.11.04.49-.12,1.06-.48,1.71l-.02.04.1.06-.79,1.41ZM128.06,136.61l-3,.09.16-1.39,3.49-.09-1.28.19,1.33-.42.16.09-.86,1.54Z"/>
            <path class="cls-2" d="M129.45,134.23l-.15-.1-.11-.8-3.16-2.46-1.01.09-.15-.11.55-.77,4.26,2.54.79-.16.15.11-1.17,1.65ZM132.06,130.58l-5.79.31-.93-.66.48-.67,5.52-.29.13.4-3.5-1.86-.79.16-.15-.1,1.17-1.65.15.1.11.8,4.04,2.87-.43.61Z"/>
            <path class="cls-2" d="M135.73,126.33c-.42.46-.87.78-1.35.97-.49.18-.98.22-1.47.12-.5-.11-.97-.36-1.41-.76-.46-.41-.77-.86-.93-1.36-.16-.49-.18-1-.04-1.51.13-.52.41-1.01.84-1.49.42-.47.87-.79,1.35-.97.48-.18.97-.22,1.47-.12.49.1.96.36,1.41.76.45.41.76.86.93,1.35.16.49.18,1,.05,1.52-.13.52-.41,1.01-.84,1.49ZM135.38,125.86c.21-.23.32-.48.33-.77.01-.28-.07-.58-.24-.89-.18-.31-.44-.62-.8-.94-.39-.35-.76-.6-1.13-.76s-.7-.21-1.01-.18c-.31.04-.58.18-.8.42-.21.23-.32.49-.34.77s.07.57.24.88c.18.31.44.63.8.95.38.34.76.6,1.13.75.37.16.71.22,1.02.18.31-.04.58-.18.79-.42Z"/>
            <path class="cls-2" d="M140.78,121.04l-.11-.14.11-.8-2.63-3.3-.8-.07-.11-.14,1.59-1.27,3.54,4.44-1.59,1.27ZM141.94,120.12l-.3-.37.89-.71c.29-.23.48-.51.58-.83.09-.32.09-.66-.02-1.02-.11-.37-.31-.73-.6-1.11-.31-.39-.63-.67-.96-.86-.33-.19-.67-.27-1-.26-.33.02-.64.14-.93.37l-.91.72-.3-.37,1.03-.82c.51-.41,1.03-.67,1.55-.8.52-.12,1.01-.11,1.47.05.46.16.87.46,1.22.9.27.33.45.69.54,1.07.09.38.1.77.03,1.15-.07.39-.23.77-.46,1.13-.23.37-.54.71-.93,1.01l-.91.73Z"/>
            <path class="cls-2" d="M146.5,116.6l-.1-.15.2-.78-2.26-3.55-.79-.15-.1-.15,1.71-1.09,3.05,4.79-1.71,1.09ZM147.47,109.95l-2.45,1.32-.21-.33,2.34-1.49.32.5ZM147.87,110.62l-1.52-.2-.2-.32.97-.75.13-.08.8,1.24-.17.11ZM148.21,112.41l-1.83,1.02-.2-.31,1.69-1.23.34.53ZM148.55,112.89l-1.05-.19-.19-.29.27-1.03.17-.11.96,1.51-.17.11ZM147.87,115.73l-.21-.33,2.23-1.66.32.5-2.34,1.49ZM149.25,114.85l-.2-.32.45-1.63.17-.11.77,1.3-1.19.76Z"/>
            <path class="cls-2" d="M151.61,113.42l-.08-.16.27-.76-1.92-3.75-.77-.23-.08-.16,2.35-1.2.08.16-.28.76,2.25,4.41-1.81.92ZM153.05,112.69l-.18-.34,2.33-1.42.27.53-2.43,1.24ZM154.38,112.01l-.17-.34.48-1.79.18-.09.79,1.57-1.28.65Z"/>
            <path class="cls-2" d="M159.53,109.7l-.06-.17.37-.71-1.37-3.99-.73-.33-.06-.17,1.92-.66,1.85,5.37-1.92.66ZM162.03,103.47l-2.69.71-.13-.37,2.62-.9.19.56ZM162.17,106.03l-2.02.56-.12-.35,1.93-.8.2.59ZM162.26,104.21l-1.43-.55-.12-.36,1.11-.5.15-.05.49,1.4-.19.07ZM161.06,109.18l-.13-.37,2.56-1.1.19.56-2.62.9ZM162.39,106.57l-.97-.43-.11-.33.5-.94.19-.07.58,1.7-.19.07ZM162.61,108.65l-.12-.36.82-1.48.19-.07.45,1.45-1.34.46Z"/>
            <path class="cls-2" d="M167.43,107.41c-.26.06-.51.1-.77.11-.26.01-.51,0-.77-.03-.26-.03-.5-.09-.74-.16l.26-1.29.2-.05,1.53,1.13-.98.24-.19-.78c.13.14.32.24.58.28.26.04.55.02.84-.05.32-.08.55-.21.69-.39.14-.18.18-.41.11-.67-.05-.22-.2-.37-.45-.47-.25-.09-.64-.16-1.18-.19-.45-.03-.82-.09-1.11-.18s-.51-.22-.67-.4c-.16-.18-.27-.41-.34-.69-.13-.53-.03-.99.28-1.4.31-.4.81-.69,1.47-.85.22-.05.46-.09.71-.1.25-.01.5,0,.75.03.25.03.49.09.72.16l-.34,1.25-.2.05-1.49-1.08,1.03-.25.18.79c-.14-.15-.32-.26-.55-.31-.23-.05-.47-.05-.72.01-.27.06-.47.18-.61.35-.14.17-.18.35-.13.55.05.21.2.37.45.46.25.1.64.16,1.18.19.45.03.82.08,1.11.18.29.09.51.22.67.4.16.17.27.4.34.69.09.38.08.74-.04,1.07-.12.33-.34.61-.65.85-.31.24-.71.42-1.18.53Z"/>
            <path class="cls-2" d="M170.31,102.41l-.21-1.67.18-.03,1.21-.05.12.37-1.11,1.36-.2.03ZM172.26,106.28l-.03-.18.55-.63-.66-4.74.62.14-2.36.54-.08-.59,5.03-.7.08.59-2.42.13.56-.3.66,4.74.7.46.03.18-2.69.38ZM175.55,101.68l-1.44-1v-.38s1.2-.28,1.2-.28l.19-.03.26,1.67-.2.03Z"/>
            <path class="cls-2" d="M176.54,105.68v-.18s.59-.72.59-.72l-.39.79,2.24-5.67.92-.04,2.7,5.47-.46-.76.66.67v.18s-2.59.11-2.59.11v-.18s.78-.71.78-.71l.11.75-2.34-4.75h.29s-1.16,4.88-1.16,4.88l-.06-.74.85.63v.18s-2.13.09-2.13.09ZM177.88,103.97l-.02-.48,3.13-.13.02.48-3.13.13ZM178.83,100.79l-.68-.68v-.18s1.03-.04,1.03-.04l-.35.9Z"/>
            <path class="cls-2" d="M183.75,105.44v-.18s.64-.51.64-.51l.31-4.2-.54-.59v-.18s2.04.15,2.04.15l-.41,5.66-2.03-.15ZM185.23,105.54l.03-.48,1.14.08c.37.03.7-.04.99-.21.28-.17.51-.42.68-.76.17-.34.27-.75.31-1.22.04-.49,0-.92-.12-1.28-.12-.36-.31-.65-.56-.87-.25-.21-.56-.33-.93-.36l-1.16-.08.03-.48,1.31.1c.65.05,1.21.2,1.67.46.46.26.81.61,1.05,1.04.23.43.33.93.29,1.49-.03.43-.14.81-.33,1.16-.19.34-.44.63-.76.87-.32.24-.69.41-1.11.52-.42.11-.88.15-1.37.11l-1.17-.09Z"/>
            <path class="cls-2" d="M194.24,106.79c-.61-.12-1.12-.34-1.52-.67-.41-.32-.69-.72-.85-1.2-.16-.48-.19-1.01-.07-1.6.12-.6.35-1.1.69-1.49.34-.39.77-.66,1.28-.81.51-.15,1.08-.16,1.71-.04.61.12,1.12.34,1.53.67.4.32.69.72.85,1.2.16.48.19,1.01.07,1.6-.12.6-.35,1.09-.69,1.49-.34.39-.77.67-1.28.82-.51.15-1.08.16-1.71.04ZM194.46,106.25c.3.06.58.02.83-.11.25-.13.46-.35.64-.66.18-.31.31-.7.4-1.17.1-.51.12-.96.07-1.36-.05-.39-.18-.71-.37-.96-.19-.25-.45-.4-.77-.47-.31-.06-.58-.03-.83.11-.25.13-.46.35-.63.66-.18.31-.31.7-.4,1.17-.1.51-.12.96-.07,1.35.05.4.18.72.37.97.19.25.45.4.77.47Z"/>
            <path class="cls-2" d="M201.37,108.42l.06-.17.74-.31,1.48-3.94-.35-.72.06-.17,1.9.72-2,5.32-1.9-.72ZM202.75,108.94l.17-.45,1.07.4c.35.13.68.16,1.01.07.32-.08.61-.26.87-.54.26-.28.47-.64.64-1.09.17-.46.25-.88.24-1.27-.01-.38-.11-.71-.29-.99s-.45-.48-.79-.61l-1.09-.41.17-.45,1.23.46c.61.23,1.1.54,1.47.92.37.38.61.81.71,1.29.1.48.05.98-.15,1.51-.15.4-.37.74-.65,1.01-.28.28-.6.48-.98.62-.37.14-.77.2-1.21.19-.44-.01-.88-.1-1.35-.28l-1.09-.41Z"/>
            <path class="cls-2" d="M208.11,111.06l.08-.16.77-.23,1.89-3.77-.28-.75.08-.16,1.82.91-2.54,5.08-1.82-.91ZM209.56,111.78l.17-.35,2.57,1.06-.27.53-2.48-1.24ZM212.58,110.37l-1.81-1.05.17-.33,1.93.82-.28.56ZM211.02,112.52l.17-.34,1.63-.45.18.09-.72,1.33-1.27-.63ZM214.31,108.47l-2.39-1.43.17-.35,2.48,1.24-.27.53ZM212.35,110.91l-.38-1,.15-.31,1.02-.3.18.09-.8,1.6-.18-.09ZM213.94,109.16l-.61-1.41.17-.34,1.14.44.14.07-.66,1.33-.18-.09Z"/>
            <path class="cls-2" d="M218.33,117.12c-.49-.35-.85-.74-1.08-1.19-.23-.44-.31-.91-.26-1.39.05-.49.25-.97.59-1.45.27-.38.57-.68.91-.9.34-.22.7-.37,1.08-.43.38-.07.77-.05,1.17.06.4.1.79.29,1.17.56.22.15.42.33.61.52.19.19.36.4.51.61.15.21.26.42.34.63l-1.21.61-.16-.11-.18-1.91.85.6-.44.64c.01-.21-.03-.4-.12-.58-.09-.18-.23-.34-.43-.48-.26-.18-.54-.26-.86-.24-.32.02-.64.13-.95.32-.32.19-.6.47-.84.82-.27.39-.45.77-.52,1.14-.08.38-.05.73.07,1.05.12.33.34.6.66.83.24.17.47.25.71.26.24,0,.49-.07.75-.23l.17.31c-.36.29-.76.44-1.2.43s-.89-.16-1.32-.46ZM220.28,118.5l-.57-1.37.8-1.14-.22-.84.1-.15,2.08,1.47-.1.15-.65.16-1.29,1.83-.15-.11Z"/>
            <path class="cls-2" d="M228.23,118.67l-.14-.92.12-.14,1.6,1.41-.12.14-.86.04-1.85,2.1c-.3.34-.63.57-.99.69-.36.12-.73.14-1.12.05-.38-.09-.75-.29-1.09-.59-.61-.54-.96-1.1-1.03-1.67s.12-1.12.58-1.65l1.92-2.17-.07-.8.12-.14,1.96,1.73-.12.14-.8.03-1.75,1.98c-.37.42-.57.8-.59,1.15-.02.35.13.66.45.95.32.29.66.4,1,.34.34-.06.7-.3,1.07-.72l1.72-1.94Z"/>
            <path class="cls-2" d="M226.31,123.52l.13-.12h.94s-.85.2-.85.2l5.78-1.95.62.68-2.44,5.59.28-.84-.09.94-.13.12-1.76-1.92.13-.12,1.05.14-.5.56,2.12-4.85.19.21-4.49,2.27.53-.52.07,1.06-.13.12-1.45-1.58ZM228.48,123.45l.35-.32,2.12,2.31-.35.32-2.12-2.31ZM231.52,122.12l.08-.96.13-.12.7.76-.92.32Z"/>
            <path class="cls-2" d="M231.15,128.89l.15-.11.79.15,3.33-2.22.23-.98.15-.11.56.76-3.76,3.23-.1.8-.15.11-1.19-1.64ZM233.79,132.53l1.55-5.59.92-.67.49.67-1.48,5.32h-.42s2.88-2.73,2.88-2.73l.1-.8.15-.11,1.19,1.64-.15.11-.79-.15-4,2.92-.44-.61Z"/>
            <path class="cls-2" d="M234.97,134.18l.16-.09.92.19-.88.02,6.06-.64.46.8-3.6,4.92.46-.76-.29.9-.16.09-1.3-2.25.16-.09.99.37-.61.44,3.13-4.27.14.25-4.88,1.23.63-.39-.17,1.05-.16.09-1.07-1.86ZM237.1,134.58l.41-.24,1.56,2.72-.41.24-1.56-2.72ZM240.36,133.95l.29-.92.16-.09.52.9-.96.11Z"/>
            <path class="cls-2" d="M239.15,142.28c-.1-.22-.16-.47-.2-.74-.03-.27-.03-.54,0-.81.04-.27.1-.52.19-.74l1.32.17.08.19-1.09,1.51-.38-.84,1.17-.52c-.3.28-.49.54-.58.78-.08.24-.07.49.05.76.1.23.27.36.52.4.25.04.54-.01.88-.16l2.98-1.33.27-.76.17-.07,1.07,2.39-.17.07-.74-.31-2.76,1.23c-.6.27-1.14.29-1.63.08-.49-.21-.88-.64-1.17-1.3Z"/>
            <path class="cls-2" d="M246.89,148.58l.35-.87.17-.06.66,2.03-.17.06-.76-.4-2.66.87c-.43.14-.83.17-1.2.1-.37-.08-.7-.25-.99-.52s-.5-.62-.64-1.06c-.25-.78-.27-1.43-.05-1.96.22-.53.67-.91,1.33-1.13l2.75-.9.34-.73.17-.06.82,2.49-.17.06-.71-.38-2.51.82c-.53.17-.89.41-1.09.7-.19.29-.22.64-.09,1.05.14.41.37.68.69.79.33.12.76.09,1.29-.09l2.46-.81Z"/>
            <path class="cls-2" d="M242.78,151.79l.18-.04.82.46-.85-.25,5.97,1.22.2.9-4.92,3.6.67-.58-.55.77-.18.04-.55-2.54.18-.04.83.65-.72.23,4.27-3.12.06.28-5.02-.3.72-.18-.48.95-.18.04-.46-2.09ZM244.69,152.83l.47-.1.67,3.06-.47.1-.67-3.06ZM247.99,153.21l.55-.79.18-.04.22,1.01-.95-.19Z"/>
            <path class="cls-2" d="M244.3,159.53l.18-.02.62.56,4.75-.56-.15.61-.49-2.37.59-.07.6,5.04-.59.07-.08-2.42.29.57-4.75.56-.47.69-.18.02-.32-2.7ZM248.21,157.66l1.68-.17.02.18.03,1.22-.37.11-1.34-1.13-.02-.2ZM248.84,162.92l1.03-1.42.38.02.26,1.19.02.19-1.67.22-.02-.2Z"/>
            <path class="cls-2" d="M244.76,167.69c0-.62.11-1.16.35-1.62s.57-.82,1.01-1.08c.44-.26.95-.39,1.55-.39.61,0,1.15.12,1.6.37s.8.62,1.05,1.09c.25.47.38,1.03.38,1.67,0,.63-.11,1.17-.35,1.63-.24.46-.57.82-1,1.07-.43.26-.95.39-1.56.39-.61,0-1.14-.12-1.6-.37-.45-.25-.81-.62-1.06-1.09-.25-.47-.38-1.03-.38-1.67ZM245.34,167.79c0,.31.09.57.27.79.18.22.44.38.78.49.34.11.75.16,1.22.16.52,0,.97-.07,1.34-.2.37-.13.66-.32.87-.55.2-.24.3-.52.3-.85,0-.31-.09-.58-.27-.79-.18-.22-.44-.38-.78-.49-.34-.11-.75-.16-1.23-.16-.52,0-.96.07-1.34.2-.38.13-.67.32-.87.56-.2.24-.3.52-.3.85Z"/>
          </g>
          <g>
            <path class="cls-2" d="M131.68,212.7l.1-.29,1.29.08c.66.04,1.21.06,1.65.05.43-.01.78-.06,1.05-.14.27-.08.48-.19.65-.34.26-.23.4-.47.44-.74.04-.27-.04-.51-.24-.73-.14-.15-.3-.26-.5-.32-.2-.06-.39-.07-.59-.03l.59-.47.59.67-1.65.2-.13-.15.42-1.26c.23.07.44.17.64.28s.4.24.58.39c.19.15.36.31.51.48.5.57.8,1.08.89,1.54.09.46-.03.83-.36,1.12-.15.13-.33.22-.55.28-.22.06-.49.09-.82.08-.33,0-.72-.05-1.19-.13-.47-.08-1.03-.2-1.68-.35l-.56-.07.23-.12,1.6,1.81,1.17.09.13.15-1.39,1.19-2.89-3.27Z"/>
            <path class="cls-2" d="M139.07,220.42c-.4-.35-.67-.74-.81-1.16-.14-.42-.16-.86-.04-1.3.11-.45.36-.88.73-1.31.4-.46.83-.79,1.28-.98.45-.19.9-.25,1.34-.18.45.07.87.28,1.27.63.4.35.67.73.81,1.15.14.42.16.86.04,1.3-.11.45-.36.88-.73,1.31-.4.46-.82.78-1.27.98-.45.2-.9.26-1.35.18-.45-.07-.87-.28-1.27-.63ZM139.4,220.04c.18.16.38.22.61.21.23-.02.48-.13.76-.33s.59-.49.93-.88c.53-.61.87-1.12,1-1.55.14-.42.07-.75-.2-.99-.18-.16-.39-.23-.61-.21-.23.02-.48.13-.76.33-.28.2-.59.49-.93.88-.53.61-.86,1.12-1,1.55-.13.43-.07.76.2.99Z"/>
            <path class="cls-2" d="M143.81,224.09l.03-.31,1.27-.24c.66-.12,1.19-.24,1.61-.36.42-.12.74-.25.98-.39.24-.14.42-.3.55-.49.19-.28.28-.56.25-.82-.03-.27-.17-.48-.41-.65-.17-.12-.36-.18-.56-.19-.21-.01-.4.03-.58.12l.46-.6.74.5-1.55.59-.16-.11.1-1.32c.24.01.47.05.69.11.22.06.44.14.66.23.22.1.42.21.61.34.63.43,1.04.85,1.24,1.27s.18.81-.07,1.17c-.11.16-.26.3-.46.41s-.45.2-.77.28c-.32.07-.71.13-1.19.17-.47.04-1.04.06-1.71.07l-.56.07.2-.17,1.99,1.36,1.15-.2.17.11-1.06,1.49-3.6-2.46Z"/>
            <path class="cls-2" d="M151.06,227.21v-.27s3.72-2.48,3.72-2.48l1.67.86-.09.18-4.94,1.62-.09.14-.27-.05ZM151.06,227.21l.52-.34,4.29,2.2-.25.48-4.56-2.34ZM152.03,229.19l.08-.16.89-.07,1.04-2.04.2-.07,1.08.55-1.12,2.18.47.77-.08.16-2.57-1.32Z"/>
          </g>
          <g>
            <path class="cls-2" d="M212.38,229.46l-.26-.17.38-1.23c.2-.64.35-1.16.44-1.59.09-.42.13-.77.12-1.05-.01-.28-.07-.51-.17-.71-.16-.3-.36-.5-.61-.6-.25-.1-.5-.08-.77.06-.18.1-.33.23-.43.41-.11.18-.16.36-.17.56l-.31-.68.79-.42-.2,1.64-.17.09-1.12-.71c.12-.2.27-.39.42-.56.16-.17.33-.33.52-.47.19-.15.38-.27.59-.38.67-.35,1.24-.52,1.71-.5.47.02.8.22,1,.61.09.17.14.37.15.6,0,.23-.03.5-.12.81s-.22.69-.41,1.13c-.19.44-.44.95-.74,1.54l-.21.53-.06-.25,2.13-1.12.36-1.11.18-.09.82,1.63-3.86,2.03Z"/>
            <path class="cls-2" d="M221.63,224.15c-.44.3-.88.47-1.32.51s-.87-.06-1.28-.28c-.41-.22-.77-.56-1.09-1.02-.35-.5-.56-1-.64-1.48-.08-.48-.03-.93.15-1.35.18-.42.49-.78.92-1.08.43-.3.87-.47,1.31-.5.44-.03.87.06,1.28.28.41.22.77.56,1.09,1.02.35.5.56.99.64,1.47.08.48.03.93-.15,1.35-.18.42-.48.78-.92,1.08ZM221.34,223.74c.19-.13.31-.31.35-.54.04-.22,0-.5-.14-.82-.13-.32-.34-.69-.63-1.11-.46-.66-.88-1.11-1.26-1.35-.38-.23-.71-.25-1.01-.05-.2.14-.32.32-.35.54-.03.22.01.5.14.82.12.32.33.69.63,1.11.46.66.88,1.11,1.26,1.35.38.23.72.25,1.01.05Z"/>
            <path class="cls-2" d="M225.65,217.12l-.15-.17c.17-.15.29-.32.36-.5.07-.19.09-.37.07-.56-.02-.19-.1-.35-.22-.5-.17-.19-.38-.29-.62-.29-.25,0-.48.09-.69.28-.17.15-.29.31-.39.5-.09.19-.14.39-.16.6l-.41-.51.67-.72.21,1.75-.15.13-1.25-.43c.11-.33.28-.65.5-.96.22-.31.48-.6.8-.88.33-.3.66-.51.97-.65s.61-.19.87-.17c.26.03.49.14.66.34.29.33.34.72.16,1.18-.18.46-.6.98-1.24,1.55ZM227.98,219.18c-.33.29-.66.52-.99.69s-.69.29-1.07.35l-.29-1.31.15-.13,1.74.44-.75.57-.49-.5c.22.05.43.04.63-.02.2-.06.4-.17.59-.34.16-.14.27-.3.33-.48.06-.18.07-.36.03-.56-.04-.19-.13-.36-.27-.52-.15-.17-.32-.28-.52-.33-.2-.06-.41-.06-.62,0s-.41.15-.59.31l-.29-.33c.69-.61,1.3-.97,1.82-1.09.52-.11.94.02,1.28.4.23.26.35.54.37.86.02.32-.05.65-.23.99-.18.34-.45.67-.82,1ZM226.25,216.67l-.15-.17.28-.25.15.17-.28.25Z"/>
            <path class="cls-2" d="M234.15,213.01c-.35.4-.74.67-1.16.81-.42.14-.86.15-1.3.04-.45-.12-.88-.36-1.31-.73-.46-.41-.78-.83-.98-1.28-.19-.45-.25-.9-.18-1.34.07-.45.29-.87.64-1.27.35-.39.73-.66,1.16-.8.42-.14.86-.15,1.3-.04.45.12.88.36,1.31.73.46.4.78.83.97,1.28.19.45.25.9.18,1.35-.07.45-.29.87-.63,1.26ZM233.77,212.67c.16-.18.23-.38.21-.61-.02-.23-.13-.48-.33-.76-.2-.28-.49-.59-.87-.93-.61-.53-1.12-.87-1.54-1.01-.42-.14-.75-.07-.99.19-.16.18-.23.38-.21.61.02.23.13.48.33.76s.49.59.87.93c.61.53,1.12.87,1.55,1.01.43.14.76.07.99-.19Z"/>
          </g>
          <g>
            <path class="cls-6" d="M185.34,207.03s-5.71,16.36,3.72,34.84l3.59-.39s-4.43-5.71-6.74-16.68c0,0-2.25-11.61-.58-17.77Z"/>
            <path class="cls-6" d="M194.59,173c-6.56-2.67-9.77-4.4-9.77-4.4.36.58,3.92,3,7.07,4.37,3.16,1.37,6.25,3.79,6.25,3.79,4.77,4.19,3.82,8.19,3.82,8.19,1.85-4.92-.82-9.29-7.38-11.96Z"/>
            <path class="cls-6" d="M233.92,139.77c-.46-1.03-1.27-.77-1.27-.77l-1.04.33-5.16,1.52,1.42-6.98s.27-.99.33-1.8c.06-.83-.83-1.73-2.48-3.44-1.41-1.46-2.37-2.01-2.37-2.01l-.38,1.67-3.24,14.75-13.78,4.5s-2.39.74-3.67,2.63c-1.28,1.89-1.57,2.77-1.01,3.14,0,0,.13.24,1.73-.21,1.6-.45,15.78-4.31,15.78-4.31l-7.45,34.67c-.3-.81-.6-1.67-.86-2.45-.81-2.44-2.68-9.66-6.75-13.96-2.12-2.24-3.74-3.41-4.8-4.02-.76-1.64-1.88-2.99-2.75-4.1-1.55-1.97-1.96-2.99-2.24-5.7-.28-2.71.02-4.98-.88-8.63-.3-1.23-.65-2.23-.97-3.01-.63-1.54-1.19-2.25-1.19-2.25-2.38-2.93-5.93-3.63-5.93-3.63,3.91-.11,6.01,2.88,6.01,2.88,0,0,0-.03-.02-.09-.11-.37-.64-1.8-2.75-3.23-2.44-1.66-4.98-1.46-4.98-1.46-7.65.2-8.6,7.07-9.31,9.7-.71,2.63-1.42,6.62-1.42,9.57s-1.48,4.87-1.48,4.87c-2.41,2.74-2.9,6.56-2.9,6.56,0,0-1.09.98-3.67,3.67-2.4,2.5-7.18,9.57-7.81,10.51-.1-.54-.44-2.18-1.35-4.29,0,0-1.64-3.41-2.92-5.62-1.28-2.21-3.71-7.8-4.02-8.67-.31-.87-.97-2.74-.71-4.28,0,0,.27-1.09.41-1.35.14-.26-.03-.63-.03-.63,0,0,.42-.64.05-1.31,0,0,.52-.93.05-2,0,0,.46-.15.5-.91.04-.76-.91-1.04-.91-1.04,0,0-.75-.55-1.13-.74,0,0,2.67-1.59,3.46-4.03.79-2.44.74-3.16.74-3.16,0,0,.33.1.46-.05.14-.15.33-.6-.11-.89-.41-.27-1.63-.72-2.58-.86,2.52-1.21,4.25-3.78,4.25-6.75,0-1.29-.33-2.5-.9-3.56-.21-.4-.47-.79-.78-1.16-1.37-1.68-3.46-2.76-5.8-2.77,0,0-.01,0-.01,0-.18,0-.36,0-.53.02,0,0,0,.01,0,.02-7.11.63-7.14,7.16-7.14,7.16,0,0,.04.59.28,1.45.33,2.11,1.53,3.92,3.23,5.06-.65.09-2.11.34-2.71.75,0,0-.11.68.08.79s.41.12.41.12c0,0-.18,2.48.83,4.65,1.01,2.17,2.75,3.23,2.75,3.23,0,0-.94.05-1.42.49-.48.44-.38.89-.38,1.06s.01.4-.15.56c-.16.16-.41.71-.11,1.34,0,0,.11.3-.03.53-.14.23-.16.7-.04.98.12.29.19.9.18,1.04s.01,1.01.55,1.89c.53.89,1.4,1.58,2.3,5.19.9,3.61,2.14,10.21,2.14,10.21,0,0,.86,5.41,1.02,6.34.13.75,1.46,5.29,2.06,7.14,0,.07,0,.14.03.21.6,1.86,2.46,6.51,7.39,4.05,4.92-2.46,11.32-8.1,11.32-8.1-.93-2.08-.16-7.11-.16-7.11,0,0,.11,3.06,1.04,6.95.93,3.88,4.54,7.93,5.53,12.64.98,4.7-1.53,4.49-4.7,14.55-3.17,10.07-4,17.31-4,17.31-.22,5.11-.13,13.02-.13,13.02l.13,1.84s6.41,2.16,19.17,2.07c-.07-.15-.16-.35-.24-.61-.83-2.4-2.26-9.27-2.72-14.14-.5-5.39-.79-10.5.28-16.81,1.07-6.31,4.79-11.35,6.34-12.86,1.55-1.51,3.94-3.85,3.09-7.47-.85-3.63-3.82-5.36-8.73-8.1-4.92-2.74-6.87-4.45-6.87-4.45-5.11-4.13-3.66-10.15-3.66-10.15-.25,6.24,8.51,11.29,13.65,13.18,5.14,1.89,7.6,4.45,7.6,4.45,5.19,5.03,3.27,9.59,2.74,10.6.03.03.03.02.06.05,3.36-3.08,5.47-8.14,3.98-12.16-1.51-4.1-4.13-5.61-10.78-9.55-6.65-3.94-9.32-8.72-9.32-8.72-1.41-2.39-1.51-3.61-1.5-4.89.01-1.28-.17-3.04,1.78-4.16,1.94-1.12,2.63-1.03,3.59-1.38.97-.35,4.36-2.44,4.36-2.44,0,0-.66.19-1.33.13-.67-.06-1.28-.59-2.7-1.1-1.41-.51-3.72.9-4.37,1.19-.65.29-.97-.8-1.14-1.36-.18-.55-1.06-2.46-1.46-3.53-.4-1.07-.28-1.53.14-2.16.42-.62,1.86-1.87,3.03-2.4,1.2-.54,1.38-.12,1.48.42.11.58.06,1.52-.17,2.07-.18.45.09.45.46.33.39-.13.94-.64.94-1.18s-.13-3.02-.13-3.02c-2.67.08-4.23,1.12-5.03,1.61-.8.49-1.83,1.31-1.38.55s1.97-1.85,1.97-1.85c-1.34.62-2.38,1.87-2.6,1.94-.22.07-.35-.15.46-1.03.81-.87,2.16-1.69,2.16-1.69,0,0-.28-.01-1.23.59-.94.6-1.8,1.26-1.93,1.04-.13-.22.33-.85.33-.85,1.1-1.79,4.36-4.36,8.44-3.94,4.08.42,6.75,3.94,6.81,4.38.06.45-.32.35-.91-.2-.59-.55-1.77-1.04-1.77-1.04.95.68,2.88,2.47,3.03,2.78.15.31.02.66-.46.06-.48-.6-1.44-1.18-1.44-1.18.85.78,1.68,1.8,1.59,2.2-.09.4-.39.17-.64-.14s-1.26-1.21-1.26-1.21c-2.52-2.06-5.59-2.06-5.59-2.06,0,0-.07.7.57,1.65.64.95,1.72.78,1.99.49s.44-.79,1.57-.01c1.13.78,2.28,2.41,2.28,2.41,0,0,.12,1.59.12,2.84s-.55,5.38-3.03,6.37c-2.47.99-2.32,1.84-2.32,1.84,1.39.03,3.77-.67,3.77-.67,0,0-.25,1.72,1.16,4.56,1.41,2.83,3.27,3.3,3.27,3.3,2.29.31,4.33,1,5.61,1.63.23.11.44.24.64.4,1.07.81,2.96,2.46,4.58,5.02-.65-.69-1.42-1.35-2.31-1.97-4.1-2.85-9.74-3.95-15.57-4.73-5.64-.76-6.36-3.46-6.4-3.63.61,3.21,2.58,4.09,4.28,4.88,1.7.79,4.07,1.58,11.23,4.37,7.16,2.79,8.95,6.74,8.95,6.74,1.67,3.33,1.13,6.46.39,8.5-1.13,2.68-2.85,4.73-2.85,4.73,1.67-1.33,2.71-2.92,3.11-3.62,1.72,3.38,3.96,5.91,5.06,6.73l-3.08,13.43s-3.24-6.65-10-10.96c0,0,.02.03.06.07.72.45,2.06,1.61,3.85,3.81,2.09,2.57,4.11,7.09,5.07,9.41.37.89.65,1.8.85,2.74.59,2.83.93,7.22,1.55,13.05.22,2.1.51,3.44.5,4.96l4.51-16.85,7.53-39.61c.65-.93,1.77-2.58,2.33-3.75.81-1.7.08-1.46.08-2.59s.32-1.21-.32-1.7c-.21-.16-.35-.31-.48-.43l3.52-18.53,8.6-2.71.58-.18s.64-.24.7-.62c.12-.93-.94-2.74-1.27-3.46ZM145.6,137.07c-.36,0-.71-.03-1.05-.1,2.7-.21,4.82-2.36,4.82-4.99,0-2.42-1.81-4.44-4.21-4.91.14-.01.29-.02.43-.02,2.9,0,5.25,2.24,5.25,5s-2.35,5-5.25,5Z"/>
          </g>
        </g>
        <g>
          <path class="cls-6" d="M82.51,274.37c0,1.9-.21,3.27-.62,4.11-.41.84-1.1,1.26-2.07,1.26s-1.61-.42-2.04-1.26c-.43-.84-.65-2.21-.65-4.11v-25.54h-10.49v25.06c0,4.98,1.08,8.59,3.25,10.83,2.17,2.24,5.48,3.36,9.92,3.36s7.8-1.12,9.95-3.36c2.15-2.24,3.23-5.85,3.23-10.83v-25.06h-10.49v25.54Z"/>
          <path class="cls-6" d="M100.61,248.87l1.25,5.11-7.74,34.12h11.24l1.02-5.25h6.78l1.02,5.25h11.13l-8.44-39.25-16.25.02ZM107.45,274.45l2.31-14.19,2.26,14.19h-4.57Z"/>
          <path class="cls-6" d="M233.3,274.37c0,1.9-.21,3.27-.62,4.11-.41.84-1.1,1.26-2.07,1.26s-1.61-.42-2.04-1.26c-.43-.84-.65-2.21-.65-4.11v-25.54h-10.49v25.06c0,4.98,1.08,8.59,3.25,10.83,2.17,2.24,5.48,3.36,9.92,3.36s7.8-1.12,9.95-3.36c2.15-2.24,3.23-5.85,3.23-10.83v-25.06h-10.49v25.54Z"/>
          <path class="cls-6" d="M251.43,248.85l1.21,5.13-7.74,34.12h11.24l1.02-5.25h6.78l1.02,5.25h11.13l-8.4-39.23-16.25-.02ZM258.23,274.45l2.31-14.19,2.26,14.19h-4.57Z"/>
          <path class="cls-6" d="M166.99,248.82l1.21,5.16-7.74,34.12h11.24l1.02-5.25h6.78l1.02,5.25h11.13l-8.43-39.25-16.23-.02ZM173.8,274.45l2.31-14.19,2.26,14.19h-4.57Z"/>
          <polygon class="cls-6" points="147.6 271.26 140.02 248.82 125.93 248.82 128.14 254.44 128.14 288.07 138.35 288.07 138.35 267.71 145.24 288.07 157.82 288.07 157.82 248.82 147.6 248.82 147.6 271.26"/>
          <path class="cls-6" d="M302.96,248.9h-31.53s2.1,8.67,2.1,8.67h8.23v30.48h10.54v-30.55h6.49c.34-3.18,1.88-6.29,4.15-8.54v-.07Z"/>
          <path class="cls-6" d="M329.11,256.4c-.99-2.89-2.55-4.93-4.71-6.13-2.15-1.2-4.98-1.8-8.5-1.8s-6.35.6-8.5,1.8c-2.15,1.2-3.72,3.24-4.71,6.13-.99,2.89-1.48,6.86-1.48,11.91s.49,9.03,1.48,11.91c.99,2.89,2.55,4.93,4.71,6.13,2.15,1.2,4.98,1.8,8.5,1.8s6.34-.6,8.5-1.8c2.15-1.2,3.72-3.24,4.71-6.13.99-2.89,1.48-6.86,1.48-11.91s-.49-9.02-1.48-11.91ZM319,275.3c-.2,1.69-.54,2.86-1.02,3.52-.48.66-1.17.99-2.07.99s-1.54-.33-2.04-.99c-.5-.66-.85-1.84-1.05-3.52-.2-1.68-.3-4.05-.3-7.1s.1-5.44.3-7.07c.2-1.63.55-2.76,1.05-3.39.5-.63,1.18-.94,2.04-.94s1.59.31,2.07.94c.48.63.82,1.76,1.02,3.39.2,1.63.3,3.99.3,7.07s-.1,5.41-.3,7.1Z"/>
          <path class="cls-6" d="M57.34,260.33l5.65-7.85s-4.78-5.09-14.13-3.65c-10.01,1.54-14.87,10.14-14.81,19.62.06,9.48,4.04,17.06,12.99,19.12,11.01,1.83,15.84-1.83,15.84-1.83v-17.25l-12.66-.06,3,5.37v4.22c-7.14,1.23-11.34-10.21-6.36-16.48,4-5.04,10.49-1.21,10.49-1.21Z"/>
          <path class="cls-6" d="M202.84,256.32v16.24c0,1.76-.11,3.11-.32,4.06-.22.95-.67,1.61-1.37,1.99-.7.38-1.75.56-3.15.56-.61,0-1.24-.06-1.88-.19-.59-.11-1.14-.24-1.67-.37-1.05-.35-1.57-.7-1.57-.7l1.91,9.44c1.66.66,4.81.79,5.6.81.39.02.74.03,1.06.03,2.22,0,4.1-.15,5.62-.46,1.52-.3,2.74-.89,3.66-1.75.91-.86,1.58-2.08,1.99-3.66.41-1.58.62-3.66.62-6.24l.04-27.22-13.53-.05,3.01,7.47Z"/>
        </g>
        <g>
          <path class="cls-1" d="M75.04,306.65c-1.16,0-2.16-.23-3.02-.68s-1.5-1.11-1.96-1.97c-.45-.86-.68-1.89-.68-3.09,0-.89.14-1.68.41-2.36.28-.69.67-1.27,1.19-1.74.51-.47,1.12-.83,1.83-1.07s1.48-.37,2.34-.37c.74,0,1.44.08,2.11.24.67.16,1.24.36,1.72.59-.06.37-.11.77-.14,1.19-.03.43-.04.87-.04,1.32-.2.09-.44.14-.69.16-.25.02-.49.03-.72.03-.03-.62-.14-1.1-.33-1.45-.19-.35-.45-.6-.78-.75-.33-.15-.71-.22-1.15-.22-.67,0-1.22.19-1.64.58-.42.38-.73.89-.92,1.5-.19.62-.28,1.27-.28,1.95,0,.95.12,1.81.36,2.55.24.75.58,1.34,1.02,1.76.44.43.97.64,1.6.64.19,0,.36,0,.49-.02s.25-.05.36-.09c.16-.06.29-.17.39-.32.1-.15.15-.44.15-.86v-.62c0-.37-.03-.65-.09-.83-.06-.18-.18-.31-.36-.38-.18-.06-.44-.1-.77-.11-.04-.15-.07-.32-.09-.51-.02-.19-.02-.39-.02-.61.29.01.64.02,1.05.03s.79.02,1.15.02c.34,0,.72,0,1.15,0,.43,0,.79-.01,1.08-.02,0,.17,0,.36-.02.55-.01.2-.04.38-.08.55-.2.01-.34.05-.44.11s-.16.17-.18.32c-.02.16-.03.39-.03.69v.47c0,.39.02.69.05.89.03.2.1.43.21.68-.5.36-1.11.65-1.84.89-.73.24-1.52.36-2.37.36Z"/>
          <path class="cls-1" d="M88.04,306.65c-1.15,0-2.13-.24-2.96-.72-.82-.48-1.46-1.15-1.91-2s-.67-1.84-.67-2.97c0-.86.14-1.63.41-2.32.28-.69.66-1.28,1.15-1.76s1.08-.86,1.76-1.12c.68-.26,1.42-.39,2.22-.39,1.12,0,2.09.23,2.92.68.83.45,1.48,1.08,1.94,1.89s.7,1.77.7,2.88c0,.86-.13,1.64-.39,2.35s-.63,1.32-1.12,1.84c-.49.52-1.07.93-1.76,1.21-.68.29-1.45.43-2.29.43ZM88.27,305.5c.52,0,.96-.18,1.32-.55s.63-.87.82-1.51c.19-.64.28-1.4.28-2.27s-.12-1.65-.36-2.37c-.24-.71-.57-1.27-1.01-1.7-.43-.42-.94-.63-1.53-.63-.49,0-.91.16-1.27.49-.36.32-.63.79-.83,1.4-.19.61-.29,1.34-.29,2.19,0,.66.06,1.29.18,1.89.12.59.3,1.12.53,1.58.23.46.53.82.89,1.08.36.26.78.39,1.27.39Z"/>
          <path class="cls-1" d="M96.39,295.47c.21.01.48.02.81.03.34.01.64.01.93.01s.63,0,1.04,0c.41,0,.83-.01,1.24-.02.42,0,.78,0,1.08,0,1.03,0,1.86.09,2.48.26s1.08.44,1.37.81c.29.37.43.84.43,1.41,0,.64-.22,1.19-.66,1.66-.44.47-1.07.76-1.88.88.73.04,1.32.18,1.8.4.47.22.82.54,1.05.94s.34.9.34,1.49c0,.62-.16,1.17-.48,1.64s-.83.85-1.54,1.12c-.7.27-1.64.41-2.81.41h-1.34c-.46,0-.92,0-1.37,0-.45,0-.89.01-1.31.02s-.81.01-1.18.02c0-.22,0-.43.02-.63.02-.2.05-.37.09-.5.29-.02.52-.08.68-.17.16-.09.26-.26.32-.5.06-.24.09-.6.09-1.08v-5.4c0-.45-.03-.8-.09-1.02-.06-.23-.17-.39-.32-.48-.16-.09-.39-.15-.69-.19-.03-.14-.06-.32-.07-.54-.02-.22-.02-.41-.02-.58ZM100.41,296.12v7.66c0,.47.05.82.15,1.06.1.24.24.4.42.48.18.08.4.12.65.12.5,0,.9-.17,1.21-.5s.46-.8.46-1.4c0-.42-.06-.77-.18-1.05-.12-.27-.29-.49-.51-.65s-.49-.27-.8-.34c-.31-.07-.65-.11-1.02-.11h-.93v-1.09h1.11c.44,0,.81-.08,1.1-.23.29-.15.5-.37.64-.65.14-.28.21-.62.21-1.01s-.08-.74-.25-1.01-.38-.47-.65-.6c-.27-.13-.56-.19-.89-.19-.18,0-.35.02-.49.05-.15.03-.3.09-.46.18l.23-.72Z"/>
          <path class="cls-1" d="M110.44,298.28c0-.45-.03-.8-.08-1.02-.05-.23-.16-.39-.32-.48-.16-.09-.38-.15-.68-.19-.04-.14-.07-.32-.1-.53-.02-.21-.03-.41-.03-.59.18.01.44.02.76.02.32,0,.65.01,1.01.02s.65,0,.9,0,.53,0,.85,0,.62-.01.93-.02c.3,0,.56-.01.78-.02,0,.2,0,.39-.02.57-.01.18-.05.37-.11.55-.29.03-.52.09-.68.18-.16.09-.26.25-.32.48s-.08.58-.08,1.03v5.43c0,.47.03.82.08,1.06.05.24.16.4.32.5.16.09.39.15.67.17.04.13.08.3.1.51.02.21.03.41.03.61-.26-.02-.61-.03-1.04-.04-.43,0-.9,0-1.4,0s-1,0-1.5,0c-.5,0-.93.02-1.28.04,0-.18.01-.39.04-.6.03-.22.06-.39.09-.52.29-.02.52-.08.68-.17.16-.09.26-.26.32-.5.06-.24.08-.59.08-1.06v-5.43Z"/>
          <path class="cls-1" d="M117.27,295.47c.23.01.52.02.86.02.35,0,.71.01,1.1.02.38,0,.76,0,1.11,0h.94v8.1c0,.47.04.83.11,1.1.07.26.21.45.4.55.19.1.46.15.8.15l-.52,1.09c-.29,0-.67,0-1.13,0-.46,0-.94.01-1.43.02s-.94.01-1.36.02c-.41,0-.71,0-.89,0,0-.22,0-.43.02-.63.02-.2.05-.37.09-.5.29-.02.52-.08.68-.17.16-.09.26-.26.32-.5.06-.24.09-.6.09-1.08v-5.4c0-.45-.03-.8-.09-1.02-.06-.23-.17-.39-.32-.48-.16-.09-.39-.15-.69-.19-.04-.14-.07-.32-.08-.54-.01-.22-.02-.41-.02-.58ZM124.26,299.11c-.01.26-.02.54-.04.85s-.02.64-.02,1.02c0,.41,0,.77.02,1.08.02.31.03.59.04.84-.26,0-.49-.01-.68-.03-.19-.02-.38-.06-.55-.11-.04-.48-.17-.79-.37-.95-.21-.16-.57-.24-1.11-.24h-.98v-1.09h.98c.57,0,.96-.09,1.15-.26.19-.17.29-.48.3-.93.17-.07.38-.13.6-.15.23-.02.45-.03.66-.03ZM125.67,295.47c.01.26.03.56.06.91.03.35.07.69.11,1.02s.1.63.16.89c-.17.08-.37.14-.59.19s-.5.07-.82.07c-.05-.37-.15-.7-.3-1-.15-.3-.38-.53-.69-.7-.31-.17-.76-.25-1.35-.25h-1.61l.5-1.07c.82,0,1.52,0,2.09,0,.57,0,1.05-.01,1.44-.02.39,0,.72-.01.99-.02ZM125.22,303.24c.3.03.58.1.84.19s.45.2.58.33c-.12.37-.22.8-.31,1.3-.09.5-.15.99-.2,1.48-.29-.01-.67-.01-1.12-.01s-.94,0-1.45-.01c-.51,0-1.01,0-1.47,0l.52-1.09h.23c.48,0,.86-.08,1.16-.23s.54-.4.72-.72c.18-.32.35-.73.5-1.23Z"/>
          <path class="cls-1" d="M136.4,306.65c-.13-.28-.26-.56-.38-.82-.12-.27-.23-.53-.34-.8-.11-.26-.22-.54-.34-.82-.16-.39-.31-.72-.45-.98-.14-.27-.3-.5-.47-.7-.17-.2-.39-.4-.65-.59l.73.13c-.29.01-.55.02-.77.02-.22,0-.48,0-.76,0l.13-1.19c.16.02.29.04.39.05s.19.02.28.02c.39,0,.75-.08,1.08-.24.33-.16.6-.4.81-.73s.32-.74.32-1.24c0-.68-.16-1.22-.49-1.61-.33-.39-.81-.59-1.44-.59-.17,0-.33.01-.48.03-.15.02-.3.06-.46.11l.13-.54v7.43c0,.53.03.93.08,1.19s.14.43.27.51c.13.08.3.13.51.14.04.11.07.27.08.49s.02.43.02.63c-.2-.01-.47-.02-.8-.02-.33,0-.65-.01-.98-.02-.32,0-.6,0-.83,0-.4,0-.81,0-1.23,0-.42,0-.8.02-1.15.04,0-.24,0-.45.02-.63.02-.18.05-.35.09-.49.29-.02.52-.08.68-.17.16-.09.26-.26.32-.5.06-.24.09-.59.09-1.06v-5.45c0-.45-.03-.8-.09-1.03-.06-.23-.17-.39-.32-.48-.16-.09-.39-.15-.69-.18-.04-.15-.07-.35-.08-.59-.01-.24-.02-.41-.02-.52.28.01.65.02,1.11.03.46.01.94.01,1.45.01.35,0,.81-.01,1.39-.03s1.18-.03,1.81-.03c.91,0,1.66.13,2.24.4.58.27,1.01.63,1.28,1.07.27.45.41.95.41,1.5,0,.66-.13,1.23-.38,1.72-.26.48-.6.86-1.05,1.13s-.95.44-1.51.52l.31-.21c.32.15.59.32.79.49.2.18.4.43.6.75.2.32.45.77.76,1.36.16.3.31.54.44.71.13.17.28.29.44.36.16.07.37.12.62.14,0,.2-.01.4-.03.59-.02.18-.06.36-.11.54-.74,0-1.4.01-1.98.03-.58.02-1.04.06-1.39.11Z"/>
          <path class="cls-1" d="M150.52,306.64l-7.15-9.57c-.1-.16-.22-.27-.37-.33-.15-.06-.38-.1-.71-.14-.04-.16-.08-.34-.1-.53-.02-.19-.03-.39-.03-.59.14.01.33.02.57.02.24,0,.48.01.73.02s.45,0,.62,0c.26,0,.55,0,.87,0s.58-.02.79-.04l5.19,7.06-.41,4.11ZM142.17,306.55c0-.23,0-.43.02-.62s.05-.35.11-.5c.32-.03.58-.11.76-.24.18-.13.31-.36.39-.68.08-.32.12-.8.12-1.41v-6.57l1.12.1v6.47c0,.62.03,1.09.1,1.41.07.33.19.55.37.68.18.13.44.21.77.24.04.15.07.33.08.53.01.2.02.4.02.59-.15-.01-.34-.02-.57-.02s-.45-.01-.68-.02c-.23,0-.43,0-.62,0-.17,0-.39,0-.66,0-.27,0-.52.01-.76.02-.24,0-.43.01-.57.02ZM150.52,306.64l.16-2.7v-5.02c0-.62-.03-1.09-.1-1.41-.06-.32-.19-.55-.38-.68s-.47-.21-.84-.24c-.04-.18-.07-.38-.09-.58-.02-.2-.02-.38-.02-.55.16.01.36.02.6.02.24,0,.48.01.74.02.25,0,.47,0,.64,0,.27,0,.57,0,.89-.01.32-.01.59-.02.78-.03,0,.19,0,.37-.02.55-.01.18-.04.37-.08.57-.27.02-.48.1-.63.23-.15.13-.25.35-.3.67s-.08.8-.08,1.42v7.59c-.18.05-.38.09-.59.11-.2.02-.44.02-.7.02Z"/>
          <path class="cls-1" d="M161.19,306.65c-1.15,0-2.13-.24-2.96-.72-.82-.48-1.46-1.15-1.91-2s-.67-1.84-.67-2.97c0-.86.14-1.63.41-2.32.28-.69.66-1.28,1.15-1.76s1.08-.86,1.76-1.12c.68-.26,1.42-.39,2.22-.39,1.12,0,2.09.23,2.92.68.83.45,1.48,1.08,1.94,1.89s.7,1.77.7,2.88c0,.86-.13,1.64-.39,2.35s-.63,1.32-1.12,1.84c-.49.52-1.07.93-1.76,1.21-.68.29-1.45.43-2.29.43ZM161.42,305.5c.52,0,.96-.18,1.32-.55s.63-.87.82-1.51c.19-.64.28-1.4.28-2.27s-.12-1.65-.36-2.37c-.24-.71-.57-1.27-1.01-1.7-.43-.42-.94-.63-1.53-.63-.49,0-.91.16-1.27.49-.36.32-.63.79-.83,1.4-.19.61-.29,1.34-.29,2.19,0,.66.06,1.29.18,1.89.12.59.3,1.12.53,1.58.23.46.53.82.89,1.08.36.26.78.39,1.27.39Z"/>
          <path class="cls-1" d="M174.42,306.55c0-.22,0-.43.02-.63.02-.2.05-.37.09-.5.29-.02.52-.08.68-.17.16-.09.26-.26.32-.5.06-.24.09-.6.09-1.08v-5.4c0-.45-.03-.8-.09-1.02-.06-.23-.17-.39-.32-.48-.16-.09-.39-.15-.69-.19-.03-.14-.06-.32-.07-.54-.02-.22-.02-.41-.02-.58.24.01.53.02.88.02.35,0,.72.01,1.11.02s.77,0,1.11,0c.25,0,.52,0,.81-.01.29-.01.61-.02.96-.02.61,0,1.2.04,1.79.12.59.08,1.13.23,1.63.45.5.22.94.52,1.32.92.38.4.67.9.89,1.51.21.61.32,1.36.32,2.25s-.11,1.63-.33,2.26c-.22.63-.5,1.15-.86,1.58s-.75.76-1.19,1.02c-.43.26-.88.45-1.33.58-.45.13-.88.22-1.28.26-.4.05-.73.07-1.02.07s-.67,0-1.13,0c-.46,0-.94.01-1.43.02s-.94.01-1.36.02c-.41,0-.71,0-.89,0ZM179.75,305.41c.25,0,.53-.05.83-.15.3-.1.59-.3.86-.6.27-.3.49-.74.66-1.32.17-.58.25-1.36.25-2.33,0-.87-.09-1.59-.26-2.17-.17-.58-.41-1.03-.71-1.37-.3-.33-.63-.57-1-.71-.37-.14-.75-.21-1.15-.21-.21,0-.4.02-.59.07s-.33.11-.41.19l.21-.64v7.43c0,.47.04.83.11,1.1.07.26.21.45.4.55.19.1.46.15.8.15Z"/>
          <path class="cls-1" d="M188.02,295.47c.23.01.52.02.86.02.35,0,.71.01,1.1.02.38,0,.76,0,1.11,0h.94v8.1c0,.47.04.83.11,1.1.07.26.21.45.4.55.19.1.46.15.8.15l-.52,1.09c-.29,0-.67,0-1.13,0-.46,0-.94.01-1.43.02s-.94.01-1.36.02c-.41,0-.71,0-.89,0,0-.22,0-.43.02-.63.02-.2.05-.37.09-.5.29-.02.52-.08.68-.17.16-.09.26-.26.32-.5.06-.24.09-.6.09-1.08v-5.4c0-.45-.03-.8-.09-1.02-.06-.23-.17-.39-.32-.48-.16-.09-.39-.15-.69-.19-.04-.14-.07-.32-.08-.54-.01-.22-.02-.41-.02-.58ZM195.01,299.11c-.01.26-.02.54-.04.85s-.02.64-.02,1.02c0,.41,0,.77.02,1.08.02.31.03.59.04.84-.26,0-.49-.01-.68-.03-.19-.02-.38-.06-.55-.11-.04-.48-.17-.79-.37-.95-.21-.16-.57-.24-1.11-.24h-.98v-1.09h.98c.57,0,.96-.09,1.15-.26.19-.17.29-.48.3-.93.17-.07.38-.13.6-.15.23-.02.45-.03.66-.03ZM196.43,295.47c.01.26.03.56.06.91.03.35.07.69.11,1.02s.1.63.16.89c-.17.08-.37.14-.59.19s-.5.07-.82.07c-.05-.37-.15-.7-.3-1-.15-.3-.38-.53-.69-.7-.31-.17-.76-.25-1.35-.25h-1.61l.5-1.07c.82,0,1.52,0,2.09,0,.57,0,1.05-.01,1.44-.02.39,0,.72-.01.99-.02ZM195.97,303.24c.3.03.58.1.84.19s.45.2.58.33c-.12.37-.22.8-.31,1.3-.09.5-.15.99-.2,1.48-.29-.01-.67-.01-1.12-.01s-.94,0-1.45-.01c-.51,0-1.01,0-1.47,0l.52-1.09h.23c.48,0,.86-.08,1.16-.23s.54-.4.72-.72c.18-.32.35-.73.5-1.23Z"/>
          <path class="cls-1" d="M210.41,305.41c.43,0,.79-.07,1.08-.22s.53-.38.72-.7.36-.74.51-1.26c.3.03.58.1.84.19.26.09.45.2.58.33-.12.37-.22.8-.31,1.3-.09.5-.15.99-.2,1.48-.29-.01-.66-.01-1.12-.01s-.93,0-1.43-.01c-.5,0-.97,0-1.41,0-.29,0-.67,0-1.13,0-.46,0-.94.01-1.43.02s-.94.01-1.36.02c-.41,0-.71,0-.89,0,0-.22,0-.43.02-.63.02-.2.05-.37.09-.5.29-.02.52-.08.68-.17.16-.09.26-.26.32-.5.06-.24.09-.6.09-1.08v-5.4c0-.45-.03-.8-.09-1.02-.06-.23-.17-.39-.32-.48-.16-.09-.39-.15-.69-.19-.03-.14-.06-.32-.07-.54-.02-.22-.02-.41-.02-.58.31.01.6.02.87.02.27,0,.54.01.81.02.28,0,.58,0,.92,0,.26,0,.55,0,.87,0s.64-.01.95-.02c.31,0,.58-.01.8-.02,0,.2,0,.39-.02.59-.01.2-.05.38-.11.53-.29.03-.52.09-.68.18-.16.09-.26.25-.32.49-.05.24-.08.59-.08,1.04v5.32c0,.47.04.83.11,1.1.07.26.21.45.4.55.19.1.46.15.8.15h.23Z"/>
          <path class="cls-1" d="M222.13,295.42l3.67,8.16c.25.51.44.9.59,1.16s.27.44.4.53c.13.09.26.14.41.16.04.14.08.31.1.5.02.19.03.4.03.63-.19-.02-.44-.03-.75-.04-.3,0-.61,0-.91,0h-1.26c-.23,0-.48,0-.75,0-.27,0-.52.01-.76.02-.24,0-.42.01-.55.02,0-.26.01-.48.03-.65.02-.17.05-.33.1-.47.38-.08.6-.2.67-.38.07-.18.02-.47-.15-.87l-1.46-3.33c-.25-.57-.45-1.11-.61-1.6-.16-.49-.29-.98-.4-1.45h.47c-.13.49-.27.98-.43,1.48-.16.5-.35,1.02-.58,1.56l-1.23,3.22c-.14.35-.17.65-.08.91s.31.42.68.47c.04.15.08.32.1.5.02.18.03.39.03.62-.12-.01-.29-.02-.5-.02s-.44-.01-.68-.02c-.23,0-.44,0-.63,0-.27,0-.55,0-.84,0-.29,0-.51.02-.68.04,0-.22.01-.41.03-.59.02-.17.06-.35.11-.54.18-.03.34-.1.47-.2s.26-.27.38-.49c.13-.23.27-.55.45-.98l3.43-8.26c.18-.05.35-.07.51-.07.16,0,.34,0,.56,0ZM222.73,302.6l.29.97c-.73,0-1.48.01-2.27.03-.79.02-1.55.07-2.3.15l.24-1.15h4.03Z"/>
          <path class="cls-1" d="M240.28,306.65c-1.16,0-2.16-.23-3.02-.68s-1.5-1.11-1.96-1.97c-.45-.86-.68-1.89-.68-3.09,0-.89.14-1.68.41-2.36.28-.69.67-1.27,1.19-1.74.51-.47,1.12-.83,1.83-1.07s1.48-.37,2.34-.37c.74,0,1.44.08,2.11.24.67.16,1.24.36,1.72.59-.06.37-.11.77-.14,1.19-.03.43-.04.87-.04,1.32-.2.09-.44.14-.69.16-.25.02-.49.03-.72.03-.03-.62-.14-1.1-.33-1.45-.19-.35-.45-.6-.78-.75-.33-.15-.71-.22-1.15-.22-.67,0-1.22.19-1.64.58-.42.38-.73.89-.92,1.5-.19.62-.28,1.27-.28,1.95,0,.95.12,1.81.36,2.55.24.75.58,1.34,1.02,1.76.44.43.97.64,1.6.64.19,0,.36,0,.49-.02s.25-.05.36-.09c.16-.06.29-.17.39-.32.1-.15.15-.44.15-.86v-.62c0-.37-.03-.65-.09-.83-.06-.18-.18-.31-.36-.38-.18-.06-.44-.1-.77-.11-.04-.15-.07-.32-.09-.51-.02-.19-.02-.39-.02-.61.29.01.64.02,1.05.03s.79.02,1.15.02c.34,0,.72,0,1.15,0,.43,0,.79-.01,1.08-.02,0,.17,0,.36-.02.55-.01.2-.04.38-.08.55-.2.01-.34.05-.44.11s-.16.17-.18.32c-.02.16-.03.39-.03.69v.47c0,.39.02.69.05.89.03.2.1.43.21.68-.5.36-1.11.65-1.84.89-.73.24-1.52.36-2.37.36Z"/>
          <path class="cls-1" d="M247.78,295.47c.23.01.52.02.86.02.35,0,.71.01,1.1.02.38,0,.76,0,1.11,0h.94v8.1c0,.47.04.83.11,1.1.07.26.21.45.4.55.19.1.46.15.8.15l-.52,1.09c-.29,0-.67,0-1.13,0-.46,0-.94.01-1.43.02s-.94.01-1.36.02c-.41,0-.71,0-.89,0,0-.22,0-.43.02-.63.02-.2.05-.37.09-.5.29-.02.52-.08.68-.17.16-.09.26-.26.32-.5.06-.24.09-.6.09-1.08v-5.4c0-.45-.03-.8-.09-1.02-.06-.23-.17-.39-.32-.48-.16-.09-.39-.15-.69-.19-.04-.14-.07-.32-.08-.54-.01-.22-.02-.41-.02-.58ZM254.77,299.11c-.01.26-.02.54-.04.85s-.02.64-.02,1.02c0,.41,0,.77.02,1.08.02.31.03.59.04.84-.26,0-.49-.01-.68-.03-.19-.02-.38-.06-.55-.11-.04-.48-.17-.79-.37-.95-.21-.16-.57-.24-1.11-.24h-.98v-1.09h.98c.57,0,.96-.09,1.15-.26.19-.17.29-.48.3-.93.17-.07.38-.13.6-.15.23-.02.45-.03.66-.03ZM256.18,295.47c.01.26.03.56.06.91.03.35.07.69.11,1.02s.1.63.16.89c-.17.08-.37.14-.59.19s-.5.07-.82.07c-.05-.37-.15-.7-.3-1-.15-.3-.38-.53-.69-.7-.31-.17-.76-.25-1.35-.25h-1.61l.5-1.07c.82,0,1.52,0,2.09,0,.57,0,1.05-.01,1.44-.02.39,0,.72-.01.99-.02ZM255.73,303.24c.3.03.58.1.84.19s.45.2.58.33c-.12.37-.22.8-.31,1.3-.09.5-.15.99-.2,1.48-.29-.01-.67-.01-1.12-.01s-.94,0-1.45-.01c-.51,0-1.01,0-1.47,0l.52-1.09h.23c.48,0,.86-.08,1.16-.23s.54-.4.72-.72c.18-.32.35-.73.5-1.23Z"/>
          <path class="cls-1" d="M267.89,306.64l-7.15-9.57c-.1-.16-.22-.27-.37-.33-.15-.06-.38-.1-.71-.14-.04-.16-.08-.34-.1-.53-.02-.19-.03-.39-.03-.59.14.01.33.02.57.02.24,0,.48.01.73.02s.45,0,.62,0c.26,0,.55,0,.87,0s.58-.02.79-.04l5.19,7.06-.41,4.11ZM259.53,306.55c0-.23,0-.43.02-.62s.05-.35.11-.5c.32-.03.58-.11.76-.24.18-.13.31-.36.39-.68.08-.32.12-.8.12-1.41v-6.57l1.12.1v6.47c0,.62.03,1.09.1,1.41.07.33.19.55.37.68.18.13.44.21.77.24.04.15.07.33.08.53.01.2.02.4.02.59-.15-.01-.34-.02-.57-.02s-.45-.01-.68-.02c-.23,0-.43,0-.62,0-.17,0-.39,0-.66,0-.27,0-.52.01-.76.02-.24,0-.43.01-.57.02ZM267.89,306.64l.16-2.7v-5.02c0-.62-.03-1.09-.1-1.41-.06-.32-.19-.55-.38-.68s-.47-.21-.84-.24c-.04-.18-.07-.38-.09-.58-.02-.2-.02-.38-.02-.55.16.01.36.02.6.02.24,0,.48.01.74.02.25,0,.47,0,.64,0,.27,0,.57,0,.89-.01.32-.01.59-.02.78-.03,0,.19,0,.37-.02.55-.01.18-.04.37-.08.57-.27.02-.48.1-.63.23-.15.13-.25.35-.3.67s-.08.8-.08,1.42v7.59c-.18.05-.38.09-.59.11-.2.02-.44.02-.7.02Z"/>
          <path class="cls-1" d="M276.34,296.61c-.42,0-.77.08-1.03.24-.27.16-.48.39-.63.68-.15.3-.28.68-.39,1.15-.26,0-.52-.01-.77-.04-.26-.03-.48-.09-.68-.19.11-.44.2-.94.27-1.5.07-.55.1-1.05.1-1.48.41.01.84.02,1.28.03.44.01.95.01,1.52.01h2.04c.73,0,1.37,0,1.93,0,.56,0,1.08-.01,1.54-.02.47,0,.9-.01,1.3-.02,0,.43.03.91.08,1.44s.14,1.03.24,1.52c-.2.09-.42.15-.67.19-.25.04-.52.06-.81.06-.11-.72-.3-1.24-.57-1.57-.27-.33-.69-.5-1.27-.5h-3.51ZM276.58,296.05h2.81v7.66c0,.47.04.82.11,1.06.07.24.22.4.44.5.22.09.54.15.96.17.04.13.08.3.1.51.02.21.03.41.03.61-.31-.02-.72-.03-1.23-.04-.5,0-1.06,0-1.67,0-.4,0-.82,0-1.25,0-.43,0-.83.01-1.19.02s-.66.01-.9.02c0-.18.02-.39.06-.6.04-.22.08-.39.12-.52.42-.02.75-.08.98-.17s.4-.26.49-.5c.09-.24.14-.59.14-1.06v-7.66Z"/>
          <path class="cls-1" d="M285.38,295.47c.23.01.52.02.86.02.35,0,.71.01,1.1.02.38,0,.76,0,1.11,0h.94v8.1c0,.47.04.83.11,1.1.07.26.21.45.4.55.19.1.46.15.8.15l-.52,1.09c-.29,0-.67,0-1.13,0-.46,0-.94.01-1.43.02s-.94.01-1.36.02c-.41,0-.71,0-.89,0,0-.22,0-.43.02-.63.02-.2.05-.37.09-.5.29-.02.52-.08.68-.17.16-.09.26-.26.32-.5.06-.24.09-.6.09-1.08v-5.4c0-.45-.03-.8-.09-1.02-.06-.23-.17-.39-.32-.48-.16-.09-.39-.15-.69-.19-.04-.14-.07-.32-.08-.54-.01-.22-.02-.41-.02-.58ZM292.37,299.11c-.01.26-.02.54-.04.85s-.02.64-.02,1.02c0,.41,0,.77.02,1.08.02.31.03.59.04.84-.26,0-.49-.01-.68-.03-.19-.02-.38-.06-.55-.11-.04-.48-.17-.79-.37-.95-.21-.16-.57-.24-1.11-.24h-.98v-1.09h.98c.57,0,.96-.09,1.15-.26.19-.17.29-.48.3-.93.17-.07.38-.13.6-.15.23-.02.45-.03.66-.03ZM293.78,295.47c.01.26.03.56.06.91.03.35.07.69.11,1.02s.1.63.16.89c-.17.08-.37.14-.59.19s-.5.07-.82.07c-.05-.37-.15-.7-.3-1-.15-.3-.38-.53-.69-.7-.31-.17-.76-.25-1.35-.25h-1.61l.5-1.07c.82,0,1.52,0,2.09,0,.57,0,1.05-.01,1.44-.02.39,0,.72-.01.99-.02ZM293.33,303.24c.3.03.58.1.84.19s.45.2.58.33c-.12.37-.22.8-.31,1.3-.09.5-.15.99-.2,1.48-.29-.01-.67-.01-1.12-.01s-.94,0-1.45-.01c-.51,0-1.01,0-1.47,0l.52-1.09h.23c.48,0,.86-.08,1.16-.23s.54-.4.72-.72c.18-.32.35-.73.5-1.23Z"/>
        </g>
      </g>
    </g>
  </g>
</svg>