<?xml version="1.0" encoding="UTF-8"?>
<svg id="Capa_2" data-name="Capa 2" xmlns="http://www.w3.org/2000/svg" viewBox="0 0 576.85 233.76">
  <defs>
    <style>
      .cls-1 {
        fill: none;
        stroke: #00568d;
        stroke-miterlimit: 10;
        stroke-width: 1.77px;
      }

      .cls-2 {
        fill: #004b87;
      }
    </style>
  </defs>
  <g id="Capa_1-2" data-name="Capa 1">
    <g>
      <rect class="cls-1" x=".88" y=".88" width="575.08" height="232"/>
      <g>
        <g>
          <g>
            <path class="cls-2" d="M113.83,194.95l-3.05.33c-2.67-5.24-3.91-10.28-4.36-14.65h-.01v-.02c-.88-8.3,1.01-14.27,1.21-14.86-1.27,4.74.17,13.23.45,14.79v.02c.03.15.04.23.04.23,1.96,9.33,5.72,14.17,5.72,14.17Z"/>
            <path class="cls-2" d="M115.47,136.83c-5.55-2.28-8.28-3.74-8.28-3.74.3.5,3.32,2.55,5.99,3.71,2.69,1.16,5.31,3.21,5.31,3.21,3.76,3.3,3.33,6.47,3.26,6.91,1.54-4.15-.72-7.85-6.28-10.09Z"/>
            <path class="cls-2" d="M107.07,113.63s-.3-.32-.54-.35c-.24-.01-.39.2-.2.33.2.12.71.3.81.26.09-.05.08-.15-.08-.24Z"/>
            <path class="cls-2" d="M104.86,116.65c-.33.27.02.3.35.35.35.05.89-.06,1.24,0,.36.06.6.02.56-.12-.04-.14-.6-.42-1.13-.41,0,0-.68-.08-1.01.18Z"/>
            <path class="cls-2" d="M107.88,116.18c.04-.09-.44-.44-.69-.62-.11-.08-.27-.18-.47-.27-.06-.03-.12-.06-.2-.08-.24-.09-.53-.15-.86-.12-.75.06-1.36.35-1.66.62-.3.27-.54.44-.62.44-.06.02-.14.18.27.17.42-.03.83-.44.95-.51.14-.08.2-.11.2-.11,0,0,.68-.32,1.36-.12.68.2,1.06.47,1.24.56.18.08.44.15.48.05Z"/>
            <path class="cls-2" d="M147.88,110.22c-.32-.6-.65-1.21-1-1.81-.03-.04-.05-.09-.08-.14l-.2.06c.75,1.28,1.43,2.6,2.05,3.95l.18-.06h.02c-.3-.68-.63-1.34-.98-2.01ZM142.75,102.32c-.33-.41-.68-.81-1.01-1.22-.65-.75-1.31-1.49-2.02-2.22h-.02c-.03-.06-.06-.08-.11-.12l-.03.11v.02l-.03.11c1.48,1.52,2.87,3.15,4.13,4.86l.04-.24v-.02c-.32-.42-.63-.85-.97-1.27ZM73.67,95.77c-.09.08-.18.17-.27.24-.5.44-.98.88-1.46,1.33-.05.04-.11.11-.17.15-.5.48-1,.98-1.48,1.48-.53.56-1.06,1.13-1.57,1.72-.04.05-.09.11-.15.17-.45.53-.89,1.07-1.33,1.61v.03c1.95-2.44,4.13-4.71,6.5-6.73h-.08Z"/>
            <path class="cls-2" d="M120.96,119.88c.03.09.09.17.18.23,0,0,.04.09.47.03l-.65-.26Z"/>
            <path class="cls-2" d="M146.62,108.34l-4.1,1.19,1.16-5.69c-1.27-1.71-2.66-3.34-4.13-4.86l-2.73,12.4-.8.26-1.75.57-9.14,2.99s-2.02.63-3.11,2.23c-.89,1.3-1.22,2.04-1.04,2.44l.65.26c.21-.03.53-.09,1-.21,1.36-.39,13.4-3.67,13.4-3.67l-1.87,8.69-.18.83-2.81,13.08-.18.87-1.28,5.96c-.26-.69-.51-1.42-.74-2.08-.42-1.25-1.16-3.98-2.44-6.76-.23-.5-.47-1-.74-1.49-.71-1.3-1.54-2.55-2.54-3.59-1.81-1.92-3.18-2.9-4.07-3.41-.65-1.4-1.6-2.54-2.34-3.49-1.31-1.68-1.66-2.54-1.9-4.83-.06-.56-.09-1.09-.11-1.63-.01-.3-.03-.6-.03-.92-.06-1.39-.14-2.85-.6-4.78-.26-1.04-.56-1.89-.83-2.55-.26-.63-.51-1.12-.69-1.42-.2-.33-.32-.48-.32-.48-.14-.18-.29-.33-.44-.5-1.99-2.07-4.6-2.6-4.6-2.6,3.12-.09,4.89,2.14,5.1,2.41,0-.02-.01-.03-.01-.05-.09-.3-.54-1.52-2.32-2.73-2.08-1.42-4.22-1.24-4.22-1.24-2.63.08-4.32,1.06-5.45,2.35-.21.24-.41.5-.57.75-1,1.49-1.42,3.2-1.7,4.41-.06.26-.12.5-.18.71-.01.03-.01.06-.03.11-.36,1.34-.71,3.09-.93,4.81-.05.32-.08.63-.11.94-.09.8-.14,1.57-.14,2.28,0,2.07-.85,3.53-1.13,3.98-.08.11-.12.15-.12.15-.15.17-.29.33-.42.51-1.67,2.25-2.04,5.06-2.04,5.06,0,0-.3.27-.95.91-.18.18-.39.39-.63.63-.42.42-.92.95-1.52,1.57-.85.89-2.02,2.43-3.17,3.98l-.59.81c-1.39,1.92-2.59,3.71-2.88,4.12-.08-.45-.38-1.86-1.13-3.64,0,0-1.39-2.9-2.47-4.77-.41-.71-.97-1.84-1.52-3.02-.47-1.03-.93-2.07-1.28-2.9-.3-.69-.53-1.22-.6-1.43-.27-.74-.83-2.32-.6-3.64,0,0,.17-.68.3-1.01v-.02c.01-.06.03-.09.04-.12.11-.23-.03-.53-.03-.53,0,0,.36-.54.05-1.12,0,0,.44-.78.04-1.7,0,0,.11-.03.21-.15s.21-.3.23-.62c.02-.35-.21-.57-.42-.71-.18-.12-.36-.17-.36-.17,0,0-.3-.23-.59-.42-.14-.08-.26-.17-.36-.21,0,0,.12-.06.3-.2.2-.14.47-.35.77-.62.44-.38.95-.89,1.34-1.52.2-.32.38-.68.5-1.06t.01-.03c.29-.88.45-1.49.53-1.9.12-.57.11-.77.11-.77,0,0,.27.08.39-.05,0,0,0-.02.01-.02.12-.14.24-.5-.11-.74-.11-.08-.3-.17-.53-.26-.36-.15-.83-.3-1.27-.41-.14-.03-.27-.06-.39-.08.09-.05.18-.09.26-.14.26-.14.5-.29.72-.47.14-.08.26-.18.38-.29.23-.18.44-.39.6-.6.15-.14.27-.29.36-.44.2-.23.35-.47.48-.71.08-.14.15-.27.21-.42.12-.26.23-.51.3-.78.06-.18.11-.35.14-.53.06-.27.11-.54.14-.83,0-.17.02-.33.02-.5v-.03c0-.27-.02-.54-.04-.81-.03-.17-.06-.33-.11-.5-.04-.29-.14-.56-.24-.83-.04-.15-.11-.3-.18-.45-.06-.15-.12-.29-.2-.42-.06-.11-.12-.21-.2-.32-.08-.15-.17-.29-.29-.42-.04-.08-.11-.17-.18-.24-.12-.14-.24-.29-.38-.41-.11-.12-.23-.24-.35-.33-.21-.21-.42-.38-.66-.53-.14-.11-.29-.2-.44-.27-.24-.15-.5-.27-.77-.38-.15-.06-.29-.11-.44-.15-.27-.09-.54-.15-.83-.2-.17-.03-.32-.05-.48-.06-.15-.02-.32-.03-.47-.03h-.03c-2.37,2.02-4.56,4.29-6.5,6.73v.02c.02.06.03.12.05.2.01.12.04.26.09.39v.02c.04.27.11.54.18.8.06.18.11.35.18.51.11.26.23.51.36.75.08.15.17.3.26.44.15.24.32.45.53.66.08.12.18.24.3.35.2.2.42.39.65.56.09.08.2.15.29.21-.14.02-.32.05-.51.08-.45.09-1,.21-1.4.38-.15.06-.27.12-.38.2,0,0-.03.14-.03.3v.02c0,.15.03.3.11.35.15.09.35.11.35.11,0,0-.01.14-.01.36,0,.42.03,1.15.2,1.98.08.39.2.8.35,1.21.05.14.11.26.17.39.24.54.56,1.01.87,1.39.23.29.47.54.68.74.44.41.78.62.78.62,0,0-.6.03-1.03.3-.06.03-.12.08-.18.12-.39.36-.32.75-.32.91s.02.33-.12.47c-.15.14-.35.6-.11,1.13,0,0,.02.02.02.05.03.09.06.26-.03.41-.12.2-.14.59-.03.83.11.24.15.77.15.89-.02.11,0,.85.45,1.6.38.63.95,1.15,1.58,3.08.12.38.24.81.38,1.33.11.39.2.85.32,1.31.69,3.12,1.49,7.35,1.49,7.35,0,0,.72,4.6.88,5.39.11.63,1.24,4.5,1.75,6.07,0,.06,0,.12.01.18.39,1.21,1.45,3.86,3.83,4.01.26.02.54.02.86-.05.47-.08,1.01-.26,1.58-.54,2.14-1.07,4.6-2.84,6.49-4.3.24-.2.48-.38.69-.54,1.45-1.16,2.43-2.02,2.43-2.02-.78-1.77-.14-6.04-.14-6.04,0,0,.09,2.6.88,5.9.78,3.29,3.86,6.73,4.69,10.71.62,2.96-.39,3.64-2.05,7.24-.17.33-.32.71-.48,1.1-.47,1.09-.95,2.38-1.46,4.01-1.63,5.21-2.53,9.52-3,12.1v.03c-.18.98-.29,1.7-.33,2.13-.04.29-.06.44-.06.44v.23c-.14,3.27-.12,7.79-.11,9.79v1.03l.11,1.57s.02,0,.03.02c.03,0,.06.02.11.03.03.02.06.02.11.03.01,0,.03.02.04.02.06.02.12.03.2.05,1.1.3,4.07,1.03,8.95,1.39.3.03.59.05.89.06.85.06,1.77.11,2.73.14.39,0,.8.02,1.21.02.65.01,1.31.01,2.01.01-.03-.06-.06-.14-.09-.23-.09-.26-.18-.51-.27-.78-.06-.17-.11-.35-.17-.54,0-.03-.02-.05-.02-.08-.33-1.27-.74-3.03-1.1-4.95-.06-.3-.11-.6-.17-.91-.05-.27-.09-.56-.14-.83-.05-.29-.09-.59-.14-.88-.01-.05-.01-.11-.01-.15-.24-1.72-.39-3.24-.48-4.24-.02-.11-.03-.21-.03-.32-.01-.17-.03-.33-.04-.48,0-.06-.01-.14-.01-.2-.02-.08-.02-.15-.03-.24v-.02c-.29-3.76-.33-7.5.44-11.95.72-4.3,2.9-7.91,4.41-9.82.21-.27.41-.51.59-.71.14-.15.27-.29.38-.39,1.31-1.28,3.35-3.26,2.63-6.34s-3.24-4.54-7.41-6.88c-4.18-2.32-5.84-3.77-5.84-3.77-4.33-3.5-3.11-8.62-3.11-8.62-.21,5.3,7.23,9.58,11.59,11.18,4.36,1.61,6.46,3.77,6.46,3.77,4.41,4.27,2.76,8.15,2.31,9.01t.06.05c1.74-1.58,3.08-3.79,3.56-6.05.09-.35.15-.69.18-1.03.12-1.13.02-2.23-.36-3.26-1.28-3.47-3.5-4.75-9.16-8.1-5.64-3.35-7.91-7.39-7.91-7.39-1.21-2.04-1.28-3.06-1.27-4.15,0-1.1-.15-2.58,1.51-3.53.32-.18.59-.33.83-.44.39-.18.71-.3.98-.38.47-.15.81-.21,1.24-.36.77-.29,3.35-1.86,3.67-2.05-.14.03-.62.14-1.1.09-.56-.05-1.09-.5-2.29-.92-1.19-.44-3.15.75-3.7,1-.56.26-.83-.68-.98-1.15s-.89-2.08-1.24-3c-.33-.91-.24-1.3.12-1.83.09-.14.24-.32.44-.5.2-.2.45-.42.72-.63.44-.36.95-.69,1.4-.91,1.03-.47,1.18-.11,1.27.35.08.44.06,1.1-.08,1.57-.03.08-.04.14-.08.2-.15.38.08.38.41.27.11-.03.23-.11.35-.21.24-.18.45-.47.45-.78,0-.45-.12-2.57-.12-2.57-2.26.08-3.59.95-4.27,1.37-.15.09-.3.2-.45.29-.54.38-1.01.69-.71.18.06-.11.15-.23.27-.35.44-.5,1.13-1.03,1.33-1.18-.62.3-1.16.74-1.54,1.09-.32.29-.53.5-.6.53-.18.06-.29-.11.21-.68.06-.06.12-.12.18-.2.68-.74,1.83-1.43,1.83-1.43,0,0-.24,0-1.04.5-.66.44-1.28.89-1.54.92-.05.02-.09,0-.11-.03h0c-.09-.23.29-.72.29-.72.74-1.21,2.64-2.84,5.15-3.27.63-.11,1.31-.14,2.02-.06.98.11,1.86.41,2.63.81,1.93,1.01,3.11,2.63,3.15,2.9.05.38-.27.3-.77-.17-.51-.47-1.51-.88-1.51-.88.81.57,2.44,2.1,2.58,2.35.12.26.01.56-.39.05-.36-.45-1.03-.88-1.19-.98.71.68,1.4,1.51,1.31,1.86-.08.33-.33.14-.54-.12-.2-.26-1.06-1.03-1.06-1.03-2.14-1.75-4.75-1.75-4.75-1.75,0,0-.06.59.48,1.4.54.8,1.46.65,1.69.41.23-.24.38-.66,1.33,0,.97.65,1.95,2.04,1.95,2.04,0,0,.06.98.08,1.93.01.17.01.33.01.48,0,.12,0,.26-.03.42-.09,1.37-.66,4.24-2.53,4.99-1.1.44-1.58.85-1.8,1.13-.2.26-.17.42-.17.42.23,0,.48-.02.75-.05,1.13-.14,2.44-.51,2.44-.51,0,0-.12.85.36,2.34.12.41.3.88.54,1.37.03.05.04.11.08.15,1.19,2.4,2.78,2.81,2.78,2.81.92.12,1.8.32,2.58.56.86.24,1.61.54,2.19.81.2.11.36.21.54.35.54.41,1.34,1.07,2.19,2.02.56.62,1.15,1.37,1.69,2.23-.54-.59-1.19-1.15-1.96-1.68-3.47-2.41-8.27-3.35-13.2-4.01-4.5-.6-5.31-2.66-5.42-3.03.51,2.69,2.19,3.43,3.61,4.09,1.45.66,3.46,1.34,9.54,3.71,6.08,2.37,7.59,5.72,7.59,5.72,1.42,2.82.97,5.48.33,7.21-.5,1.19-1.13,2.23-1.64,2.96v.02c-.2.29-.36.53-.5.69-.14.18-.23.29-.26.33l.32-.27c.23-.2.42-.39.62-.59.86-.89,1.43-1.77,1.69-2.2,1.46,2.87,3.36,5.01,4.3,5.72l-.48,2.11-.23.98-1.9,8.3s-2.44-5.05-7.59-8.63c-.09-.08-.18-.14-.26-.2-.03-.02-.05-.05-.08-.05-.09-.08-.18-.14-.26-.2-.09-.09-.18-.15-.29-.2.01,0,.03.02.03.03.59.66,5.99,7.05,7.24,17.43,0,0,.11,1.01.24,2.58.06.62.12,1.31.18,2.05.04.62.09,1.25.14,1.92.05.42.08.86.09,1.3.03.24.05.5.05.74.14,2.34.27,4.93.32,6.97.03.72.01,1.37,0,1.95,0,.12,0,.26-.02.36-.01.12-.03.23-.03.33l.03-.11v-.02l1.8-6.67,2.14-8.01.23-.87.74-2.76.03-.08h0s.03-.11.03-.11l.66-2.47,1.6-8.37.18-1.01,3.55-18.59.17-.89.91-4.75c.54-.78,1.49-2.19,1.98-3.18.68-1.43.06-1.22.06-2.19s.27-1.03-.27-1.45c-.18-.12-.3-.26-.41-.36l.48-2.52.15-.85,2.35-12.36,2.4-.75,1.81-.57,2.91-.92c-.62-1.36-1.3-2.67-2.05-3.95ZM73.9,106.32c-.3,0-.6-.03-.89-.08,2.29-.18,4.09-2.01,4.09-4.24,0-2.05-1.52-3.77-3.56-4.16.12,0,.24-.02.36-.02,2.46,0,4.45,1.9,4.45,4.26s-1.99,4.24-4.45,4.24Z"/>
          </g>
          <g>
            <path class="cls-2" d="M95.78,161.29c-.17.33-.32.71-.48,1.1l-6.02-16.36c.24-.2.48-.38.69-.54l5.81,15.8Z"/>
            <g>
              <path class="cls-2" d="M67.29,102.71h-.21c.06-.08.12-.15.17-.21.02.06.03.14.05.21Z"/>
              <path class="cls-2" d="M67.56,103.92l-1.75.47.81-1.09.75-.2v.02c.04.27.11.54.18.8Z"/>
              <path class="cls-2" d="M68.11,105.18l-4.32,2.23c.3-.48.62-.97.92-1.43l3.03-1.55c.11.26.23.51.36.75Z"/>
              <path class="cls-2" d="M68.89,106.29c-1.72,1.39-4.44,3.62-7.91,6.47.27-.62.56-1.21.86-1.81,2.81-2.31,5.02-4.12,6.52-5.33.15.24.32.45.53.66Z"/>
              <path class="cls-2" d="M70.13,107.4c-.14.02-.32.05-.51.08-.45.09-1,.21-1.4.38l.98-1.22c.2.2.42.39.65.56.09.08.2.15.29.21Z"/>
              <path class="cls-2" d="M68.24,109.18l-10.35,12.92c.14-.66.29-1.31.47-1.96l9.45-11.77c0,.15.03.3.11.35.15.09.35.11.35.11,0,0-.01.14-.01.36Z"/>
              <path class="cls-2" d="M68.78,112.37l-11.87,23.93c-.05-.57-.08-1.15-.11-1.72l11.63-23.42c.08.39.2.8.35,1.21Z"/>
              <path class="cls-2" d="M70.51,114.89l-.24.92c-.06.03-.12.08-.18.12-.39.36-.32.75-.32.91s.02.33-.12.47c-.15.14-.35.6-.11,1.13,0,0,.02.02.02.05l-8.84,33.11c-.18-.42-.36-.85-.53-1.27l9.64-36.17c.23.29.47.54.68.74Z"/>
              <path class="cls-2" d="M72.38,127.92l-2.25,37.81c-.27-.29-.54-.57-.8-.86l2.35-39.59c.12.38.24.81.38,1.33.11.39.2.85.32,1.31Z"/>
              <path class="cls-2" d="M81.2,150.87l3.77,25.41c-.32-.15-.62-.29-.93-.44l-3.7-24.93c.26.02.54.02.86-.05Z"/>
            </g>
            <path class="cls-2" d="M76.21,93.85c-.39.29-.77.57-1.15.88l-.33,1.13c.29.04.56.11.83.2l.65-2.2Z"/>
            <path class="cls-2" d="M76.77,96.58l2.58-4.89c-.5.32-1,.63-1.48.97l-1.87,3.55c.27.11.53.23.77.38Z"/>
            <path class="cls-2" d="M74.25,95.8l.03-.42c-.18.12-.33.26-.5.39.15,0,.32.02.47.03Z"/>
            <path class="cls-2" d="M75.82,114.67c-.3.27-.57.48-.77.62-.18.14-.3.2-.3.2.11.05.23.14.36.21.29.2.59.42.59.42,0,0,.18.05.36.17l-.24-1.61Z"/>
            <path class="cls-2" d="M76.04,117.77c.39.92-.04,1.7-.04,1.7.32.57-.05,1.12-.05,1.12,0,0,.14.3.03.53-.01.03-.03.06-.04.12v.02l.91,6.08c.35.83.81,1.87,1.28,2.9l-1.87-12.61c-.11.12-.21.15-.21.15Z"/>
            <path class="cls-2" d="M79.88,100.81l45.65-12c-.41-.2-.81-.39-1.24-.56l-44.65,11.72c.11.27.2.54.24.83Z"/>
            <path class="cls-2" d="M76.81,107.93c.44.11.91.26,1.27.41l-.68-1.09c-.23.18-.47.33-.72.47l.14.21Z"/>
            <path class="cls-2" d="M79.26,99.1c.08.14.14.27.2.42l30.38-15c-.56-.05-1.1-.09-1.66-.14l-29.11,14.4c.08.11.14.21.2.32Z"/>
            <path class="cls-2" d="M149.66,113.84l-3.91-.63-1.81.57,6.1.97c-.14-.3-.26-.6-.38-.91Z"/>
            <path class="cls-2" d="M77.16,113.15l8.98,24.38.59-.81-9.07-24.63c-.12.38-.3.74-.5,1.06Z"/>
            <path class="cls-2" d="M78.59,98.12c.08.08.14.17.18.24l16.7-13.11c-.63.14-1.28.27-1.92.42l-15.35,12.04c.14.12.26.27.38.41Z"/>
            <path class="cls-2" d="M77.87,97.38l7.32-8.81c-.62.27-1.22.56-1.83.86l-6.16,7.42c.24.15.45.32.66.53Z"/>
            <path class="cls-2" d="M80.03,102.12v.03l59.54-3.27h.14c-.03-.06-.06-.08-.11-.12-.23-.24-.45-.47-.69-.69l-58.92,3.24c.03.27.04.54.04.81Z"/>
            <path class="cls-2" d="M126.5,136.86l4.47,2.88.18-.87-5.39-3.5c.27.5.51,1,.74,1.49Z"/>
            <path class="cls-2" d="M132.4,162.69l5.25,5.37c.21-.2.42-.38.62-.57l-5.69-5.81-.18,1.01Z"/>
            <path class="cls-2" d="M136.13,143.09l13.28,8.6c.12-.26.23-.53.33-.78l-13.44-8.71-.17.89Z"/>
            <path class="cls-2" d="M139.19,126.9l-.15.85,14.35,5.52c.01-.26.01-.53.01-.8v-.09l-14.21-5.48Z"/>
            <path class="cls-2" d="M121.37,151.45l.02.02,5.88,6.01.23-.98-5.51-5.63c-.2.2-.39.39-.62.59Z"/>
            <path class="cls-2" d="M134.14,124.95l-12.52-4.81-.65-.26-6.19-2.38c0,.32.02.62.03.92l19.15,7.36.18-.83Z"/>
            <path class="cls-2" d="M78.74,105.92l18.11,11.72c.03-.3.06-.62.11-.94l-17.73-11.5c-.14.24-.29.48-.48.71Z"/>
            <path class="cls-2" d="M77.78,106.96l17.26,17.61c.14-.18.27-.35.42-.51,0,0,.04-.05.12-.15l-17.2-17.55c-.17.21-.38.42-.6.6Z"/>
            <path class="cls-2" d="M79.88,103.48l19.93,3.2c.17-.26.36-.51.57-.75l-20.37-3.27c-.03.29-.08.56-.14.83Z"/>
            <path class="cls-2" d="M79.44,104.79l18.45,7.11s.02-.08.03-.11c.06-.21.12-.45.18-.71l-18.36-7.08c-.08.27-.18.53-.3.78Z"/>
            <path class="cls-2" d="M78.7,109.35c-.12.12-.39.05-.39.05,0,0,.02.2-.11.77l13.22,21c.24-.24.45-.45.63-.63l-13.34-21.2s-.01.02-.01.02Z"/>
            <path class="cls-2" d="M134.26,112.22l1.75-.57-23.49-3.77c-.08-.17.45.92.45.92l21.29,3.43Z"/>
          </g>
          <path class="cls-2" d="M146.62,108.34l-4.1,1.19,1.16-5.69c1.06,1.45,2.05,2.94,2.94,4.5Z"/>
          <polygon class="cls-2" points="116.37 156.24 116.37 156.24 116.37 156.24 116.37 156.24"/>
          <path class="cls-2" d="M74.66,97.7s-.03,0-.05,0c.01,0,.02,0,.03.01,0,0,.01,0,.02-.01Z"/>
          <path class="cls-2" d="M74.6,98.53s.04-.03.09-.07c-.06.02-.09.04-.09.07Z"/>
          <polygon class="cls-2" points="74.33 105.07 74.32 105.08 74.33 105.07 74.33 105.07"/>
          <path class="cls-2" d="M116.37,156.24s0,0,0,0c0,0,0,0,.02,0,.04-.03.08-.07.11-.1-.04.03-.09.07-.13.1Z"/>
          <path class="cls-2" d="M74.66,97.7s-.01,0-.02.01c-.01,0-.02,0-.03-.01.02,0,.03,0,.05,0Z"/>
          <path class="cls-2" d="M74.69,98.47s-.08.07-.09.07c0-.02.04-.05.09-.07Z"/>
          <polygon class="cls-2" points="74.33 105.07 74.33 105.07 74.32 105.08 74.33 105.07"/>
          <g>
            <path class="cls-2" d="M115.72,57.93c5.28,4.96,10.98,5.12,10.98,5.12-3.42-3.38-.85-8.03-.85-8.03l-3.35-1.56c-3.38,5.06-6.78,4.47-6.78,4.47Z"/>
            <path class="cls-2" d="M94.89,57.93s-3.4.58-6.78-4.47l-3.35,1.56s2.57,4.65-.85,8.03c0,0,5.69-.15,10.98-5.12Z"/>
            <polygon class="cls-2" points="145.83 95.9 146.73 93.84 144.82 94.8 145.83 95.9"/>
            <path class="cls-2" d="M52.23,118.56c-.3-.08-.55-.05-.75.06-.2.12-.34.32-.41.62l-.13.51,1.9.48.09-.34c.09-.36.08-.65-.04-.87-.12-.22-.34-.38-.66-.46Z"/>
            <path class="cls-2" d="M50.08,118.2c-.54-.14-.88.08-1.03.65l-.1.4,1.63.41.09-.63c.03-.21,0-.39-.1-.53-.1-.14-.27-.24-.49-.3Z"/>
            <polygon class="cls-2" points="152.86 105.67 154.19 103.85 152.12 104.37 152.86 105.67"/>
            <path class="cls-2" d="M55.83,104.54c-.26-.14-.5-.18-.74-.11s-.43.24-.58.51l-.14.24,1.72.96.14-.24c.15-.26.18-.52.1-.77-.08-.25-.24-.45-.5-.59Z"/>
            <path class="cls-2" d="M71.26,88.5c-.26-.33-.53-.57-.82-.73-.28-.16-.57-.23-.85-.22-.28.01-.54.12-.79.31l-.4.32,2.5,3.14.39-.31c.25-.2.41-.43.49-.7.08-.27.08-.56-.01-.87-.09-.31-.26-.62-.51-.94Z"/>
            <polygon class="cls-2" points="101.7 77.81 103.19 77.75 102.19 75.73 101.7 77.81"/>
            <path class="cls-2" d="M64.62,94.61c-.33-.3-.65-.51-.96-.64-.31-.13-.6-.18-.86-.15-.26.03-.49.15-.68.36-.18.2-.27.41-.29.65s.06.49.21.75c.15.26.38.53.68.8.33.29.64.51.96.64.31.13.6.18.87.15.27-.03.49-.15.67-.36.17-.19.27-.41.28-.65.01-.24-.06-.49-.21-.75-.15-.26-.37-.53-.67-.8Z"/>
            <path class="cls-2" d="M116.7,76.55c-.16-.21-.38-.34-.66-.4-.26-.05-.5-.02-.71.09s-.39.3-.54.56c-.15.27-.26.6-.34.99-.08.43-.1.81-.06,1.15.05.34.15.61.32.82.17.21.38.34.65.4.26.05.49.02.7-.09.21-.11.39-.3.54-.56.15-.26.26-.59.34-.99.09-.43.11-.82.06-1.15-.05-.33-.15-.61-.31-.82Z"/>
            <path class="cls-2" d="M109.63,75.54c-.22-.18-.48-.28-.79-.31l-.52-.04-.29,4,.5.04c.32.02.59-.04.84-.18.24-.14.43-.36.58-.65.14-.29.23-.63.26-1.04.03-.42,0-.78-.11-1.09s-.26-.55-.48-.74Z"/>
            <path class="cls-2" d="M51.15,124.33c-.27-.13-.61-.23-1.01-.28-.44-.06-.82-.06-1.15.01s-.6.19-.8.36c-.2.17-.32.4-.36.68-.04.26,0,.5.13.7s.32.37.59.5.61.23,1.01.28c.43.06.82.06,1.15-.01s.6-.19.8-.36c.2-.18.32-.4.36-.67.03-.26-.01-.49-.14-.7-.13-.2-.32-.37-.59-.51Z"/>
            <path class="cls-2" d="M124.88,78.66l-.48-.18-1.41,3.75.47.18c.3.11.58.13.85.06.27-.07.52-.22.74-.46.22-.24.4-.54.54-.92.15-.39.22-.75.21-1.08-.01-.32-.09-.6-.25-.84-.16-.24-.38-.41-.67-.52Z"/>
            <path class="cls-2" d="M69.15,176.92c.19-.02.41-.11.64-.28s.5-.42.78-.75c.45-.52.74-.95.85-1.31.12-.36.06-.64-.17-.84-.15-.14-.33-.19-.52-.18-.19.02-.41.11-.64.28-.24.17-.5.42-.79.74-.45.52-.73.95-.85,1.32-.11.36-.06.64.17.84.15.13.32.19.52.17Z"/>
            <path class="cls-2" d="M136.26,178.7c.39.56.75.94,1.07,1.14.32.2.61.21.86.04.16-.11.26-.27.29-.46.03-.19,0-.42-.11-.69-.11-.27-.29-.59-.53-.94-.39-.56-.75-.94-1.07-1.14-.32-.2-.61-.21-.85-.04-.17.12-.27.27-.3.46s0,.42.11.69c.11.27.28.59.53.94Z"/>
            <path class="cls-2" d="M146.58,169.81c.51.45.95.74,1.31.85.36.12.64.06.84-.17.13-.15.19-.32.18-.52-.02-.19-.11-.41-.28-.65-.17-.24-.42-.5-.74-.79-.51-.45-.95-.74-1.31-.86-.36-.12-.64-.06-.84.16-.14.15-.2.33-.18.52.02.19.11.41.28.65.17.24.41.5.74.79Z"/>
            <path class="cls-2" d="M139.71,98.88h.02c.71.72,1.37,1.46,2.02,2.22.33.41.68.81,1.01,1.22.33.42.65.85.97,1.27v.02c1.13,1.49,2.16,3.05,3.09,4.68.03.04.05.09.08.14.35.59.68,1.21,1,1.81.35.66.68,1.33.98,2.01,2.84,6.14,4.42,12.98,4.42,20.19,0,17.46-9.28,32.76-23.18,41.21h0s-.03.09-.03.09l-.74,2.76c15.47-8.59,25.94-25.08,25.94-43.99,0-27.75-22.56-50.31-50.29-50.31s-50.31,22.56-50.31,50.31c0,22.71,15.12,41.95,35.82,48.17.05-.42.15-1.15.33-2.13v-.03c-19.69-6.05-34.01-24.38-34.01-46.08,0-1.55.08-3.08.21-4.59.05-.56.12-1.12.2-1.68.08-.68.18-1.34.3-2.01.42-2.44,1.03-4.83,1.81-7.12.12-.38.24-.75.39-1.12.14-.39.29-.78.44-1.16.12-.35.26-.69.42-1.03.24-.62.51-1.22.8-1.81.11-.23.21-.45.32-.66.12-.23.24-.47.36-.71.69-1.39,1.46-2.73,2.31-4.03.39-.66.83-1.3,1.3-1.93.5-.72,1.03-1.42,1.57-2.11.42-.56.88-1.09,1.33-1.61.06-.06.11-.12.15-.17.51-.59,1.03-1.16,1.57-1.72.48-.5.98-1,1.48-1.48.06-.05.12-.11.17-.15.48-.45.97-.89,1.46-1.33.09-.08.18-.17.27-.24h.01c8.44-7.23,19.39-11.59,31.37-11.59,13.55,0,25.79,5.58,34.54,14.58.04.05.08.06.1.12Z"/>
            <path class="cls-2" d="M117.24,70.57c7.33-.06,16.45,3.52,16.45,3.52l15.33-22.71c-7.86-3.56-14.49,1.31-14.49,1.31,2.32,1.07,3.43,5.95-.11,9.4-3.55,3.47-8.16,3.26-11.63,2.44-3.46-.81-10.06-4.01-11.15-10.23-1.54-8.84,6.2-8.56,6.2-8.56-3.17-4.09-7.56-.95-7.56-.95.26-5.63-4.38-9.13-4.75-9.28h-.03c-.38.15-5.11,4.04-4.63,9.27,0,0-4.38-3.12-7.58.91,0,0,7.94.06,6.07,8.86-1.33,6.23-7.39,9.14-10.85,9.96-3.46.81-8.57,1.13-11.92-2.49-3.35-3.62-1.01-7.32-.11-9.3,0,0-6.59-4.9-14.47-1.34l15.33,22.71s8.33-3.26,15.47-3.5c-28.94,5.69-50.78,31.21-50.78,61.84s20.64,54.74,48.41,61.29l-.11-1.57v-.32c-10.73-2.63-20.55-8.13-28.55-16.13-11.54-11.54-17.9-26.89-17.9-43.2s6.35-31.67,17.9-43.2c11.53-11.54,26.88-17.9,43.2-17.9s31.66,6.35,43.19,17.9c11.54,11.53,17.9,26.87,17.9,43.2s-6.35,31.66-17.9,43.2c-6.23,6.23-13.57,10.94-21.58,13.97,0-.23,0-.47-.01-.72,22.69-8.72,38.84-30.74,38.84-56.45,0-33.33-27.12-60.45-60.43-60.45s-60.45,27.12-60.45,60.45c0,28.26,19.51,52.06,45.8,58.62-.01-2.01-.03-6.52.11-9.79-8.04-2.37-15.39-6.71-21.49-12.81-9.63-9.61-14.92-22.41-14.92-36.02s5.3-26.41,14.92-36.03c9.63-9.63,22.42-14.92,36.03-14.92s26.39,5.3,36.02,14.92c9.63,9.63,14.92,22.42,14.92,36.03s-5.3,26.41-14.92,36.02c-3.58,3.58-7.57,6.53-11.89,8.84l-2.14,8.01-1.8,6.67v.14c24.94-8.4,42.92-31.97,42.92-59.75,0-30.65-21.87-56.18-50.85-61.85ZM109.54,64.44c-3.58-.6-6.61-.27-8.21.02-.15.02-.32.05-.47.06.38-.24,3.52-2.17,4.65-5.69,1.21,3.76,4.71,5.7,4.71,5.7-.23-.05-.45-.06-.68-.09ZM81.69,180.5l1.42.73-.08.16-3.86,1.27,1.48.76.42-.81.17-.06.91.47-.48.93.94.48-.21.41-.94-.48-.26.51.4.65-.07.13-2.18-1.12.07-.13.76-.06.26-.51-1.91-.98v-.23s3.16-2.11,3.16-2.11ZM72.39,179.92l1.07-.2c.56-.1,1.01-.21,1.36-.31.35-.1.63-.21.83-.33s.36-.26.46-.41c.16-.24.23-.47.21-.7-.03-.23-.14-.41-.35-.55-.05-.04-.12-.04-.17-.06l-1.09.42-.14-.09.09-1.12c.2.01.4.04.59.09.19.05.38.12.56.2.18.08.36.18.52.29.53.36.88.72,1.05,1.08.17.36.15.69-.06,1-.09.14-.22.25-.39.35-.17.09-.39.17-.66.24-.27.06-.6.11-1.01.14-.4.03-.89.05-1.45.06l-.15.02,1.53,1.04.98-.17.14.1-.9,1.27-3.06-2.09.02-.26ZM67.62,174.98c.1-.38.3-.75.62-1.11.34-.39.7-.67,1.08-.83.38-.16.76-.22,1.14-.15.38.06.74.24,1.08.54.34.29.56.62.68.98.12.36.13.73.04,1.11-.1.38-.3.75-.62,1.11-.34.39-.7.66-1.08.83-.38.17-.76.22-1.14.16-.38-.06-.74-.24-1.07-.53-.34-.3-.57-.63-.69-.98s-.13-.73-.04-1.11ZM62.17,170.27l1.09.07c.56.04,1.03.05,1.4.04.37-.01.66-.05.89-.12.23-.07.41-.16.55-.29.22-.19.34-.4.37-.63.03-.23-.04-.43-.2-.62-.04-.05-.11-.06-.15-.1l-1.16.14-.11-.12.36-1.07c.19.06.37.14.54.24.17.1.34.21.49.33.16.13.3.26.43.41.43.48.68.92.76,1.31.08.39-.02.71-.3.95-.12.11-.28.19-.46.24-.19.05-.42.07-.69.07-.28,0-.61-.04-1.01-.11-.4-.07-.87-.17-1.42-.29l-.15-.02,1.23,1.39.99.07.11.13-1.18,1.01-2.45-2.77.08-.25ZM162.81,133.72c-.2.39-.48.69-.85.91-.37.22-.81.33-1.32.33-.52,0-.97-.1-1.35-.32-.39-.22-.69-.52-.9-.92-.21-.4-.32-.87-.33-1.42,0-.53.09-.99.29-1.38.2-.39.48-.7.86-.91.37-.22.81-.33,1.32-.33.52,0,.97.1,1.36.32.38.22.68.52.9.92.21.4.32.87.32,1.42,0,.53-.09.99-.29,1.38ZM162.44,123.8l.02,1.03.27,2.24.22,1.01.02.16-1.42.19-.02-.17.79-1.08-.02-.56-3.8.45-.4.59-.15.02-.27-2.29.15-.02.53.48,3.8-.45-.11-.56-1.02-.87-.02-.17,1.42-.15.02.15ZM161.27,119.35l.15-.03.19.86.13.59-3.73,2.73-.34.48-.15.03-.47-2.16.15-.03.54.43.71-.52-.38-1.74-.84-.05-.31.62-.15.03-.39-1.77.15-.03.52.3,3.85.79.37-.52ZM51.92,129.82l-.48.74c.04.05.1.09.14.15.21.32.31.7.31,1.14,0,.51-.11.95-.32,1.33-.2.37-.49.65-.85.85-.37.19-.8.29-1.3.28-.4,0-.75-.08-1.07-.21s-.59-.31-.82-.55c-.23-.24-.4-.52-.52-.85-.12-.33-.17-.69-.17-1.09,0-.22.03-.45.07-.67s.11-.44.18-.65c.08-.21.17-.38.28-.54l1,.55v.17s-1,.83-1,.83c-.02.08-.05.14-.06.23,0,.27.08.51.24.72.17.21.39.39.68.51.29.13.61.19.97.2.4,0,.75-.05,1.05-.18.3-.13.53-.31.7-.55.17-.24.26-.53.26-.86,0-.19-.04-.35-.1-.49l-1.09-.02-.48.56h-.15s.04-2.17.04-2.17h.15s.42.38.42.38l1.9.03v.16ZM52.35,125.68c-.07.52-.23.96-.48,1.32-.25.36-.58.62-.98.78-.4.16-.85.21-1.35.14-.52-.07-.95-.24-1.3-.51-.35-.27-.6-.61-.76-1.04-.15-.42-.2-.91-.12-1.45.07-.53.23-.97.49-1.33.25-.36.58-.62.97-.78.4-.16.85-.21,1.35-.14.51.07.94.24,1.3.51s.6.61.76,1.04c.15.43.19.91.12,1.45ZM53.32,119.97l-.2.8-.31,1.23-.15-.04-.33-.6-3.47-.87-.58.37-.15-.04.42-1.67.13-.53c.17-.66.37-1.12.62-1.39s.55-.35.91-.26c.38.09.61.32.71.67.04.16.05.36.04.57h.04c.13-.3.27-.57.45-.73.28-.26.61-.34,1-.24.32.08.56.23.73.46s.27.53.29.91c.02.38-.04.83-.17,1.35ZM54.27,116.6l-.15-.05-.28-.62-3.38-1.16-.6.32-.15-.05.72-2.1.15.05.28.62,3.38,1.16.6-.32.15.05-.72,2.1ZM56.81,110.09l-.93,2.16-.55,1.26-.14-.06-.23-.64-3.28-1.42-.63.27-.14-.06.69-1.58.39-.9.32-.99.05-.12,1.16.49-.07.16-1,.5-.52,1,1.65.72.29-.82-.26-.74.07-.16,1.4.6-.07.16-.71.31-.39.78,1.79.77.39-1.11-.4-1.19.07-.16,1.16.55-.09.22ZM59.01,105.93l-2.41.07-.18.32,1.26.71.65-.2.13.08-1.08,1.94-.13-.07-.17-.66-3.12-1.74-.65.2-.13-.08.84-1.51.35-.63c.31-.55.63-.91.98-1.08.35-.17.71-.15,1.08.06.38.21.59.52.62.94.01.17-.02.35-.06.54l1.94-.05.67-.21.13.08-.73,1.31ZM62.41,100.81l-4.54.24,2.53,1.51.67-.13.13.09-1,1.4-.13-.09-.09-.68-2.68-2.09-.85.08-.13-.09.39-.55.4-.57,4.21-.22-2.39-1.27-.67.13-.13-.09,1-1.4.13.09.09.68,3.43,2.44-.37.52ZM66.24,95.94c-.11.44-.35.86-.71,1.26-.35.39-.73.66-1.15.82-.41.16-.83.19-1.25.1-.42-.09-.82-.3-1.2-.64-.39-.35-.65-.73-.79-1.15-.14-.42-.15-.85-.04-1.28.11-.44.35-.86.72-1.26.35-.39.74-.67,1.15-.82.41-.15.83-.19,1.24-.1s.82.3,1.2.65c.38.35.65.73.79,1.15s.15.85.04,1.29ZM72.74,89.49c-.06.33-.19.65-.39.96-.2.31-.46.6-.79.86l-.67.54-1.08.86-.1-.12.1-.68-2.23-2.8-.68-.06-.1-.12,1.35-1.08.51-.4c.43-.35.87-.57,1.31-.68.44-.1.86-.09,1.25.04s.74.39,1.04.76c.23.28.38.59.46.91.08.32.09.65.03.98ZM76.99,87.47h0s-1.17.75-1.17.75l-1.16.74-.08-.13.17-.66-1.92-3.02-.67-.13-.08-.13,1.46-.93.83-.53.82-.64.11-.07.68,1.06-.15.09-1.11-.15-.99.53.97,1.52.7-.51.2-.75.15-.09.82,1.28-.15.09-.76-.14-.76.42,1.05,1.65.94-.7.34-1.21.15-.09.66,1.11-1.01.65ZM82.28,84.58l-1.75.89-1.54.78-.07-.14.23-.64-1.63-3.19-.66-.19-.07-.14,1.99-1.02.07.14-.24.65,1.75,3.42.87-.53.37-1.38.16-.08.67,1.33-.16.08ZM88.33,82.2l-.99.34h0l-1.63.56-.05-.15.32-.6-1.16-3.38-.62-.28-.05-.15,1.63-.56.93-.32.95-.43.13-.04.41,1.19-.17.06-1.05-.4-1.09.29.59,1.7.8-.33.37-.69.17-.06.5,1.44-.17.06-.71-.31-.84.23.63,1.84,1.08-.46.61-1.1.17-.06.38,1.23-1.14.39ZM93.98,79.98c-.1.28-.29.52-.55.72-.27.2-.6.35-1,.45-.22.05-.43.08-.65.1s-.44,0-.65-.03c-.22-.03-.43-.07-.63-.14l.22-1.1.17-.04.98.73c.17,0,.34.02.53-.03.27-.07.47-.18.58-.33.12-.16.15-.34.1-.57-.04-.19-.17-.32-.38-.4-.21-.08-.54-.13-1-.16-.38-.03-.69-.08-.94-.15-.25-.07-.44-.19-.57-.34-.13-.15-.23-.34-.29-.58-.11-.45-.03-.84.24-1.19.27-.34.68-.58,1.25-.72.19-.05.39-.07.6-.08.21,0,.42,0,.64.03.21.03.42.07.61.14l-.29,1.06-.17.04-.99-.72c-.11,0-.21-.02-.33,0-.23.05-.4.15-.52.29-.12.14-.15.3-.11.46.04.18.17.31.38.39.21.08.54.14,1,.16.38.02.7.07.94.15.24.08.43.19.57.34.13.15.23.34.29.59.08.33.07.63-.04.91ZM99.32,76.28l-1.1-.77-.56.03.53,3.79.6.39.02.15-2.28.32-.02-.15.47-.54-.53-3.79-.55.13-.85,1.04-.17.02-.18-1.42.15-.02,1.03-.05,2.24-.31,1-.24.16-.02.22,1.42-.17.02ZM103.27,79.55v-.15s.51-.46.51-.46l-.39-.79-1.78.07-.19.82.55.41v.15s-1.81.08-1.81.08v-.15s.38-.47.38-.47l1.44-3.66-.45-.45v-.15s.7-.03.7-.03l.78-.03,2.05,4.15.41.42v.15s-2.2.09-2.2.09ZM111.27,78.36c-.16.29-.38.54-.65.74-.27.2-.58.35-.94.44s-.74.13-1.16.1l-.52-.04h0s-1.72-.13-1.72-.13v-.15s.54-.43.54-.43l.26-3.57-.46-.5v-.15s1.27.09,1.27.09l1.11.08c.55.04,1.03.17,1.42.39.39.22.69.52.89.88.2.37.28.79.24,1.26-.03.36-.12.69-.28.98ZM118.3,78.63c-.1.51-.29.93-.58,1.26-.29.33-.65.57-1.08.69-.43.13-.92.14-1.45.03-.52-.1-.95-.29-1.29-.56-.34-.27-.59-.62-.72-1.02s-.16-.86-.06-1.36c.1-.51.3-.93.59-1.27.29-.33.65-.56,1.08-.69.43-.13.92-.14,1.45-.03.52.1.95.29,1.3.57.34.27.58.61.72,1.02s.16.86.06,1.36ZM126.33,82.35c-.24.23-.51.41-.83.52-.31.12-.66.17-1.03.16-.37,0-.75-.09-1.14-.24l-.49-.18-1.62-.61.05-.14.63-.26,1.26-3.35-.3-.61.05-.14,1.18.44,1.05.39c.52.2.94.46,1.25.78.32.32.52.69.6,1.1.09.41.04.83-.12,1.28-.13.34-.31.63-.55.86ZM132.06,82.71l-.16-.08-.45-1.03-.97-.58-.81,1.61.8.34.75-.22.16.08-.68,1.36-.16-.08-.27-.73-.75-.44-.87,1.74,1.09.45,1.21-.34.16.08-.61,1.13-1.07-.54h0l-.93-.47-1.54-.77.07-.14.65-.2,1.6-3.2-.23-.64.07-.14,1.23.62,1.2.6.97.38.12.06-.56,1.13ZM139.06,88.97l-.55.13-1.1,1.55-.13-.09-.34-.81c-.07,0-.13.03-.2.03-.38,0-.75-.13-1.12-.39-.42-.3-.72-.63-.92-1.01-.19-.38-.27-.77-.22-1.18.05-.41.21-.82.5-1.23.23-.32.49-.58.77-.77.29-.19.59-.31.92-.37.32-.06.66-.04.99.05.34.09.67.25,1,.48.18.13.35.28.51.44.16.16.3.34.43.52.13.18.22.36.29.53l-1.02.52-.14-.1-.12-1.3c-.05-.06-.08-.12-.15-.17-.22-.15-.46-.22-.73-.2s-.54.11-.81.27c-.27.16-.51.4-.72.69-.23.33-.38.65-.44.97-.06.32-.04.62.06.89.1.28.29.51.56.7.15.11.31.16.46.19l.63-.89-.19-.71.09-.13,1.77,1.25-.09.13ZM141.18,93.56c-.32-.08-.63-.24-.93-.5-.52-.46-.81-.93-.88-1.42-.07-.48.1-.95.49-1.4l1.63-1.84-.06-.68.1-.11,1.66,1.47-.1.12-.68.02-1.49,1.68c-.31.36-.48.68-.5.98-.02.29.11.56.39.81s.56.34.85.28c.29-.05.59-.26.91-.61l1.46-1.65-.12-.78.1-.12,1.35,1.2-.1.11-.73.03-1.57,1.78c-.25.29-.53.48-.84.59-.31.1-.62.12-.95.04ZM146.11,98.64l-.11.1-1.49-1.63.11-.1.68.09.35-.8-1.21-1.32-.75.38.04.69-.11.1-1.23-1.34.11-.1h.6s3.73-1.27,3.73-1.27l.05-.63.11-.1.58.63.43.47-1.85,4.24-.05.59ZM148.75,102.47l1.21-4.38-2.23,1.92-.09.68-.12.09-1.01-1.39.12-.09.67.12,2.83-1.88.2-.83.12-.09.4.54.41.56-1.13,4.06,1.96-1.86.09-.68.12-.09,1.01,1.39-.12.09-.67-.13-3.4,2.48-.38-.51ZM152.54,108.41l-.13.08-1.1-1.91.13-.08.65.24.52-.71-.89-1.55-.81.21-.11.68-.13.08-.91-1.57.13-.08.59.12,3.91-.41.19-.61.13-.08.44.76h0l.3.53-2.73,3.73-.18.56ZM154.29,111.85c-.41-.18-.74-.55-.99-1.1-.08-.19-.14-.4-.17-.63s-.03-.46,0-.69c.03-.23.08-.44.16-.63l1.12.14.07.16-.79,1.09c0,.11.03.22.09.34.08.19.23.31.44.34.21.04.46,0,.75-.14l2.53-1.13.23-.64.14-.06.9,2.03-.14.06-.63-.26-2.34,1.04c-.51.23-.97.25-1.38.07ZM155.42,116.21c-.22-.66-.23-1.21-.04-1.67s.57-.77,1.13-.96l2.34-.77.29-.62.15-.05.69,2.11-.15.05-.6-.33-2.13.7c-.45.15-.76.34-.92.59-.16.24-.19.54-.07.89.11.35.31.57.59.67.28.1.64.08,1.09-.07l2.09-.69.29-.74.15-.05.56,1.72-.15.05-.65-.34-2.26.74c-.36.12-.7.15-1.02.08-.32-.06-.6-.21-.84-.44-.24-.23-.42-.53-.55-.9ZM144.88,168.64c.06-.38.24-.74.54-1.08.3-.34.62-.56.98-.68.36-.12.73-.13,1.11-.03.38.1.75.31,1.11.62.39.34.66.7.83,1.09s.22.76.15,1.14c-.06.38-.24.74-.54,1.07-.3.34-.63.57-.99.68-.36.12-.73.13-1.11.03-.38-.1-.75-.31-1.11-.62-.39-.34-.67-.71-.83-1.09-.16-.38-.21-.76-.15-1.14ZM139.95,173.1c.18-.26.41-.51.68-.75.28-.25.56-.43.83-.55.27-.12.51-.16.74-.14.22.02.41.12.56.29.25.28.29.61.14,1-.08.2-.21.41-.39.63l.02.02c.28-.17.54-.3.78-.35.44-.1.8.02,1.09.34.19.22.3.46.32.73.02.27-.05.55-.2.84-.15.29-.38.57-.7.85-.28.24-.56.44-.84.58-.29.15-.59.24-.91.3l-.25-1.11.13-.11,1.17.3c.1-.05.2-.09.29-.17.14-.12.23-.26.28-.41.05-.15.06-.31.02-.47-.04-.16-.11-.31-.23-.44-.12-.14-.27-.24-.44-.28-.17-.05-.34-.05-.52,0-.18.04-.35.13-.5.27l-.17-.19-.12-.14c.14-.13.24-.27.3-.43.06-.16.08-.32.06-.47s-.08-.3-.19-.42c-.14-.16-.32-.24-.53-.25-.21,0-.4.08-.59.24-.08.07-.13.17-.19.25l.13,1.12-.13.11-1.06-.36c.1-.28.24-.55.42-.82ZM134.88,177.17c.15-.35.41-.66.78-.92.37-.25.74-.4,1.11-.43.38-.03.74.05,1.08.23.35.19.66.48.93.87.29.42.48.84.54,1.25.07.41.03.79-.13,1.15-.15.35-.41.66-.78.91-.37.26-.74.4-1.12.43-.38.03-.74-.05-1.08-.23-.34-.19-.65-.47-.93-.87-.3-.43-.48-.85-.55-1.25-.07-.41-.03-.79.13-1.14ZM128.82,180.54c.13-.14.28-.28.44-.4.16-.12.33-.23.5-.32.57-.3,1.05-.44,1.45-.42.4.02.68.19.85.52.08.15.12.32.12.51,0,.19-.03.42-.1.69s-.19.59-.35.96c-.16.37-.37.81-.62,1.31l-.06.14,1.64-.86.31-.94.15-.08.7,1.39-3.28,1.72-.22-.14.32-1.04c.17-.54.29-.99.37-1.35.08-.36.11-.66.1-.89s-.06-.44-.15-.6c-.14-.26-.31-.43-.52-.51-.21-.08-.43-.07-.65.05-.06.03-.09.09-.13.13l-.14,1.16-.15.08-.95-.6c.11-.17.22-.33.36-.47Z"/>
            <path class="cls-2" d="M104,180.65c.01.09.01.17.03.24-.01-.15-.01-.24-.01-.24h-.01Z"/>
            <path class="cls-2" d="M161.73,131.17c-.29-.09-.64-.14-1.04-.13-.44,0-.82.06-1.14.17-.32.11-.57.27-.74.47s-.26.44-.26.72c0,.26.08.48.23.67s.37.32.66.42c.29.09.63.14,1.04.14.44,0,.82-.06,1.14-.17.32-.11.56-.27.74-.47.17-.2.26-.44.26-.72,0-.27-.08-.49-.23-.67s-.37-.32-.66-.41Z"/>
            <polygon class="cls-2" points="160.62 120.15 158.49 120.02 158.8 121.48 160.62 120.15"/>
          </g>
        </g>
        <g>
          <path class="cls-2" d="M247.05,126.43c0,2.2-.24,3.79-.72,4.77-.48.98-1.28,1.46-2.4,1.46s-1.87-.49-2.37-1.46c-.5-.98-.75-2.56-.75-4.77v-29.6h-12.15v29.04c0,5.77,1.26,9.96,3.77,12.56,2.51,2.6,6.35,3.89,11.5,3.89s9.04-1.3,11.53-3.89c2.49-2.6,3.74-6.78,3.74-12.56v-29.04h-12.15v29.6Z"/>
          <path class="cls-2" d="M268.02,96.88l1.45,5.92-8.97,39.54h13.02l1.18-6.09h7.85l1.18,6.09h12.9l-9.78-45.48-18.83.03ZM275.95,126.52l2.68-16.44,2.62,16.44h-5.3Z"/>
          <path class="cls-2" d="M421.79,126.43c0,2.2-.24,3.79-.72,4.77-.48.98-1.28,1.46-2.4,1.46s-1.87-.49-2.37-1.46c-.5-.98-.75-2.56-.75-4.77v-29.6h-12.15v29.04c0,5.77,1.26,9.96,3.77,12.56,2.51,2.6,6.35,3.89,11.5,3.89s9.04-1.3,11.53-3.89c2.49-2.6,3.74-6.78,3.74-12.56v-29.04h-12.15v29.6Z"/>
          <path class="cls-2" d="M442.8,96.85l1.4,5.95-8.97,39.54h13.02l1.18-6.09h7.85l1.18,6.09h12.9l-9.74-45.46-18.83-.03ZM450.68,126.52l2.68-16.44,2.62,16.44h-5.3Z"/>
          <path class="cls-2" d="M344.95,96.82l1.4,5.97-8.97,39.54h13.02l1.18-6.09h7.85l1.18,6.09h12.9l-9.77-45.48-18.81-.03ZM352.83,126.52l2.68-16.44,2.62,16.44h-5.3Z"/>
          <polygon class="cls-2" points="322.48 122.83 313.69 96.82 297.37 96.82 299.92 103.33 299.92 142.3 311.76 142.3 311.76 118.71 319.74 142.3 334.32 142.3 334.32 96.82 322.48 96.82 322.48 122.83"/>
          <path class="cls-2" d="M502.52,96.91h-36.54s2.43,10.05,2.43,10.05h9.54v35.32h12.21v-35.41h7.53c.39-3.69,2.18-7.29,4.81-9.89v-.08Z"/>
          <path class="cls-2" d="M532.82,105.6c-1.14-3.34-2.96-5.71-5.45-7.1-2.49-1.39-5.77-2.09-9.85-2.09s-7.35.7-9.85,2.09c-2.49,1.39-4.31,3.76-5.45,7.1-1.14,3.34-1.71,7.95-1.71,13.8s.57,10.46,1.71,13.8c1.14,3.34,2.96,5.71,5.45,7.1,2.49,1.39,5.77,2.09,9.85,2.09s7.35-.69,9.85-2.09c2.49-1.39,4.31-3.76,5.45-7.1,1.14-3.34,1.71-7.95,1.71-13.8s-.57-10.46-1.71-13.8ZM521.11,127.5c-.23,1.95-.62,3.31-1.18,4.08-.56.77-1.36,1.15-2.4,1.15s-1.79-.38-2.37-1.15c-.58-.77-.99-2.13-1.22-4.08-.23-1.95-.34-4.69-.34-8.23s.11-6.3.34-8.19c.23-1.89.63-3.2,1.22-3.93.58-.73,1.37-1.09,2.37-1.09s1.84.36,2.4,1.09c.56.73.95,2.04,1.18,3.93.23,1.89.34,4.62.34,8.19s-.11,6.27-.34,8.23Z"/>
          <path class="cls-2" d="M217.87,110.16l6.54-9.1s-5.54-5.89-16.38-4.23c-11.6,1.78-17.23,11.75-17.16,22.74.07,10.99,4.68,19.77,15.05,22.16,12.76,2.12,18.35-2.12,18.35-2.12v-19.99l-14.67-.07,3.48,6.22v4.9c-8.27,1.42-13.14-11.83-7.37-19.1,4.64-5.84,12.15-1.41,12.15-1.41Z"/>
          <path class="cls-2" d="M386.49,105.51v18.82c0,2.04-.12,3.6-.37,4.7-.25,1.1-.78,1.87-1.59,2.31-.81.44-2.03.65-3.65.65-.71,0-1.43-.07-2.18-.22-.68-.13-1.32-.27-1.93-.42-1.21-.4-1.82-.81-1.82-.81l2.21,10.94c1.92.76,5.57.92,6.48.94.45.02.86.03,1.22.03,2.58,0,4.75-.18,6.51-.53,1.76-.35,3.18-1.03,4.24-2.03s1.83-2.41,2.31-4.24c.48-1.83.72-4.24.72-7.23l.05-31.54-15.68-.05,3.48,8.66Z"/>
        </g>
        <g>
          <path class="cls-2" d="M238.39,163.84c-1.34,0-2.51-.26-3.49-.79s-1.74-1.29-2.27-2.28c-.53-.99-.79-2.19-.79-3.58,0-1.03.16-1.94.48-2.74.32-.8.78-1.47,1.37-2.02.6-.55,1.3-.96,2.12-1.24s1.72-.42,2.71-.42c.85,0,1.67.09,2.45.28.78.19,1.44.41,2,.68-.07.43-.13.89-.16,1.38-.03.5-.05,1.01-.05,1.54-.24.1-.51.16-.8.19-.29.03-.57.04-.84.04-.04-.72-.17-1.28-.39-1.69-.22-.41-.52-.7-.91-.87s-.83-.25-1.33-.25c-.78,0-1.41.22-1.9.67-.49.45-.84,1.03-1.06,1.74-.22.72-.33,1.47-.33,2.26,0,1.11.14,2.09.41,2.96.28.87.67,1.55,1.18,2.04.51.5,1.13.74,1.86.74.23,0,.42-.01.57-.03.15-.02.29-.05.41-.1.19-.08.34-.2.45-.38s.17-.51.17-1v-.72c0-.43-.03-.75-.1-.96-.07-.21-.21-.36-.41-.43s-.51-.12-.89-.13c-.05-.17-.08-.37-.1-.59-.02-.22-.03-.46-.03-.71.34.01.74.03,1.22.04.47.01.91.02,1.33.02.39,0,.83,0,1.33,0s.91-.02,1.25-.03c0,.2,0,.41-.02.64-.01.23-.04.44-.1.64-.23.01-.39.05-.51.12s-.18.19-.21.38c-.02.18-.04.45-.04.8v.55c0,.45.02.79.06,1.03.04.23.12.49.25.78-.58.42-1.29.76-2.13,1.04-.84.28-1.76.42-2.75.42Z"/>
          <path class="cls-2" d="M253.46,163.84c-1.33,0-2.47-.28-3.43-.84-.96-.56-1.69-1.33-2.21-2.32-.52-.99-.78-2.13-.78-3.44,0-.99.16-1.89.48-2.68.32-.8.76-1.48,1.34-2.04.57-.57,1.25-1,2.03-1.3.78-.3,1.64-.45,2.57-.45,1.29,0,2.42.26,3.38.78.96.52,1.71,1.25,2.25,2.19.54.94.81,2.05.81,3.33,0,.99-.15,1.9-.45,2.72-.3.82-.74,1.54-1.3,2.14-.57.6-1.24,1.07-2.03,1.4-.79.33-1.68.5-2.66.5ZM253.72,162.5c.6,0,1.11-.21,1.53-.63.41-.42.73-1,.95-1.75.22-.75.33-1.62.33-2.63s-.14-1.92-.41-2.74c-.28-.82-.67-1.48-1.17-1.97-.5-.49-1.09-.74-1.77-.74-.57,0-1.06.19-1.47.57s-.74.92-.96,1.62c-.23.7-.34,1.55-.34,2.54,0,.77.07,1.49.21,2.18.14.69.34,1.3.61,1.84s.61.95,1.03,1.25c.41.3.9.45,1.47.45Z"/>
          <path class="cls-2" d="M263.14,150.88c.24.01.55.03.94.04.39.01.75.02,1.07.02s.73,0,1.21,0,.96-.01,1.44-.02.9,0,1.25,0c1.19,0,2.15.1,2.87.3s1.25.52,1.58.94.5.97.5,1.64c0,.74-.25,1.38-.76,1.92-.51.54-1.23.88-2.18,1.02.84.05,1.54.2,2.08.46.55.26.95.62,1.21,1.09.26.47.39,1.05.39,1.72,0,.72-.19,1.35-.56,1.9-.37.55-.96.99-1.78,1.3-.82.31-1.9.47-3.26.47h-1.55c-.53,0-1.06,0-1.59,0s-1.03.01-1.52.02c-.48,0-.94.02-1.37.03,0-.25.01-.49.03-.73.02-.23.05-.42.1-.57.34-.03.6-.09.78-.2.18-.11.31-.3.38-.58.07-.28.1-.7.1-1.25v-6.25c0-.53-.03-.92-.1-1.19s-.2-.45-.38-.56c-.18-.11-.45-.18-.8-.22-.04-.16-.07-.37-.08-.63-.02-.26-.03-.48-.03-.67ZM267.8,151.63v8.87c0,.54.06.95.17,1.22.11.28.28.46.49.56.21.09.46.14.75.14.58,0,1.05-.2,1.4-.58.36-.39.54-.93.54-1.62,0-.49-.07-.89-.21-1.21-.14-.32-.34-.57-.59-.75s-.56-.31-.92-.4c-.36-.08-.75-.12-1.18-.12h-1.07v-1.26h1.28c.51,0,.94-.09,1.27-.26.33-.18.58-.43.74-.75s.25-.72.25-1.17-.1-.85-.29-1.17c-.2-.31-.45-.55-.75-.7-.31-.15-.65-.23-1.03-.23-.21,0-.4.02-.57.06-.17.04-.35.11-.54.21l.26-.83Z"/>
          <path class="cls-2" d="M279.42,154.14c0-.53-.03-.92-.1-1.19s-.19-.45-.37-.56c-.18-.11-.44-.18-.78-.22-.05-.16-.09-.37-.11-.61-.02-.25-.04-.47-.04-.69.21.01.51.02.88.03.37,0,.76.01,1.17.02s.76,0,1.05,0,.62,0,.98,0c.37,0,.72-.01,1.07-.02.35,0,.65-.02.9-.03,0,.23,0,.45-.02.66-.01.21-.06.43-.13.64-.34.04-.6.11-.78.21-.18.1-.3.29-.37.56s-.09.67-.09,1.2v6.29c0,.54.03.95.09,1.23s.19.47.38.57.45.17.77.2c.05.15.09.35.11.59.02.25.04.48.04.71-.3-.03-.7-.04-1.21-.05s-1.04,0-1.62,0-1.16,0-1.74,0c-.58,0-1.08.02-1.48.05,0-.21.02-.45.05-.7.03-.25.07-.45.1-.6.34-.03.6-.09.78-.2.18-.11.3-.3.37-.57s.1-.69.1-1.23v-6.29Z"/>
          <path class="cls-2" d="M287.33,150.88c.26.01.6.02,1,.03.4,0,.83.01,1.27.02s.88,0,1.29,0h1.09v9.38c0,.54.04.96.13,1.27.09.31.24.52.46.64s.53.18.93.18l-.6,1.26c-.34,0-.78,0-1.31,0s-1.09.01-1.66.02c-.57,0-1.1.01-1.57.02s-.82.01-1.04.01c0-.25.01-.49.03-.73.02-.23.05-.42.1-.57.34-.03.6-.09.78-.2.18-.11.31-.3.38-.58.07-.28.1-.7.1-1.25v-6.25c0-.53-.03-.92-.1-1.19s-.2-.45-.38-.56c-.18-.11-.45-.18-.8-.22-.05-.16-.08-.37-.09-.63-.01-.26-.02-.48-.02-.67ZM295.43,155.1c-.01.3-.03.63-.05.98-.02.35-.03.75-.03,1.19,0,.48,0,.89.03,1.25.02.36.03.68.05.97-.3,0-.56-.01-.79-.04-.23-.02-.44-.07-.64-.13-.05-.55-.2-.92-.43-1.1-.24-.18-.67-.27-1.28-.27h-1.13v-1.26h1.13c.67,0,1.11-.1,1.33-.3s.34-.56.35-1.07c.2-.09.43-.15.7-.17.26-.03.52-.04.77-.04ZM297.07,150.88c.01.3.04.65.08,1.06.04.4.08.79.13,1.18.05.38.11.73.19,1.03-.2.09-.43.16-.69.22-.26.06-.57.08-.95.08-.06-.43-.18-.81-.35-1.16-.17-.34-.44-.61-.8-.81-.36-.19-.89-.29-1.56-.29h-1.87l.58-1.24c.96,0,1.76,0,2.42,0,.66,0,1.22-.01,1.67-.02.45,0,.84-.02,1.15-.03ZM296.54,159.88c.35.04.67.11.97.22.3.11.52.24.67.39-.14.43-.26.93-.36,1.51-.1.58-.18,1.15-.23,1.71-.34-.01-.77-.02-1.3-.02s-1.09,0-1.69,0-1.16,0-1.7,0l.6-1.26h.26c.55,0,1-.09,1.35-.27.35-.18.62-.46.84-.83.21-.37.41-.84.58-1.42Z"/>
          <path class="cls-2" d="M309.5,163.84c-.15-.33-.3-.64-.43-.95-.14-.31-.27-.62-.4-.92-.12-.31-.26-.62-.39-.95-.19-.45-.37-.83-.53-1.14-.16-.31-.34-.58-.55-.81-.2-.23-.45-.46-.75-.69l.85.15c-.34.01-.64.02-.89.03-.26,0-.55,0-.88,0l.15-1.38c.19.03.34.04.45.06.11.01.22.02.32.02.45,0,.87-.09,1.25-.27.38-.18.7-.46.94-.85.25-.38.37-.86.37-1.44,0-.79-.19-1.41-.57-1.87-.38-.45-.94-.68-1.67-.68-.2,0-.39.01-.56.04-.17.03-.35.07-.54.13l.15-.62v8.61c0,.62.03,1.07.09,1.37.06.3.17.5.31.59.14.09.34.15.59.16.05.12.08.31.1.56.01.25.02.5.02.74-.24-.01-.55-.02-.92-.03l-1.13-.02c-.38,0-.7,0-.96,0-.47,0-.94,0-1.42,0s-.93.02-1.33.05c0-.28.01-.52.03-.74.02-.21.05-.4.1-.56.34-.03.6-.09.78-.2.18-.11.31-.3.38-.57s.1-.69.1-1.23v-6.31c0-.53-.03-.93-.1-1.2s-.2-.46-.38-.56c-.18-.1-.45-.17-.8-.21-.05-.17-.08-.4-.09-.68-.01-.28-.02-.48-.02-.6.33.01.76.03,1.29.04.53.01,1.1.02,1.69.02.4,0,.94-.01,1.61-.04.67-.03,1.37-.04,2.1-.04,1.06,0,1.92.15,2.59.46.67.31,1.16.72,1.48,1.24.31.52.47,1.1.47,1.74,0,.77-.15,1.43-.44,1.99-.29.56-.7.99-1.21,1.31-.51.31-1.1.52-1.75.6l.36-.24c.38.18.68.37.91.57.23.21.46.5.7.87.23.37.52.89.88,1.57.19.35.36.62.51.82.15.19.32.33.51.41.19.08.43.13.72.16,0,.24-.01.46-.04.68-.03.21-.07.42-.13.62-.85,0-1.62.01-2.29.04-.67.03-1.21.07-1.61.13Z"/>
          <path class="cls-2" d="M325.87,163.82l-8.29-11.1c-.11-.19-.25-.32-.42-.39-.17-.07-.44-.12-.82-.16-.05-.19-.09-.4-.11-.62-.03-.22-.04-.45-.04-.68.16.01.38.02.66.03s.56.01.85.02c.29,0,.53,0,.71,0,.3,0,.64,0,1.01,0s.67-.02.91-.05l6.01,8.18-.47,4.77ZM316.19,163.73c0-.26.01-.5.03-.72.02-.21.06-.41.12-.58.38-.04.67-.13.88-.28s.36-.42.45-.79c.09-.38.14-.92.14-1.64v-7.61l1.3.11v7.5c0,.72.04,1.26.11,1.64.07.38.22.64.42.79s.51.24.89.28c.05.18.08.38.1.61.01.23.02.46.02.69-.18-.01-.39-.02-.66-.03l-.79-.02c-.26,0-.5,0-.72,0-.2,0-.46,0-.76,0-.31,0-.6.01-.88.02s-.5.02-.66.03ZM325.87,163.82l.19-3.13v-5.82c0-.72-.04-1.26-.11-1.63s-.22-.63-.44-.78c-.22-.15-.54-.25-.97-.28-.05-.21-.08-.44-.1-.67-.02-.23-.03-.44-.03-.63.19.01.42.02.7.03.28,0,.56.01.86.02.3,0,.54,0,.74,0,.31,0,.66,0,1.04-.02.38-.01.68-.02.9-.04,0,.21,0,.43-.02.64-.01.21-.04.43-.1.66-.31.03-.56.11-.73.26s-.29.41-.35.78c-.06.37-.09.92-.09,1.65v8.8c-.21.06-.44.1-.68.12-.24.02-.51.03-.81.03Z"/>
          <path class="cls-2" d="M338.23,163.84c-1.33,0-2.47-.28-3.43-.84-.96-.56-1.69-1.33-2.21-2.32-.52-.99-.78-2.13-.78-3.44,0-.99.16-1.89.48-2.68.32-.8.76-1.48,1.34-2.04.57-.57,1.25-1,2.03-1.3.78-.3,1.64-.45,2.57-.45,1.29,0,2.42.26,3.38.78.96.52,1.71,1.25,2.25,2.19.54.94.81,2.05.81,3.33,0,.99-.15,1.9-.45,2.72-.3.82-.74,1.54-1.3,2.14-.57.6-1.24,1.07-2.03,1.4-.79.33-1.68.5-2.66.5ZM338.49,162.5c.6,0,1.11-.21,1.53-.63.41-.42.73-1,.95-1.75.22-.75.33-1.62.33-2.63s-.14-1.92-.41-2.74c-.28-.82-.67-1.48-1.17-1.97-.5-.49-1.09-.74-1.77-.74-.57,0-1.06.19-1.47.57s-.74.92-.96,1.62c-.23.7-.34,1.55-.34,2.54,0,.77.07,1.49.21,2.18.14.69.34,1.3.61,1.84s.61.95,1.03,1.25c.41.3.9.45,1.47.45Z"/>
          <path class="cls-2" d="M353.56,163.73c0-.25.01-.49.03-.73.02-.23.05-.42.1-.57.34-.03.6-.09.78-.2.18-.11.31-.3.38-.58.07-.28.1-.7.1-1.25v-6.25c0-.53-.03-.92-.1-1.19s-.2-.45-.38-.56c-.18-.11-.45-.18-.8-.22-.04-.16-.07-.37-.08-.63-.02-.26-.03-.48-.03-.67.28.01.62.02,1.02.03.4,0,.83.01,1.29.02.46,0,.89,0,1.29,0,.29,0,.6,0,.94-.02.34-.01.71-.02,1.11-.02.7,0,1.39.05,2.07.14.68.1,1.31.27,1.88.52.58.25,1.08.61,1.52,1.06.44.46.78,1.04,1.03,1.75.25.71.37,1.58.37,2.61s-.13,1.89-.38,2.62c-.25.73-.58,1.34-1,1.83-.41.49-.87.89-1.38,1.19-.5.3-1.02.53-1.54.68-.53.15-1.02.25-1.48.3-.46.05-.85.08-1.18.08s-.78,0-1.31,0-1.09.01-1.66.02c-.57,0-1.1.01-1.57.02s-.82.01-1.04.01ZM359.74,162.41c.29,0,.61-.06.96-.18.35-.12.68-.35,1-.7.31-.35.57-.85.76-1.53.19-.67.29-1.57.29-2.7,0-1.01-.1-1.84-.3-2.51-.2-.67-.47-1.2-.82-1.58s-.73-.66-1.16-.82c-.43-.16-.87-.24-1.34-.24-.24,0-.47.03-.69.08s-.38.13-.48.22l.25-.73v8.61c0,.54.04.96.13,1.27.09.31.24.52.46.64s.53.18.93.18Z"/>
          <path class="cls-2" d="M369.33,150.88c.26.01.6.02,1,.03.4,0,.83.01,1.27.02s.88,0,1.29,0h1.09v9.38c0,.54.04.96.13,1.27.09.31.24.52.46.64s.53.18.93.18l-.6,1.26c-.34,0-.78,0-1.31,0s-1.09.01-1.66.02c-.57,0-1.1.01-1.57.02s-.82.01-1.04.01c0-.25.01-.49.03-.73.02-.23.05-.42.1-.57.34-.03.6-.09.78-.2.18-.11.31-.3.38-.58.07-.28.1-.7.1-1.25v-6.25c0-.53-.03-.92-.1-1.19s-.2-.45-.38-.56c-.18-.11-.45-.18-.8-.22-.05-.16-.08-.37-.09-.63-.01-.26-.02-.48-.02-.67ZM377.43,155.1c-.01.3-.03.63-.05.98-.02.35-.03.75-.03,1.19,0,.48,0,.89.03,1.25.02.36.03.68.05.97-.3,0-.56-.01-.79-.04-.23-.02-.44-.07-.64-.13-.05-.55-.2-.92-.43-1.1-.24-.18-.67-.27-1.28-.27h-1.13v-1.26h1.13c.67,0,1.11-.1,1.33-.3s.34-.56.35-1.07c.2-.09.43-.15.7-.17.26-.03.52-.04.77-.04ZM379.07,150.88c.01.3.04.65.08,1.06.04.4.08.79.13,1.18.05.38.11.73.19,1.03-.2.09-.43.16-.69.22-.26.06-.57.08-.95.08-.06-.43-.18-.81-.35-1.16-.17-.34-.44-.61-.8-.81-.36-.19-.89-.29-1.56-.29h-1.87l.58-1.24c.96,0,1.76,0,2.42,0,.66,0,1.22-.01,1.67-.02.45,0,.84-.02,1.15-.03ZM378.54,159.88c.35.04.67.11.97.22.3.11.52.24.67.39-.14.43-.26.93-.36,1.51-.1.58-.18,1.15-.23,1.71-.34-.01-.77-.02-1.3-.02s-1.09,0-1.69,0-1.16,0-1.7,0l.6-1.26h.26c.55,0,1-.09,1.35-.27.35-.18.62-.46.84-.83.21-.37.41-.84.58-1.42Z"/>
          <path class="cls-2" d="M395.27,162.41c.5,0,.92-.08,1.25-.25s.61-.44.83-.81.42-.86.59-1.46c.35.04.67.11.97.22.3.11.52.24.67.39-.14.43-.26.93-.36,1.51-.1.58-.18,1.15-.23,1.71-.34-.01-.77-.02-1.3-.02s-1.08,0-1.66,0c-.58,0-1.12,0-1.64,0-.34,0-.78,0-1.31,0s-1.09.01-1.66.02c-.57,0-1.1.01-1.57.02s-.82.01-1.04.01c0-.25.01-.49.03-.73.02-.23.05-.42.1-.57.34-.03.6-.09.78-.2.18-.11.31-.3.38-.58.07-.28.1-.7.1-1.25v-6.25c0-.53-.03-.92-.1-1.19s-.2-.45-.38-.56c-.18-.11-.45-.18-.8-.22-.04-.16-.07-.37-.08-.63-.02-.26-.03-.48-.03-.67.36.01.7.02,1.01.03s.62.01.94.02.67,0,1.06,0c.3,0,.64,0,1.01,0,.37,0,.74-.01,1.1-.02s.67-.02.92-.03c0,.23,0,.46-.02.69-.01.23-.06.44-.13.61-.34.04-.6.11-.78.21-.18.1-.3.29-.37.57s-.09.68-.09,1.21v6.16c0,.54.04.96.13,1.27.09.31.24.52.46.64s.53.18.93.18h.26Z"/>
          <path class="cls-2" d="M408.85,150.82l4.26,9.46c.29.59.52,1.04.68,1.35.16.31.32.51.46.61.14.1.3.16.48.19.05.16.09.35.11.57.03.22.04.46.04.73-.23-.03-.52-.04-.87-.05-.35,0-.7,0-1.05,0h-1.46c-.27,0-.56,0-.87,0s-.6.01-.88.02-.49.02-.64.03c0-.3.01-.55.04-.75.02-.2.06-.38.11-.55.44-.09.7-.24.78-.44.08-.21.02-.54-.18-1.01l-1.7-3.86c-.29-.66-.52-1.28-.71-1.86-.18-.57-.34-1.13-.46-1.69h.55c-.15.57-.32,1.14-.5,1.71-.18.58-.4,1.18-.67,1.81l-1.43,3.73c-.16.4-.19.75-.09,1.06.1.3.36.48.79.55.05.18.09.37.11.58s.04.45.04.72c-.14-.01-.33-.02-.58-.03-.25,0-.51-.01-.78-.02s-.51,0-.73,0c-.31,0-.64,0-.97,0s-.59.02-.78.05c0-.25.01-.48.04-.68.03-.2.07-.41.13-.62.21-.04.4-.12.55-.24.15-.12.3-.31.44-.57.15-.26.32-.64.52-1.13l3.97-9.57c.21-.05.41-.08.59-.08.18,0,.4,0,.65,0ZM409.55,159.15l.34,1.13c-.84,0-1.72.01-2.63.04-.91.03-1.8.08-2.66.17l.28-1.34h4.67Z"/>
          <path class="cls-2" d="M429.89,163.84c-1.34,0-2.51-.26-3.49-.79s-1.74-1.29-2.27-2.28c-.53-.99-.79-2.19-.79-3.58,0-1.03.16-1.94.48-2.74.32-.8.78-1.47,1.37-2.02.6-.55,1.3-.96,2.12-1.24s1.72-.42,2.71-.42c.85,0,1.67.09,2.45.28.78.19,1.44.41,2,.68-.07.43-.13.89-.16,1.38-.03.5-.05,1.01-.05,1.54-.24.1-.51.16-.8.19-.29.03-.57.04-.84.04-.04-.72-.17-1.28-.39-1.69-.22-.41-.52-.7-.91-.87s-.83-.25-1.33-.25c-.78,0-1.41.22-1.9.67-.49.45-.84,1.03-1.06,1.74-.22.72-.33,1.47-.33,2.26,0,1.11.14,2.09.41,2.96s.67,1.55,1.18,2.04,1.13.74,1.86.74c.23,0,.42-.01.57-.03.15-.02.29-.05.41-.1.19-.08.34-.2.45-.38s.17-.51.17-1v-.72c0-.43-.03-.75-.1-.96-.07-.21-.21-.36-.41-.43s-.51-.12-.89-.13c-.05-.17-.08-.37-.1-.59-.02-.22-.03-.46-.03-.71.34.01.74.03,1.22.04.47.01.91.02,1.33.02.39,0,.83,0,1.33,0s.91-.02,1.25-.03c0,.2,0,.41-.02.64-.01.23-.04.44-.1.64-.23.01-.39.05-.51.12s-.18.19-.21.38c-.02.18-.04.45-.04.8v.55c0,.45.02.79.06,1.03.04.23.12.49.25.78-.58.42-1.29.76-2.13,1.04-.84.28-1.76.42-2.75.42Z"/>
          <path class="cls-2" d="M438.57,150.88c.26.01.6.02,1,.03.4,0,.83.01,1.27.02s.88,0,1.29,0h1.09v9.38c0,.54.04.96.13,1.27.09.31.24.52.46.64s.53.18.93.18l-.6,1.26c-.34,0-.78,0-1.31,0s-1.09.01-1.66.02c-.57,0-1.1.01-1.57.02s-.82.01-1.04.01c0-.25.01-.49.03-.73.02-.23.05-.42.1-.57.34-.03.6-.09.78-.2.18-.11.31-.3.38-.58.07-.28.1-.7.1-1.25v-6.25c0-.53-.03-.92-.1-1.19s-.2-.45-.38-.56c-.18-.11-.45-.18-.8-.22-.05-.16-.08-.37-.09-.63-.01-.26-.02-.48-.02-.67ZM446.67,155.1c-.01.3-.03.63-.05.98-.02.35-.03.75-.03,1.19,0,.48,0,.89.03,1.25.02.36.03.68.05.97-.3,0-.56-.01-.79-.04-.23-.02-.44-.07-.64-.13-.05-.55-.2-.92-.43-1.1-.24-.18-.67-.27-1.28-.27h-1.13v-1.26h1.13c.67,0,1.11-.1,1.33-.3s.34-.56.35-1.07c.2-.09.43-.15.7-.17.26-.03.52-.04.77-.04ZM448.31,150.88c.01.3.04.65.08,1.06.04.4.08.79.13,1.18.05.38.11.73.19,1.03-.2.09-.43.16-.69.22-.26.06-.57.08-.95.08-.06-.43-.18-.81-.35-1.16-.17-.34-.44-.61-.8-.81-.36-.19-.89-.29-1.56-.29h-1.87l.58-1.24c.96,0,1.76,0,2.42,0,.66,0,1.22-.01,1.67-.02.45,0,.84-.02,1.15-.03ZM447.79,159.88c.35.04.67.11.97.22.3.11.52.24.67.39-.14.43-.26.93-.36,1.51-.1.58-.18,1.15-.23,1.71-.34-.01-.77-.02-1.3-.02s-1.09,0-1.69,0-1.16,0-1.7,0l.6-1.26h.26c.55,0,1-.09,1.35-.27.35-.18.62-.46.84-.83.21-.37.41-.84.58-1.42Z"/>
          <path class="cls-2" d="M461.88,163.82l-8.29-11.1c-.11-.19-.25-.32-.42-.39-.17-.07-.44-.12-.82-.16-.05-.19-.09-.4-.11-.62-.03-.22-.04-.45-.04-.68.16.01.38.02.66.03s.56.01.85.02c.29,0,.53,0,.71,0,.3,0,.64,0,1.01,0s.67-.02.91-.05l6.01,8.18-.47,4.77ZM452.19,163.73c0-.26.01-.5.03-.72.02-.21.06-.41.12-.58.38-.04.67-.13.88-.28s.36-.42.45-.79c.09-.38.14-.92.14-1.64v-7.61l1.3.11v7.5c0,.72.04,1.26.11,1.64.07.38.22.64.42.79s.51.24.89.28c.05.18.08.38.1.61.01.23.02.46.02.69-.18-.01-.39-.02-.66-.03l-.79-.02c-.26,0-.5,0-.72,0-.2,0-.46,0-.76,0-.31,0-.6.01-.88.02s-.5.02-.66.03ZM461.88,163.82l.19-3.13v-5.82c0-.72-.04-1.26-.11-1.63s-.22-.63-.44-.78c-.22-.15-.54-.25-.97-.28-.05-.21-.08-.44-.1-.67-.02-.23-.03-.44-.03-.63.19.01.42.02.7.03.28,0,.56.01.86.02.3,0,.54,0,.74,0,.31,0,.66,0,1.04-.02.38-.01.68-.02.9-.04,0,.21,0,.43-.02.64-.01.21-.04.43-.1.66-.31.03-.56.11-.73.26s-.29.41-.35.78c-.06.37-.09.92-.09,1.65v8.8c-.21.06-.44.1-.68.12-.24.02-.51.03-.81.03Z"/>
          <path class="cls-2" d="M471.67,152.2c-.49,0-.89.09-1.2.27-.31.18-.55.45-.73.79-.18.34-.33.79-.45,1.33-.3,0-.6-.02-.9-.05-.29-.03-.56-.1-.78-.22.13-.52.23-1.09.31-1.73.08-.64.12-1.21.12-1.71.48.01.97.03,1.49.04.51.01,1.1.02,1.76.02h2.36c.84,0,1.59,0,2.24,0s1.25-.01,1.79-.02,1.04-.02,1.51-.03c0,.5.03,1.06.1,1.67.06.61.16,1.2.28,1.76-.22.1-.48.17-.77.22-.29.04-.6.07-.94.07-.13-.83-.35-1.43-.66-1.82s-.8-.57-1.47-.57h-4.07ZM471.95,151.56h3.26v8.87c0,.54.04.95.13,1.23.09.28.26.47.51.57.25.11.62.17,1.11.2.05.15.09.35.11.59.03.25.04.48.04.71-.37-.03-.84-.04-1.42-.05-.58,0-1.23,0-1.93,0-.46,0-.95,0-1.45,0s-.96.01-1.38.02-.77.02-1.05.03c0-.21.02-.45.07-.7.04-.25.09-.45.14-.6.49-.03.87-.09,1.14-.2.27-.11.46-.3.56-.57s.16-.69.16-1.23v-8.87Z"/>
          <path class="cls-2" d="M482.15,150.88c.26.01.6.02,1,.03.4,0,.83.01,1.27.02s.88,0,1.29,0h1.09v9.38c0,.54.04.96.13,1.27.09.31.24.52.46.64s.53.18.93.18l-.6,1.26c-.34,0-.78,0-1.31,0s-1.09.01-1.66.02c-.57,0-1.1.01-1.57.02s-.82.01-1.04.01c0-.25.01-.49.03-.73.02-.23.05-.42.1-.57.34-.03.6-.09.78-.2.18-.11.31-.3.38-.58.07-.28.1-.7.1-1.25v-6.25c0-.53-.03-.92-.1-1.19s-.2-.45-.38-.56c-.18-.11-.45-.18-.8-.22-.05-.16-.08-.37-.09-.63-.01-.26-.02-.48-.02-.67ZM490.25,155.1c-.01.3-.03.63-.05.98-.02.35-.03.75-.03,1.19,0,.48,0,.89.03,1.25.02.36.03.68.05.97-.3,0-.56-.01-.79-.04-.23-.02-.44-.07-.64-.13-.05-.55-.2-.92-.43-1.1-.24-.18-.67-.27-1.28-.27h-1.13v-1.26h1.13c.67,0,1.11-.1,1.33-.3s.34-.56.35-1.07c.2-.09.43-.15.7-.17.26-.03.52-.04.77-.04ZM491.88,150.88c.01.3.04.65.08,1.06.04.4.08.79.13,1.18.05.38.11.73.19,1.03-.2.09-.43.16-.69.22-.26.06-.57.08-.95.08-.06-.43-.18-.81-.35-1.16-.17-.34-.44-.61-.8-.81-.36-.19-.89-.29-1.56-.29h-1.87l.58-1.24c.96,0,1.76,0,2.42,0,.66,0,1.22-.01,1.67-.02.45,0,.84-.02,1.15-.03ZM491.36,159.88c.35.04.67.11.97.22.3.11.52.24.67.39-.14.43-.26.93-.36,1.51-.1.58-.18,1.15-.23,1.71-.34-.01-.77-.02-1.3-.02s-1.09,0-1.69,0-1.16,0-1.7,0l.6-1.26h.26c.55,0,1-.09,1.35-.27.35-.18.62-.46.84-.83.21-.37.41-.84.58-1.42Z"/>
        </g>
      </g>
    </g>
  </g>
</svg>