<?xml version="1.0" encoding="UTF-8"?>
<svg id="Capa_2" data-name="Capa 2" xmlns="http://www.w3.org/2000/svg" xmlns:xlink="http://www.w3.org/1999/xlink" viewBox="0 0 575.08 232">
  <defs>
    <style>
      .cls-1 {
        fill: #69b3e7;
      }

      .cls-2 {
        fill: #fff;
      }

      .cls-3 {
        fill: none;
      }

      .cls-4 {
        fill: #c8c9c7;
      }

      .cls-5 {
        fill: #c8d8eb;
      }

      .cls-6 {
        fill: #004b87;
      }

      .cls-7 {
        clip-path: url(#clippath);
      }
    </style>
    <clipPath id="clippath">
      <ellipse class="cls-3" cx="103.99" cy="131.64" rx="48.17" ry="48.2"/>
    </clipPath>
  </defs>
  <g id="Capa_1-2" data-name="Capa 1">
    <g>
      <rect class="cls-4" width="575.08" height="232"/>
      <g>
        <g>
          <path class="cls-6" d="M116.28,69.7c7.35-.05,16.47,3.52,16.47,3.52l15.34-22.72c-7.87-3.57-14.5,1.32-14.5,1.32,2.32,1.07,3.42,5.94-.11,9.4-3.55,3.47-8.17,3.27-11.63,2.45-3.46-.82-10.07-4.01-11.16-10.25-1.54-8.84,6.2-8.55,6.2-8.55-3.16-4.1-7.55-.95-7.55-.95.25-5.64-4.38-9.14-4.76-9.28h-.01s-.01,0-.01,0c-.38.15-5.13,4.05-4.65,9.27,0,0-4.37-3.12-7.58.91,0,0,7.94.06,6.07,8.86-1.33,6.24-7.4,9.15-10.86,9.97-3.46.82-8.58,1.14-11.93-2.49-3.36-3.63-1.01-7.32-.11-9.31,0,0-6.59-4.91-14.47-1.34l15.34,22.72s8.33-3.26,15.48-3.51c-28.97,5.7-50.82,31.24-50.82,61.88,0,34.71,28.04,62.87,62.71,63.07l2.02.02c-2.02-5.17-2.69-14.84-2.69-14.84l-2.54-.12c-24.98-1.83-44.68-22.68-44.68-48.13s21.61-48.27,48.27-48.27,48.27,21.61,48.27,48.27c0,18.12-9.98,33.91-24.75,42.16l-.78.39-3.32,1.63s.93,11.94.71,15.6c24.97-8.4,42.95-31.99,42.95-59.79,0-30.67-21.89-56.22-50.89-61.89ZM108.59,63.58c-3.59-.6-6.62-.27-8.21.02-.18.02-.35.04-.52.07,0,0,3.49-1.94,4.7-5.69,1.21,3.75,4.7,5.69,4.7,5.69-.22-.03-.44-.06-.67-.08Z"/>
          <path class="cls-6" d="M114.77,57.06c5.29,4.97,10.98,5.12,10.98,5.12-3.42-3.38-.85-8.03-.85-8.03l-3.35-1.56c-3.38,5.06-6.78,4.48-6.78,4.48Z"/>
          <path class="cls-6" d="M93.93,57.06c-5.29,4.97-10.98,5.12-10.98,5.12,3.42-3.38.85-8.03.85-8.03l3.35-1.56c3.38,5.06,6.78,4.48,6.78,4.48Z"/>
          <ellipse class="cls-5" cx="104.13" cy="131.64" rx="48.36" ry="48.2"/>
          <g class="cls-7">
            <g>
              <path class="cls-2" d="M69.46,96.82c-.16.03-.33-.04-.42-.19L13.77,6.4c-.13-.2-.07-.46.13-.59.2-.13.46-.07.59.13l55.27,90.23c.13.2.07.46-.13.59-.05.03-.11.05-.16.06Z"/>
              <path class="cls-2" d="M70.57,96.25c-.19.03-.39-.08-.46-.27L37.94,6.78c-.08-.22.03-.46.24-.55.22-.08.47.03.55.24l32.17,89.21c.08.22-.03.46-.24.55-.03.01-.06.02-.09.02Z"/>
              <path class="cls-2" d="M71.71,95.94c-.23.04-.45-.12-.49-.35L59.06,7.06c-.04-.23.12-.45.35-.49s.45.12.49.35l12.17,88.53c.04.23-.12.45-.35.49Z"/>
              <path class="cls-2" d="M72.86,95.88s-.06,0-.09,0c-.23-.01-.41-.21-.4-.45l6.27-89.32c.01-.23.21-.41.45-.4.23.01.41.21.4.45l-6.27,89.32c-.01.2-.16.37-.36.4Z"/>
              <path class="cls-2" d="M74.08,96.06c-.06,0-.12,0-.18,0-.23-.06-.36-.29-.3-.52L99.78,4.87c.06-.23.29-.36.52-.3.23.06.36.29.3.52l-26.17,90.67c-.04.17-.18.28-.34.31Z"/>
              <path class="cls-2" d="M75.2,96.49c-.09.01-.18,0-.26-.04-.21-.11-.29-.36-.18-.57L124.41,1.82c.11-.21.36-.29.57-.18.21.11.29.36.18.57l-49.65,94.06c-.06.13-.18.21-.31.23Z"/>
              <path class="cls-2" d="M76.24,97.16c-.11.02-.24-.01-.33-.09-.18-.15-.21-.41-.06-.6L154.98,1.12c.15-.18.42-.21.6-.06.18.15.21.41.06.6l-79.14,95.35c-.07.09-.16.14-.26.15Z"/>
              <path class="cls-2" d="M77.09,98c-.14.02-.3-.03-.4-.15-.15-.18-.12-.45.06-.6L198.25,1.98c.18-.15.45-.12.6.06.15.18.12.45-.06.6l-121.49,95.26c-.06.05-.13.08-.2.09Z"/>
              <path class="cls-2" d="M77.75,99.02c-.18.03-.36-.06-.44-.23-.11-.21-.02-.46.18-.57L241.11,17.39c.21-.11.47-.02.57.18.11.21.02.46-.18.57L77.88,98.97s-.08.03-.13.04Z"/>
              <path class="cls-2" d="M78.17,100.15c-.21.03-.42-.1-.48-.31-.06-.23.07-.46.3-.52l165.76-43.59c.23-.06.46.07.52.3.06.23-.07.46-.3.52l-165.76,43.59s-.03,0-.05,0Z"/>
              <path class="cls-2" d="M68.52,97.59c-.13.02-.27-.02-.37-.12L-13.88,11.04c-.17-.17-.16-.44,0-.6.17-.16.44-.16.6,0l82.03,86.43c.17.17.16.44,0,.6-.07.07-.15.1-.23.12Z"/>
              <path class="cls-2" d="M67.77,98.51c-.1.02-.21,0-.3-.06L-53.84,15.93c-.2-.13-.25-.39-.12-.59.13-.2.39-.25.59-.12l121.31,82.52c.2.13.25.39.12.59-.07.11-.18.17-.29.19Z"/>
              <path class="cls-2" d="M67.24,99.54c-.07.01-.15,0-.22-.02L-58.94,51.16c-.22-.08-.33-.33-.24-.55.08-.22.33-.33.55-.24l125.96,48.36c.22.08.33.33.24.55-.06.15-.19.24-.33.27Z"/>
              <path class="cls-2" d="M66.93,100.68s-.09,0-.14,0l-124.52-20.76c-.23-.04-.39-.26-.35-.49s.26-.39.49-.35l124.52,20.76c.23.04.39.26.35.49-.03.19-.18.32-.35.35Z"/>
              <path class="cls-2" d="M66.86,101.83s-.03,0-.05,0l-123.6,5.94c-.23.01-.43-.17-.45-.4-.01-.23.17-.43.4-.44l123.6-5.94c.23-.01.43.17.45.4.01.22-.15.41-.36.44Z"/>
              <path class="cls-2" d="M-53.06,134.97c-.21.03-.42-.1-.48-.31-.06-.23.08-.46.3-.52l120.09-32.01c.23-.06.46.08.52.3.06.23-.08.46-.3.52l-120.09,32.01s-.03,0-.04,0Z"/>
              <path class="cls-2" d="M-50.34,164.86c-.18.03-.36-.06-.45-.23-.11-.21-.02-.46.19-.57l117.79-60.7c.21-.11.47-.02.57.19.11.21.02.46-.19.57l-117.79,60.7s-.08.03-.13.04Z"/>
              <path class="cls-2" d="M-45.3,199.11c-.15.02-.3-.03-.4-.15-.15-.18-.12-.45.06-.6,0,0,99.1-82.37,113.41-93.91.18-.15.45-.12.6.06s.12.45-.06.6c-14.31,11.54-113.41,93.91-113.41,93.91-.06.05-.13.08-.2.09Z"/>
              <path class="cls-2" d="M-22.22,219.78c-.12.02-.24-.01-.33-.09-.18-.15-.21-.42-.06-.6l91.17-113.73c.15-.18.42-.21.6-.06.18.15.21.42.06.6L-21.95,219.63c-.07.08-.16.14-.26.15Z"/>
              <path class="cls-2" d="M14.02,219.45c-.09.01-.18,0-.26-.04-.21-.11-.29-.36-.18-.57l55.97-112.71c.11-.21.36-.29.57-.18s.29.36.18.57L14.33,219.22c-.06.13-.18.21-.31.23Z"/>
              <path class="cls-2" d="M41.68,217.43c-.06,0-.12,0-.18,0-.23-.06-.36-.29-.3-.52l29.42-110.26c.06-.23.3-.36.52-.3.23.06.36.29.3.52l-29.42,110.26c-.05.17-.18.28-.34.31Z"/>
              <path class="cls-2" d="M65.65,218.16s-.06,0-.09,0c-.23-.01-.41-.21-.4-.45l6.58-110.8c.01-.23.21-.41.45-.4.23.01.41.21.4.45l-6.58,110.8c-.01.2-.16.37-.36.4Z"/>
              <path class="cls-2" d="M89.79,217.31h0c-.23.03-.45-.13-.48-.36l-16.35-109.99c-.03-.23.12-.46.36-.48.23-.03.45.13.48.36l16.35,109.99c.03.23-.12.45-.35.48Z"/>
              <path class="cls-2" d="M113.96,213.89c-.19.03-.39-.08-.46-.27l-39.38-106.86c-.08-.22.03-.46.25-.55.22-.08.47.03.55.25l39.38,106.86c.08.22-.03.46-.25.55-.03.01-.06.02-.09.02Z"/>
              <path class="cls-2" d="M142.35,212.3c-.16.03-.33-.04-.42-.19l-66.62-105.86c-.13-.2-.07-.46.13-.59.2-.13.46-.07.59.13l66.62,105.86c.13.2.07.46-.13.59-.05.03-.11.05-.16.06Z"/>
              <path class="cls-2" d="M178.44,209.58c-.13.02-.27-.02-.37-.12l-101.78-103.87c-.17-.17-.16-.43,0-.6.17-.17.44-.16.6,0l101.78,103.87c.17.17.17.43,0,.6-.07.07-.15.11-.23.12Z"/>
              <path class="cls-2" d="M225.56,200.69c-.1.02-.21,0-.3-.06L77.15,104.68c-.2-.13-.25-.39-.13-.59.13-.2.39-.25.59-.13l148.11,95.95c.2.13.25.39.13.59-.07.11-.18.17-.29.19Z"/>
              <path class="cls-2" d="M247.91,169.13c-.07.01-.14,0-.22-.02L77.76,103.68c-.22-.08-.33-.33-.25-.55.08-.22.33-.33.55-.25l169.94,65.42c.22.08.33.33.25.55-.06.15-.19.25-.33.27Z"/>
              <path class="cls-2" d="M248.36,129.86s-.09,0-.13,0l-170.05-27.34c-.23-.04-.39-.25-.35-.49.04-.23.25-.39.49-.35l170.05,27.34c.23.04.39.25.35.49-.03.19-.18.33-.35.35Z"/>
              <path class="cls-2" d="M244.98,92.18s-.03,0-.04,0l-166.62,9.18c-.23.01-.44-.16-.45-.4-.01-.23.16-.44.4-.45l166.62-9.18c.23-.01.44.16.45.4.01.22-.14.41-.36.44Z"/>
            </g>
          </g>
          <path class="cls-3" d="M115.55,155.33s-.08.07-.11.1c.06.02.24.09.55.28-.03-.04-.05-.06-.05-.06,5.74,3.66,8.49,9.31,8.49,9.31l2.62-11.4c-1-.74-3.09-3.12-4.58-6.27-1,1.84-3.24,5.35-6.91,8.05Z"/>
          <polygon class="cls-3" points="115.42 155.43 115.42 155.43 115.42 155.43 115.42 155.43"/>
          <path class="cls-2" d="M73.68,96.85s-.03,0-.05,0c.01,0,.02,0,.03.01,0,0,.01,0,.02-.01Z"/>
          <path class="cls-2" d="M73.62,97.68s.04-.03.09-.07c-.06.02-.09.04-.09.07Z"/>
          <polygon class="cls-2" points="73.35 104.23 73.35 104.23 73.35 104.23 73.35 104.23"/>
          <path class="cls-6" d="M115.42,155.43s0,0,0,0c0,0,0,0,.02,0,.04-.03.08-.07.11-.1-.04.03-.09.07-.13.1Z"/>
          <path class="cls-6" d="M115.39,155.48s.03-.03.05-.04c-.01,0-.02,0-.02,0-.02.03-.03.05-.03.05Z"/>
          <path class="cls-6" d="M125.96,179.96c-.15-4.99-1.18-8.29-1.68-10.69-.17-.8-.41-1.58-.72-2.33-.82-1.97-2.58-5.94-4.35-8.12-1.52-1.87-2.61-2.73-3.22-3.1.59.67,5.99,7.05,7.25,17.44,0,0,1.33,13.56.97,18.21l1.82-6.8c0-1.29,0-2.82-.06-4.61Z"/>
          <path class="cls-6" d="M73.68,96.85s-.01,0-.02.01c-.01,0-.02,0-.03-.01.02,0,.03,0,.05,0Z"/>
          <path class="cls-6" d="M73.71,97.62s-.08.07-.09.07c0-.02.04-.05.09-.07Z"/>
          <polygon class="cls-6" points="73.35 104.23 73.35 104.23 73.35 104.23 73.35 104.23"/>
          <path class="cls-2" d="M71.66,95.43s3.26-.17,5.27,1.89c2.01,2.07,1.91,5.19.85,6.89-1.06,1.7-3.19,2.9-3.19,2.9l2.33.77s-.07,4.59-3.66,6.76c0,0,.17.6.5.77s1.16.27,1.13.73-.23.73-.2,1.03.3.63.03,1.1.2.87,0,1.33c-.2.47-.67,1.33-.53,2.86s.03,1.7,2.13,6.52c2.1,4.83,3,5.52,3.93,7.99.93,2.46,1.63,4.96,1.63,4.96,0,0,.17.6,2.2-2.33,2.03-2.93,4.16-6.19,6.56-8.25s2.43-2.5,2.43-2.5c0,0-.27-1.5,1.4-4.16,1.66-2.66,2.16-3.13,2.2-5.52.03-2.4-.07-2.8.4-5.32.47-2.53.83-6.12,3.26-8.62,2.43-2.5,5.59-2,7.79-1.3,2.2.7,3.93,2.96,4.69,6.52.77,3.56.13,7.69,1,11.11s2.03,3.29,3.06,5.09c1.03,1.8,1.3,1.43,2,2.03s3.49,2.53,4.79,5.12c1.3,2.6,2.83,6.29,3.26,7.92.43,1.63-3.79,5.32-3.79,5.32,0,0-5.09,7.25-7.32,8.49,0,0,3,2.86,5.76,7.09,2.76,4.23,3.63,13.74,3.86,16.27.23,2.53.24,12.02.24,12.02l-1.39.53s-7.87,3.21-18.45,3.31l-1.73-.13s-1.46-5.49-1.9-11.02c-.43-5.52-.9-8.09-.03-13.98.87-5.89,1.96-8.65,5.36-12.58,3.39-3.93,3.33-6.99.63-9.28-2.7-2.3-8.39-4.56-10.88-6.96-2.5-2.4-2.86-3.99-3.16-5.36s.2-4.16.2-4.16c0,0-3.59,2.66-4.03,6.09-.43,3.43-.1,4.89-.1,4.89,0,0-3.29,3.13-5.76,4.53-2.46,1.4-3.46,2.8-4.86,2.4-1.4-.4-2.6-1.7-3.89-6.02-1.3-4.33-2.86-13.78-2.86-13.78,0,0-1.43-6.32-1.7-6.89s-1.43-1.8-1.46-2.4c-.03-.6-.53-1.5-.33-2.13s0-2.06.43-2.16,1.26-.3,1.36-.77-.67-1.26-.67-1.26c0,0-1.5-1.3-2.1-3.36-.6-2.06-.07-2.73-.07-2.73l2.2-.4s.27-.6-.33-1.03c-.6-.43-2.26-1.73-2.9-4.09s.57-6.39,4.43-6.76Z"/>
          <path class="cls-6" d="M106.18,113.03c.1-.04.08-.15-.08-.24,0,0-.29-.32-.54-.34-.25-.02-.4.19-.2.32s.72.3.82.26Z"/>
          <path class="cls-6" d="M104.92,115.64s-.69-.08-1.02.18c-.33.27.02.3.36.34s.88-.06,1.24,0,.6,0,.55-.13c-.04-.13-.6-.42-1.13-.4Z"/>
          <path class="cls-6" d="M106.93,115.35c.04-.1-.44-.45-.7-.62-.26-.18-.78-.53-1.53-.47-.74.06-1.35.34-1.65.62-.3.27-.55.43-.62.45-.07.01-.14.18.27.15.41-.02.83-.43.95-.5.13-.08.18-.11.18-.11,0,0,.69-.32,1.37-.12.68.2,1.06.48,1.24.55.18.08.44.15.48.06Z"/>
          <g>
            <path class="cls-2" d="M147.25,88.44c-11.55-11.55-26.9-17.91-43.23-17.91s-31.68,6.36-43.23,17.91c-11.55,11.55-17.91,26.9-17.91,43.23s6.36,31.68,17.91,43.23c11.55,11.55,26.9,17.91,43.23,17.91s31.68-6.36,43.23-17.91c11.55-11.55,17.91-26.9,17.91-43.23s-6.36-31.68-17.91-43.23ZM104.02,192.15c-33.35,0-60.48-27.13-60.48-60.48s27.13-60.48,60.48-60.48,60.48,27.13,60.48,60.48-27.13,60.48-60.48,60.48Z"/>
            <path class="cls-2" d="M140.07,95.61c-9.63-9.63-22.43-14.93-36.05-14.93s-26.42,5.3-36.05,14.93c-9.63,9.63-14.93,22.43-14.93,36.05s5.3,26.42,14.93,36.05c9.63,9.63,22.43,14.93,36.05,14.93s26.42-5.3,36.05-14.93c9.63-9.63,14.93-22.43,14.93-36.05s-5.3-26.42-14.93-36.05ZM104.02,182c-27.75,0-50.33-22.58-50.33-50.33s22.58-50.33,50.33-50.33,50.33,22.58,50.33,50.33-22.58,50.33-50.33,50.33Z"/>
          </g>
          <g>
            <path class="cls-2" d="M50.9,131.02c0,.51-.11.96-.32,1.33-.2.37-.49.66-.85.85-.37.19-.8.29-1.3.28-.4,0-.75-.08-1.07-.21-.32-.13-.59-.31-.82-.55-.23-.24-.4-.52-.52-.85-.12-.33-.17-.69-.17-1.09,0-.22.03-.45.07-.67.05-.23.11-.44.19-.65.08-.21.17-.39.28-.54l1,.55v.17s-1.26,1.04-1.26,1.04v-.88s.68,0,.68,0c-.15.09-.27.21-.35.37-.08.15-.13.33-.13.53,0,.27.08.51.24.72.17.21.39.39.68.51s.61.2.98.2c.4,0,.75-.05,1.05-.18.3-.13.54-.31.7-.56.17-.24.26-.53.26-.86,0-.25-.05-.45-.16-.62-.11-.17-.29-.31-.52-.42l.14-.26c.38.11.67.32.88.64.21.32.31.7.31,1.14ZM50.93,128.99l-.69,1.06-1.18-.02-.48.56h-.15s.03-2.17.03-2.17h.15s.42.38.42.38l1.9.03v.16Z"/>
            <path class="cls-2" d="M51.36,124.85c-.07.52-.23.96-.49,1.32-.25.36-.58.62-.98.79-.4.16-.85.21-1.35.14-.52-.07-.95-.24-1.3-.51-.35-.27-.6-.61-.76-1.04-.15-.43-.19-.91-.12-1.45.07-.53.23-.97.49-1.33.25-.36.58-.62.97-.78.4-.16.85-.21,1.36-.14.51.07.95.24,1.3.51.35.27.6.62.76,1.04.15.43.19.91.12,1.45ZM50.88,124.7c.03-.26-.01-.49-.14-.7-.13-.2-.32-.37-.59-.51-.27-.13-.61-.23-1.01-.28-.44-.06-.82-.06-1.15.01s-.6.19-.8.36-.32.4-.36.68c-.04.26,0,.5.13.7.12.2.32.37.6.5.27.13.61.23,1.01.28.43.06.82.06,1.15-.01.33-.07.6-.19.8-.36.2-.18.32-.4.36-.68Z"/>
            <path class="cls-2" d="M51.82,121.17l-.15-.04-.33-.6-3.47-.87-.58.37-.15-.04.42-1.67,4.68,1.18-.42,1.67ZM49.59,119.32l-.07-.02.16-1.11c.03-.21,0-.39-.1-.53-.1-.14-.27-.24-.49-.3-.54-.14-.89.08-1.03.65l-.24.95-.39-.1.27-1.08c.17-.66.37-1.12.62-1.39.25-.27.55-.35.91-.26.38.09.61.32.71.67.1.35.07.86-.1,1.52l-.25,1ZM52.09,120.1l-.39-.1.24-.94c.09-.36.08-.65-.04-.87-.12-.22-.34-.38-.66-.46-.3-.08-.55-.05-.75.06-.2.12-.34.32-.41.62l-.24.96-.34-.09.34-1.34c.15-.61.37-1.04.64-1.29.28-.26.61-.34,1-.24.32.08.56.23.73.47.17.23.27.53.29.91.02.38-.04.83-.17,1.35l-.24.96ZM50.02,117.66l-.24-.06.06-.26.24.06-.07.26Z"/>
            <path class="cls-2" d="M53.28,115.76l-.15-.05-.28-.62-3.39-1.16-.6.32-.15-.05.72-2.1.15.05.28.62,3.39,1.16.6-.32.15.05-.72,2.1Z"/>
            <path class="cls-2" d="M54.34,112.68l-.14-.06-.23-.64-3.29-1.42-.63.27-.14-.06.69-1.59,4.43,1.91-.69,1.59ZM51.85,107.54l-1.1,2.09-.3-.13.93-2.16.46.2ZM52.45,107.82l-1.17.58-.3-.13.32-.99.05-.12,1.16.49-.07.16ZM53.54,108.92l-.8,1.59-.29-.12.6-1.67.49.21ZM54.01,109.09l-.83.37-.27-.12-.3-.85.07-.16,1.4.6-.07.16ZM54.88,111.42l-.3-.13.77-2.23.46.2-.93,2.16ZM55.43,110.14l-.3-.13-.46-1.36.07-.16,1.16.55-.48,1.1Z"/>
            <path class="cls-2" d="M56.4,108l-.13-.07-.17-.66-3.12-1.75-.65.21-.13-.08.84-1.51,3.67,2.05.65-.2.13.07-1.08,1.94ZM55.05,106.16l-.33-.18.51-.92c.15-.26.18-.52.1-.77-.08-.25-.24-.45-.5-.59-.26-.14-.5-.18-.74-.11-.24.07-.43.24-.58.51l-.46.82-.35-.2.67-1.2c.31-.55.63-.91.98-1.08.35-.17.71-.15,1.08.06.38.21.59.53.62.94.04.42-.1.9-.41,1.45l-.02.03.09.05-.67,1.2ZM58.02,105.09l-2.55.07.14-1.18,2.97-.08-1.09.16,1.13-.36.13.08-.73,1.31Z"/>
            <path class="cls-2" d="M59.2,103.07l-.13-.09-.09-.68-2.69-2.09-.85.08-.13-.09.47-.66,3.62,2.16.67-.13.13.09-1,1.4ZM61.42,99.97l-4.92.26-.79-.56.41-.57,4.69-.25.11.34-2.98-1.58-.67.13-.13-.09,1-1.4.13.09.09.68,3.43,2.44-.37.52Z"/>
            <path class="cls-2" d="M64.54,96.36c-.35.39-.73.67-1.15.82-.41.16-.83.19-1.25.1-.42-.09-.82-.3-1.2-.64-.39-.35-.65-.73-.79-1.15-.14-.42-.15-.85-.04-1.29.11-.44.35-.86.72-1.27.36-.4.74-.67,1.15-.82.41-.15.83-.19,1.24-.1.42.09.82.3,1.2.65.38.35.65.73.79,1.15.14.42.15.85.04,1.29-.11.44-.35.86-.72,1.27ZM64.23,95.96c.17-.19.27-.41.28-.65.01-.24-.06-.49-.21-.75-.15-.26-.37-.53-.68-.8-.33-.3-.65-.51-.96-.64s-.6-.18-.86-.15c-.26.03-.49.15-.68.36-.18.2-.27.41-.28.65s.06.49.21.75c.15.26.38.53.68.8.33.29.64.51.96.64.31.13.6.18.87.15.27-.03.49-.15.67-.36Z"/>
            <path class="cls-2" d="M68.82,91.87l-.1-.12.1-.68-2.23-2.8-.68-.06-.1-.12,1.35-1.08,3.01,3.77-1.35,1.08ZM69.81,91.09l-.25-.32.76-.61c.25-.2.41-.43.49-.7.08-.27.08-.56-.01-.87-.09-.31-.26-.62-.51-.94-.26-.33-.53-.57-.82-.73-.28-.16-.57-.23-.85-.22-.28.01-.54.12-.79.31l-.77.61-.25-.32.87-.7c.43-.35.87-.57,1.31-.68.44-.1.86-.09,1.25.04.39.13.74.39,1.04.76.23.28.38.59.46.91.08.32.09.65.03.98-.06.33-.19.65-.39.96-.2.31-.46.6-.79.86l-.78.62Z"/>
            <path class="cls-2" d="M73.68,88.1l-.08-.13.17-.66-1.92-3.02-.67-.13-.08-.13,1.46-.93,2.59,4.07-1.46.93ZM74.51,82.45l-2.08,1.12-.18-.28,1.99-1.27.27.42ZM74.84,83.02l-1.29-.17-.17-.27.82-.64.11-.07.68,1.06-.15.09ZM75.13,84.54l-1.55.87-.17-.27,1.44-1.05.29.45ZM75.42,84.94l-.89-.16-.16-.25.23-.88.15-.09.82,1.29-.15.09ZM74.84,87.36l-.18-.28,1.89-1.41.27.42-1.99,1.27ZM76.02,86.61l-.17-.27.38-1.39.15-.09.66,1.11-1.01.65Z"/>
            <path class="cls-2" d="M78.02,85.4l-.07-.14.23-.64-1.63-3.19-.66-.19-.07-.14,1.99-1.02.07.14-.24.65,1.91,3.74-1.54.79ZM79.25,84.77l-.15-.29,1.98-1.21.23.45-2.06,1.05ZM80.37,84.2l-.15-.29.41-1.52.16-.08.67,1.33-1.09.56Z"/>
            <path class="cls-2" d="M84.74,82.24l-.05-.15.32-.6-1.16-3.39-.62-.28-.05-.15,1.63-.56,1.57,4.56-1.63.56ZM86.87,76.94l-2.28.6-.11-.31,2.23-.77.16.48ZM86.99,79.12l-1.71.48-.1-.3,1.64-.68.17.5ZM87.07,77.57l-1.22-.47-.1-.3.95-.43.13-.04.42,1.19-.17.06ZM86.05,81.79l-.11-.31,2.17-.93.16.48-2.23.77ZM87.18,79.58l-.83-.37-.1-.28.43-.8.17-.06.5,1.44-.17.06ZM87.36,81.34l-.1-.3.7-1.26.17-.06.38,1.23-1.14.39Z"/>
            <path class="cls-2" d="M91.45,80.29c-.22.05-.43.08-.65.1-.22.01-.44,0-.65-.03-.22-.03-.43-.07-.63-.14l.22-1.1.17-.04,1.3.96-.84.2-.16-.66c.11.12.27.2.5.24.22.03.46.02.72-.04.27-.07.47-.18.58-.33.12-.16.15-.34.1-.57-.04-.19-.17-.32-.38-.4-.21-.08-.54-.13-1-.16-.38-.03-.69-.08-.94-.15-.25-.07-.44-.19-.57-.34-.13-.15-.23-.34-.29-.58-.11-.45-.03-.84.24-1.19.27-.34.68-.58,1.25-.72.19-.05.39-.07.6-.08.21-.01.42,0,.64.03.21.03.42.07.62.14l-.29,1.06-.17.04-1.26-.92.88-.21.15.67c-.12-.13-.27-.22-.47-.26-.19-.04-.4-.04-.62.01-.23.05-.4.15-.52.29-.12.14-.16.3-.11.46.04.18.17.31.38.39.21.08.54.14,1,.16.38.02.7.07.94.15.24.08.43.19.57.34.13.15.23.34.29.59.08.33.07.63-.04.91-.1.28-.29.52-.55.72-.26.2-.6.35-1,.45Z"/>
            <path class="cls-2" d="M93.9,76.04l-.18-1.42.15-.02,1.03-.05.1.31-.94,1.16-.17.02ZM95.56,79.34l-.02-.15.47-.54-.56-4.02.52.12-2,.46-.07-.5,4.27-.6.07.5-2.05.11.48-.26.56,4.02.6.39.02.15-2.28.32ZM98.36,75.42l-1.22-.85v-.33s1.01-.24,1.01-.24l.16-.02.22,1.42-.17.02Z"/>
            <path class="cls-2" d="M99.19,78.82v-.15s.5-.62.5-.62l-.33.67,1.9-4.82.78-.03,2.29,4.64-.39-.64.56.57v.15s-2.2.09-2.2.09v-.15s.66-.6.66-.6l.09.63-1.99-4.03h.24s-.99,4.15-.99,4.15l-.05-.63.72.54v.15s-1.81.08-1.81.08ZM100.33,77.37l-.02-.41,2.66-.11.02.41-2.66.11ZM101.14,74.67l-.58-.58v-.15s.87-.04.87-.04l-.3.77Z"/>
            <path class="cls-2" d="M105.32,78.62v-.15s.54-.43.54-.43l.26-3.57-.46-.5v-.15s1.73.13,1.73.13l-.35,4.81-1.72-.13ZM106.58,78.71l.03-.4.97.07c.32.02.6-.04.84-.18.24-.14.44-.36.58-.65.14-.29.23-.63.26-1.04.03-.42,0-.78-.11-1.09-.1-.31-.26-.55-.48-.74-.22-.18-.48-.28-.79-.31l-.98-.07.03-.4,1.12.08c.55.04,1.03.17,1.42.39.39.22.69.52.89.88.2.37.28.79.24,1.27-.03.36-.12.69-.28.98-.16.29-.38.54-.65.74-.27.2-.58.35-.94.44-.36.1-.75.13-1.16.1l-.99-.07Z"/>
            <path class="cls-2" d="M114.23,79.77c-.52-.1-.95-.29-1.29-.57-.34-.27-.59-.62-.72-1.02-.14-.41-.16-.86-.06-1.36.1-.51.3-.93.59-1.27.29-.33.65-.56,1.08-.69.43-.13.92-.14,1.45-.03.52.1.95.29,1.3.57.34.27.58.61.72,1.02.14.41.16.86.06,1.36-.1.51-.29.93-.58,1.26-.29.33-.65.57-1.08.69-.43.13-.92.14-1.45.03ZM114.41,79.3c.26.05.49.02.7-.09.21-.11.39-.3.54-.56.15-.26.26-.59.34-.99.09-.43.11-.82.06-1.15-.05-.33-.15-.61-.31-.82-.16-.21-.38-.34-.66-.4-.26-.05-.5-.02-.71.09-.21.11-.39.3-.54.56-.15.27-.26.6-.34.99-.08.43-.1.81-.06,1.15.05.34.15.61.32.82.17.21.38.34.65.4Z"/>
            <path class="cls-2" d="M120.28,81.15l.05-.14.63-.26,1.26-3.35-.3-.61.05-.14,1.62.61-1.7,4.52-1.62-.61ZM121.46,81.59l.14-.38.91.34c.3.11.58.13.85.06.27-.07.52-.22.74-.46.22-.24.4-.54.54-.92.15-.39.22-.75.21-1.08,0-.32-.09-.6-.25-.84s-.38-.41-.67-.52l-.92-.35.14-.38,1.05.39c.52.2.94.46,1.25.78.32.33.52.69.6,1.1.09.41.05.83-.12,1.28-.13.34-.31.63-.55.86-.24.23-.51.41-.83.52-.31.12-.66.17-1.03.16-.37,0-.75-.09-1.14-.24l-.93-.35Z"/>
            <path class="cls-2" d="M126,83.39l.07-.14.65-.2,1.6-3.2-.23-.64.07-.14,1.54.77-2.16,4.31-1.54-.77ZM127.23,84l.15-.29,2.18.9-.23.45-2.11-1.05ZM129.81,82.81l-1.54-.89.14-.28,1.64.7-.24.48ZM128.48,84.63l.14-.29,1.39-.38.16.08-.61,1.13-1.08-.54ZM131.28,81.2l-2.03-1.21.15-.29,2.11,1.05-.23.45ZM129.61,83.26l-.32-.85.13-.26.87-.25.16.08-.68,1.36-.16-.08ZM130.96,81.77l-.52-1.2.14-.29.97.38.12.06-.56,1.13-.16-.08Z"/>
            <path class="cls-2" d="M134.69,88.54c-.42-.3-.72-.63-.92-1.01-.19-.38-.27-.77-.22-1.18s.21-.82.5-1.23c.23-.32.49-.58.77-.77.29-.19.59-.31.92-.37.32-.06.66-.04.99.05.34.09.67.25,1,.48.18.13.35.28.51.44.16.16.3.34.43.52.13.18.22.36.29.54l-1.02.52-.14-.1-.15-1.62.72.51-.38.55c0-.18-.02-.34-.1-.5-.08-.16-.2-.29-.36-.41-.22-.15-.46-.22-.73-.21-.27.02-.54.11-.81.27-.27.16-.51.4-.72.69-.23.33-.38.65-.44.97-.06.32-.04.62.06.9.1.28.29.51.56.7.2.14.4.22.6.22.2,0,.41-.06.64-.19l.14.26c-.3.25-.64.37-1.02.37s-.75-.13-1.12-.39ZM136.34,89.71l-.49-1.17.68-.97-.19-.71.09-.13,1.77,1.25-.09.13-.55.13-1.1,1.55-.13-.09Z"/>
            <path class="cls-2" d="M143.1,89.86l-.12-.79.1-.12,1.36,1.2-.1.12-.73.03-1.58,1.78c-.25.29-.53.48-.84.59-.31.1-.62.12-.95.04-.32-.08-.63-.24-.93-.5-.52-.46-.81-.93-.88-1.42s.1-.95.49-1.4l1.63-1.84-.06-.68.1-.12,1.66,1.47-.1.12-.68.02-1.49,1.68c-.32.36-.48.68-.5.98-.02.29.11.56.39.81.28.24.56.34.85.28.29-.05.59-.26.91-.62l1.46-1.65Z"/>
            <path class="cls-2" d="M141.46,93.98l.11-.1h.8s-.73.17-.73.17l4.91-1.65.53.58-2.07,4.75.24-.71-.07.8-.11.1-1.49-1.63.11-.1.89.12-.43.48,1.8-4.12.17.18-3.81,1.92.45-.44.06.9-.11.1-1.23-1.34ZM143.31,93.92l.3-.27,1.8,1.96-.3.27-1.8-1.96ZM145.89,92.79l.07-.81.11-.1.6.65-.78.27Z"/>
            <path class="cls-2" d="M145.57,98.54l.12-.09.67.12,2.83-1.88.2-.84.12-.09.47.65-3.2,2.75-.09.68-.12.09-1.01-1.39ZM147.82,101.63l1.31-4.75.79-.57.41.56-1.25,4.52h-.36s2.44-2.32,2.44-2.32l.09-.68.12-.09,1.01,1.39-.12.09-.67-.13-3.4,2.48-.37-.51Z"/>
            <path class="cls-2" d="M148.82,103.02l.13-.08.78.16-.75.02,5.15-.54.39.68-3.06,4.18.39-.64-.25.76-.13.08-1.1-1.92.13-.08.84.31-.52.37,2.66-3.62.12.21-4.14,1.04.53-.33-.14.89-.13.08-.91-1.58ZM150.63,103.37l.35-.2,1.33,2.31-.35.2-1.33-2.31ZM153.4,102.83l.25-.78.13-.08.44.76-.82.09Z"/>
            <path class="cls-2" d="M152.37,109.91c-.08-.19-.14-.4-.17-.63-.03-.23-.03-.46,0-.69.03-.23.08-.44.16-.63l1.12.14.07.16-.93,1.29-.32-.72.99-.44c-.26.24-.42.46-.49.66-.07.2-.06.42.05.64.09.19.23.31.44.34.21.04.46,0,.75-.14l2.54-1.13.23-.64.14-.06.91,2.03-.14.06-.63-.26-2.34,1.04c-.51.23-.97.25-1.38.07-.41-.18-.75-.55-.99-1.1Z"/>
            <path class="cls-2" d="M158.94,115.25l.3-.74.15-.05.56,1.72-.15.05-.65-.34-2.26.74c-.36.12-.7.15-1.02.08-.32-.07-.6-.21-.84-.44s-.42-.53-.55-.9c-.22-.66-.23-1.22-.04-1.67.19-.45.57-.77,1.13-.96l2.34-.77.29-.62.15-.05.69,2.11-.15.05-.6-.33-2.13.7c-.45.15-.76.34-.92.59-.16.25-.19.54-.07.89.11.35.31.57.59.67.28.1.64.08,1.09-.07l2.09-.69Z"/>
            <path class="cls-2" d="M155.45,117.99l.15-.03.69.39-.72-.21,5.07,1.04.17.77-4.18,3.06.56-.5-.47.65-.15.03-.47-2.16.15-.03.71.55-.61.2,3.63-2.65.05.24-4.26-.26.61-.15-.4.8-.15.03-.39-1.78ZM157.07,118.86l.4-.09.57,2.6-.4.09-.57-2.6ZM159.88,119.19l.47-.67.15-.03.19.86-.81-.16Z"/>
            <path class="cls-2" d="M156.74,124.55l.15-.02.53.48,4.03-.48-.13.52-.41-2.01.5-.06.51,4.28-.5.06-.07-2.05.25.48-4.03.48-.4.59-.15.02-.27-2.29ZM160.07,122.97l1.43-.15.02.15.02,1.03-.31.09-1.14-.96-.02-.17ZM160.6,127.43l.88-1.2.33.02.22,1.01.02.16-1.42.19-.02-.17Z"/>
            <path class="cls-2" d="M157.13,131.49c0-.53.09-.99.29-1.38s.48-.7.86-.92c.37-.22.81-.33,1.32-.33.52,0,.97.1,1.36.32s.68.52.9.92c.21.4.32.87.33,1.42,0,.53-.09.99-.29,1.38-.2.39-.48.69-.85.91-.37.22-.81.33-1.32.33-.52,0-.97-.1-1.36-.32s-.69-.52-.9-.92c-.21-.4-.32-.87-.33-1.42ZM157.62,131.57c0,.26.08.48.23.67.15.19.37.32.66.42s.63.14,1.04.14c.44,0,.82-.06,1.14-.17.32-.11.56-.27.74-.47.17-.2.26-.44.26-.72,0-.27-.08-.49-.23-.67-.15-.18-.37-.32-.66-.41s-.64-.14-1.04-.14c-.44,0-.82.06-1.14.17-.32.11-.57.27-.74.47-.17.2-.26.44-.26.72Z"/>
          </g>
          <g>
            <path class="cls-2" d="M61.1,169.72l.09-.25,1.09.07c.56.04,1.03.05,1.4.04.37-.01.66-.05.89-.12.23-.07.41-.16.55-.29.22-.19.34-.4.37-.63.03-.23-.04-.43-.2-.62-.11-.13-.26-.22-.42-.27-.17-.05-.33-.06-.5-.03l.5-.4.5.57-1.4.17-.11-.12.36-1.07c.19.06.37.14.55.24s.34.21.49.33c.16.13.3.26.43.41.43.48.68.92.76,1.31.08.39-.02.71-.3.95-.12.11-.28.19-.46.24-.19.05-.42.07-.69.07-.28,0-.61-.04-1.01-.11-.4-.07-.87-.17-1.42-.29l-.48-.06.2-.1,1.36,1.53.99.07.11.13-1.18,1.01-2.45-2.77Z"/>
            <path class="cls-2" d="M67.37,176.27c-.34-.3-.57-.63-.69-.98-.12-.36-.13-.73-.04-1.11.1-.38.3-.75.62-1.11.34-.39.7-.67,1.08-.83.38-.16.76-.22,1.14-.15.38.06.74.24,1.08.54.34.29.56.62.69.98.12.36.13.73.04,1.11-.1.38-.3.75-.62,1.11-.34.39-.7.67-1.08.83-.38.17-.76.22-1.14.16-.38-.06-.74-.24-1.07-.53ZM67.65,175.95c.15.13.32.19.52.17.19-.02.41-.11.65-.28s.5-.42.79-.75c.45-.52.74-.95.85-1.31.12-.36.06-.64-.17-.84-.15-.14-.33-.19-.52-.18-.19.02-.41.11-.65.28-.24.17-.5.42-.79.74-.45.52-.73.96-.85,1.32-.11.36-.06.64.17.84Z"/>
            <path class="cls-2" d="M71.39,179.39l.02-.26,1.08-.2c.56-.1,1.01-.21,1.37-.31.35-.1.63-.21.83-.33.2-.12.36-.26.46-.41.16-.24.23-.47.21-.7-.03-.23-.14-.41-.35-.55-.14-.1-.3-.15-.48-.16-.18-.01-.34.02-.49.1l.39-.51.63.43-1.31.5-.14-.09.09-1.12c.2.01.4.04.59.09.19.05.38.12.56.2.18.08.36.18.52.29.53.36.88.72,1.05,1.08s.15.69-.06,1c-.09.14-.22.25-.39.35s-.39.17-.66.24c-.27.06-.61.11-1.01.14s-.89.05-1.45.06l-.48.06.17-.15,1.69,1.15.98-.17.14.1-.9,1.27-3.06-2.09Z"/>
            <path class="cls-2" d="M77.55,182.04v-.23s3.16-2.11,3.16-2.11l1.42.73-.08.16-4.19,1.38-.08.12-.23-.04ZM77.55,182.04l.44-.29,3.64,1.87-.21.41-3.88-1.99ZM78.38,183.72l.07-.13.76-.06.89-1.73.17-.06.91.47-.95,1.85.4.65-.07.13-2.18-1.12Z"/>
          </g>
          <g>
            <path class="cls-2" d="M129.64,183.95l-.22-.14.32-1.04c.17-.54.29-.99.37-1.35.08-.36.11-.66.1-.89,0-.23-.06-.44-.15-.6-.14-.26-.31-.43-.52-.51-.21-.08-.43-.07-.65.05-.15.08-.28.2-.37.35-.09.15-.14.31-.14.48l-.27-.58.67-.35-.17,1.4-.15.08-.95-.6c.11-.17.23-.33.36-.47.13-.14.28-.28.44-.4.16-.12.33-.23.5-.32.57-.3,1.05-.44,1.45-.42s.68.19.85.52c.08.15.12.32.12.51,0,.19-.03.42-.1.69s-.19.59-.35.96c-.16.37-.37.81-.63,1.31l-.17.45-.05-.22,1.81-.95.31-.94.15-.08.7,1.39-3.28,1.72Z"/>
            <path class="cls-2" d="M137.49,179.44c-.37.26-.75.4-1.12.43s-.74-.05-1.08-.23c-.35-.19-.65-.48-.93-.87-.3-.43-.48-.85-.55-1.25-.07-.41-.02-.79.13-1.14.15-.35.41-.66.78-.92.37-.26.74-.4,1.12-.43.38-.03.74.05,1.08.23s.66.48.93.87c.29.42.48.84.54,1.25.07.41.03.79-.13,1.15-.15.35-.41.66-.78.91ZM137.25,179.09c.16-.11.26-.27.29-.46.03-.19,0-.42-.11-.69-.11-.27-.29-.59-.53-.94-.39-.56-.75-.95-1.07-1.14-.32-.2-.61-.21-.85-.04-.17.12-.27.27-.3.46-.03.19,0,.42.11.69.11.27.28.59.53.95.39.56.75.94,1.07,1.14.32.2.61.21.86.04Z"/>
            <path class="cls-2" d="M140.9,173.47l-.12-.14c.14-.13.24-.27.3-.43.06-.16.08-.32.06-.48-.02-.16-.08-.3-.19-.42-.14-.16-.32-.24-.53-.25-.21,0-.41.08-.59.24-.14.12-.25.27-.33.42-.08.16-.12.33-.13.51l-.35-.44.57-.61.18,1.48-.13.11-1.06-.36c.1-.28.24-.55.42-.82.18-.26.41-.51.68-.75.28-.25.56-.44.83-.55.27-.12.51-.16.74-.14.22.02.41.12.56.29.25.28.29.61.14,1-.15.39-.51.83-1.06,1.32ZM142.88,175.22c-.28.24-.56.44-.84.59s-.59.24-.91.3l-.25-1.11.13-.11,1.47.38-.64.49-.41-.43c.19.04.37.03.54-.02.17-.05.34-.15.5-.29.14-.12.23-.26.28-.41.05-.15.06-.31.02-.47-.04-.16-.11-.31-.23-.44-.12-.14-.27-.24-.44-.28-.17-.05-.34-.05-.52,0s-.35.13-.5.27l-.25-.28c.59-.52,1.1-.83,1.54-.92.44-.1.8.02,1.09.34.19.22.3.46.32.73.02.27-.05.55-.2.84-.15.29-.38.57-.7.85ZM141.41,173.09l-.12-.14.24-.21.12.14-.24.21Z"/>
            <path class="cls-2" d="M148.12,169.98c-.3.34-.63.57-.99.69-.36.12-.73.13-1.11.03-.38-.1-.75-.31-1.11-.62-.39-.34-.67-.71-.83-1.09-.16-.38-.21-.76-.15-1.14.06-.38.24-.74.54-1.08.3-.34.62-.56.98-.68.36-.12.73-.13,1.11-.03.38.1.75.31,1.11.62.39.34.66.7.83,1.09s.21.76.15,1.14c-.06.38-.24.74-.54,1.07ZM147.8,169.69c.13-.15.19-.32.18-.52-.02-.19-.11-.41-.28-.65-.17-.24-.42-.5-.74-.79-.51-.45-.95-.74-1.31-.86-.36-.12-.64-.06-.84.16-.14.15-.2.33-.18.52.02.19.11.41.28.65.17.24.42.5.74.79.51.45.95.74,1.31.85.36.12.64.06.84-.17Z"/>
          </g>
          <g>
            <path class="cls-6" d="M106.67,164.9s-4.85,13.9,3.16,29.59l3.05-.33s-3.76-4.85-5.72-14.17c0,0-1.91-9.86-.49-15.09Z"/>
            <path class="cls-6" d="M114.53,136c-5.57-2.27-8.3-3.74-8.3-3.74.31.49,3.33,2.55,6.01,3.71,2.68,1.16,5.31,3.22,5.31,3.22,4.05,3.56,3.25,6.96,3.25,6.96,1.57-4.18-.7-7.89-6.26-10.16Z"/>
            <path class="cls-6" d="M147.93,107.77c-.39-.88-1.08-.65-1.08-.65l-.88.28-4.39,1.29,1.2-5.93s.23-.84.28-1.53-.7-1.47-2.11-2.92c-1.2-1.24-2.01-1.71-2.01-1.71l-.32,1.42-2.75,12.53-11.71,3.82s-2.03.63-3.12,2.24c-1.08,1.6-1.33,2.35-.86,2.67,0,0,.11.2,1.47-.18,1.36-.38,13.4-3.66,13.4-3.66l-6.33,29.45c-.25-.69-.51-1.42-.73-2.08-.69-2.07-2.27-8.2-5.73-11.86-1.8-1.91-3.17-2.9-4.08-3.41-.65-1.39-1.59-2.54-2.33-3.48-1.32-1.68-1.66-2.54-1.9-4.84-.24-2.3.01-4.23-.74-7.33-.26-1.05-.55-1.89-.82-2.56-.54-1.31-1.01-1.91-1.01-1.91-2.02-2.49-5.04-3.08-5.04-3.08,3.32-.09,5.11,2.45,5.11,2.45,0,0,0-.03-.02-.08-.09-.31-.54-1.52-2.33-2.74-2.07-1.41-4.23-1.24-4.23-1.24-6.5.17-7.3,6.01-7.91,8.24-.6,2.23-1.21,5.62-1.21,8.13s-1.25,4.14-1.25,4.14c-2.04,2.32-2.46,5.58-2.46,5.58,0,0-.93.84-3.11,3.11-2.04,2.12-6.1,8.13-6.63,8.93-.08-.45-.38-1.85-1.14-3.64,0,0-1.39-2.89-2.48-4.77-1.09-1.88-3.15-6.62-3.41-7.36-.27-.74-.82-2.33-.6-3.63,0,0,.23-.93.35-1.15.12-.22-.02-.53-.02-.53,0,0,.36-.54.05-1.11,0,0,.44-.79.05-1.7,0,0,.39-.13.43-.78.03-.65-.78-.88-.78-.88,0,0-.64-.46-.96-.63,0,0,2.27-1.35,2.94-3.43.67-2.07.63-2.69.63-2.69,0,0,.28.08.39-.05.12-.13.28-.51-.09-.75-.35-.23-1.39-.61-2.19-.73,2.14-1.03,3.61-3.21,3.61-5.74,0-1.09-.28-2.12-.76-3.02-.18-.34-.4-.67-.66-.99-1.16-1.43-2.94-2.35-4.92-2.35,0,0-.01,0-.01,0-.15,0-.3,0-.45.02,0,0,0,.01,0,.02-6.04.54-6.07,6.08-6.07,6.08,0,0,.03.5.24,1.23.28,1.79,1.3,3.33,2.74,4.3-.55.08-1.79.29-2.3.64,0,0-.09.58.07.67s.35.1.35.1c0,0-.15,2.11.71,3.95.86,1.84,2.34,2.74,2.34,2.74,0,0-.8.05-1.2.42-.41.37-.32.75-.32.9s.01.34-.13.47-.35.6-.09,1.13c0,0,.09.25-.02.45-.12.2-.14.59-.03.83.1.24.16.76.15.88s.01.86.46,1.61c.45.75,1.19,1.34,1.96,4.41.76,3.07,1.82,8.67,1.82,8.67,0,0,.73,4.6.87,5.38.11.64,1.24,4.5,1.75,6.07,0,.06,0,.12.03.18.51,1.58,2.09,5.53,6.27,3.44,4.18-2.09,9.62-6.88,9.62-6.88-.79-1.77-.14-6.04-.14-6.04,0,0,.09,2.6.88,5.9.79,3.3,3.86,6.74,4.69,10.73.84,4-1.3,3.81-4,12.36-2.69,8.55-3.4,14.71-3.4,14.71-.19,4.34-.11,11.06-.11,11.06l.11,1.56s5.44,1.84,16.28,1.76c-.06-.12-.13-.3-.21-.52-.71-2.04-1.92-7.88-2.31-12.01-.43-4.58-.67-8.92.24-14.27.91-5.36,4.07-9.64,5.38-10.93,1.31-1.29,3.35-3.27,2.62-6.35-.72-3.08-3.24-4.55-7.42-6.88-4.18-2.33-5.84-3.78-5.84-3.78-4.34-3.51-3.11-8.62-3.11-8.62-.21,5.3,7.23,9.59,11.6,11.19,4.36,1.61,6.45,3.78,6.45,3.78,4.41,4.27,2.78,8.14,2.32,9.01.03.02.02.02.05.04,2.86-2.61,4.65-6.91,3.38-10.33-1.29-3.48-3.51-4.77-9.16-8.11-5.65-3.35-7.92-7.4-7.92-7.4-1.2-2.03-1.28-3.06-1.27-4.15s-.14-2.58,1.51-3.53c1.65-.95,2.23-.87,3.05-1.17.82-.3,3.7-2.07,3.7-2.07,0,0-.56.16-1.13.11-.57-.05-1.09-.5-2.29-.93-1.2-.43-3.16.76-3.71,1.01-.55.25-.82-.68-.97-1.15-.15-.47-.9-2.09-1.24-3-.34-.91-.24-1.3.12-1.83.36-.53,1.58-1.59,2.57-2.04,1.02-.46,1.17-.1,1.26.35.1.49.05,1.29-.14,1.76-.15.38.07.39.39.28.33-.11.8-.54.8-1s-.11-2.56-.11-2.56c-2.27.07-3.59.95-4.27,1.37-.68.42-1.55,1.11-1.17.47.38-.64,1.67-1.57,1.67-1.57-1.14.53-2.02,1.59-2.21,1.65-.19.06-.3-.13.39-.87.69-.74,1.83-1.43,1.83-1.43,0,0-.24-.01-1.04.5-.8.51-1.53,1.07-1.64.88-.11-.19.28-.72.28-.72.93-1.52,3.7-3.7,7.17-3.34,3.46.36,5.73,3.34,5.78,3.72.05.38-.27.3-.77-.17s-1.5-.88-1.5-.88c.81.58,2.44,2.1,2.57,2.36.13.26.02.56-.39.05-.41-.51-1.22-1-1.22-1,.72.66,1.43,1.53,1.35,1.87-.08.34-.33.14-.54-.12s-1.07-1.03-1.07-1.03c-2.14-1.75-4.74-1.75-4.74-1.75,0,0-.06.59.48,1.4.54.81,1.46.66,1.69.42s.37-.67,1.33-.01c.96.66,1.94,2.05,1.94,2.05,0,0,.1,1.35.1,2.42s-.47,4.57-2.57,5.41c-2.1.84-1.97,1.57-1.97,1.57,1.18.03,3.2-.57,3.2-.57,0,0-.21,1.46.98,3.87,1.2,2.41,2.78,2.8,2.78,2.8,1.94.26,3.67.85,4.77,1.39.19.09.37.21.54.34.91.69,2.51,2.09,3.89,4.27-.55-.59-1.21-1.15-1.96-1.67-3.48-2.42-8.27-3.35-13.22-4.02-4.79-.65-5.4-2.94-5.44-3.09.52,2.73,2.19,3.47,3.63,4.14,1.44.67,3.45,1.34,9.54,3.71,6.08,2.37,7.6,5.72,7.6,5.72,1.41,2.83.96,5.49.33,7.22-.96,2.28-2.42,4.02-2.42,4.02,1.42-1.13,2.3-2.48,2.64-3.08,1.46,2.87,3.36,5.02,4.3,5.71l-2.62,11.4s-2.75-5.64-8.49-9.31c0,0,.02.02.05.06.61.38,1.75,1.37,3.27,3.24,1.77,2.19,3.49,6.02,4.31,7.99.31.75.55,1.53.72,2.33.5,2.4.79,6.13,1.32,11.09.19,1.78.43,2.92.42,4.21l3.83-14.31,6.4-33.64c.55-.79,1.51-2.19,1.98-3.18.69-1.44.07-1.24.07-2.2s.27-1.03-.27-1.44c-.18-.13-.3-.26-.4-.37l2.99-15.73,7.3-2.3.5-.16s.55-.2.59-.53c.11-.79-.8-2.32-1.08-2.94ZM72.92,105.48c-.3,0-.6-.03-.89-.08,2.29-.18,4.1-2.01,4.1-4.24,0-2.06-1.54-3.77-3.58-4.17.12,0,.24-.01.37-.01,2.46,0,4.46,1.9,4.46,4.25s-2,4.25-4.46,4.25Z"/>
          </g>
        </g>
        <g>
          <path class="cls-6" d="M246.17,125.54c0,2.2-.24,3.79-.72,4.77-.48.98-1.28,1.46-2.4,1.46s-1.87-.49-2.37-1.46c-.5-.98-.75-2.56-.75-4.77v-29.6h-12.15v29.04c0,5.77,1.26,9.96,3.77,12.56,2.51,2.6,6.35,3.89,11.5,3.89s9.04-1.3,11.53-3.89c2.49-2.6,3.74-6.78,3.74-12.56v-29.04h-12.15v29.6Z"/>
          <path class="cls-6" d="M267.14,95.99l1.45,5.92-8.97,39.54h13.02l1.18-6.09h7.85l1.18,6.09h12.9l-9.78-45.48-18.83.03ZM275.06,125.64l2.68-16.44,2.62,16.44h-5.3Z"/>
          <path class="cls-6" d="M420.91,125.54c0,2.2-.24,3.79-.72,4.77-.48.98-1.28,1.46-2.4,1.46s-1.87-.49-2.37-1.46c-.5-.98-.75-2.56-.75-4.77v-29.6h-12.15v29.04c0,5.77,1.26,9.96,3.77,12.56,2.51,2.6,6.35,3.89,11.5,3.89s9.04-1.3,11.53-3.89c2.49-2.6,3.74-6.78,3.74-12.56v-29.04h-12.15v29.6Z"/>
          <path class="cls-6" d="M441.92,95.97l1.4,5.95-8.97,39.54h13.02l1.18-6.09h7.85l1.18,6.09h12.9l-9.74-45.46-18.83-.03ZM449.8,125.64l2.68-16.44,2.62,16.44h-5.3Z"/>
          <path class="cls-6" d="M344.07,95.94l1.4,5.97-8.97,39.54h13.02l1.18-6.09h7.85l1.18,6.09h12.9l-9.77-45.48-18.81-.03ZM351.95,125.64l2.68-16.44,2.62,16.44h-5.3Z"/>
          <polygon class="cls-6" points="321.6 121.94 312.81 95.93 296.48 95.93 299.04 102.45 299.04 141.42 310.88 141.42 310.88 117.83 318.86 141.42 333.44 141.42 333.44 95.93 321.6 95.93 321.6 121.94"/>
          <path class="cls-6" d="M501.64,96.02h-36.54s2.43,10.05,2.43,10.05h9.54v35.32h12.21v-35.41h7.53c.39-3.69,2.18-7.29,4.81-9.89v-.08Z"/>
          <path class="cls-6" d="M531.94,104.72c-1.14-3.34-2.96-5.71-5.45-7.1-2.49-1.39-5.77-2.09-9.85-2.09s-7.35.7-9.85,2.09c-2.49,1.39-4.31,3.76-5.45,7.1-1.14,3.34-1.71,7.95-1.71,13.8s.57,10.46,1.71,13.8c1.14,3.34,2.96,5.71,5.45,7.1,2.49,1.39,5.77,2.09,9.85,2.09s7.35-.69,9.85-2.09c2.49-1.39,4.31-3.76,5.45-7.1,1.14-3.34,1.71-7.95,1.71-13.8s-.57-10.46-1.71-13.8ZM520.22,126.62c-.23,1.95-.62,3.31-1.18,4.08-.56.77-1.36,1.15-2.4,1.15s-1.79-.38-2.37-1.15c-.58-.77-.99-2.13-1.22-4.08-.23-1.95-.34-4.69-.34-8.23s.11-6.3.34-8.19c.23-1.89.63-3.2,1.22-3.93.58-.73,1.37-1.09,2.37-1.09s1.84.36,2.4,1.09c.56.73.95,2.04,1.18,3.93.23,1.89.34,4.62.34,8.19s-.11,6.27-.34,8.23Z"/>
          <path class="cls-6" d="M216.99,109.28l6.54-9.1s-5.54-5.89-16.38-4.23c-11.6,1.78-17.23,11.75-17.16,22.74.07,10.99,4.68,19.77,15.05,22.16,12.76,2.12,18.35-2.12,18.35-2.12v-19.99l-14.67-.07,3.48,6.22v4.9c-8.27,1.42-13.14-11.83-7.37-19.1,4.64-5.84,12.15-1.41,12.15-1.41Z"/>
          <path class="cls-6" d="M385.61,104.63v18.82c0,2.04-.12,3.6-.37,4.7-.25,1.1-.78,1.87-1.59,2.31-.81.44-2.03.65-3.65.65-.71,0-1.43-.07-2.18-.22-.68-.13-1.32-.27-1.93-.42-1.21-.4-1.82-.81-1.82-.81l2.21,10.94c1.92.76,5.57.92,6.48.94.45.02.86.03,1.22.03,2.58,0,4.75-.18,6.51-.53,1.76-.35,3.18-1.03,4.24-2.03s1.83-2.41,2.31-4.24c.48-1.83.72-4.24.72-7.23l.05-31.54-15.68-.05,3.48,8.66Z"/>
        </g>
        <g>
          <path class="cls-1" d="M237.51,162.96c-1.34,0-2.51-.26-3.49-.79-.99-.53-1.74-1.29-2.27-2.28-.53-.99-.79-2.19-.79-3.58,0-1.03.16-1.94.48-2.74.32-.8.78-1.47,1.37-2.02s1.3-.96,2.12-1.24c.82-.28,1.72-.42,2.71-.42.85,0,1.67.09,2.45.28.78.19,1.44.41,2,.68-.07.43-.13.89-.16,1.38-.03.5-.05,1.01-.05,1.54-.24.1-.51.16-.8.19-.29.03-.57.04-.84.04-.04-.72-.17-1.28-.39-1.69-.22-.41-.52-.7-.91-.87s-.83-.25-1.33-.25c-.78,0-1.41.22-1.9.67-.49.45-.84,1.03-1.06,1.74s-.33,1.47-.33,2.26c0,1.11.14,2.09.41,2.96s.67,1.55,1.18,2.04,1.13.74,1.86.74c.23,0,.42-.01.57-.03.15-.02.29-.05.41-.1.19-.08.34-.2.45-.38s.17-.51.17-1v-.72c0-.43-.03-.75-.1-.96-.07-.21-.21-.36-.41-.43s-.51-.12-.89-.13c-.05-.17-.08-.37-.1-.59-.02-.22-.03-.46-.03-.71.34.01.74.03,1.22.04.47.01.91.02,1.33.02.39,0,.83,0,1.33,0s.91-.02,1.25-.03c0,.2,0,.41-.02.64-.01.23-.04.44-.1.64-.23.01-.39.05-.51.12s-.18.19-.21.38c-.02.18-.04.45-.04.8v.55c0,.45.02.79.06,1.03.04.23.12.49.25.78-.58.42-1.29.76-2.13,1.04-.84.28-1.76.42-2.75.42Z"/>
          <path class="cls-1" d="M252.58,162.96c-1.33,0-2.47-.28-3.43-.84-.96-.56-1.69-1.33-2.21-2.32-.52-.99-.78-2.13-.78-3.44,0-.99.16-1.89.48-2.68.32-.8.76-1.48,1.34-2.04.57-.57,1.25-1,2.03-1.3.78-.3,1.64-.45,2.57-.45,1.29,0,2.42.26,3.38.78.96.52,1.71,1.25,2.25,2.19.54.94.81,2.05.81,3.33,0,.99-.15,1.9-.45,2.72-.3.82-.74,1.54-1.3,2.14-.57.6-1.24,1.07-2.03,1.4-.79.33-1.68.5-2.66.5ZM252.84,161.62c.6,0,1.11-.21,1.53-.63.41-.42.73-1,.95-1.75.22-.75.33-1.62.33-2.63s-.14-1.92-.41-2.74c-.28-.82-.67-1.48-1.17-1.97-.5-.49-1.09-.74-1.77-.74-.57,0-1.06.19-1.47.57-.41.38-.74.92-.96,1.62-.23.7-.34,1.55-.34,2.54,0,.77.07,1.49.21,2.18.14.69.34,1.3.61,1.84s.61.95,1.03,1.25c.41.3.9.45,1.47.45Z"/>
          <path class="cls-1" d="M262.26,150c.24.01.55.03.94.04.39.01.75.02,1.07.02s.73,0,1.21,0,.96-.01,1.44-.02.9,0,1.25,0c1.19,0,2.15.1,2.87.3s1.25.52,1.58.94c.33.43.5.97.5,1.64,0,.74-.25,1.38-.76,1.92s-1.23.88-2.18,1.02c.84.05,1.54.2,2.08.46.55.26.95.62,1.21,1.09.26.47.39,1.05.39,1.72,0,.72-.19,1.35-.56,1.9-.37.55-.96.99-1.78,1.3-.82.31-1.9.47-3.26.47h-1.55c-.53,0-1.06,0-1.59,0-.53,0-1.03.01-1.52.02-.48,0-.94.02-1.37.03,0-.25.01-.49.03-.73.02-.23.05-.42.1-.57.34-.03.6-.09.78-.2.18-.11.31-.3.38-.58.07-.28.1-.7.1-1.25v-6.25c0-.53-.03-.92-.1-1.19s-.2-.45-.38-.56c-.18-.11-.45-.18-.8-.22-.04-.16-.07-.37-.08-.63-.02-.26-.03-.48-.03-.67ZM266.91,150.75v8.87c0,.54.06.95.17,1.22.11.28.28.46.49.56.21.09.46.14.75.14.58,0,1.05-.2,1.4-.58.36-.39.54-.93.54-1.62,0-.49-.07-.89-.21-1.21-.14-.32-.34-.57-.59-.75s-.56-.31-.92-.4c-.36-.08-.75-.12-1.18-.12h-1.07v-1.26h1.28c.51,0,.94-.09,1.27-.26.33-.18.58-.43.74-.75s.25-.72.25-1.17-.1-.85-.29-1.17c-.2-.31-.45-.55-.75-.7-.31-.15-.65-.23-1.03-.23-.21,0-.4.02-.57.06-.17.04-.35.11-.54.21l.26-.83Z"/>
          <path class="cls-1" d="M278.54,153.25c0-.53-.03-.92-.1-1.19s-.19-.45-.37-.56c-.18-.11-.44-.18-.78-.22-.05-.16-.09-.37-.11-.61-.02-.25-.04-.47-.04-.69.21.01.51.02.88.03.37,0,.76.01,1.17.02s.76,0,1.05,0,.62,0,.98,0c.37,0,.72-.01,1.07-.02.35,0,.65-.02.9-.03,0,.23,0,.45-.02.66-.01.21-.06.43-.13.64-.34.04-.6.11-.78.21-.18.1-.3.29-.37.56s-.09.67-.09,1.2v6.29c0,.54.03.95.09,1.23s.19.47.38.57.45.17.77.2c.05.15.09.35.11.59.02.25.04.48.04.71-.3-.03-.7-.04-1.21-.05-.5,0-1.04,0-1.62,0s-1.16,0-1.74,0c-.58,0-1.08.02-1.48.05,0-.21.02-.45.05-.7.03-.25.07-.45.1-.6.34-.03.6-.09.78-.2.18-.11.3-.3.37-.57s.1-.69.1-1.23v-6.29Z"/>
          <path class="cls-1" d="M286.45,150c.26.01.6.02,1,.03.4,0,.83.01,1.27.02s.88,0,1.29,0h1.09v9.38c0,.54.04.96.13,1.27.09.31.24.52.46.64s.53.18.93.18l-.6,1.26c-.34,0-.78,0-1.31,0-.53,0-1.09.01-1.66.02-.57,0-1.1.01-1.57.02s-.82.01-1.04.01c0-.25.01-.49.03-.73.02-.23.05-.42.1-.57.34-.03.6-.09.78-.2.18-.11.31-.3.38-.58.07-.28.1-.7.1-1.25v-6.25c0-.53-.03-.92-.1-1.19s-.2-.45-.38-.56c-.18-.11-.45-.18-.8-.22-.05-.16-.08-.37-.09-.63-.01-.26-.02-.48-.02-.67ZM294.55,154.21c-.01.3-.03.63-.05.98-.02.35-.03.75-.03,1.19,0,.48,0,.89.03,1.25.02.36.03.68.05.97-.3,0-.56-.01-.79-.04-.23-.02-.44-.07-.64-.13-.05-.55-.2-.92-.43-1.1-.24-.18-.67-.27-1.28-.27h-1.13v-1.26h1.13c.67,0,1.11-.1,1.33-.3s.34-.56.35-1.07c.2-.09.43-.15.7-.17.26-.03.52-.04.77-.04ZM296.19,150c.01.3.04.65.08,1.06.04.4.08.79.13,1.18.05.38.11.73.19,1.03-.2.09-.43.16-.69.22-.26.06-.57.08-.95.08-.06-.43-.18-.81-.35-1.16-.17-.34-.44-.61-.8-.81-.36-.19-.89-.29-1.56-.29h-1.87l.58-1.24c.96,0,1.76,0,2.42,0,.66,0,1.22-.01,1.67-.02.45,0,.84-.02,1.15-.03ZM295.66,159c.35.04.67.11.97.22.3.11.52.24.67.39-.14.43-.26.93-.36,1.51-.1.58-.18,1.15-.23,1.71-.34-.01-.77-.02-1.3-.02s-1.09,0-1.69,0c-.6,0-1.16,0-1.7,0l.6-1.26h.26c.55,0,1-.09,1.35-.27.35-.18.62-.46.84-.83.21-.37.41-.84.58-1.42Z"/>
          <path class="cls-1" d="M308.62,162.96c-.15-.33-.3-.64-.43-.95-.14-.31-.27-.62-.4-.92-.12-.31-.26-.62-.39-.95-.19-.45-.37-.83-.53-1.14-.16-.31-.34-.58-.55-.81-.2-.23-.45-.46-.75-.69l.85.15c-.34.01-.64.02-.89.03-.26,0-.55,0-.88,0l.15-1.38c.19.03.34.04.45.06.11.01.22.02.32.02.45,0,.87-.09,1.25-.27.38-.18.7-.46.94-.85.25-.38.37-.86.37-1.44,0-.79-.19-1.41-.57-1.87-.38-.45-.94-.68-1.67-.68-.2,0-.39.01-.56.04-.17.03-.35.07-.54.13l.15-.62v8.61c0,.62.03,1.07.09,1.37.06.3.17.5.31.59.14.09.34.15.59.16.05.12.08.31.1.56.01.25.02.5.02.74-.24-.01-.55-.02-.92-.03-.38,0-.75-.01-1.13-.02-.38,0-.7,0-.96,0-.47,0-.94,0-1.42,0-.48,0-.93.02-1.33.05,0-.28.01-.52.03-.74.02-.21.05-.4.1-.56.34-.03.6-.09.78-.2.18-.11.31-.3.38-.57s.1-.69.1-1.23v-6.31c0-.53-.03-.93-.1-1.2s-.2-.46-.38-.56c-.18-.1-.45-.17-.8-.21-.05-.17-.08-.4-.09-.68-.01-.28-.02-.48-.02-.6.33.01.76.03,1.29.04.53.01,1.1.02,1.69.02.4,0,.94-.01,1.61-.04.67-.03,1.37-.04,2.1-.04,1.06,0,1.92.15,2.59.46.67.31,1.16.72,1.48,1.24.31.52.47,1.1.47,1.74,0,.77-.15,1.43-.44,1.99-.29.56-.7.99-1.21,1.31-.51.31-1.1.52-1.75.6l.36-.24c.38.18.68.37.91.57.23.21.46.5.7.87.23.37.52.89.88,1.57.19.35.36.62.51.82.15.19.32.33.51.41.19.08.43.13.72.16,0,.24-.01.46-.04.68-.03.21-.07.42-.13.62-.85,0-1.62.01-2.29.04-.67.03-1.21.07-1.61.13Z"/>
          <path class="cls-1" d="M324.99,162.94l-8.29-11.1c-.11-.19-.25-.32-.42-.39-.17-.07-.44-.12-.82-.16-.05-.19-.09-.4-.11-.62-.03-.22-.04-.45-.04-.68.16.01.38.02.66.03s.56.01.85.02c.29,0,.53,0,.71,0,.3,0,.64,0,1.01,0s.67-.02.91-.05l6.01,8.18-.47,4.77ZM315.3,162.84c0-.26.01-.5.03-.72.02-.21.06-.41.12-.58.38-.04.67-.13.88-.28s.36-.42.45-.79c.09-.38.14-.92.14-1.64v-7.61l1.3.11v7.5c0,.72.04,1.26.11,1.64.07.38.22.64.42.79s.51.24.89.28c.05.18.08.38.1.61.01.23.02.46.02.69-.18-.01-.39-.02-.66-.03-.26,0-.53-.01-.79-.02s-.5,0-.72,0c-.2,0-.46,0-.76,0-.31,0-.6.01-.88.02s-.5.02-.66.03ZM324.99,162.94l.19-3.13v-5.82c0-.72-.04-1.26-.11-1.63s-.22-.63-.44-.78c-.22-.15-.54-.25-.97-.28-.05-.21-.08-.44-.1-.67-.02-.23-.03-.44-.03-.63.19.01.42.02.7.03.28,0,.56.01.86.02.3,0,.54,0,.74,0,.31,0,.66,0,1.04-.02.38-.01.68-.02.9-.04,0,.21,0,.43-.02.64-.01.21-.04.43-.1.66-.31.03-.56.11-.73.26s-.29.41-.35.78c-.06.37-.09.92-.09,1.65v8.8c-.21.06-.44.1-.68.12-.24.02-.51.03-.81.03Z"/>
          <path class="cls-1" d="M337.35,162.96c-1.33,0-2.47-.28-3.43-.84-.96-.56-1.69-1.33-2.21-2.32-.52-.99-.78-2.13-.78-3.44,0-.99.16-1.89.48-2.68.32-.8.76-1.48,1.34-2.04.57-.57,1.25-1,2.03-1.3.78-.3,1.64-.45,2.57-.45,1.29,0,2.42.26,3.38.78.96.52,1.71,1.25,2.25,2.19.54.94.81,2.05.81,3.33,0,.99-.15,1.9-.45,2.72-.3.82-.74,1.54-1.3,2.14-.57.6-1.24,1.07-2.03,1.4-.79.33-1.68.5-2.66.5ZM337.61,161.62c.6,0,1.11-.21,1.53-.63.41-.42.73-1,.95-1.75.22-.75.33-1.62.33-2.63s-.14-1.92-.41-2.74c-.28-.82-.67-1.48-1.17-1.97-.5-.49-1.09-.74-1.77-.74-.57,0-1.06.19-1.47.57-.41.38-.74.92-.96,1.62-.23.7-.34,1.55-.34,2.54,0,.77.07,1.49.21,2.18.14.69.34,1.3.61,1.84s.61.95,1.03,1.25c.41.3.9.45,1.47.45Z"/>
          <path class="cls-1" d="M352.68,162.84c0-.25.01-.49.03-.73.02-.23.05-.42.1-.57.34-.03.6-.09.78-.2.18-.11.31-.3.38-.58.07-.28.1-.7.1-1.25v-6.25c0-.53-.03-.92-.1-1.19s-.2-.45-.38-.56c-.18-.11-.45-.18-.8-.22-.04-.16-.07-.37-.08-.63-.02-.26-.03-.48-.03-.67.28.01.62.02,1.02.03.4,0,.83.01,1.29.02.46,0,.89,0,1.29,0,.29,0,.6,0,.94-.02.34-.01.71-.02,1.11-.02.7,0,1.39.05,2.07.14.68.1,1.31.27,1.88.52.58.25,1.08.61,1.52,1.06.44.46.78,1.04,1.03,1.75.25.71.37,1.58.37,2.61s-.13,1.89-.38,2.62c-.25.73-.58,1.34-1,1.83-.41.49-.87.89-1.38,1.19-.5.3-1.02.53-1.54.68-.53.15-1.02.25-1.48.3-.46.05-.85.08-1.18.08s-.78,0-1.31,0c-.53,0-1.09.01-1.66.02-.57,0-1.1.01-1.57.02s-.82.01-1.04.01ZM358.86,161.52c.29,0,.61-.06.96-.18.35-.12.68-.35,1-.7.31-.35.57-.85.76-1.53.19-.67.29-1.57.29-2.7,0-1.01-.1-1.84-.3-2.51-.2-.67-.47-1.2-.82-1.58s-.73-.66-1.16-.82-.87-.24-1.34-.24c-.24,0-.47.03-.69.08s-.38.13-.48.22l.25-.73v8.61c0,.54.04.96.13,1.27.09.31.24.52.46.64s.53.18.93.18Z"/>
          <path class="cls-1" d="M368.45,150c.26.01.6.02,1,.03.4,0,.83.01,1.27.02s.88,0,1.29,0h1.09v9.38c0,.54.04.96.13,1.27.09.31.24.52.46.64s.53.18.93.18l-.6,1.26c-.34,0-.78,0-1.31,0-.53,0-1.09.01-1.66.02-.57,0-1.1.01-1.57.02s-.82.01-1.04.01c0-.25.01-.49.03-.73.02-.23.05-.42.1-.57.34-.03.6-.09.78-.2.18-.11.31-.3.38-.58.07-.28.1-.7.1-1.25v-6.25c0-.53-.03-.92-.1-1.19s-.2-.45-.38-.56c-.18-.11-.45-.18-.8-.22-.05-.16-.08-.37-.09-.63-.01-.26-.02-.48-.02-.67ZM376.55,154.21c-.01.3-.03.63-.05.98-.02.35-.03.75-.03,1.19,0,.48,0,.89.03,1.25.02.36.03.68.05.97-.3,0-.56-.01-.79-.04-.23-.02-.44-.07-.64-.13-.05-.55-.2-.92-.43-1.1-.24-.18-.67-.27-1.28-.27h-1.13v-1.26h1.13c.67,0,1.11-.1,1.33-.3s.34-.56.35-1.07c.2-.09.43-.15.7-.17.26-.03.52-.04.77-.04ZM378.18,150c.01.3.04.65.08,1.06.04.4.08.79.13,1.18.05.38.11.73.19,1.03-.2.09-.43.16-.69.22-.26.06-.57.08-.95.08-.06-.43-.18-.81-.35-1.16-.17-.34-.44-.61-.8-.81-.36-.19-.89-.29-1.56-.29h-1.87l.58-1.24c.96,0,1.76,0,2.42,0,.66,0,1.22-.01,1.67-.02.45,0,.84-.02,1.15-.03ZM377.66,159c.35.04.67.11.97.22.3.11.52.24.67.39-.14.43-.26.93-.36,1.51-.1.58-.18,1.15-.23,1.71-.34-.01-.77-.02-1.3-.02s-1.09,0-1.69,0c-.6,0-1.16,0-1.7,0l.6-1.26h.26c.55,0,1-.09,1.35-.27.35-.18.62-.46.84-.83.21-.37.41-.84.58-1.42Z"/>
          <path class="cls-1" d="M394.39,161.52c.5,0,.92-.08,1.25-.25s.61-.44.83-.81.42-.86.59-1.46c.35.04.67.11.97.22.3.11.52.24.67.39-.14.43-.26.93-.36,1.51-.1.58-.18,1.15-.23,1.71-.34-.01-.77-.02-1.3-.02s-1.08,0-1.66,0c-.58,0-1.12,0-1.64,0-.34,0-.78,0-1.31,0-.53,0-1.09.01-1.66.02-.57,0-1.1.01-1.57.02s-.82.01-1.04.01c0-.25.01-.49.03-.73.02-.23.05-.42.1-.57.34-.03.6-.09.78-.2.18-.11.31-.3.38-.58.07-.28.1-.7.1-1.25v-6.25c0-.53-.03-.92-.1-1.19s-.2-.45-.38-.56c-.18-.11-.45-.18-.8-.22-.04-.16-.07-.37-.08-.63-.02-.26-.03-.48-.03-.67.36.01.7.02,1.01.03s.62.01.94.02.67,0,1.06,0c.3,0,.64,0,1.01,0,.37,0,.74-.01,1.1-.02s.67-.02.92-.03c0,.23,0,.46-.02.69-.01.23-.06.44-.13.61-.34.04-.6.11-.78.21-.18.1-.3.29-.37.57s-.09.68-.09,1.21v6.16c0,.54.04.96.13,1.27.09.31.24.52.46.64s.53.18.93.18h.26Z"/>
          <path class="cls-1" d="M407.97,149.94l4.26,9.46c.29.59.52,1.04.68,1.35.16.31.32.51.46.61.14.1.3.16.48.19.05.16.09.35.11.57.03.22.04.46.04.73-.23-.03-.52-.04-.87-.05-.35,0-.7,0-1.05,0h-1.46c-.27,0-.56,0-.87,0-.31,0-.6.01-.88.02s-.49.02-.64.03c0-.3.01-.55.04-.75.02-.2.06-.38.11-.55.44-.09.7-.24.78-.44.08-.21.02-.54-.18-1.01l-1.7-3.86c-.29-.66-.52-1.28-.71-1.86-.18-.57-.34-1.13-.46-1.69h.55c-.15.57-.32,1.14-.5,1.71-.18.58-.4,1.18-.67,1.81l-1.43,3.73c-.16.4-.19.75-.09,1.06.1.3.36.48.79.55.05.18.09.37.11.58s.04.45.04.72c-.14-.01-.33-.02-.58-.03-.25,0-.51-.01-.78-.02s-.51,0-.73,0c-.31,0-.64,0-.97,0-.33,0-.59.02-.78.05,0-.25.01-.48.04-.68.03-.2.07-.41.13-.62.21-.04.4-.12.55-.24.15-.12.3-.31.44-.57.15-.26.32-.64.52-1.13l3.97-9.57c.21-.05.41-.08.59-.08.18,0,.4,0,.65,0ZM408.66,158.26l.34,1.13c-.84,0-1.72.01-2.63.04-.91.03-1.8.08-2.66.17l.28-1.34h4.67Z"/>
          <path class="cls-1" d="M429.01,162.96c-1.34,0-2.51-.26-3.49-.79-.99-.53-1.74-1.29-2.27-2.28-.53-.99-.79-2.19-.79-3.58,0-1.03.16-1.94.48-2.74.32-.8.78-1.47,1.37-2.02.6-.55,1.3-.96,2.12-1.24.82-.28,1.72-.42,2.71-.42.85,0,1.67.09,2.45.28.78.19,1.44.41,2,.68-.07.43-.13.89-.16,1.38-.03.5-.05,1.01-.05,1.54-.24.1-.51.16-.8.19-.29.03-.57.04-.84.04-.04-.72-.17-1.28-.39-1.69-.22-.41-.52-.7-.91-.87s-.83-.25-1.33-.25c-.78,0-1.41.22-1.9.67-.49.45-.84,1.03-1.06,1.74-.22.72-.33,1.47-.33,2.26,0,1.11.14,2.09.41,2.96s.67,1.55,1.18,2.04,1.13.74,1.86.74c.23,0,.42-.01.57-.03.15-.02.29-.05.41-.1.19-.08.34-.2.45-.38s.17-.51.17-1v-.72c0-.43-.03-.75-.1-.96-.07-.21-.21-.36-.41-.43s-.51-.12-.89-.13c-.05-.17-.08-.37-.1-.59-.02-.22-.03-.46-.03-.71.34.01.74.03,1.22.04.47.01.91.02,1.33.02.39,0,.83,0,1.33,0s.91-.02,1.25-.03c0,.2,0,.41-.02.64-.01.23-.04.44-.1.64-.23.01-.39.05-.51.12s-.18.19-.21.38c-.02.18-.04.45-.04.8v.55c0,.45.02.79.06,1.03.04.23.12.49.25.78-.58.42-1.29.76-2.13,1.04-.84.28-1.76.42-2.75.42Z"/>
          <path class="cls-1" d="M437.69,150c.26.01.6.02,1,.03.4,0,.83.01,1.27.02s.88,0,1.29,0h1.09v9.38c0,.54.04.96.13,1.27.09.31.24.52.46.64s.53.18.93.18l-.6,1.26c-.34,0-.78,0-1.31,0-.53,0-1.09.01-1.66.02-.57,0-1.1.01-1.57.02s-.82.01-1.04.01c0-.25.01-.49.03-.73.02-.23.05-.42.1-.57.34-.03.6-.09.78-.2.18-.11.31-.3.38-.58.07-.28.1-.7.1-1.25v-6.25c0-.53-.03-.92-.1-1.19s-.2-.45-.38-.56c-.18-.11-.45-.18-.8-.22-.05-.16-.08-.37-.09-.63-.01-.26-.02-.48-.02-.67ZM445.79,154.21c-.01.3-.03.63-.05.98-.02.35-.03.75-.03,1.19,0,.48,0,.89.03,1.25.02.36.03.68.05.97-.3,0-.56-.01-.79-.04-.23-.02-.44-.07-.64-.13-.05-.55-.2-.92-.43-1.1-.24-.18-.67-.27-1.28-.27h-1.13v-1.26h1.13c.67,0,1.11-.1,1.33-.3s.34-.56.35-1.07c.2-.09.43-.15.7-.17.26-.03.52-.04.77-.04ZM447.43,150c.01.3.04.65.08,1.06.04.4.08.79.13,1.18.05.38.11.73.19,1.03-.2.09-.43.16-.69.22-.26.06-.57.08-.95.08-.06-.43-.18-.81-.35-1.16-.17-.34-.44-.61-.8-.81-.36-.19-.89-.29-1.56-.29h-1.87l.58-1.24c.96,0,1.76,0,2.42,0,.66,0,1.22-.01,1.67-.02.45,0,.84-.02,1.15-.03ZM446.9,159c.35.04.67.11.97.22.3.11.52.24.67.39-.14.43-.26.93-.36,1.51-.1.58-.18,1.15-.23,1.71-.34-.01-.77-.02-1.3-.02s-1.09,0-1.69,0c-.6,0-1.16,0-1.7,0l.6-1.26h.26c.55,0,1-.09,1.35-.27.35-.18.62-.46.84-.83.21-.37.41-.84.58-1.42Z"/>
          <path class="cls-1" d="M460.99,162.94l-8.29-11.1c-.11-.19-.25-.32-.42-.39-.17-.07-.44-.12-.82-.16-.05-.19-.09-.4-.11-.62-.03-.22-.04-.45-.04-.68.16.01.38.02.66.03s.56.01.85.02c.29,0,.53,0,.71,0,.3,0,.64,0,1.01,0s.67-.02.91-.05l6.01,8.18-.47,4.77ZM451.31,162.84c0-.26.01-.5.03-.72.02-.21.06-.41.12-.58.38-.04.67-.13.88-.28s.36-.42.45-.79c.09-.38.14-.92.14-1.64v-7.61l1.3.11v7.5c0,.72.04,1.26.11,1.64.07.38.22.64.42.79s.51.24.89.28c.05.18.08.38.1.61.01.23.02.46.02.69-.18-.01-.39-.02-.66-.03-.26,0-.53-.01-.79-.02s-.5,0-.72,0c-.2,0-.46,0-.76,0-.31,0-.6.01-.88.02s-.5.02-.66.03ZM460.99,162.94l.19-3.13v-5.82c0-.72-.04-1.26-.11-1.63s-.22-.63-.44-.78c-.22-.15-.54-.25-.97-.28-.05-.21-.08-.44-.1-.67-.02-.23-.03-.44-.03-.63.19.01.42.02.7.03.28,0,.56.01.86.02.3,0,.54,0,.74,0,.31,0,.66,0,1.04-.02.38-.01.68-.02.9-.04,0,.21,0,.43-.02.64-.01.21-.04.43-.1.66-.31.03-.56.11-.73.26s-.29.41-.35.78c-.06.37-.09.92-.09,1.65v8.8c-.21.06-.44.1-.68.12-.24.02-.51.03-.81.03Z"/>
          <path class="cls-1" d="M470.79,151.31c-.49,0-.89.09-1.2.27-.31.18-.55.45-.73.79-.18.34-.33.79-.45,1.33-.3,0-.6-.02-.9-.05-.29-.03-.56-.1-.78-.22.13-.52.23-1.09.31-1.73.08-.64.12-1.21.12-1.71.48.01.97.03,1.49.04.51.01,1.1.02,1.76.02h2.36c.84,0,1.59,0,2.24,0s1.25-.01,1.79-.02,1.04-.02,1.51-.03c0,.5.03,1.06.1,1.67.06.61.16,1.2.28,1.76-.22.1-.48.17-.77.22-.29.04-.6.07-.94.07-.13-.83-.35-1.43-.66-1.82s-.8-.57-1.47-.57h-4.07ZM471.07,150.67h3.26v8.87c0,.54.04.95.13,1.23.09.28.26.47.51.57.25.11.62.17,1.11.2.05.15.09.35.11.59.03.25.04.48.04.71-.37-.03-.84-.04-1.42-.05-.58,0-1.23,0-1.93,0-.46,0-.95,0-1.45,0-.5,0-.96.01-1.38.02-.42,0-.77.02-1.05.03,0-.21.02-.45.07-.7.04-.25.09-.45.14-.6.49-.03.87-.09,1.14-.2.27-.11.46-.3.56-.57s.16-.69.16-1.23v-8.87Z"/>
          <path class="cls-1" d="M481.26,150c.26.01.6.02,1,.03.4,0,.83.01,1.27.02s.88,0,1.29,0h1.09v9.38c0,.54.04.96.13,1.27.09.31.24.52.46.64s.53.18.93.18l-.6,1.26c-.34,0-.78,0-1.31,0-.53,0-1.09.01-1.66.02-.57,0-1.1.01-1.57.02s-.82.01-1.04.01c0-.25.01-.49.03-.73.02-.23.05-.42.1-.57.34-.03.6-.09.78-.2.18-.11.31-.3.38-.58.07-.28.1-.7.1-1.25v-6.25c0-.53-.03-.92-.1-1.19s-.2-.45-.38-.56c-.18-.11-.45-.18-.8-.22-.05-.16-.08-.37-.09-.63-.01-.26-.02-.48-.02-.67ZM489.36,154.21c-.01.3-.03.63-.05.98-.02.35-.03.75-.03,1.19,0,.48,0,.89.03,1.25.02.36.03.68.05.97-.3,0-.56-.01-.79-.04-.23-.02-.44-.07-.64-.13-.05-.55-.2-.92-.43-1.1-.24-.18-.67-.27-1.28-.27h-1.13v-1.26h1.13c.67,0,1.11-.1,1.33-.3s.34-.56.35-1.07c.2-.09.43-.15.7-.17.26-.03.52-.04.77-.04ZM491,150c.01.3.04.65.08,1.06.04.4.08.79.13,1.18.05.38.11.73.19,1.03-.2.09-.43.16-.69.22-.26.06-.57.08-.95.08-.06-.43-.18-.81-.35-1.16-.17-.34-.44-.61-.8-.81-.36-.19-.89-.29-1.56-.29h-1.87l.58-1.24c.96,0,1.76,0,2.42,0,.66,0,1.22-.01,1.67-.02.45,0,.84-.02,1.15-.03ZM490.48,159c.35.04.67.11.97.22.3.11.52.24.67.39-.14.43-.26.93-.36,1.51-.1.58-.18,1.15-.23,1.71-.34-.01-.77-.02-1.3-.02s-1.09,0-1.69,0c-.6,0-1.16,0-1.7,0l.6-1.26h.26c.55,0,1-.09,1.35-.27.35-.18.62-.46.84-.83.21-.37.41-.84.58-1.42Z"/>
        </g>
      </g>
    </g>
  </g>
</svg>