<?xml version="1.0" encoding="UTF-8"?>
<svg id="Capa_2" data-name="Capa 2" xmlns="http://www.w3.org/2000/svg" viewBox="0 0 360.88 360.88">
  <defs>
    <style>
      .cls-1 {
        fill: none;
        stroke: #00568d;
        stroke-miterlimit: 10;
        stroke-width: 1.76px;
      }

      .cls-2 {
        fill: #004b87;
      }
    </style>
  </defs>
  <g id="Capa_1-2" data-name="Capa 1">
    <g>
      <rect class="cls-1" x=".88" y=".88" width="359.12" height="359.12"/>
      <g>
        <g>
          <path class="cls-2" d="M189.54,233.3l-3.27.36c-2.86-5.61-4.19-11.01-4.67-15.7h-.02v-.02c-.94-8.89,1.08-15.29,1.29-15.92-1.36,5.08.18,14.18.49,15.84v.02c.03.16.05.24.05.24,2.1,9.99,6.13,15.18,6.13,15.18Z"/>
          <path class="cls-2" d="M191.3,171.04c-5.95-2.44-8.87-4.01-8.87-4.01.32.53,3.56,2.73,6.42,3.98,2.88,1.24,5.69,3.44,5.69,3.44,4.03,3.54,3.57,6.93,3.49,7.4,1.65-4.45-.78-8.41-6.72-10.81Z"/>
          <path class="cls-2" d="M182.3,146.19s-.32-.34-.58-.37c-.26-.02-.42.21-.21.36.21.13.76.32.87.27.1-.05.08-.16-.08-.26Z"/>
          <path class="cls-2" d="M179.94,149.43c-.36.29.02.32.37.37.37.05.95-.06,1.33,0,.39.06.65.02.6-.13-.05-.15-.65-.45-1.21-.44,0,0-.73-.08-1.08.19Z"/>
          <path class="cls-2" d="M183.17,148.93c.05-.1-.47-.47-.74-.66-.11-.08-.29-.19-.5-.29-.06-.03-.13-.06-.21-.08-.26-.1-.57-.16-.92-.13-.81.06-1.45.37-1.78.66-.32.29-.58.47-.66.47-.06.02-.15.19.29.18.45-.03.89-.47,1.02-.55.15-.08.21-.11.21-.11,0,0,.73-.34,1.45-.13.73.21,1.13.5,1.33.6.19.08.47.16.52.05Z"/>
          <path class="cls-2" d="M226.02,142.54c-.34-.65-.7-1.29-1.07-1.94-.03-.05-.05-.1-.08-.15l-.21.06c.81,1.37,1.54,2.78,2.2,4.23l.19-.06h.02c-.32-.73-.68-1.44-1.05-2.15ZM220.53,134.07c-.36-.44-.73-.87-1.08-1.31-.69-.81-1.41-1.6-2.17-2.38h-.02c-.03-.06-.06-.08-.11-.13l-.03.11v.02l-.03.11c1.58,1.63,3.07,3.38,4.43,5.21l.05-.26v-.02c-.34-.45-.68-.91-1.03-1.36ZM146.53,127.06c-.1.08-.19.18-.29.26-.53.47-1.05.94-1.57,1.42-.05.05-.11.11-.18.16-.53.52-1.07,1.05-1.58,1.58-.57.6-1.13,1.21-1.68,1.84-.05.05-.1.11-.16.18-.49.57-.95,1.15-1.42,1.73v.03c2.09-2.62,4.43-5.04,6.97-7.21h-.08Z"/>
          <path class="cls-2" d="M197.18,152.89c.03.1.1.18.19.24,0,0,.05.1.5.03l-.7-.27Z"/>
          <path class="cls-2" d="M224.66,140.52l-4.4,1.28,1.24-6.09c-1.36-1.83-2.85-3.57-4.43-5.21l-2.93,13.29-.86.27-1.88.61-9.8,3.2s-2.17.68-3.33,2.39c-.95,1.39-1.31,2.18-1.12,2.62l.7.27c.23-.03.57-.1,1.07-.23,1.45-.42,14.35-3.93,14.35-3.93l-2,9.31-.19.89-3.01,14.01-.19.94-1.37,6.38c-.28-.74-.55-1.52-.79-2.23-.45-1.34-1.24-4.27-2.62-7.24-.24-.53-.5-1.07-.79-1.6-.76-1.39-1.65-2.73-2.72-3.85-1.94-2.05-3.41-3.1-4.36-3.65-.7-1.5-1.71-2.72-2.51-3.73-1.41-1.79-1.78-2.72-2.04-5.17-.06-.6-.1-1.16-.11-1.75-.02-.32-.03-.65-.03-.99-.06-1.49-.15-3.05-.65-5.12-.27-1.12-.6-2.02-.89-2.73-.27-.68-.55-1.2-.74-1.52-.21-.36-.34-.52-.34-.52-.15-.19-.31-.36-.47-.53-2.13-2.21-4.93-2.78-4.93-2.78,3.35-.1,5.24,2.3,5.46,2.59,0-.02-.02-.03-.02-.05-.1-.32-.58-1.63-2.49-2.93-2.23-1.52-4.53-1.33-4.53-1.33-2.81.08-4.62,1.13-5.84,2.52-.23.26-.44.53-.61.81-1.07,1.6-1.52,3.43-1.83,4.72-.06.27-.13.53-.19.76-.02.03-.02.06-.03.11-.39,1.44-.76,3.31-1,5.16-.05.34-.08.68-.11,1-.1.86-.15,1.68-.15,2.44,0,2.21-.91,3.78-1.21,4.27-.08.11-.13.16-.13.16-.16.18-.31.36-.45.55-1.79,2.41-2.18,5.42-2.18,5.42,0,0-.32.29-1.02.97-.19.19-.42.42-.68.68-.45.45-.99,1.02-1.63,1.68-.91.95-2.17,2.6-3.39,4.27l-.63.87c-1.49,2.05-2.78,3.98-3.09,4.41-.08-.49-.4-1.99-1.21-3.9,0,0-1.49-3.1-2.65-5.11-.44-.76-1.03-1.97-1.63-3.23-.5-1.1-1-2.21-1.37-3.1-.32-.74-.57-1.31-.65-1.54-.29-.79-.89-2.49-.65-3.9,0,0,.18-.73.32-1.08v-.02c.02-.06.03-.1.05-.13.11-.24-.03-.57-.03-.57,0,0,.39-.58.05-1.2,0,0,.47-.84.05-1.83,0,0,.11-.03.23-.16s.23-.32.24-.66c.02-.37-.23-.61-.45-.76-.19-.13-.39-.18-.39-.18,0,0-.32-.24-.63-.45-.15-.08-.27-.18-.39-.23,0,0,.13-.06.32-.21.21-.15.5-.37.82-.66.47-.4,1.02-.95,1.44-1.63.21-.34.4-.73.53-1.13t.02-.03c.31-.94.48-1.6.57-2.04.13-.61.11-.82.11-.82,0,0,.29.08.42-.05,0,0,0-.02.02-.02.13-.15.26-.53-.11-.79-.11-.08-.32-.18-.57-.27-.39-.16-.89-.32-1.36-.44-.15-.03-.29-.06-.42-.08.1-.05.19-.1.27-.15.27-.15.53-.31.78-.5.15-.08.28-.19.4-.31.24-.19.47-.42.65-.65.16-.15.29-.31.39-.47.21-.24.37-.5.52-.76.08-.15.16-.29.23-.45.13-.27.24-.55.32-.84.06-.19.11-.37.15-.57.06-.29.11-.58.15-.89,0-.18.02-.36.02-.53v-.03c0-.29-.02-.58-.05-.87-.03-.18-.06-.36-.11-.53-.05-.31-.15-.6-.26-.89-.05-.16-.11-.32-.19-.49-.06-.16-.13-.31-.21-.45-.06-.11-.13-.23-.21-.34-.08-.16-.18-.31-.31-.45-.05-.08-.11-.18-.19-.26-.13-.15-.26-.31-.4-.44-.11-.13-.24-.26-.37-.36-.23-.23-.45-.4-.71-.57-.15-.11-.31-.21-.47-.29-.26-.16-.53-.29-.82-.4-.16-.06-.31-.11-.47-.16-.29-.1-.58-.16-.89-.21-.18-.03-.34-.05-.52-.06-.16-.02-.34-.03-.5-.03h-.03c-2.54,2.17-4.88,4.59-6.97,7.21v.02c.02.06.03.13.05.21.02.13.05.27.1.42v.02c.05.29.11.58.19.86.06.19.11.37.19.55.11.27.24.55.39.81.08.16.18.32.27.47.16.26.34.49.57.71.08.13.19.26.32.37.21.21.45.42.7.6.1.08.21.16.31.23-.15.02-.34.05-.55.08-.49.1-1.07.23-1.5.4-.16.06-.29.13-.4.21,0,0-.03.15-.03.32v.02c0,.16.03.32.11.37.16.1.37.11.37.11,0,0-.02.15-.02.39,0,.45.03,1.23.21,2.12.08.42.21.86.37,1.29.05.15.11.27.18.42.26.58.6,1.08.94,1.49.24.31.5.58.73.79.47.44.84.66.84.66,0,0-.65.03-1.1.32-.06.03-.13.08-.19.13-.42.39-.34.81-.34.97s.02.36-.13.5c-.16.15-.37.65-.11,1.21,0,0,.02.02.02.05.03.1.06.27-.03.44-.13.21-.15.63-.03.89.11.26.16.82.16.95-.02.11,0,.91.48,1.71.4.68,1.02,1.23,1.7,3.3.13.4.26.87.4,1.42.11.42.21.91.34,1.41.74,3.35,1.6,7.87,1.6,7.87,0,0,.78,4.93.94,5.77.11.68,1.33,4.82,1.88,6.5,0,.06,0,.13.02.19.42,1.29,1.55,4.14,4.11,4.3.27.02.58.02.92-.05.5-.08,1.08-.27,1.7-.58,2.3-1.15,4.93-3.04,6.95-4.61.26-.21.52-.4.74-.58,1.55-1.24,2.6-2.17,2.6-2.17-.84-1.89-.15-6.47-.15-6.47,0,0,.1,2.78.94,6.32.84,3.52,4.14,7.21,5.03,11.48.66,3.17-.42,3.9-2.2,7.76-.18.36-.34.76-.52,1.18-.5,1.16-1.02,2.55-1.57,4.3-1.75,5.58-2.72,10.2-3.22,12.96v.03c-.19,1.05-.31,1.83-.36,2.28-.05.31-.06.47-.06.47v.24c-.15,3.51-.13,8.34-.11,10.49v1.1l.11,1.68s.02,0,.03.02c.03,0,.06.02.11.03.03.02.06.02.11.03.02,0,.03.02.05.02.06.02.13.03.21.05,1.18.32,4.36,1.1,9.58,1.49.32.03.63.05.95.06.91.06,1.89.11,2.93.15.42,0,.86.02,1.29.02.69.02,1.41.02,2.15.02-.03-.06-.06-.15-.1-.24-.1-.27-.19-.55-.29-.84-.06-.18-.11-.37-.18-.58,0-.03-.02-.05-.02-.08-.36-1.36-.79-3.25-1.18-5.3-.06-.32-.11-.65-.18-.97-.05-.29-.1-.6-.15-.89-.05-.31-.1-.63-.15-.94-.02-.05-.02-.11-.02-.16-.26-1.84-.42-3.48-.52-4.54-.02-.11-.03-.23-.03-.34-.02-.18-.03-.36-.05-.52,0-.06-.02-.15-.02-.21-.02-.08-.02-.16-.03-.26v-.02c-.31-4.02-.36-8.03.47-12.8.78-4.61,3.1-8.47,4.72-10.52.23-.29.44-.55.63-.76.15-.16.29-.31.4-.42,1.41-1.37,3.59-3.49,2.81-6.79-.78-3.3-3.48-4.87-7.94-7.37-4.48-2.49-6.26-4.04-6.26-4.04-4.64-3.75-3.33-9.23-3.33-9.23-.23,5.67,7.74,10.26,12.41,11.98,4.67,1.73,6.92,4.04,6.92,4.04,4.72,4.57,2.96,8.73,2.47,9.65t.06.05c1.86-1.7,3.3-4.06,3.81-6.48.1-.37.16-.74.19-1.1.13-1.21.02-2.39-.39-3.49-1.37-3.72-3.75-5.09-9.81-8.68-6.05-3.59-8.47-7.92-8.47-7.92-1.29-2.18-1.37-3.28-1.36-4.45,0-1.18-.16-2.76,1.62-3.78.34-.19.63-.36.89-.47.42-.19.76-.32,1.05-.4.5-.16.87-.23,1.33-.39.82-.31,3.59-1.99,3.93-2.2-.15.03-.66.15-1.18.1-.6-.05-1.16-.53-2.46-.99-1.28-.47-3.38.81-3.96,1.07-.6.27-.89-.73-1.05-1.23s-.95-2.23-1.33-3.22c-.36-.97-.26-1.39.13-1.96.1-.15.26-.34.47-.53.21-.21.48-.45.78-.68.47-.39,1.02-.74,1.5-.97,1.1-.5,1.26-.11,1.36.37.08.47.06,1.18-.08,1.68-.03.08-.05.15-.08.21-.16.4.08.4.44.29.11-.03.24-.11.37-.23.26-.19.48-.5.48-.84,0-.49-.13-2.75-.13-2.75-2.42.08-3.85,1.02-4.57,1.47-.16.1-.32.21-.48.31-.58.4-1.08.74-.76.19.06-.11.16-.24.29-.37.47-.53,1.21-1.1,1.42-1.26-.66.32-1.24.79-1.65,1.16-.34.31-.57.53-.65.57-.19.06-.31-.11.23-.73.06-.06.13-.13.19-.21.73-.79,1.96-1.54,1.96-1.54,0,0-.26,0-1.12.53-.71.47-1.37.95-1.65.99-.05.02-.1,0-.11-.03v-.02c-.1-.23.31-.76.31-.76.79-1.29,2.83-3.04,5.51-3.51.68-.11,1.41-.15,2.17-.06,1.05.11,1.99.44,2.81.87,2.07,1.08,3.33,2.81,3.38,3.1.05.4-.29.32-.82-.18-.55-.5-1.62-.94-1.62-.94.87.61,2.62,2.25,2.76,2.52.13.27.02.6-.42.05-.39-.49-1.1-.94-1.28-1.05.76.73,1.5,1.62,1.41,1.99-.08.36-.36.15-.58-.13-.21-.28-1.13-1.1-1.13-1.1-2.3-1.88-5.09-1.88-5.09-1.88,0,0-.06.63.52,1.5.58.86,1.57.7,1.81.44.24-.26.4-.71,1.42,0,1.03.69,2.08,2.18,2.08,2.18,0,0,.06,1.05.08,2.07.02.18.02.36.02.52,0,.13,0,.28-.03.45-.1,1.47-.71,4.54-2.72,5.35-1.18.47-1.7.91-1.92,1.21-.21.28-.18.45-.18.45.24,0,.52-.02.81-.05,1.21-.15,2.62-.55,2.62-.55,0,0-.13.91.39,2.51.13.44.32.94.58,1.47.03.05.05.11.08.16,1.28,2.57,2.97,3.01,2.97,3.01.99.13,1.92.34,2.76.6.92.26,1.73.58,2.34.87.21.11.39.23.58.37.58.44,1.44,1.15,2.34,2.17.6.66,1.23,1.47,1.81,2.39-.58-.63-1.28-1.23-2.1-1.79-3.72-2.59-8.86-3.59-14.14-4.3-4.82-.65-5.69-2.84-5.8-3.25.55,2.88,2.34,3.67,3.86,4.38,1.55.71,3.7,1.44,10.22,3.98,6.51,2.54,8.13,6.13,8.13,6.13,1.52,3.02,1.03,5.87.36,7.73-.53,1.28-1.21,2.39-1.76,3.17v.02c-.21.31-.39.57-.53.74-.15.19-.24.31-.27.36l.34-.29c.24-.21.45-.42.66-.63.92-.95,1.54-1.89,1.81-2.36,1.57,3.07,3.6,5.37,4.61,6.13l-.52,2.26-.24,1.05-2.04,8.89s-2.62-5.41-8.13-9.25c-.1-.08-.19-.15-.27-.21-.03-.02-.05-.05-.08-.05-.1-.08-.19-.15-.27-.21-.1-.1-.19-.16-.31-.21.02,0,.03.02.03.03.63.71,6.42,7.55,7.76,18.67,0,0,.11,1.08.26,2.76.06.66.13,1.41.19,2.2.05.66.1,1.34.15,2.05.05.45.08.92.1,1.39.03.26.05.53.05.79.15,2.51.29,5.29.34,7.47.03.78.02,1.47,0,2.09,0,.13,0,.27-.02.39-.02.13-.03.24-.03.36l.03-.11v-.02l1.92-7.14,2.3-8.58.24-.94.79-2.96.03-.08v-.02l.03-.1.71-2.65,1.71-8.97.19-1.08,3.8-19.91.18-.95.97-5.09c.58-.84,1.6-2.34,2.12-3.41.73-1.54.06-1.31.06-2.34s.29-1.1-.29-1.55c-.19-.13-.32-.28-.44-.39l.52-2.7.16-.91,2.52-13.24,2.57-.81,1.94-.61,3.12-.99c-.66-1.45-1.39-2.86-2.2-4.23ZM146.77,138.35c-.32,0-.65-.03-.95-.08,2.46-.19,4.38-2.15,4.38-4.54,0-2.2-1.63-4.04-3.82-4.46.13,0,.26-.02.39-.02,2.63,0,4.77,2.04,4.77,4.56s-2.13,4.54-4.77,4.54Z"/>
        </g>
        <g>
          <path class="cls-2" d="M170.21,197.24c-.18.36-.34.76-.52,1.18l-6.45-17.52c.26-.21.52-.4.74-.58l6.22,16.92Z"/>
          <g>
            <path class="cls-2" d="M139.69,134.49h-.23c.06-.08.13-.16.18-.23.02.06.03.15.05.23Z"/>
            <path class="cls-2" d="M139.98,135.78l-1.87.5.87-1.16.81-.21v.02c.05.29.11.58.19.86Z"/>
            <path class="cls-2" d="M140.56,137.14l-4.62,2.39c.32-.52.66-1.03.99-1.54l3.25-1.66c.11.27.24.55.39.81Z"/>
            <path class="cls-2" d="M141.4,138.32c-1.84,1.49-4.75,3.88-8.47,6.93.29-.66.6-1.29.92-1.94,3.01-2.47,5.38-4.41,6.98-5.71.16.26.34.49.57.71Z"/>
            <path class="cls-2" d="M142.73,139.52c-.15.02-.34.05-.55.08-.49.1-1.07.23-1.5.4l1.05-1.31c.21.21.45.42.7.6.1.08.21.16.31.23Z"/>
            <path class="cls-2" d="M140.71,141.43l-11.09,13.84c.15-.71.31-1.41.5-2.1l10.12-12.61c0,.16.03.32.11.37.16.1.37.11.37.11,0,0-.02.15-.02.39Z"/>
            <path class="cls-2" d="M141.29,144.84l-12.72,25.64c-.05-.61-.08-1.23-.11-1.84l12.46-25.09c.08.42.21.86.37,1.29Z"/>
            <path class="cls-2" d="M143.13,147.54l-.26.99c-.06.03-.13.08-.19.13-.42.39-.34.81-.34.97s.02.36-.13.5c-.16.15-.37.65-.11,1.21,0,0,.02.02.02.05l-9.47,35.46c-.19-.45-.39-.91-.57-1.36l10.33-38.75c.24.31.5.58.73.79Z"/>
            <path class="cls-2" d="M145.14,161.5l-2.41,40.51c-.29-.31-.58-.61-.86-.92l2.52-42.41c.13.4.26.87.4,1.42.11.42.21.91.34,1.41Z"/>
            <path class="cls-2" d="M154.59,186.09l4.04,27.22c-.34-.16-.66-.31-1-.47l-3.96-26.7c.27.02.58.02.92-.05Z"/>
          </g>
          <path class="cls-2" d="M149.24,125c-.42.31-.82.61-1.23.94l-.36,1.21c.31.05.6.11.89.21l.7-2.36Z"/>
          <path class="cls-2" d="M149.84,127.93l2.76-5.24c-.53.34-1.07.68-1.58,1.03l-2,3.8c.29.11.57.24.82.4Z"/>
          <path class="cls-2" d="M147.14,127.09l.03-.45c-.19.13-.36.27-.53.42.16,0,.34.02.5.03Z"/>
          <path class="cls-2" d="M148.82,147.31c-.32.29-.61.52-.82.66-.19.15-.32.21-.32.21.11.05.24.15.39.23.31.21.63.45.63.45,0,0,.19.05.39.18l-.26-1.73Z"/>
          <path class="cls-2" d="M149.06,150.62c.42.99-.05,1.83-.05,1.83.34.61-.05,1.2-.05,1.2,0,0,.15.32.03.57-.02.03-.03.06-.05.13v.02l.97,6.51c.37.89.87,2,1.37,3.1l-2-13.51c-.11.13-.23.16-.23.16Z"/>
          <path class="cls-2" d="M153.17,132.45l48.9-12.85c-.44-.21-.87-.42-1.33-.6l-47.83,12.56c.11.29.21.58.26.89Z"/>
          <path class="cls-2" d="M149.89,140.08c.47.11.97.27,1.36.44l-.73-1.16c-.24.19-.5.36-.78.5l.15.23Z"/>
          <path class="cls-2" d="M152.51,130.63c.08.15.15.29.21.45l32.54-16.07c-.6-.05-1.18-.1-1.78-.15l-31.18,15.42c.08.11.15.23.21.34Z"/>
          <path class="cls-2" d="M227.93,146.42l-4.19-.68-1.94.61,6.53,1.03c-.15-.32-.27-.65-.4-.97Z"/>
          <path class="cls-2" d="M150.26,145.68l9.62,26.12.63-.87-9.71-26.38c-.13.4-.32.79-.53,1.13Z"/>
          <path class="cls-2" d="M151.8,129.58c.08.08.15.18.19.26l17.89-14.05c-.68.15-1.37.29-2.05.45l-16.44,12.9c.15.13.28.29.4.44Z"/>
          <path class="cls-2" d="M151.02,128.79l7.84-9.44c-.66.29-1.31.6-1.96.92l-6.6,7.95c.26.16.49.34.71.57Z"/>
          <path class="cls-2" d="M153.33,133.86v.03l63.78-3.51h.15c-.03-.06-.06-.08-.11-.13-.24-.26-.48-.5-.74-.74l-63.12,3.48c.03.29.05.58.05.87Z"/>
          <path class="cls-2" d="M203.12,171.07l4.78,3.09.19-.94-5.77-3.75c.29.53.55,1.07.79,1.6Z"/>
          <path class="cls-2" d="M209.44,198.74l5.63,5.75c.23-.21.45-.4.66-.61l-6.09-6.22-.19,1.08Z"/>
          <path class="cls-2" d="M213.43,177.75l14.22,9.21c.13-.28.24-.57.36-.84l-14.4-9.33-.18.95Z"/>
          <path class="cls-2" d="M216.71,160.4l-.16.91,15.37,5.92c.02-.28.02-.57.02-.86v-.1l-15.23-5.87Z"/>
          <path class="cls-2" d="M197.62,186.7l.02.02,6.3,6.43.24-1.05-5.9-6.03c-.21.21-.42.42-.66.63Z"/>
          <path class="cls-2" d="M211.3,158.32l-13.42-5.16-.7-.27-6.63-2.55c0,.34.02.66.03.99l20.51,7.89.19-.89Z"/>
          <path class="cls-2" d="M151.96,137.93l19.4,12.56c.03-.32.06-.66.11-1l-18.99-12.32c-.15.26-.31.52-.52.76Z"/>
          <path class="cls-2" d="M150.92,139.05l18.49,18.86c.15-.19.29-.37.45-.55,0,0,.05-.05.13-.16l-18.43-18.8c-.18.23-.4.45-.65.65Z"/>
          <path class="cls-2" d="M153.17,135.32l21.35,3.43c.18-.27.39-.55.61-.81l-21.82-3.51c-.03.31-.08.6-.15.89Z"/>
          <path class="cls-2" d="M152.7,136.72l19.77,7.61s.02-.08.03-.11c.06-.23.13-.49.19-.76l-19.67-7.58c-.08.29-.19.57-.32.84Z"/>
          <path class="cls-2" d="M151.91,141.6c-.13.13-.42.05-.42.05,0,0,.02.21-.11.82l14.16,22.5c.26-.26.49-.49.68-.68l-14.29-22.71s-.02.02-.02.02Z"/>
          <path class="cls-2" d="M211.43,144.67l1.88-.61-25.17-4.04c-.08-.18.49.99.49.99l22.81,3.67Z"/>
        </g>
        <path class="cls-2" d="M224.66,140.52l-4.4,1.28,1.24-6.09c1.13,1.55,2.2,3.15,3.15,4.82Z"/>
        <polygon class="cls-2" points="192.26 191.84 192.26 191.84 192.27 191.84 192.26 191.84"/>
        <path class="cls-2" d="M147.58,129.13s-.04,0-.05,0c.01,0,.02,0,.03.01,0,0,.01,0,.02-.01Z"/>
        <path class="cls-2" d="M147.52,130.02s.05-.03.1-.07c-.06.02-.1.04-.1.07Z"/>
        <polygon class="cls-2" points="147.23 137.02 147.22 137.03 147.23 137.03 147.23 137.02"/>
        <path class="cls-2" d="M192.27,191.84s0,0,0,0c0,0,0,0,.02,0,.04-.04.08-.07.12-.11-.05.03-.09.07-.14.1Z"/>
        <path class="cls-2" d="M147.58,129.13s-.01,0-.02.01c-.01,0-.02,0-.03-.01.02,0,.04,0,.05,0Z"/>
        <path class="cls-2" d="M147.62,129.95c-.05.04-.09.07-.1.07,0-.03.04-.05.1-.07Z"/>
        <polygon class="cls-2" points="147.23 137.02 147.23 137.03 147.22 137.03 147.23 137.02"/>
        <g>
          <path class="cls-2" d="M191.57,86.52c5.66,5.32,11.76,5.48,11.76,5.48-3.66-3.62-.91-8.6-.91-8.6l-3.59-1.67c-3.62,5.42-7.26,4.79-7.26,4.79Z"/>
          <path class="cls-2" d="M169.26,86.52s-3.64.62-7.26-4.79l-3.59,1.67s2.75,4.98-.91,8.6c0,0,6.1-.16,11.76-5.48Z"/>
          <polygon class="cls-2" points="223.82 127.2 224.79 124.99 222.74 126.02 223.82 127.2"/>
          <path class="cls-2" d="M123.56,151.47c-.32-.08-.59-.06-.8.07-.21.13-.36.35-.44.66l-.14.54,2.03.51.09-.36c.1-.38.08-.69-.04-.93-.13-.24-.36-.4-.7-.49Z"/>
          <path class="cls-2" d="M121.25,151.09c-.58-.15-.95.09-1.1.69l-.11.43,1.75.44.1-.67c.04-.23,0-.42-.11-.57-.11-.15-.29-.26-.53-.32Z"/>
          <polygon class="cls-2" points="231.36 137.66 232.78 135.72 230.56 136.28 231.36 137.66"/>
          <path class="cls-2" d="M127.41,136.45c-.27-.15-.54-.19-.79-.11s-.46.26-.62.54l-.15.26,1.84,1.03.15-.26c.16-.28.19-.55.11-.82-.08-.27-.26-.48-.54-.64Z"/>
          <path class="cls-2" d="M143.94,119.28c-.28-.35-.57-.61-.88-.78-.3-.17-.61-.25-.91-.23-.3.01-.58.13-.84.33l-.43.35,2.68,3.36.42-.34c.27-.21.44-.46.53-.75.09-.29.08-.6-.01-.93-.1-.33-.28-.67-.55-1.01Z"/>
          <polygon class="cls-2" points="176.55 107.82 178.14 107.75 177.08 105.59 176.55 107.82"/>
          <path class="cls-2" d="M136.82,125.81c-.35-.32-.69-.55-1.03-.69-.33-.14-.64-.19-.92-.16-.28.03-.52.16-.72.39-.19.21-.29.44-.31.7s.06.52.22.8.4.57.73.86c.35.31.69.54,1.02.69.33.14.64.2.93.16.28-.04.52-.16.72-.38.19-.21.29-.44.3-.7.01-.26-.06-.53-.22-.81-.16-.28-.4-.57-.72-.86Z"/>
          <path class="cls-2" d="M192.61,106.47c-.17-.22-.41-.37-.7-.42-.28-.05-.53-.02-.76.1s-.42.32-.58.6c-.16.28-.28.64-.37,1.06-.09.46-.11.87-.06,1.23.05.36.16.65.34.88.18.23.41.37.7.42.27.05.52.02.75-.1.23-.12.42-.32.58-.6.16-.28.28-.63.37-1.06.09-.46.11-.88.06-1.23-.05-.36-.16-.65-.33-.87Z"/>
          <path class="cls-2" d="M185.04,105.39c-.23-.19-.51-.3-.85-.33l-.55-.04-.31,4.28.54.04c.34.02.64-.04.9-.19.26-.15.47-.39.62-.69.15-.31.25-.68.28-1.11.03-.45,0-.84-.11-1.17s-.28-.59-.51-.79Z"/>
          <path class="cls-2" d="M122.4,157.65c-.29-.14-.65-.24-1.08-.3-.47-.06-.88-.06-1.24.01-.35.07-.64.2-.85.39-.21.19-.34.43-.38.73-.04.28,0,.53.14.75s.34.4.64.54.65.24,1.08.3c.46.06.88.06,1.23-.01s.64-.2.86-.39c.21-.19.34-.43.38-.72.04-.28-.01-.52-.15-.74-.13-.22-.35-.4-.64-.54Z"/>
          <path class="cls-2" d="M201.38,108.73l-.52-.2-1.51,4.02.5.19c.32.12.62.14.91.07.29-.07.56-.24.79-.49.24-.25.43-.58.58-.99.16-.42.23-.8.22-1.15-.01-.35-.1-.65-.27-.9-.17-.25-.41-.44-.72-.55Z"/>
          <path class="cls-2" d="M141.68,213.98c.21-.02.44-.12.69-.3s.53-.45.84-.8c.48-.55.79-1.02.91-1.41.12-.39.06-.69-.18-.9-.16-.14-.35-.21-.55-.19-.21.02-.43.12-.69.3-.26.18-.54.45-.84.8-.48.55-.79,1.02-.91,1.41-.12.39-.06.69.18.9.16.14.35.2.55.19Z"/>
          <path class="cls-2" d="M213.57,215.9c.42.6.8,1.01,1.15,1.22.35.21.65.23.92.04.18-.12.28-.29.31-.49.03-.2,0-.45-.12-.74-.12-.29-.31-.63-.57-1.01-.42-.6-.8-1.01-1.14-1.23-.34-.21-.65-.23-.91-.04-.18.13-.29.29-.32.49s0,.45.12.74c.11.29.3.63.57,1.01Z"/>
          <path class="cls-2" d="M224.62,206.37c.55.49,1.02.79,1.41.91.39.12.69.06.9-.18.14-.16.21-.34.19-.55-.02-.21-.12-.44-.3-.69-.18-.25-.45-.54-.8-.84-.55-.49-1.02-.79-1.4-.92-.39-.13-.69-.07-.9.17-.15.17-.21.35-.19.55.02.2.12.44.3.69.18.26.44.54.79.85Z"/>
          <path class="cls-2" d="M217.26,130.39h.02c.76.78,1.47,1.57,2.17,2.38.36.44.73.87,1.08,1.31.36.45.69.91,1.03,1.36v.02c1.21,1.6,2.31,3.27,3.31,5.01.03.05.05.1.08.15.37.63.73,1.29,1.07,1.94.37.71.73,1.42,1.05,2.15,3.04,6.58,4.74,13.9,4.74,21.63,0,18.7-9.94,35.09-24.83,44.14v.02l-.03.08-.79,2.96c16.57-9.2,27.79-26.87,27.79-47.12,0-29.73-24.17-53.89-53.88-53.89s-53.89,24.17-53.89,53.89c0,24.33,16.2,44.94,38.37,51.6.05-.45.16-1.23.36-2.28v-.03c-21.09-6.48-36.43-26.12-36.43-49.37,0-1.66.08-3.3.23-4.91.05-.6.13-1.2.21-1.79.08-.73.19-1.44.32-2.15.45-2.62,1.1-5.17,1.94-7.63.13-.4.26-.81.42-1.2.15-.42.31-.84.47-1.24.13-.37.27-.74.45-1.1.26-.66.55-1.31.86-1.94.11-.24.23-.49.34-.71.13-.24.26-.5.39-.76.74-1.49,1.57-2.93,2.47-4.32.42-.71.89-1.39,1.39-2.07.53-.78,1.1-1.52,1.68-2.26.45-.6.94-1.16,1.42-1.73.06-.06.11-.13.16-.18.55-.63,1.1-1.24,1.68-1.84.52-.53,1.05-1.07,1.58-1.58.06-.05.13-.11.18-.16.52-.49,1.03-.95,1.57-1.42.1-.08.19-.18.29-.26h.02c9.04-7.74,20.77-12.41,33.61-12.41,14.52,0,27.63,5.98,37,15.61.05.05.08.06.11.13Z"/>
          <path class="cls-2" d="M193.19,100.06c7.86-.06,17.62,3.77,17.62,3.77l16.42-24.33c-8.42-3.81-15.52,1.41-15.52,1.41,2.49,1.15,3.67,6.37-.11,10.07-3.8,3.72-8.74,3.49-12.46,2.62-3.7-.87-10.78-4.3-11.94-10.96-1.65-9.47,6.64-9.16,6.64-9.16-3.4-4.38-8.1-1.02-8.1-1.02.28-6.03-4.69-9.78-5.09-9.94h-.03c-.4.16-5.48,4.33-4.96,9.93,0,0-4.69-3.35-8.12.97,0,0,8.5.06,6.5,9.49-1.42,6.68-7.92,9.8-11.62,10.67-3.7.87-9.18,1.21-12.77-2.67-3.59-3.88-1.08-7.84-.11-9.96,0,0-7.06-5.25-15.5-1.44l16.42,24.33s8.92-3.49,16.57-3.75c-31,6.09-54.39,33.43-54.39,66.24s22.11,58.64,51.85,65.66l-.11-1.68v-.34c-11.49-2.81-22.02-8.71-30.58-17.28-12.37-12.37-19.17-28.8-19.17-46.28s6.81-33.93,19.17-46.28c12.35-12.37,28.79-19.17,46.28-19.17s33.91,6.81,46.26,19.17c12.37,12.35,19.17,28.79,19.17,46.28s-6.81,33.91-19.17,46.28c-6.68,6.68-14.53,11.72-23.11,14.97,0-.24,0-.5-.02-.78,24.31-9.34,41.61-32.93,41.61-60.47,0-35.71-29.05-64.75-64.74-64.75s-64.75,29.05-64.75,64.75c0,30.28,20.9,55.77,49.06,62.8-.02-2.15-.03-6.98.11-10.49-8.62-2.54-16.49-7.19-23.02-13.72-10.31-10.3-15.99-24-15.99-38.58s5.67-28.29,15.99-38.6c10.31-10.31,24.02-15.99,38.6-15.99s28.27,5.67,38.58,15.99,15.99,24.02,15.99,38.6-5.67,28.29-15.99,38.58c-3.83,3.83-8.11,7-12.74,9.47l-2.3,8.58-1.92,7.14v.15c26.72-9,45.97-34.25,45.97-64.01,0-32.83-23.42-60.18-54.47-66.26ZM184.95,93.5c-3.83-.65-7.08-.29-8.79.02-.16.02-.34.05-.5.06.4-.26,3.77-2.33,4.98-6.09,1.29,4.02,5.04,6.11,5.04,6.11-.24-.05-.48-.06-.73-.1ZM155.11,217.82l1.52.78-.09.17-4.13,1.36,1.58.81.45-.87.18-.07.98.5-.51,1,1,.51-.22.44-1-.51-.28.54.43.7-.07.14-2.34-1.2.07-.14.81-.06.28-.54-2.05-1.05v-.25s3.38-2.26,3.38-2.26ZM145.16,217.2l1.15-.22c.6-.11,1.08-.22,1.46-.33.38-.11.68-.23.89-.35s.38-.28.5-.44c.18-.26.25-.51.22-.75-.03-.24-.15-.44-.37-.59-.06-.04-.13-.04-.19-.06l-1.17.45-.15-.1.09-1.2c.22.01.42.05.63.1.2.05.4.13.6.21.2.09.38.19.56.31.57.39.94.77,1.13,1.16s.16.74-.06,1.07c-.1.15-.24.27-.42.37-.18.1-.41.19-.7.25-.29.07-.65.12-1.08.15-.43.03-.95.06-1.55.07l-.16.02,1.64,1.12,1.05-.18.15.1-.96,1.36-3.28-2.23.02-.28ZM140.04,211.9c.1-.41.32-.8.66-1.19.37-.42.75-.72,1.16-.89.41-.18.81-.23,1.22-.17.41.07.79.26,1.16.58.36.31.6.66.73,1.05.13.38.14.78.04,1.19s-.32.8-.66,1.19c-.36.42-.75.71-1.16.89-.41.18-.82.23-1.22.17-.41-.07-.79-.26-1.15-.57-.36-.32-.61-.67-.74-1.05s-.14-.78-.04-1.19ZM134.2,206.86l1.17.07c.6.04,1.1.05,1.5.04.39-.01.71-.05.95-.12.24-.07.44-.17.59-.31.23-.21.37-.43.4-.67.03-.24-.04-.46-.22-.66-.04-.05-.11-.07-.16-.11l-1.24.15-.12-.13.38-1.14c.21.07.4.15.58.25.18.1.36.22.53.35.17.13.32.28.46.44.46.52.73.98.81,1.4.08.42-.03.76-.32,1.02-.13.12-.3.2-.5.26-.2.05-.45.08-.74.07-.3,0-.66-.04-1.08-.12-.43-.07-.93-.18-1.52-.32l-.16-.02,1.32,1.49,1.06.08.12.14-1.27,1.08-2.63-2.97.09-.27ZM242.01,167.72c-.21.42-.52.74-.91.98-.39.23-.87.35-1.42.36-.55,0-1.04-.11-1.45-.34-.41-.23-.73-.56-.96-.99-.23-.43-.34-.93-.35-1.52,0-.56.1-1.06.31-1.48s.52-.75.92-.98c.4-.23.87-.35,1.41-.36.56,0,1.04.11,1.45.34.41.23.73.56.96.99.23.43.34.93.35,1.52,0,.57-.1,1.06-.31,1.48ZM241.61,157.09l.03,1.1.28,2.4.23,1.08.02.17-1.52.2-.02-.19.85-1.16-.02-.6-4.07.48-.43.63-.16.02-.29-2.45.16-.02.57.51,4.07-.48-.12-.6-1.1-.93-.02-.18,1.53-.16.02.16ZM240.36,152.32l.16-.04.2.92.14.64-4,2.93-.37.52-.16.04-.5-2.31.16-.04.58.46.76-.56-.41-1.87-.9-.05-.33.66-.16.03-.41-1.9.16-.04.56.32,4.13.85.39-.56ZM123.22,163.53l-.51.79c.05.05.11.09.15.16.23.34.34.75.33,1.23,0,.55-.12,1.02-.34,1.42-.22.4-.52.7-.91.91-.39.21-.86.31-1.39.3-.42,0-.81-.08-1.15-.22s-.63-.34-.88-.59c-.25-.25-.43-.56-.56-.91-.13-.35-.19-.74-.18-1.17,0-.24.03-.48.08-.72s.11-.47.2-.69c.08-.22.18-.41.3-.58l1.07.59v.18s-1.08.89-1.08.89c-.02.08-.06.15-.06.24,0,.28.08.54.26.77.18.23.42.41.73.55.31.14.66.21,1.04.22.43,0,.8-.06,1.13-.19.32-.14.57-.34.75-.59.18-.26.27-.57.28-.92,0-.2-.04-.37-.11-.53l-1.17-.02-.52.6h-.16s.04-2.32.04-2.32h.16s.45.41.45.41l2.04.03v.17ZM123.68,159.1c-.07.56-.25,1.03-.52,1.42-.27.39-.62.67-1.05.84-.43.17-.91.22-1.45.15-.55-.07-1.02-.26-1.39-.54-.37-.29-.64-.66-.81-1.11-.17-.46-.21-.97-.13-1.55.08-.56.25-1.04.52-1.42.27-.38.62-.66,1.04-.84.42-.17.91-.22,1.45-.15.55.07,1.01.25,1.39.54.38.29.65.66.81,1.11.16.46.21.97.13,1.55ZM124.73,152.98l-.22.86-.33,1.32-.16-.04-.36-.64-3.72-.94-.62.39-.16-.04.45-1.79.14-.57c.18-.71.4-1.2.66-1.49s.59-.38.98-.28c.4.1.66.34.76.72.05.17.06.38.05.61h.05c.14-.32.29-.61.48-.79.3-.28.65-.36,1.07-.25.34.09.6.25.78.5s.28.57.31.98c.02.4-.04.89-.18,1.45ZM125.74,149.37l-.16-.05-.3-.66-3.63-1.24-.65.34-.16-.05.77-2.25.16.05.3.67,3.63,1.24.65-.34.16.05-.77,2.25ZM128.46,142.4l-1,2.32-.58,1.35-.15-.07-.25-.69-3.52-1.52-.67.29-.15-.07.73-1.7.42-.97.34-1.06.06-.13,1.24.53-.07.17-1.08.54-.56,1.07,1.77.77.31-.88-.28-.79.07-.17,1.5.65-.07.17-.76.34-.42.83,1.92.83.41-1.19-.43-1.28.07-.17,1.25.59-.1.23ZM130.82,137.95l-2.58.07-.19.35,1.35.76.7-.22.14.08-1.16,2.08-.14-.08-.18-.71-3.34-1.87-.7.22-.14-.08.9-1.61.38-.67c.33-.59.68-.97,1.05-1.16.37-.18.76-.16,1.16.06.41.23.63.56.67,1.01.02.18-.02.38-.06.58l2.08-.06.72-.23.14.08-.78,1.4ZM134.45,132.46l-4.86.26,2.71,1.61.72-.14.13.1-1.07,1.5-.13-.1-.1-.72-2.87-2.23-.91.08-.13-.1.42-.59.43-.61,4.51-.24-2.56-1.36-.72.14-.13-.1,1.07-1.5.13.1.1.72,3.67,2.61-.39.56ZM138.56,127.24c-.12.47-.38.92-.77,1.35-.38.42-.79.71-1.23.88-.44.17-.89.2-1.34.1-.45-.1-.88-.33-1.28-.69-.42-.37-.7-.78-.84-1.23-.15-.45-.16-.91-.04-1.38.12-.47.38-.92.77-1.35.38-.42.79-.72,1.23-.88.44-.16.88-.2,1.33-.1s.88.33,1.28.69c.41.37.69.78.84,1.23.15.45.16.91.04,1.38ZM145.53,120.34c-.07.35-.21.7-.42,1.03-.21.33-.49.64-.84.92l-.72.58-1.16.93-.1-.13.1-.72-2.39-3-.73-.06-.1-.13,1.45-1.15.54-.43c.46-.37.93-.61,1.4-.72.47-.11.92-.1,1.34.05s.79.42,1.11.82c.24.3.41.63.49.98.09.35.09.7.03,1.05ZM150.08,118.16h0s-1.26.8-1.26.8l-1.24.79-.09-.14.18-.71-2.06-3.23-.72-.14-.09-.14,1.56-.99.89-.57.88-.68.12-.08.73,1.13-.16.1-1.19-.16-1.06.57,1.04,1.63.75-.55.21-.81.16-.1.88,1.38-.16.1-.82-.15-.81.45,1.12,1.76,1.01-.75.36-1.3.16-.1.7,1.19-1.09.69ZM155.75,115.07l-1.87.96-1.65.84-.07-.15.25-.69-1.74-3.41-.7-.21-.07-.15,2.13-1.09.07.15-.26.69,1.87,3.67.93-.57.4-1.47.17-.08.72,1.42-.17.08ZM162.23,112.52l-1.06.36h0l-1.75.6-.05-.16.34-.65-1.24-3.62-.67-.3-.05-.16,1.75-.6,1-.34,1.01-.46.13-.05.44,1.27-.18.06-1.12-.43-1.17.31.63,1.83.86-.36.4-.74.18-.06.53,1.54-.18.06-.76-.34-.9.25.68,1.98,1.16-.5.65-1.18.18-.06.4,1.32-1.22.42ZM168.27,110.14c-.11.3-.31.56-.59.77-.28.22-.64.38-1.07.48-.23.06-.47.09-.7.1s-.47,0-.7-.03c-.23-.03-.46-.08-.67-.14l.24-1.17.18-.04,1.05.78c.18,0,.37.02.57-.03.29-.07.5-.19.63-.36.13-.17.16-.37.1-.61-.05-.2-.18-.34-.41-.43-.22-.08-.58-.14-1.07-.17-.41-.03-.74-.08-1.01-.16-.26-.08-.47-.2-.61-.36-.14-.16-.25-.37-.31-.63-.12-.48-.03-.9.25-1.27.29-.37.73-.62,1.34-.77.2-.05.42-.08.64-.09.23-.01.45,0,.68.03.23.03.45.08.66.14l-.31,1.14-.18.04-1.06-.77c-.12,0-.23-.02-.35,0-.24.06-.43.16-.55.31-.12.15-.17.32-.12.5.05.19.18.33.41.42.22.09.58.15,1.07.18.41.02.75.08,1.01.16.26.08.46.2.61.36.14.16.25.37.31.63.08.35.07.67-.04.97ZM174,106.18l-1.18-.82-.6.03.57,4.06.64.42.02.16-2.45.34-.02-.16.5-.58-.57-4.06-.59.14-.91,1.12-.18.02-.19-1.52.16-.02,1.1-.05,2.4-.34,1.07-.26.17-.02.24,1.52-.19.03ZM178.23,109.68v-.16s.54-.5.54-.5l-.42-.84-1.91.08-.21.88.59.44v.16s-1.94.08-1.94.08v-.16s.4-.5.4-.5l1.54-3.92-.48-.48v-.16s.75-.03.75-.03l.84-.04,2.19,4.44.44.45v.16s-2.36.1-2.36.1ZM186.8,108.41c-.17.31-.4.58-.69.79-.29.21-.62.37-1.01.47s-.8.14-1.25.1l-.56-.04h0s-1.84-.13-1.84-.13v-.16s.58-.46.58-.46l.28-3.82-.49-.54v-.16s1.36.1,1.36.1l1.19.09c.59.04,1.1.18,1.52.42.42.24.74.55.95.94.21.39.3.84.26,1.35-.03.39-.13.74-.3,1.05ZM194.33,108.7c-.11.54-.32.99-.63,1.35-.31.36-.7.61-1.16.74-.46.14-.98.15-1.56.04-.55-.11-1.02-.31-1.38-.6-.37-.29-.63-.66-.78-1.1s-.17-.92-.06-1.45c.11-.55.32-1,.63-1.36.31-.36.7-.6,1.16-.74.46-.14.98-.15,1.56-.04.56.11,1.02.31,1.39.61.37.29.62.66.77,1.09s.17.92.06,1.46ZM202.93,112.68c-.25.25-.55.44-.89.56-.34.12-.7.18-1.1.17-.4,0-.8-.09-1.22-.25l-.53-.2-1.73-.65.06-.15.67-.28,1.35-3.59-.32-.66.06-.15,1.26.47,1.12.42c.56.21,1,.49,1.34.84.34.35.55.74.65,1.17.09.43.05.89-.13,1.37-.14.36-.33.67-.59.92ZM209.07,113.07l-.17-.08-.48-1.1-1.04-.62-.86,1.73.86.36.8-.23.17.08-.73,1.46-.17-.08-.29-.78-.81-.47-.94,1.87,1.17.48,1.3-.36.17.08-.66,1.21-1.15-.58h0l-1-.5-1.65-.83.07-.15.7-.21,1.72-3.43-.25-.69.07-.15,1.32.66,1.28.64,1.04.4.13.06-.6,1.21ZM216.57,119.77l-.59.14-1.17,1.66-.14-.1-.36-.87c-.07,0-.14.04-.21.04-.41,0-.81-.14-1.2-.42-.45-.32-.78-.68-.98-1.08-.21-.4-.29-.83-.24-1.27.05-.44.23-.88.54-1.32.24-.35.52-.62.83-.82.31-.2.63-.33.98-.39.35-.06.7-.04,1.06.05.36.09.72.26,1.07.51.2.14.38.3.55.47.17.18.33.36.46.55.13.19.24.38.31.57l-1.1.55-.15-.1-.13-1.39c-.06-.06-.09-.13-.17-.19-.23-.16-.49-.24-.78-.22s-.58.11-.87.29c-.29.18-.54.42-.77.74-.25.35-.41.7-.47,1.04-.07.34-.05.66.07.96.11.3.31.55.6.75.17.12.33.18.5.2l.67-.95-.2-.77.09-.13,1.9,1.34-.09.13ZM218.84,124.7c-.35-.08-.68-.26-.99-.54-.56-.49-.87-1-.94-1.52-.07-.52.11-1.02.53-1.5l1.75-1.97-.07-.73.11-.12,1.78,1.58-.11.12-.73.02-1.59,1.8c-.34.38-.52.73-.54,1.05-.02.32.12.6.41.87s.6.36.91.31c.31-.06.63-.28.97-.66l1.56-1.77-.13-.84.11-.12,1.45,1.28-.11.12-.78.04-1.69,1.91c-.27.31-.57.52-.9.63-.33.11-.67.13-1.02.05ZM224.12,130.14l-.12.11-1.6-1.74.12-.11.73.1.38-.86-1.29-1.41-.8.41.05.74-.12.11-1.32-1.43.12-.11h.64s3.99-1.36,3.99-1.36l.06-.68.12-.11.62.67.46.5-1.98,4.54-.06.63ZM226.95,134.23l1.3-4.69-2.39,2.05-.09.72-.13.1-1.08-1.49.13-.1.72.13,3.03-2.02.21-.89.13-.1.42.58.44.6-1.21,4.35,2.1-1.99.09-.72.13-.1,1.08,1.49-.13.1-.72-.13-3.64,2.66-.4-.55ZM231.01,140.59l-.14.08-1.18-2.05.14-.08.69.26.56-.76-.95-1.66-.87.22-.12.73-.14.08-.97-1.69.14-.08.63.13,4.19-.44.21-.65.14-.08.47.82h0l.33.57-2.93,4-.19.6ZM232.88,144.28c-.44-.19-.8-.59-1.06-1.18-.09-.2-.15-.42-.18-.67s-.03-.49,0-.74c.03-.25.09-.47.18-.67l1.2.15.08.17-.84,1.17c0,.12.04.24.09.36.09.2.25.33.47.37.22.04.49-.01.8-.15l2.71-1.21.24-.69.15-.07.97,2.17-.15.07-.67-.28-2.51,1.12c-.54.24-1.04.27-1.48.07ZM234.09,148.96c-.23-.71-.25-1.3-.05-1.78s.61-.82,1.21-1.02l2.5-.82.31-.66.16-.05.74,2.26-.16.05-.64-.35-2.28.75c-.48.16-.81.37-.99.63-.18.26-.2.58-.08.96.12.37.33.62.63.72.3.11.69.08,1.17-.08l2.24-.73.32-.79.16-.05.6,1.84-.16.05-.69-.36-2.42.79c-.39.13-.75.16-1.09.09-.34-.07-.64-.23-.9-.47-.26-.25-.45-.57-.58-.97ZM222.8,205.12c.07-.41.26-.79.58-1.15.32-.36.67-.6,1.05-.73.38-.13.78-.14,1.19-.03.41.11.8.33,1.19.67.41.37.71.75.88,1.16s.23.82.16,1.22c-.07.41-.26.79-.58,1.15-.32.36-.67.61-1.06.73-.38.13-.78.14-1.19.03-.41-.1-.8-.33-1.19-.67-.42-.37-.71-.76-.89-1.17-.17-.41-.23-.82-.16-1.22ZM217.52,209.9c.2-.28.44-.55.73-.8.3-.27.6-.47.89-.59.29-.13.55-.18.79-.15.24.02.44.13.6.31.26.3.31.66.15,1.08-.08.21-.22.44-.42.68l.02.02c.3-.19.58-.32.83-.37.47-.1.86.02,1.16.36.21.23.32.5.34.78.02.29-.05.59-.21.9-.16.31-.41.61-.75.91-.3.26-.6.47-.9.63-.31.16-.63.26-.97.32l-.27-1.19.14-.12,1.25.32c.1-.06.21-.09.31-.18.15-.13.25-.28.3-.44.05-.16.06-.33.02-.51-.04-.17-.12-.33-.25-.48-.13-.15-.29-.25-.47-.3-.18-.05-.37-.05-.56,0-.19.04-.37.14-.53.29l-.18-.2-.13-.15c.15-.14.26-.29.33-.46.06-.17.09-.34.06-.51s-.09-.32-.2-.45c-.15-.17-.34-.26-.57-.26-.22,0-.43.08-.63.25-.09.08-.14.18-.21.27l.14,1.2-.14.12-1.14-.39c.1-.3.25-.59.45-.87ZM212.09,214.25c.16-.38.44-.71.84-.98.39-.27.79-.43,1.19-.46.4-.03.79.05,1.16.25.37.2.7.51.99.93.31.45.51.9.58,1.34.07.44.03.85-.13,1.23-.16.38-.44.7-.83.98-.4.28-.8.43-1.2.46-.4.03-.79-.05-1.16-.25-.37-.2-.7-.51-.99-.93-.32-.46-.51-.91-.58-1.34-.07-.44-.03-.85.14-1.22ZM205.6,217.86c.14-.15.3-.3.47-.43.17-.13.35-.25.54-.35.61-.32,1.13-.47,1.55-.45.42.02.73.2.91.56.08.16.13.34.13.54,0,.21-.03.45-.1.74s-.2.63-.37,1.03c-.17.4-.4.86-.67,1.4l-.06.15,1.76-.92.33-1.01.16-.09.75,1.49-3.51,1.84-.24-.15.35-1.12c.18-.58.31-1.06.4-1.44.08-.38.12-.7.11-.95s-.06-.47-.16-.65c-.15-.28-.33-.46-.56-.55-.23-.09-.46-.07-.7.05-.06.03-.09.09-.14.13l-.15,1.24-.16.08-1.02-.64c.11-.18.24-.35.38-.51Z"/>
          <path class="cls-2" d="M179.02,217.98c.02.1.02.18.03.26-.02-.16-.02-.26-.02-.26h-.02Z"/>
          <path class="cls-2" d="M240.85,164.98c-.31-.1-.68-.15-1.12-.14-.47,0-.88.07-1.22.19-.34.12-.61.29-.79.51s-.28.47-.27.77c0,.28.08.52.25.72s.4.35.71.45c.31.1.68.15,1.11.14.47,0,.88-.07,1.22-.19.34-.12.6-.29.79-.5.19-.22.28-.47.27-.77,0-.28-.08-.52-.24-.72s-.4-.34-.71-.44Z"/>
          <polygon class="cls-2" points="239.67 153.17 237.38 153.04 237.72 154.6 239.67 153.17"/>
        </g>
        <g>
          <path class="cls-2" d="M89.4,263.2c0,1.73-.19,2.97-.56,3.74-.38.77-1,1.15-1.88,1.15s-1.47-.38-1.86-1.15c-.39-.77-.59-2.01-.59-3.74v-23.22h-9.53v22.78c0,4.53.99,7.81,2.96,9.85,1.97,2.04,4.98,3.06,9.02,3.06s7.09-1.02,9.05-3.06c1.96-2.04,2.93-5.32,2.93-9.85v-22.78h-9.53v23.22Z"/>
          <path class="cls-2" d="M105.86,240.01l1.13,4.65-7.04,31.02h10.22l.93-4.78h6.16l.93,4.78h10.12l-7.67-35.69-14.78.02ZM112.07,263.27l2.1-12.9,2.05,12.9h-4.16Z"/>
          <path class="cls-2" d="M226.5,263.2c0,1.73-.19,2.97-.56,3.74-.38.77-1,1.15-1.88,1.15s-1.47-.38-1.86-1.15c-.39-.77-.59-2.01-.59-3.74v-23.22h-9.53v22.78c0,4.53.99,7.81,2.96,9.85,1.97,2.04,4.98,3.06,9.02,3.06s7.09-1.02,9.05-3.06c1.96-2.04,2.93-5.32,2.93-9.85v-22.78h-9.53v23.22Z"/>
          <path class="cls-2" d="M242.99,239.99l1.1,4.67-7.04,31.02h10.22l.93-4.78h6.16l.93,4.78h10.12l-7.64-35.66-14.78-.02ZM249.17,263.27l2.1-12.9,2.05,12.9h-4.16Z"/>
          <path class="cls-2" d="M166.21,239.97l1.1,4.69-7.04,31.02h10.22l.93-4.78h6.16l.93,4.78h10.12l-7.66-35.69-14.76-.02ZM172.4,263.27l2.1-12.9,2.05,12.9h-4.16Z"/>
          <polygon class="cls-2" points="148.58 260.38 141.69 239.97 128.88 239.97 130.89 245.08 130.89 275.65 140.18 275.65 140.18 257.15 146.43 275.66 157.87 275.66 157.87 239.97 148.58 239.97 148.58 260.38"/>
          <path class="cls-2" d="M289.84,240.04h-28.67s1.91,7.89,1.91,7.89h7.49v27.71h9.58v-27.78h5.9c.31-2.89,1.71-5.72,3.78-7.76v-.06Z"/>
          <path class="cls-2" d="M313.62,246.86c-.9-2.62-2.32-4.48-4.28-5.57-1.96-1.09-4.53-1.64-7.72-1.64s-5.77.55-7.72,1.64c-1.96,1.09-3.38,2.95-4.28,5.57-.9,2.62-1.34,6.23-1.34,10.83s.45,8.21,1.34,10.83c.9,2.62,2.32,4.48,4.28,5.57,1.96,1.09,4.53,1.64,7.72,1.64s5.77-.55,7.72-1.64c1.96-1.09,3.38-2.95,4.28-5.57.9-2.62,1.34-6.23,1.34-10.83s-.45-8.21-1.34-10.83ZM304.42,264.05c-.18,1.53-.49,2.6-.93,3.2-.44.6-1.07.9-1.88.9s-1.4-.3-1.86-.9c-.46-.6-.77-1.67-.95-3.2-.18-1.53-.27-3.68-.27-6.45s.09-4.95.27-6.43c.18-1.48.5-2.51.95-3.08.46-.57,1.08-.86,1.86-.86s1.44.29,1.88.86c.44.57.75,1.6.93,3.08.18,1.48.27,3.63.27,6.43s-.09,4.92-.27,6.45Z"/>
          <path class="cls-2" d="M66.51,250.44l5.13-7.14s-4.35-4.62-12.85-3.32c-9.1,1.4-13.52,9.22-13.47,17.84.05,8.62,3.67,15.51,11.81,17.39,10.01,1.66,14.4-1.66,14.4-1.66v-15.69l-11.51-.05,2.73,4.88v3.84c-6.49,1.11-10.31-9.28-5.78-14.98,3.64-4.58,9.53-1.1,9.53-1.1Z"/>
          <path class="cls-2" d="M198.81,246.79v14.77c0,1.6-.1,2.83-.29,3.69-.2.86-.61,1.47-1.25,1.81-.64.34-1.59.51-2.86.51-.55,0-1.12-.06-1.71-.17-.53-.1-1.04-.21-1.52-.33-.95-.32-1.42-.63-1.42-.63l1.73,8.59c1.51.6,4.37.72,5.09.74.35.02.68.03.96.03,2.02,0,3.72-.14,5.11-.42,1.38-.28,2.49-.81,3.32-1.59.83-.78,1.43-1.89,1.81-3.32.37-1.43.56-3.32.56-5.67l.04-24.75-12.3-.04,2.73,6.8Z"/>
        </g>
        <g>
          <path class="cls-2" d="M82.61,292.55c-1.05,0-1.97-.21-2.74-.62-.77-.41-1.37-1.01-1.78-1.79-.41-.78-.62-1.71-.62-2.81,0-.81.13-1.52.38-2.15.25-.63.61-1.15,1.08-1.58.47-.43,1.02-.75,1.66-.98.64-.22,1.35-.33,2.13-.33.67,0,1.31.07,1.92.22s1.13.33,1.57.53c-.06.34-.1.7-.13,1.09-.02.39-.04.79-.04,1.21-.19.08-.4.13-.63.15-.23.02-.45.03-.66.03-.03-.56-.13-1-.3-1.32-.17-.32-.41-.55-.71-.68-.3-.13-.65-.2-1.04-.2-.61,0-1.11.18-1.49.52-.38.35-.66.81-.84,1.37-.17.56-.26,1.15-.26,1.77,0,.87.11,1.64.33,2.32.22.68.52,1.22.92,1.6.4.39.88.58,1.46.58.18,0,.33,0,.44-.02.12-.02.23-.04.33-.08.15-.06.27-.16.35-.3.09-.14.13-.4.13-.78v-.56c0-.34-.03-.59-.08-.75s-.16-.28-.33-.34-.4-.09-.7-.1c-.04-.14-.07-.29-.08-.47-.02-.17-.02-.36-.02-.56.27.01.58.02.95.03.37.01.72.01,1.04.01.31,0,.65,0,1.04,0s.72-.01.98-.02c0,.16,0,.32-.01.5,0,.18-.03.34-.07.5-.18.01-.31.04-.4.1s-.14.15-.16.3-.03.35-.03.63v.43c0,.35.01.62.04.81s.09.39.19.61c-.45.33-1.01.6-1.67.81s-1.38.32-2.16.32Z"/>
          <path class="cls-2" d="M94.43,292.55c-1.04,0-1.94-.22-2.69-.66-.75-.44-1.33-1.04-1.74-1.82s-.61-1.67-.61-2.7c0-.78.13-1.48.38-2.1.25-.63.6-1.16,1.05-1.6.45-.45.98-.78,1.6-1.02.62-.24,1.29-.35,2.02-.35,1.02,0,1.9.2,2.65.61s1.34.98,1.77,1.72.64,1.61.64,2.62c0,.78-.12,1.49-.35,2.14-.24.65-.58,1.2-1.02,1.68-.44.47-.98.84-1.6,1.1-.62.26-1.32.39-2.08.39ZM94.64,291.5c.47,0,.87-.16,1.2-.49.32-.33.57-.79.75-1.37.17-.59.26-1.27.26-2.06s-.11-1.51-.33-2.15c-.22-.65-.52-1.16-.92-1.54s-.86-.58-1.39-.58c-.44,0-.83.15-1.15.44-.33.3-.58.72-.75,1.27-.18.55-.27,1.22-.27,1.99,0,.6.05,1.17.16,1.71.11.54.27,1.02.48,1.44.21.42.48.75.81.98s.71.35,1.15.35Z"/>
          <path class="cls-2" d="M102.03,282.38c.19.01.43.02.74.03.3.01.59.02.84.02s.57,0,.95,0c.37,0,.75,0,1.13-.01s.71,0,.98,0c.94,0,1.69.08,2.25.24.57.16.98.4,1.24.74.26.33.39.76.39,1.29,0,.58-.2,1.08-.6,1.51-.4.42-.97.69-1.71.8.66.04,1.2.16,1.63.36.43.2.75.49.95.86.21.37.31.82.31,1.35,0,.56-.15,1.06-.44,1.49s-.76.77-1.4,1.02c-.64.25-1.49.37-2.56.37h-1.22c-.42,0-.84,0-1.25,0-.41,0-.81.01-1.19.01-.38,0-.74.01-1.07.02,0-.2,0-.39.02-.57s.04-.33.08-.45c.27-.02.47-.07.61-.15.14-.08.24-.24.3-.46s.08-.55.08-.98v-4.91c0-.41-.03-.72-.08-.93-.05-.21-.15-.35-.3-.43-.14-.08-.35-.14-.63-.17-.03-.13-.05-.29-.07-.49-.02-.2-.02-.38-.02-.52ZM105.68,282.98v6.96c0,.42.04.75.13.96.09.22.22.36.38.43s.36.11.59.11c.45,0,.82-.15,1.1-.46.28-.3.42-.73.42-1.27,0-.38-.05-.7-.16-.95-.11-.25-.26-.45-.47-.59-.2-.14-.44-.25-.72-.31s-.59-.1-.92-.1h-.84v-.99h1.01c.4,0,.74-.07,1-.21.26-.14.46-.34.58-.59.13-.26.19-.56.19-.92s-.08-.67-.23-.92c-.15-.25-.35-.43-.59-.55-.24-.12-.51-.18-.81-.18-.17,0-.32.02-.45.04-.13.03-.27.08-.42.16l.21-.65Z"/>
          <path class="cls-2" d="M114.8,284.94c0-.41-.02-.72-.07-.93-.05-.21-.15-.35-.29-.43-.14-.08-.35-.14-.61-.17-.04-.13-.07-.29-.09-.48-.02-.19-.03-.37-.03-.54.17.01.4.02.69.02.29,0,.6.01.92.01.32,0,.59,0,.82,0s.48,0,.77,0c.29,0,.57,0,.84-.01.28,0,.51-.01.71-.02,0,.18,0,.35-.01.52,0,.17-.04.34-.1.5-.27.03-.47.08-.61.16-.14.08-.24.23-.29.44-.05.21-.07.52-.07.94v4.94c0,.42.02.74.07.96.05.22.15.37.3.45.15.08.35.13.61.15.04.12.07.27.09.47.02.19.03.38.03.55-.24-.02-.55-.03-.95-.04-.39,0-.82,0-1.27,0s-.91,0-1.37,0c-.46,0-.84.02-1.16.04,0-.17.01-.35.04-.55.02-.2.05-.36.08-.47.27-.02.47-.07.61-.15.14-.08.24-.24.29-.45.05-.22.07-.54.07-.96v-4.94Z"/>
          <path class="cls-2" d="M121,282.38c.21.01.47.02.78.02s.65.01,1,.01c.35,0,.69,0,1.01,0h.86v7.36c0,.42.03.76.1,1,.07.24.19.41.36.5.17.09.42.14.73.14l-.47.99c-.27,0-.61,0-1.03,0-.42,0-.85.01-1.3.01-.45,0-.86.01-1.23.02-.37,0-.65,0-.81,0,0-.2,0-.39.02-.57s.04-.33.08-.45c.27-.02.47-.07.61-.15.14-.08.24-.24.3-.46.05-.22.08-.55.08-.98v-4.91c0-.41-.03-.72-.08-.93-.05-.21-.15-.35-.3-.43-.14-.08-.35-.14-.63-.17-.04-.13-.06-.29-.07-.49,0-.2-.02-.38-.02-.52ZM127.36,285.7c0,.24-.02.49-.04.77s-.02.59-.02.93c0,.37,0,.7.02.98s.03.53.04.76c-.24,0-.44-.01-.62-.03-.18-.02-.34-.05-.5-.1-.04-.43-.15-.72-.34-.86-.19-.14-.52-.21-1-.21h-.89v-.99h.89c.52,0,.87-.08,1.04-.24.17-.16.26-.44.27-.84.16-.07.34-.11.55-.13.21-.02.41-.03.61-.03ZM128.65,282.38c0,.24.03.51.06.83.03.31.06.62.1.92.04.3.09.57.15.81-.16.07-.34.13-.54.17s-.45.07-.75.07c-.05-.34-.14-.64-.27-.91-.13-.27-.34-.48-.63-.64s-.69-.23-1.23-.23h-1.46l.46-.97c.75,0,1.38,0,1.9,0,.52,0,.95,0,1.31-.01s.66-.01.9-.02ZM128.23,289.45c.28.03.53.09.76.17.23.08.41.18.52.3-.11.34-.2.73-.28,1.18-.08.45-.14.9-.18,1.35-.27-.01-.61-.02-1.02-.02s-.85,0-1.32,0c-.47,0-.91,0-1.34,0l.47-.99h.21c.43,0,.79-.07,1.06-.21.27-.14.49-.36.66-.65s.32-.66.46-1.12Z"/>
          <path class="cls-2" d="M138.4,292.55c-.12-.26-.23-.51-.34-.75-.11-.24-.21-.48-.31-.72-.1-.24-.2-.49-.31-.75-.15-.36-.29-.65-.41-.9-.13-.24-.27-.45-.43-.64-.16-.18-.35-.36-.59-.54l.66.12c-.27.01-.5.02-.7.02s-.43,0-.69,0l.12-1.08c.15.02.27.03.35.04.09.01.17.01.25.01.35,0,.68-.07.98-.21.3-.14.55-.36.74-.67.19-.3.29-.68.29-1.13,0-.62-.15-1.11-.45-1.46s-.74-.53-1.31-.53c-.16,0-.3,0-.44.03-.13.02-.27.05-.42.1l.12-.49v6.75c0,.48.02.84.07,1.08.05.24.13.39.24.47s.27.12.47.13c.04.1.06.25.07.44,0,.2.02.39.02.58-.19,0-.43-.02-.72-.02-.3,0-.59-.01-.89-.01-.3,0-.55,0-.75,0-.36,0-.74,0-1.12,0-.38,0-.73.02-1.04.04,0-.22,0-.41.02-.58s.04-.32.08-.44c.27-.02.47-.07.61-.15.14-.08.24-.24.3-.45.05-.22.08-.54.08-.96v-4.95c0-.41-.03-.73-.08-.94-.05-.21-.15-.36-.3-.44-.14-.08-.35-.13-.63-.16-.04-.14-.06-.32-.07-.53s-.02-.37-.02-.47c.26.01.59.02,1.01.03.42.01.86.02,1.32.02.32,0,.74-.01,1.26-.03.53-.02,1.08-.03,1.65-.03.83,0,1.51.12,2.03.36.53.24.91.57,1.16.98.25.41.37.86.37,1.37,0,.6-.12,1.12-.35,1.56-.23.44-.55.78-.95,1.03-.4.25-.86.4-1.37.47l.28-.19c.3.14.53.29.72.45.18.16.36.39.55.68s.41.7.69,1.24c.15.27.28.49.4.64.12.15.25.26.4.32s.34.1.56.13c0,.19-.01.36-.03.53-.02.17-.05.33-.1.49-.67,0-1.27,0-1.8.03-.53.02-.95.05-1.26.1Z"/>
          <path class="cls-2" d="M151.24,292.54l-6.5-8.7c-.09-.15-.2-.25-.33-.3-.13-.05-.35-.1-.64-.13-.04-.15-.07-.31-.09-.49-.02-.18-.03-.36-.03-.53.13.01.3.02.52.02s.44.01.66.01c.23,0,.41,0,.56,0,.24,0,.5,0,.79,0,.29,0,.53-.02.72-.04l4.71,6.41-.37,3.74ZM143.65,292.46c0-.21,0-.39.02-.56.01-.17.05-.32.1-.46.3-.03.52-.1.69-.22.16-.12.28-.32.35-.62s.11-.73.11-1.29v-5.97l1.02.09v5.88c0,.56.03.99.09,1.29.06.3.17.5.33.62.16.12.4.19.7.22.04.14.06.3.07.48,0,.18.01.36.01.54-.14,0-.31-.02-.52-.02-.21,0-.41-.01-.62-.01-.21,0-.39,0-.56,0-.16,0-.36,0-.6,0-.24,0-.47.01-.69.01-.22,0-.39.01-.52.02ZM151.24,292.54l.15-2.45v-4.57c0-.56-.03-.99-.09-1.28-.06-.29-.17-.49-.35-.61-.17-.12-.43-.19-.76-.22-.04-.17-.07-.34-.08-.52-.02-.18-.02-.35-.02-.49.15.01.33.02.55.02s.44.01.67.01c.23,0,.43,0,.58,0,.25,0,.52,0,.81-.02.3,0,.53-.02.71-.03,0,.17,0,.34-.01.5,0,.17-.03.34-.07.52-.25.02-.44.09-.57.21-.13.12-.22.32-.27.61s-.07.72-.07,1.29v6.9c-.17.05-.34.08-.53.1-.19.01-.4.02-.64.02Z"/>
          <path class="cls-2" d="M160.94,292.55c-1.04,0-1.94-.22-2.69-.66-.75-.44-1.33-1.04-1.74-1.82s-.61-1.67-.61-2.7c0-.78.13-1.48.38-2.1.25-.63.6-1.16,1.05-1.6.45-.45.98-.78,1.6-1.02.62-.24,1.29-.35,2.02-.35,1.02,0,1.9.2,2.65.61s1.34.98,1.77,1.72.64,1.61.64,2.62c0,.78-.12,1.49-.35,2.14s-.58,1.2-1.02,1.68c-.44.47-.98.84-1.6,1.1-.62.26-1.32.39-2.08.39ZM161.15,291.5c.47,0,.87-.16,1.2-.49.32-.33.57-.79.75-1.37s.26-1.27.26-2.06-.11-1.51-.33-2.15c-.22-.65-.52-1.16-.92-1.54s-.86-.58-1.39-.58c-.44,0-.83.15-1.15.44-.33.3-.58.72-.75,1.27-.18.55-.27,1.22-.27,1.99,0,.6.05,1.17.16,1.71.11.54.27,1.02.48,1.44.21.42.48.75.81.98s.71.35,1.15.35Z"/>
          <path class="cls-2" d="M172.97,292.46c0-.2,0-.39.02-.57.01-.18.04-.33.08-.45.27-.02.47-.07.61-.15.14-.08.24-.24.3-.46s.08-.55.08-.98v-4.91c0-.41-.03-.72-.08-.93-.05-.21-.15-.35-.3-.43-.14-.08-.35-.14-.63-.17-.03-.13-.05-.29-.07-.49-.02-.2-.02-.38-.02-.52.22.01.48.02.8.02s.65.01,1.01.01c.36,0,.7,0,1.01,0,.23,0,.47,0,.74-.02.27,0,.56-.01.87-.01.55,0,1.09.04,1.63.11s1.02.21,1.48.41c.45.2.85.48,1.2.84.34.36.61.82.81,1.37.19.56.29,1.24.29,2.05s-.1,1.48-.3,2.06c-.2.57-.46,1.05-.78,1.43-.33.38-.68.69-1.08.93s-.8.41-1.21.53c-.41.12-.8.2-1.16.24s-.67.06-.92.06-.61,0-1.03,0c-.42,0-.85.01-1.3.01-.45,0-.86.01-1.23.02s-.65,0-.81,0ZM177.82,291.43c.23,0,.48-.05.75-.14.28-.09.54-.28.78-.55.25-.27.45-.67.6-1.2.15-.53.23-1.23.23-2.12,0-.79-.08-1.45-.24-1.97-.16-.53-.37-.94-.64-1.24-.27-.3-.57-.51-.91-.64-.34-.13-.68-.19-1.05-.19-.19,0-.37.02-.54.07-.17.04-.3.1-.38.17l.19-.58v6.75c0,.42.03.76.1,1s.19.41.36.5c.17.09.42.14.73.14Z"/>
          <path class="cls-2" d="M185.34,282.38c.21.01.47.02.78.02.31,0,.65.01,1,.01.35,0,.69,0,1.01,0h.86v7.36c0,.42.03.76.1,1s.19.41.36.5c.17.09.42.14.73.14l-.47.99c-.27,0-.61,0-1.03,0-.42,0-.85.01-1.3.01-.45,0-.86.01-1.23.02s-.65,0-.81,0c0-.2,0-.39.02-.57.01-.18.04-.33.08-.45.27-.02.47-.07.61-.15.14-.08.24-.24.3-.46s.08-.55.08-.98v-4.91c0-.41-.03-.72-.08-.93-.05-.21-.15-.35-.3-.43-.14-.08-.35-.14-.63-.17-.04-.13-.06-.29-.07-.49-.01-.2-.01-.38-.01-.52ZM191.7,285.7c0,.24-.02.49-.04.77s-.02.59-.02.93c0,.37,0,.7.02.98s.03.53.04.76c-.24,0-.44-.01-.62-.03-.18-.02-.35-.05-.5-.1-.04-.43-.15-.72-.34-.86s-.52-.21-1.01-.21h-.89v-.99h.89c.52,0,.87-.08,1.04-.24.17-.16.26-.44.27-.84.16-.07.34-.11.55-.13s.41-.03.61-.03ZM192.98,282.38c0,.24.03.51.06.83.03.31.06.62.1.92.04.3.09.57.15.81-.16.07-.34.13-.54.17s-.45.07-.75.07c-.05-.34-.14-.64-.27-.91s-.34-.48-.63-.64c-.29-.15-.7-.23-1.23-.23h-1.46l.46-.97c.75,0,1.38,0,1.9,0,.52,0,.95,0,1.31-.01s.66-.01.9-.02ZM192.57,289.45c.28.03.53.09.76.17.23.08.41.18.52.3-.11.34-.2.73-.28,1.18s-.14.9-.18,1.35c-.27-.01-.61-.02-1.02-.02s-.85,0-1.32,0c-.47,0-.91,0-1.34,0l.47-.99h.21c.43,0,.79-.07,1.06-.21.27-.14.49-.36.66-.65s.32-.66.46-1.12Z"/>
          <path class="cls-2" d="M205.69,291.43c.39,0,.72-.07.98-.2s.48-.35.65-.64.33-.67.47-1.15c.28.03.53.09.76.17.23.08.41.18.52.3-.11.34-.2.73-.28,1.18-.08.45-.14.9-.18,1.35-.27-.01-.61-.02-1.02-.02s-.85,0-1.3,0c-.45,0-.88,0-1.29,0-.27,0-.61,0-1.03,0-.42,0-.85.01-1.3.01-.45,0-.86.01-1.23.02s-.65,0-.81,0c0-.2,0-.39.02-.57.01-.18.04-.33.08-.45.27-.02.47-.07.61-.15.14-.08.24-.24.3-.46s.08-.55.08-.98v-4.91c0-.41-.03-.72-.08-.93-.05-.21-.15-.35-.3-.43-.14-.08-.35-.14-.63-.17-.03-.13-.05-.29-.07-.49-.02-.2-.02-.38-.02-.52.29.01.55.02.79.02s.49.01.74.01c.25,0,.53,0,.84,0,.24,0,.5,0,.79,0,.29,0,.58,0,.86-.01.29,0,.53-.01.72-.02,0,.18,0,.36-.01.54-.01.18-.04.34-.1.48-.27.03-.47.08-.61.16s-.24.23-.29.44c-.05.22-.07.53-.07.95v4.83c0,.42.03.76.1,1s.19.41.36.5c.17.09.42.14.73.14h.21Z"/>
          <path class="cls-2" d="M216.35,282.34l3.34,7.42c.23.46.4.82.53,1.06.13.24.25.4.36.48s.24.13.38.15c.04.13.07.28.09.45s.03.36.03.57c-.18-.02-.4-.03-.68-.04-.28,0-.55,0-.83,0h-1.15c-.21,0-.44,0-.68,0-.24,0-.47.01-.69.01-.22,0-.38.01-.5.02,0-.24.01-.43.03-.59.02-.16.05-.3.09-.43.34-.07.55-.19.61-.35.06-.16.02-.43-.14-.79l-1.33-3.03c-.23-.52-.41-1.01-.55-1.46s-.26-.89-.36-1.32h.43c-.12.44-.25.89-.39,1.35-.14.45-.32.93-.52,1.42l-1.12,2.93c-.13.31-.15.59-.07.83.08.24.29.38.62.43.04.14.07.29.09.46.02.17.03.36.03.56-.11,0-.26-.02-.46-.02-.2,0-.4-.01-.61-.01-.21,0-.4,0-.57,0-.25,0-.5,0-.76,0-.26,0-.47.02-.61.04,0-.2,0-.37.03-.53s.05-.32.1-.49c.17-.03.31-.09.43-.19.12-.09.23-.24.35-.45s.25-.5.41-.89l3.12-7.51c.17-.04.32-.06.47-.07.14,0,.31,0,.51,0ZM216.89,288.87l.27.89c-.66,0-1.35.01-2.06.03-.71.02-1.41.07-2.09.13l.22-1.05h3.67Z"/>
          <path class="cls-2" d="M232.86,292.55c-1.06,0-1.97-.21-2.74-.62-.77-.41-1.37-1.01-1.78-1.79-.41-.78-.62-1.71-.62-2.81,0-.81.13-1.52.38-2.15.25-.63.61-1.15,1.08-1.58.47-.43,1.02-.75,1.66-.98.64-.22,1.35-.33,2.13-.33.67,0,1.31.07,1.92.22s1.13.33,1.57.53c-.06.34-.1.7-.13,1.09-.02.39-.04.79-.04,1.21-.19.08-.4.13-.63.15-.23.02-.45.03-.66.03-.03-.56-.13-1-.3-1.32-.17-.32-.41-.55-.71-.68-.3-.13-.65-.2-1.04-.2-.61,0-1.11.18-1.49.52-.38.35-.66.81-.84,1.37s-.26,1.15-.26,1.77c0,.87.11,1.64.33,2.32.22.68.52,1.22.92,1.6.4.39.88.58,1.46.58.18,0,.33,0,.44-.02.12-.02.23-.04.33-.08.15-.06.27-.16.35-.3.09-.14.13-.4.13-.78v-.56c0-.34-.03-.59-.08-.75s-.16-.28-.32-.34c-.16-.06-.4-.09-.7-.1-.04-.14-.07-.29-.08-.47s-.02-.36-.02-.56c.27.01.58.02.95.03.37.01.72.01,1.04.01.31,0,.65,0,1.04,0s.72-.01.98-.02c0,.16,0,.32-.01.5-.01.18-.03.34-.07.5-.18.01-.31.04-.4.1-.09.05-.14.15-.16.3s-.03.35-.03.63v.43c0,.35.01.62.04.81.03.18.09.39.19.61-.45.33-1.01.6-1.67.81s-1.38.32-2.16.32Z"/>
          <path class="cls-2" d="M239.67,282.38c.21.01.47.02.78.02s.65.01,1,.01c.35,0,.69,0,1.01,0h.86v7.36c0,.42.03.76.1,1,.07.24.19.41.36.5.17.09.42.14.73.14l-.47.99c-.27,0-.61,0-1.03,0-.42,0-.85.01-1.3.01-.45,0-.86.01-1.23.02s-.65,0-.81,0c0-.2,0-.39.02-.57s.04-.33.08-.45c.27-.02.47-.07.61-.15.14-.08.24-.24.3-.46.05-.22.08-.55.08-.98v-4.91c0-.41-.03-.72-.08-.93-.05-.21-.15-.35-.3-.43-.14-.08-.35-.14-.63-.17-.04-.13-.06-.29-.07-.49,0-.2-.01-.38-.01-.52ZM246.03,285.7c-.01.24-.02.49-.04.77-.02.28-.02.59-.02.93,0,.37,0,.7.02.98.01.28.03.53.04.76-.24,0-.44-.01-.62-.03-.18-.02-.35-.05-.5-.1-.04-.43-.15-.72-.34-.86s-.52-.21-1-.21h-.89v-.99h.89c.52,0,.87-.08,1.04-.24.17-.16.26-.44.27-.84.16-.07.34-.11.55-.13s.41-.03.61-.03ZM247.31,282.38c.01.24.03.51.06.83.03.31.06.62.1.92.04.3.09.57.15.81-.16.07-.34.13-.54.17-.2.04-.45.07-.75.07-.05-.34-.14-.64-.27-.91-.13-.27-.34-.48-.63-.64-.29-.15-.69-.23-1.23-.23h-1.46l.46-.97c.75,0,1.38,0,1.9,0,.52,0,.95,0,1.31-.01s.65-.01.9-.02ZM246.9,289.45c.27.03.53.09.76.17.23.08.41.18.52.3-.11.34-.2.73-.28,1.18s-.14.9-.18,1.35c-.27-.01-.61-.02-1.02-.02s-.85,0-1.32,0c-.47,0-.91,0-1.34,0l.47-.99h.21c.43,0,.79-.07,1.06-.21.27-.14.49-.36.66-.65s.32-.66.46-1.12Z"/>
          <path class="cls-2" d="M257.95,292.54l-6.5-8.7c-.09-.15-.2-.25-.33-.3-.13-.05-.35-.1-.64-.13-.04-.15-.07-.31-.09-.49s-.03-.36-.03-.53c.13.01.3.02.52.02s.44.01.66.01c.23,0,.41,0,.56,0,.24,0,.5,0,.79,0,.29,0,.53-.02.72-.04l4.71,6.41-.37,3.74ZM250.36,292.46c0-.21,0-.39.02-.56.01-.17.05-.32.1-.46.3-.03.52-.1.69-.22.16-.12.28-.32.35-.62s.11-.73.11-1.29v-5.97l1.02.09v5.88c0,.56.03.99.09,1.29.06.3.17.5.33.62.16.12.4.19.7.22.04.14.06.3.07.48,0,.18.01.36.01.54-.14,0-.31-.02-.52-.02-.21,0-.41-.01-.62-.01-.21,0-.39,0-.56,0-.16,0-.36,0-.6,0-.24,0-.47.01-.69.01-.22,0-.39.01-.52.02ZM257.95,292.54l.15-2.45v-4.57c0-.56-.03-.99-.09-1.28-.06-.29-.18-.49-.35-.61-.17-.12-.43-.19-.76-.22-.04-.17-.07-.34-.08-.52-.01-.18-.02-.35-.02-.49.15.01.33.02.55.02.22,0,.44.01.67.01.23,0,.43,0,.58,0,.25,0,.52,0,.81-.02.3,0,.53-.02.71-.03,0,.17,0,.34-.01.5-.01.17-.04.34-.07.52-.25.02-.44.09-.57.21-.13.12-.22.32-.27.61s-.07.72-.07,1.29v6.9c-.17.05-.34.08-.53.1-.19.01-.4.02-.64.02Z"/>
          <path class="cls-2" d="M265.64,283.42c-.38,0-.7.07-.94.21s-.43.35-.57.62c-.14.27-.26.62-.35,1.04-.24,0-.47-.01-.7-.04-.23-.02-.44-.08-.61-.17.1-.4.18-.86.24-1.36.06-.5.1-.95.1-1.35.37.01.76.02,1.17.03.4.01.86.02,1.38.02h1.85c.66,0,1.25,0,1.76,0,.51,0,.98,0,1.4-.01s.82-.01,1.18-.02c0,.39.02.83.07,1.31.05.48.12.94.22,1.38-.18.08-.38.14-.61.17s-.47.05-.74.05c-.1-.65-.27-1.13-.52-1.43-.25-.3-.63-.45-1.15-.45h-3.19ZM265.86,282.92h2.56v6.96c0,.42.03.74.1.96s.2.37.4.45c.2.08.49.13.87.15.04.12.07.27.09.47.02.19.03.38.03.55-.29-.02-.66-.03-1.12-.04-.46,0-.96,0-1.51,0-.36,0-.74,0-1.14,0-.39,0-.76.01-1.09.01-.33,0-.6.01-.82.02,0-.17.02-.35.05-.55s.07-.36.11-.47c.38-.02.68-.07.89-.15.21-.08.36-.24.44-.45.08-.22.13-.54.13-.96v-6.96Z"/>
          <path class="cls-2" d="M273.86,282.38c.21.01.47.02.78.02.31,0,.65.01,1,.01.35,0,.69,0,1.01,0h.86v7.36c0,.42.03.76.1,1s.19.41.36.5c.17.09.42.14.73.14l-.47.99c-.27,0-.61,0-1.03,0-.42,0-.85.01-1.3.01-.45,0-.86.01-1.23.02s-.65,0-.81,0c0-.2,0-.39.02-.57.01-.18.04-.33.08-.45.27-.02.47-.07.61-.15.14-.08.24-.24.3-.46s.08-.55.08-.98v-4.91c0-.41-.03-.72-.08-.93-.05-.21-.15-.35-.3-.43-.14-.08-.35-.14-.63-.17-.04-.13-.06-.29-.07-.49-.01-.2-.01-.38-.01-.52ZM280.21,285.7c0,.24-.02.49-.04.77s-.02.59-.02.93c0,.37,0,.7.02.98s.03.53.04.76c-.24,0-.44-.01-.62-.03-.18-.02-.35-.05-.5-.1-.04-.43-.15-.72-.34-.86s-.52-.21-1.01-.21h-.89v-.99h.89c.52,0,.87-.08,1.04-.24.17-.16.26-.44.27-.84.16-.07.34-.11.55-.13s.41-.03.61-.03ZM281.5,282.38c0,.24.03.51.06.83.03.31.06.62.1.92.04.3.09.57.15.81-.16.07-.34.13-.54.17s-.45.07-.75.07c-.05-.34-.14-.64-.27-.91s-.34-.48-.63-.64c-.29-.15-.7-.23-1.23-.23h-1.46l.46-.97c.75,0,1.38,0,1.9,0,.52,0,.95,0,1.31-.01s.66-.01.9-.02ZM281.08,289.45c.28.03.53.09.76.17.23.08.41.18.52.3-.11.34-.2.73-.28,1.18s-.14.9-.18,1.35c-.27-.01-.61-.02-1.02-.02s-.85,0-1.32,0c-.47,0-.91,0-1.34,0l.47-.99h.21c.43,0,.79-.07,1.06-.21.27-.14.49-.36.66-.65s.32-.66.46-1.12Z"/>
        </g>
      </g>
    </g>
  </g>
</svg>