<?xml version="1.0" encoding="UTF-8"?>
<svg id="Capa_2" data-name="Capa 2" xmlns="http://www.w3.org/2000/svg" viewBox="0 0 575.08 232">
  <defs>
    <style>
      .cls-1 {
        fill: #fff;
      }

      .cls-2 {
        fill: #e7d2af;
      }

      .cls-3 {
        fill: #97999b;
      }
    </style>
  </defs>
  <g id="Capa_1-2" data-name="Capa 1">
    <g>
      <rect class="cls-3" width="575.08" height="232"/>
      <g>
        <g>
          <g>
            <g>
              <g>
                <path class="cls-2" d="M50.86,130.88c0,.51-.11.95-.31,1.33-.2.37-.49.65-.85.85-.37.19-.8.29-1.3.28-.4,0-.75-.08-1.07-.21-.32-.13-.59-.31-.82-.55-.23-.24-.4-.52-.52-.85-.12-.33-.17-.69-.17-1.09,0-.22.03-.45.07-.67.05-.23.11-.44.18-.65.08-.21.17-.38.28-.54l1,.55v.17s-1.26,1.04-1.26,1.04v-.88s.68,0,.68,0c-.15.09-.27.21-.35.36-.08.15-.13.33-.13.53,0,.27.08.51.24.72.17.21.39.39.68.51s.61.19.97.2c.4,0,.75-.05,1.05-.18.3-.13.53-.31.7-.55.17-.24.26-.53.26-.86,0-.25-.05-.45-.16-.62-.11-.17-.28-.31-.52-.42l.14-.26c.38.11.67.32.88.64.21.32.31.7.31,1.14ZM50.9,128.86l-.69,1.06-1.18-.02-.48.56h-.15s.03-2.17.03-2.17h.15s.42.38.42.38l1.9.03v.16Z"/>
                <path class="cls-2" d="M51.32,124.73c-.07.52-.23.96-.48,1.32-.25.36-.58.62-.98.78-.4.16-.85.21-1.35.14-.52-.07-.95-.24-1.3-.51-.35-.27-.6-.61-.75-1.04-.15-.42-.19-.91-.12-1.45.07-.53.23-.97.49-1.33.25-.36.58-.62.97-.78.4-.16.85-.21,1.35-.14.51.07.94.24,1.29.51.35.27.6.61.76,1.04.15.43.19.91.12,1.45ZM50.85,124.57c.03-.26-.01-.49-.14-.69-.13-.2-.32-.37-.59-.51-.27-.13-.61-.23-1.01-.28-.44-.06-.82-.06-1.15.01s-.6.19-.8.36-.32.4-.36.68c-.04.26,0,.5.13.7.12.2.32.37.59.5.27.13.61.23,1.01.28.43.06.82.06,1.15-.01.33-.07.6-.19.8-.36.2-.18.32-.4.36-.67Z"/>
                <path class="cls-2" d="M51.79,121.05l-.15-.04-.33-.59-3.47-.87-.57.37-.15-.04.42-1.67,4.67,1.18-.42,1.67ZM49.56,119.21l-.07-.02.16-1.1c.03-.21,0-.39-.1-.53-.1-.14-.27-.24-.49-.3-.54-.14-.88.08-1.03.65l-.24.95-.39-.1.27-1.08c.17-.66.37-1.12.62-1.39.25-.27.55-.35.91-.26.37.09.61.32.71.67.1.35.07.86-.1,1.52l-.25,1ZM52.06,119.98l-.39-.1.24-.94c.09-.36.08-.65-.04-.87-.12-.22-.33-.38-.66-.46-.3-.08-.55-.05-.75.06-.2.12-.34.32-.41.62l-.24.95-.34-.09.34-1.34c.15-.6.37-1.04.64-1.29.28-.26.61-.34,1-.24.32.08.56.23.73.46.17.23.27.53.29.91.02.38-.04.83-.17,1.35l-.24.96ZM49.99,117.54l-.24-.06.06-.26.24.06-.06.26Z"/>
                <path class="cls-2" d="M53.24,115.65l-.15-.05-.28-.62-3.38-1.16-.6.32-.15-.05.72-2.1.15.05.28.62,3.38,1.16.6-.32.15.05-.72,2.1Z"/>
                <path class="cls-2" d="M54.3,112.57l-.14-.06-.23-.64-3.28-1.42-.63.27-.14-.06.68-1.58,4.42,1.91-.68,1.58ZM51.82,107.44l-1.09,2.09-.3-.13.93-2.16.46.2ZM52.41,107.72l-1.17.58-.29-.13.32-.99.05-.12,1.16.49-.07.16ZM53.5,108.82l-.8,1.59-.29-.12.6-1.67.49.21ZM53.97,108.99l-.83.36-.27-.12-.3-.85.07-.16,1.4.6-.07.16ZM54.84,111.31l-.3-.13.77-2.23.46.2-.93,2.16ZM55.39,110.04l-.29-.13-.46-1.36.07-.16,1.16.55-.48,1.1Z"/>
                <path class="cls-2" d="M56.36,107.9l-.13-.07-.17-.66-3.12-1.74-.65.2-.13-.08.84-1.51,3.66,2.05.65-.2.13.07-1.08,1.94ZM55.02,106.07l-.33-.18.51-.92c.15-.26.18-.52.1-.77-.08-.25-.24-.45-.5-.59-.26-.14-.5-.18-.74-.11-.24.07-.43.24-.58.5l-.46.82-.35-.2.67-1.2c.31-.55.63-.91.98-1.08.35-.17.7-.15,1.08.06.38.21.59.52.62.94.04.42-.1.9-.41,1.45l-.02.03.09.05-.67,1.19ZM57.98,105l-2.54.07.14-1.18,2.96-.08-1.09.16,1.13-.35.13.08-.73,1.3Z"/>
                <path class="cls-2" d="M59.16,102.98l-.13-.09-.09-.68-2.68-2.08-.85.08-.13-.09.46-.65,3.61,2.16.67-.13.13.09-.99,1.4ZM61.37,99.88l-4.91.26-.79-.56.4-.57,4.68-.25.11.34-2.97-1.58-.67.13-.13-.09.99-1.4.13.09.09.68,3.43,2.43-.37.52Z"/>
                <path class="cls-2" d="M64.48,96.28c-.35.39-.73.66-1.15.82-.41.16-.83.19-1.25.1-.42-.09-.82-.3-1.2-.64-.39-.35-.65-.73-.79-1.15-.14-.42-.15-.85-.04-1.28.11-.44.35-.86.71-1.26.35-.39.74-.67,1.15-.82.41-.15.82-.19,1.24-.1.42.09.82.3,1.2.65.38.35.65.73.78,1.15.14.42.15.85.04,1.29-.11.44-.35.86-.71,1.26ZM64.18,95.88c.17-.19.27-.41.28-.65.01-.24-.06-.49-.21-.75-.15-.26-.37-.53-.67-.8-.33-.3-.65-.51-.96-.64s-.6-.18-.86-.15c-.26.03-.49.15-.68.36-.18.2-.27.41-.28.65s.06.49.21.75c.15.26.38.53.68.8.33.29.64.51.96.64.31.13.6.18.87.15.27-.03.49-.15.67-.36Z"/>
                <path class="cls-2" d="M68.76,91.79l-.1-.12.1-.67-2.23-2.79-.68-.06-.1-.12,1.35-1.08,3,3.77-1.35,1.08ZM69.75,91.01l-.25-.32.76-.61c.25-.2.41-.43.49-.7.08-.27.08-.56-.01-.87-.09-.31-.26-.62-.51-.94-.26-.33-.53-.57-.82-.73-.28-.16-.57-.23-.85-.22-.28.01-.54.12-.79.31l-.77.61-.25-.32.87-.7c.43-.35.87-.57,1.31-.67.44-.1.86-.09,1.25.04.39.13.74.39,1.04.76.23.28.38.59.46.91.08.32.09.65.03.98-.06.33-.19.65-.39.96-.2.31-.46.6-.79.86l-.78.62Z"/>
                <path class="cls-2" d="M73.62,88.03l-.08-.13.17-.66-1.92-3.01-.67-.13-.08-.13,1.45-.93,2.59,4.06-1.45.93ZM74.44,82.39l-2.08,1.12-.18-.28,1.98-1.26.27.42ZM74.78,82.95l-1.29-.17-.17-.27.82-.64.11-.07.68,1.06-.15.09ZM75.07,84.47l-1.55.86-.17-.26,1.44-1.05.28.45ZM75.36,84.87l-.89-.16-.16-.25.23-.87.15-.09.82,1.28-.15.09ZM74.77,87.29l-.18-.28,1.89-1.41.27.42-1.98,1.26ZM75.95,86.54l-.17-.27.38-1.39.15-.09.65,1.11-1.01.65Z"/>
                <path class="cls-2" d="M77.95,85.33l-.07-.14.23-.64-1.62-3.18-.65-.19-.07-.14,1.99-1.02.07.14-.24.65,1.91,3.74-1.54.78ZM79.17,84.71l-.15-.29,1.98-1.21.23.45-2.06,1.05ZM80.3,84.13l-.15-.29.41-1.52.16-.08.67,1.33-1.09.56Z"/>
                <path class="cls-2" d="M84.66,82.18l-.05-.15.32-.6-1.16-3.38-.62-.28-.05-.15,1.63-.56,1.57,4.56-1.63.56ZM86.79,76.88l-2.28.6-.11-.31,2.23-.76.16.48ZM86.91,79.06l-1.71.48-.1-.3,1.64-.68.17.5ZM86.98,77.51l-1.22-.47-.1-.3.95-.43.13-.04.41,1.19-.17.06ZM85.96,81.73l-.11-.31,2.17-.93.16.48-2.23.76ZM87.09,79.52l-.83-.37-.1-.28.43-.8.17-.06.49,1.44-.17.06ZM87.28,81.28l-.1-.3.7-1.26.16-.06.38,1.23-1.14.39Z"/>
                <path class="cls-2" d="M91.36,80.23c-.22.05-.43.08-.65.1-.22.01-.43,0-.65-.03-.22-.03-.43-.07-.63-.13l.22-1.1.17-.04,1.29.96-.83.2-.16-.66c.11.12.27.2.5.24.22.03.46.02.72-.04.27-.07.47-.18.58-.33.12-.16.15-.34.1-.57-.04-.19-.17-.32-.38-.4-.21-.08-.54-.13-1-.16-.38-.03-.69-.08-.94-.15s-.44-.19-.57-.34c-.13-.15-.23-.34-.29-.58-.11-.45-.03-.84.24-1.19.27-.34.68-.58,1.25-.72.19-.05.39-.07.6-.08.21-.01.42,0,.63.03.21.03.42.07.61.13l-.29,1.06-.17.04-1.26-.92.88-.21.15.67c-.12-.13-.27-.22-.47-.26-.19-.04-.4-.04-.61.01-.23.05-.4.15-.51.29-.12.14-.15.29-.11.46.04.18.17.31.38.39.21.08.54.14,1,.16.38.02.7.07.94.15.24.08.43.19.57.34.13.15.23.34.29.59.08.33.07.63-.04.91-.1.28-.29.52-.55.72-.26.2-.6.35-1,.45Z"/>
                <path class="cls-2" d="M93.81,75.99l-.18-1.42.15-.02,1.03-.05.1.31-.94,1.15-.17.02ZM95.46,79.28l-.02-.15.47-.54-.56-4.02.52.12-2,.46-.07-.5,4.27-.6.07.5-2.05.11.48-.26.56,4.02.6.39.02.15-2.28.32ZM98.25,75.37l-1.22-.85v-.33s1.01-.24,1.01-.24l.16-.02.22,1.41-.17.02Z"/>
                <path class="cls-2" d="M99.09,78.76v-.15s.5-.61.5-.61l-.33.67,1.9-4.81.78-.03,2.29,4.64-.39-.64.56.57v.15s-2.2.09-2.2.09v-.15s.66-.6.66-.6l.09.63-1.98-4.03h.24s-.99,4.14-.99,4.14l-.05-.63.72.54v.15s-1.81.08-1.81.08ZM100.23,77.32l-.02-.4,2.66-.11.02.4-2.66.11ZM101.03,74.61l-.58-.58v-.15s.87-.04.87-.04l-.3.77Z"/>
                <path class="cls-2" d="M105.21,78.56v-.15s.54-.43.54-.43l.26-3.57-.46-.5v-.15s1.73.13,1.73.13l-.35,4.8-1.72-.13ZM106.46,78.65l.03-.4.97.07c.32.02.59-.04.84-.18.24-.14.43-.36.58-.65.14-.29.23-.63.26-1.04.03-.42,0-.78-.11-1.09-.1-.31-.26-.55-.47-.73-.22-.18-.48-.28-.79-.31l-.98-.07.03-.4,1.11.08c.55.04,1.03.17,1.42.39.39.22.69.52.89.88.2.36.28.79.24,1.26-.03.36-.12.69-.28.98-.16.29-.38.54-.65.74-.27.2-.58.35-.94.44-.36.1-.74.13-1.16.1l-.99-.07Z"/>
                <path class="cls-2" d="M114.1,79.71c-.52-.1-.95-.29-1.29-.56-.34-.27-.59-.61-.72-1.02-.14-.41-.16-.86-.06-1.36.1-.51.3-.93.58-1.27.29-.33.65-.56,1.08-.69.43-.13.92-.14,1.45-.03.52.1.95.29,1.29.56.34.27.58.61.72,1.02.14.4.16.86.06,1.36-.1.51-.29.93-.58,1.26-.29.33-.65.57-1.08.69-.43.13-.92.14-1.45.03ZM114.29,79.25c.26.05.49.02.7-.09.21-.11.39-.3.54-.56.15-.26.26-.59.34-.99.09-.43.11-.82.06-1.15-.05-.33-.15-.61-.31-.82-.16-.21-.38-.34-.65-.4-.26-.05-.5-.02-.7.09-.21.11-.39.3-.54.56-.15.26-.26.6-.34.99-.08.43-.1.81-.06,1.15.05.34.15.61.31.82.16.21.38.34.65.4Z"/>
                <path class="cls-2" d="M120.15,81.09l.05-.14.63-.26,1.26-3.35-.3-.61.05-.14,1.61.61-1.69,4.51-1.61-.61ZM121.32,81.53l.14-.38.91.34c.3.11.58.13.85.06.27-.07.52-.22.74-.46.22-.24.4-.54.54-.92.15-.39.22-.75.21-1.07,0-.32-.09-.6-.25-.84s-.38-.41-.67-.52l-.92-.35.14-.38,1.05.39c.52.2.94.45,1.25.78.32.32.52.69.6,1.1.09.41.05.83-.12,1.28-.13.34-.31.63-.55.86-.24.23-.51.41-.83.52-.31.12-.66.17-1.03.16-.37,0-.75-.09-1.14-.24l-.93-.35Z"/>
                <path class="cls-2" d="M125.86,83.32l.07-.14.65-.2,1.6-3.2-.23-.64.07-.14,1.54.77-2.16,4.31-1.54-.77ZM127.09,83.94l.15-.29,2.18.9-.22.45-2.1-1.05ZM129.66,82.74l-1.54-.89.14-.28,1.64.69-.24.47ZM128.34,84.56l.14-.29,1.39-.38.16.08-.61,1.13-1.07-.54ZM131.13,81.13l-2.03-1.21.15-.29,2.1,1.05-.22.45ZM129.46,83.2l-.32-.85.13-.26.87-.25.16.08-.68,1.36-.16-.08ZM130.82,81.71l-.52-1.2.14-.29.97.38.12.06-.56,1.13-.16-.08Z"/>
                <path class="cls-2" d="M134.53,88.47c-.42-.3-.72-.63-.92-1.01-.19-.38-.27-.77-.22-1.18s.21-.82.5-1.23c.23-.32.49-.58.77-.77.29-.19.59-.31.92-.37.32-.06.66-.04.99.05.34.09.67.25,1,.48.18.13.35.28.51.44.16.16.3.34.43.52.13.18.22.36.28.53l-1.02.52-.14-.1-.15-1.62.72.51-.38.55c0-.18-.02-.34-.1-.5-.08-.16-.2-.29-.36-.41-.22-.15-.46-.22-.73-.2-.27.02-.54.11-.81.27-.27.16-.51.39-.72.69-.23.33-.38.65-.44.97-.06.32-.04.62.06.89.1.28.29.51.56.7.2.14.4.21.6.22.2,0,.41-.06.64-.19l.14.26c-.3.25-.64.37-1.02.37s-.75-.13-1.12-.39ZM136.19,89.64l-.49-1.16.68-.96-.19-.71.09-.13,1.77,1.25-.09.13-.55.13-1.1,1.55-.13-.09Z"/>
                <path class="cls-2" d="M142.93,89.78l-.12-.78.1-.12,1.35,1.2-.1.11-.73.03-1.57,1.78c-.25.29-.53.48-.84.59-.31.1-.62.12-.95.04-.32-.08-.63-.24-.93-.5-.52-.46-.81-.93-.88-1.42-.07-.48.1-.95.49-1.4l1.63-1.84-.06-.68.1-.12,1.66,1.47-.1.12-.68.02-1.49,1.68c-.31.36-.48.68-.5.98-.02.29.11.56.39.81.28.24.56.34.85.28.29-.05.59-.26.91-.61l1.46-1.65Z"/>
                <path class="cls-2" d="M141.3,93.9l.11-.1h.8s-.72.17-.72.17l4.9-1.65.53.58-2.07,4.74.24-.71-.07.8-.11.1-1.49-1.63.11-.1.89.12-.43.48,1.8-4.11.17.18-3.81,1.92.45-.44.06.9-.11.1-1.23-1.34ZM143.14,93.84l.3-.27,1.8,1.96-.3.27-1.8-1.96ZM145.73,92.71l.07-.81.11-.1.59.65-.78.27Z"/>
                <path class="cls-2" d="M145.4,98.45l.12-.09.67.12,2.83-1.88.2-.83.12-.09.47.65-3.19,2.74-.09.68-.12.09-1.01-1.39ZM147.65,101.53l1.31-4.74.78-.57.41.56-1.25,4.52h-.35s2.44-2.32,2.44-2.32l.09-.68.12-.09,1.01,1.39-.12.09-.67-.13-3.4,2.48-.37-.51Z"/>
                <path class="cls-2" d="M148.65,102.93l.13-.08.78.16-.75.02,5.14-.54.39.68-3.05,4.17.39-.64-.25.76-.13.08-1.1-1.91.13-.08.84.31-.52.37,2.65-3.62.12.21-4.14,1.04.53-.33-.14.89-.13.08-.91-1.57ZM150.45,103.28l.35-.2,1.33,2.31-.35.2-1.33-2.31ZM153.22,102.74l.25-.78.13-.08.44.76-.82.09Z"/>
                <path class="cls-2" d="M152.19,109.81c-.08-.19-.14-.4-.17-.62-.03-.23-.03-.46,0-.69.03-.23.08-.44.16-.63l1.12.14.07.16-.93,1.28-.32-.71.99-.44c-.26.24-.42.46-.49.66-.07.2-.06.42.05.64.09.19.23.31.44.34.21.04.46,0,.75-.14l2.53-1.13.23-.64.14-.06.9,2.03-.14.06-.63-.26-2.34,1.04c-.51.23-.97.25-1.38.07-.41-.18-.74-.55-.99-1.1Z"/>
                <path class="cls-2" d="M158.76,115.14l.29-.74.15-.05.56,1.72-.15.05-.65-.34-2.26.74c-.36.12-.7.15-1.02.08-.32-.06-.6-.21-.84-.44s-.42-.53-.55-.9c-.22-.66-.23-1.21-.04-1.66.19-.45.56-.77,1.13-.96l2.34-.77.29-.62.15-.05.69,2.11-.15.05-.6-.33-2.13.7c-.45.15-.76.34-.92.59-.16.24-.19.54-.07.89.11.35.31.57.59.67.28.1.64.08,1.09-.07l2.09-.69Z"/>
                <path class="cls-2" d="M155.27,117.87l.15-.03.69.39-.72-.21,5.06,1.04.17.76-4.17,3.05.56-.49-.47.65-.15.03-.47-2.16.15-.03.71.55-.61.2,3.62-2.65.05.24-4.26-.26.61-.15-.4.8-.15.03-.39-1.77ZM156.89,118.75l.4-.09.57,2.6-.4.09-.57-2.6ZM159.69,119.07l.47-.67.15-.03.19.86-.81-.16Z"/>
                <path class="cls-2" d="M156.56,124.43l.15-.02.53.48,4.03-.48-.13.52-.41-2.01.5-.06.51,4.28-.5.06-.07-2.05.25.48-4.03.48-.4.59-.15.02-.27-2.29ZM159.88,122.85l1.42-.15.02.15.02,1.03-.31.09-1.13-.96-.02-.17ZM160.41,127.3l.88-1.2.33.02.22,1.01.02.16-1.42.19-.02-.17Z"/>
                <path class="cls-2" d="M156.95,131.35c0-.53.09-.99.29-1.38s.48-.7.86-.91c.37-.22.81-.33,1.32-.33.52,0,.97.1,1.36.32s.68.52.89.92c.21.4.32.87.33,1.42,0,.53-.09.99-.29,1.38-.2.39-.48.69-.85.91-.37.22-.81.33-1.32.33-.52,0-.97-.1-1.35-.32s-.68-.52-.9-.92c-.21-.4-.32-.87-.33-1.41ZM157.44,131.44c0,.26.08.48.23.67.15.18.37.32.66.42s.63.14,1.04.14c.44,0,.82-.06,1.14-.17.32-.11.56-.27.74-.47.17-.2.26-.44.26-.72,0-.27-.08-.49-.23-.67-.15-.18-.37-.32-.66-.41-.29-.09-.64-.14-1.04-.13-.44,0-.82.06-1.14.17-.32.11-.57.27-.74.47-.17.2-.26.44-.26.72Z"/>
              </g>
              <g>
                <path class="cls-2" d="M61.05,169.53l.09-.25,1.09.07c.56.04,1.03.05,1.4.04.37-.01.66-.05.89-.12.23-.07.41-.16.55-.29.22-.19.34-.4.37-.63.03-.23-.04-.43-.2-.62-.11-.13-.26-.22-.42-.27-.17-.05-.33-.06-.5-.03l.5-.4.5.57-1.4.17-.11-.12.36-1.06c.19.06.37.14.54.24s.34.21.49.33c.16.13.3.26.43.41.43.48.68.92.75,1.3.08.39-.02.71-.3.95-.12.11-.28.19-.46.24-.19.05-.42.07-.69.07-.28,0-.61-.04-1.01-.11-.4-.07-.87-.17-1.42-.29l-.48-.06.2-.1,1.35,1.53.99.07.11.13-1.18,1.01-2.45-2.77Z"/>
                <path class="cls-2" d="M67.31,176.07c-.34-.3-.57-.63-.69-.98-.12-.36-.13-.73-.04-1.11.1-.38.3-.75.62-1.11.34-.39.7-.67,1.08-.83.38-.16.76-.22,1.14-.15.38.06.74.24,1.08.54.34.29.56.62.68.98.12.36.13.73.04,1.11-.1.38-.3.75-.62,1.11-.34.39-.7.66-1.08.83-.38.17-.76.22-1.14.16-.38-.06-.74-.24-1.07-.53ZM67.59,175.75c.15.13.32.19.52.17.19-.02.41-.11.64-.28s.5-.42.78-.75c.45-.52.73-.95.85-1.31.12-.36.06-.64-.17-.84-.15-.14-.33-.19-.52-.18-.19.02-.41.11-.64.28-.24.17-.5.42-.79.74-.45.52-.73.95-.85,1.32-.11.36-.06.64.17.84Z"/>
                <path class="cls-2" d="M71.33,179.19l.02-.26,1.07-.2c.56-.1,1.01-.21,1.36-.31.35-.1.63-.21.83-.33.2-.12.36-.26.46-.41.16-.24.23-.47.21-.7-.03-.23-.14-.41-.35-.55-.14-.1-.3-.15-.48-.16-.17-.01-.34.02-.49.1l.39-.51.63.43-1.31.5-.14-.09.09-1.12c.2.01.4.04.59.09.19.05.38.12.56.2.18.08.36.18.52.29.53.36.88.72,1.05,1.08s.15.69-.06,1c-.09.14-.22.25-.39.35s-.38.17-.65.24c-.27.06-.6.11-1.01.14s-.89.05-1.45.06l-.48.06.17-.15,1.69,1.15.98-.17.14.1-.9,1.27-3.06-2.08Z"/>
                <path class="cls-2" d="M77.48,181.84v-.23s3.16-2.11,3.16-2.11l1.42.73-.08.16-4.19,1.38-.08.12-.23-.04ZM77.48,181.84l.44-.29,3.64,1.87-.21.41-3.87-1.98ZM78.31,183.51l.07-.13.76-.06.89-1.73.17-.06.91.47-.95,1.85.4.65-.07.13-2.18-1.12Z"/>
              </g>
              <g>
                <path class="cls-2" d="M129.49,183.74l-.22-.14.32-1.04c.17-.54.29-.99.37-1.35.08-.36.11-.66.1-.89,0-.23-.06-.44-.15-.6-.14-.26-.31-.43-.52-.51-.21-.08-.43-.07-.65.05-.15.08-.28.2-.37.34-.09.15-.14.31-.14.48l-.27-.58.67-.35-.17,1.39-.15.08-.95-.6c.11-.17.22-.33.36-.47.13-.14.28-.28.44-.4.16-.12.33-.23.5-.32.57-.3,1.05-.44,1.45-.42s.68.19.85.52c.08.15.12.32.12.51,0,.19-.03.42-.1.69s-.19.59-.35.96c-.16.37-.37.81-.62,1.31l-.17.45-.05-.22,1.81-.95.31-.94.15-.08.7,1.39-3.28,1.72Z"/>
                <path class="cls-2" d="M137.34,179.24c-.37.26-.74.4-1.12.43s-.74-.05-1.08-.23c-.35-.19-.65-.47-.93-.87-.3-.43-.48-.84-.54-1.25-.07-.41-.02-.79.13-1.14.15-.35.41-.66.78-.92.37-.25.74-.4,1.11-.43.38-.03.74.05,1.08.23s.65.48.93.87c.29.42.47.84.54,1.25.07.41.03.79-.12,1.15-.15.35-.41.66-.78.91ZM137.09,178.89c.16-.11.26-.27.29-.46.03-.19,0-.42-.11-.69-.11-.27-.29-.59-.53-.94-.39-.56-.75-.94-1.07-1.14-.32-.2-.61-.21-.85-.04-.17.12-.27.27-.3.46-.03.19,0,.42.11.69.11.27.28.59.53.94.39.56.75.94,1.07,1.14.32.2.61.21.86.04Z"/>
                <path class="cls-2" d="M140.74,173.28l-.12-.14c.14-.13.24-.27.3-.43.06-.16.08-.32.06-.47-.02-.16-.08-.3-.19-.42-.14-.16-.32-.24-.53-.25-.21,0-.4.08-.59.24-.14.12-.25.27-.33.42-.08.16-.12.33-.13.51l-.35-.44.57-.61.18,1.48-.13.11-1.06-.36c.1-.28.24-.55.42-.81.18-.26.41-.51.68-.75.28-.25.56-.43.83-.55s.51-.16.74-.14c.22.02.41.12.56.29.25.28.29.61.14,1-.15.39-.51.83-1.06,1.31ZM142.71,175.02c-.28.24-.56.44-.84.58s-.59.24-.9.3l-.25-1.11.13-.11,1.47.37-.64.48-.41-.42c.19.04.37.03.54-.02.17-.05.34-.15.5-.29.14-.12.23-.26.28-.41.05-.15.06-.31.02-.47-.04-.16-.11-.31-.23-.44-.12-.14-.27-.24-.44-.28-.17-.05-.34-.05-.52,0s-.35.13-.5.27l-.24-.28c.59-.52,1.1-.83,1.54-.92.44-.1.8.02,1.09.34.19.22.3.46.32.73.02.27-.05.55-.2.84-.15.29-.38.57-.7.85ZM141.25,172.89l-.12-.14.24-.21.12.14-.24.21Z"/>
                <path class="cls-2" d="M147.95,169.79c-.3.34-.63.57-.99.68-.36.12-.73.13-1.11.03-.38-.1-.75-.31-1.11-.62-.39-.34-.66-.71-.83-1.09-.16-.38-.21-.76-.15-1.14.06-.38.24-.74.54-1.08.3-.33.62-.56.98-.68.36-.12.73-.13,1.11-.03.38.1.75.31,1.11.62.39.34.66.7.83,1.08.16.38.21.76.15,1.14-.06.38-.24.74-.54,1.07ZM147.63,169.51c.13-.15.19-.32.18-.51-.02-.19-.11-.41-.28-.65-.17-.24-.42-.5-.74-.79-.51-.45-.95-.74-1.31-.86-.36-.12-.64-.06-.84.16-.14.15-.2.33-.18.52.02.19.11.41.28.65s.41.5.74.79c.51.45.95.74,1.31.85.36.12.64.06.84-.17Z"/>
              </g>
            </g>
            <g>
              <path class="cls-2" d="M115.97,155.29c.54-.36,1.21-1,1.94-1.77-.08.11-.18.21-.28.31-.1.08-.2.18-.28.3-.2.2-.38.36-.56.53-.3.26-.57.49-.82.64Z"/>
              <path class="cls-2" d="M116.29,155.83c-.13-.1-.26-.18-.39-.26v.02c-.1-.1-.16-.16-.16-.16.03-.02.06-.03.1-.05,0,0,.16.15.46.46Z"/>
              <path class="cls-2" d="M77.36,101.18c0,2.34-1.99,4.24-4.45,4.24-.3,0-.6-.03-.89-.08,2.29-.18,4.09-2.01,4.09-4.24,0-2.05-1.52-3.77-3.56-4.16.12,0,.24-.02.36-.02,2.46,0,4.45,1.9,4.45,4.25Z"/>
              <path class="cls-2" d="M135.01,115.36l-1.87,8.69-12.52-4.81c.21-.03.53-.09,1-.21,1.36-.39,13.4-3.67,13.4-3.67Z"/>
              <path class="cls-2" d="M66.76,103.53l-3.03,1.55c.36-.54.72-1.07,1.1-1.6l1.75-.47c.06.18.11.35.18.51Z"/>
              <path class="cls-2" d="M66.4,102.2l-.75.2c.15-.2.3-.39.45-.59h.21c.01.12.04.26.09.39Z"/>
              <path class="cls-2" d="M67.38,104.72c-1.49,1.21-3.71,3.02-6.52,5.33.6-1.21,1.25-2.38,1.95-3.53l4.32-2.23c.08.15.17.3.26.44Z"/>
              <path class="cls-2" d="M68.21,105.73l-.98,1.22c-.15.06-.27.12-.38.2,0,0-.03.14-.03.3v.02l-9.44,11.77c.68-2.55,1.55-5.02,2.62-7.38,3.47-2.85,6.19-5.08,7.91-6.47.08.12.18.24.3.35Z"/>
              <path class="cls-2" d="M67.45,110.26l-11.63,23.41c-.03-.69-.04-1.4-.04-2.11,0-3.56.39-7.03,1.13-10.36l10.35-12.91c0,.42.03,1.15.2,1.98Z"/>
              <path class="cls-2" d="M68.84,113.24l-9.64,36.16c-1.76-4.41-2.88-9.11-3.27-14.02l11.87-23.93c.05.14.11.26.17.39.24.54.56,1.01.87,1.39Z"/>
              <path class="cls-2" d="M70.7,124.38l-2.35,39.59c-3.56-3.89-6.49-8.39-8.61-13.29l8.84-33.1c.03.09.06.26-.03.41-.12.2-.14.59-.03.83.11.24.15.77.15.89-.02.11,0,.84.45,1.6.38.63.95,1.15,1.58,3.08Z"/>
              <path class="cls-2" d="M70.3,114.6s-.6.03-1.03.3l.24-.92c.44.41.78.62.78.62Z"/>
              <path class="cls-2" d="M83.05,174.93c-5.24-2.52-9.93-5.96-13.91-10.11l2.25-37.81c.69,3.12,1.49,7.35,1.49,7.35,0,0,.72,4.6.88,5.39.11.63,1.24,4.5,1.75,6.06,0,.06,0,.12.01.18.39,1.21,1.45,3.86,3.83,4.01l3.7,24.92Z"/>
              <path class="cls-2" d="M94.31,161.48c-.47,1.09-.95,2.38-1.46,4.01-1.63,5.2-2.53,9.52-3,12.1-2.01-.6-3.97-1.36-5.85-2.22l-3.77-25.4c.47-.08,1.01-.26,1.58-.54,2.14-1.07,4.6-2.84,6.49-4.3l6.02,16.35Z"/>
              <path class="cls-2" d="M94.79,160.37l-5.81-15.8c1.45-1.16,2.43-2.02,2.43-2.02-.78-1.76-.14-6.03-.14-6.03,0,0,.09,2.6.88,5.9.78,3.29,3.86,6.73,4.69,10.71.62,2.96-.39,3.64-2.05,7.24Z"/>
              <path class="cls-2" d="M98.82,105.78c-1,1.49-1.42,3.2-1.7,4.41l-18.36-7.08c.06-.18.11-.35.14-.53l19.93,3.2Z"/>
              <path class="cls-2" d="M96.9,111c-.36,1.34-.71,3.09-.93,4.81l-17.73-11.5c.08-.14.15-.27.21-.42l18.45,7.11Z"/>
              <path class="cls-2" d="M95.86,116.74c-.09.8-.14,1.57-.14,2.28,0,2.07-.84,3.53-1.13,3.98l-17.2-17.55c.15-.14.27-.29.36-.44l18.1,11.72Z"/>
              <path class="cls-2" d="M94.05,123.67c-1.67,2.25-2.04,5.05-2.04,5.05,0,0-.3.27-.95.91l-13.34-21.2c.12-.14.24-.5-.11-.74-.11-.08-.3-.17-.53-.26l-.68-1.09c.14-.08.26-.18.38-.29l17.26,17.61Z"/>
              <path class="cls-2" d="M90.43,130.26c-.42.42-.92.95-1.52,1.57-.84.89-2.02,2.43-3.17,3.98l-9.07-24.62s.01-.01.01-.03c.29-.88.45-1.49.53-1.9l13.22,21Z"/>
              <path class="cls-2" d="M85.15,136.63c-1.39,1.92-2.59,3.71-2.88,4.12-.08-.45-.38-1.86-1.13-3.64,0,0-1.39-2.9-2.47-4.77-.41-.71-.97-1.84-1.52-3.02l-1.87-12.61c.11-.12.21-.3.23-.62.02-.35-.21-.57-.42-.71l-.24-1.61c.44-.38.95-.89,1.34-1.52l8.98,24.38Z"/>
              <path class="cls-2" d="M75.86,126.43c-.3-.69-.53-1.22-.6-1.43-.27-.74-.83-2.32-.6-3.64,0,0,.17-.68.3-1.01l.91,6.08Z"/>
              <path class="cls-2" d="M74.14,93.66l-.38,1.31c-.19-.03-.37-.05-.56-.07l.03-.49c.3-.26.59-.52.9-.75Z"/>
              <path class="cls-2" d="M76.94,91.59l-1.96,3.72c-.16-.06-.3-.11-.46-.16l.68-2.31c.57-.43,1.15-.86,1.74-1.25Z"/>
              <path class="cls-2" d="M82.44,88.37l-6.29,7.59c-.14-.11-.29-.2-.45-.28l2.64-5c1.33-.83,2.68-1.6,4.1-2.31Z"/>
              <path class="cls-2" d="M92.66,84.64l-15.51,12.17c-.11-.12-.23-.24-.35-.34l7.4-8.91.02-.02c2.7-1.22,5.52-2.2,8.45-2.91Z"/>
              <path class="cls-2" d="M107.29,83.38l-29.33,14.5c-.08-.15-.17-.29-.29-.43l16.83-13.21c3.13-.62,6.37-.96,9.69-.96,1.03,0,2.07.03,3.1.09Z"/>
              <path class="cls-2" d="M123.54,87.25l-45.03,11.82c-.05-.15-.11-.3-.18-.46l30.63-15.13c5.13.5,10.03,1.8,14.58,3.76Z"/>
              <path class="cls-2" d="M138.36,97.14l-59.37,3.27c-.03-.17-.06-.33-.11-.5l45.99-12.09c5.02,2.33,9.58,5.5,13.49,9.32Z"/>
              <path class="cls-2" d="M147.85,111.33h.02c-.62-1.36-1.3-2.67-2.05-3.95l-4.3,1.25,1.21-5.93c2.38,3.14,4.39,6.56,5.94,10.24l-3.91-.63,3.09-.98Z"/>
              <path class="cls-2" d="M138.56,97.98l-.02.1-2.74,12.41-.8.25-23.32-3.73-.16-.03c-.08-.18-.16-.31-.26-.46.03.03.07.07.08.1.03.03.05.05.07.07,0-.02-.02-.03-.02-.05-.02-.05-.05-.15-.1-.26-.05-.11-.11-.25-.21-.41-.05-.1-.13-.21-.2-.33-.1-.13-.2-.26-.33-.41-.11-.13-.25-.28-.39-.43-.13-.13-.3-.28-.48-.43-.18-.15-.39-.31-.62-.46-2.08-1.43-4.22-1.25-4.22-1.25-2.63.08-4.32,1.07-5.45,2.36l-20.36-3.28c0-.16.02-.33.02-.49l59.52-3.27Z"/>
              <path class="cls-2" d="M133.26,111.31l-9.14,2.99s-2.04.64-3.12,2.23c-.89,1.3-1.21,2.03-1.03,2.45l-6.19-2.38c-.07-1.39-.13-2.86-.61-4.78-.07-.28-.13-.54-.21-.8,0-.02-.02-.05-.02-.07-.05-.2-.11-.38-.18-.56-.02-.08-.03-.15-.07-.23-.2-.82-.44-1.59-.72-2.26l.13.02,21.15,3.4Z"/>
              <path class="cls-2" d="M152.4,131.47l-14.21-5.48,2.35-12.36,2.4-.75,6.09.97c2.16,5.46,3.35,11.4,3.36,17.62Z"/>
              <path class="cls-2" d="M152.39,132.36c-.09,6.23-1.39,12.19-3.65,17.64l-13.44-8.7.91-4.75c.54-.78,1.49-2.19,1.98-3.18.68-1.43.06-1.22.06-2.19s.27-1.03-.27-1.45c-.18-.12-.3-.26-.41-.36l.48-2.52,14.35,5.52Z"/>
              <path class="cls-2" d="M132.96,124.88l-2.81,13.08-5.39-3.5c-.71-1.3-1.54-2.55-2.53-3.59-1.81-1.92-3.18-2.9-4.07-3.41-.65-1.4-1.6-2.53-2.34-3.49-1.31-1.67-1.66-2.53-1.9-4.83-.06-.56-.09-1.09-.11-1.63l19.14,7.36Z"/>
              <path class="cls-2" d="M129.97,138.83l-1.28,5.96c-.26-.69-.51-1.42-.74-2.08-.42-1.25-1.16-3.98-2.44-6.76l4.47,2.88Z"/>
              <path class="cls-2" d="M126.98,153.46l-.48,2.11-5.51-5.63c.86-.89,1.43-1.77,1.69-2.2,1.46,2.87,3.36,5.01,4.3,5.72Z"/>
              <path class="cls-2" d="M148.41,150.78c-2.63,5.99-6.43,11.36-11.13,15.8l-5.69-5.81,3.55-18.59,13.28,8.6Z"/>
              <path class="cls-2" d="M118.08,157.19c-.11-.09-.24-.17-.35-.26,0,0,0,0,0,0,.11.08.23.16.34.26Z"/>
              <path class="cls-2" d="M126.27,156.55l-1.9,8.3s-.26-.53-.79-1.38c-.05-.1-.13-.2-.2-.31-.11-.18-.25-.38-.39-.59-.15-.21-.3-.43-.46-.66-.05-.08-.1-.15-.18-.23-.16-.23-.34-.46-.54-.69-.15-.21-.33-.43-.52-.66-.16-.21-.34-.43-.57-.66-.2-.21-.41-.44-.62-.66-.23-.25-.48-.48-.72-.71-.25-.25-.51-.48-.77-.71-.16-.16-.33-.31-.51-.43-.56-.49-1.15-.94-1.79-1.36-.13-.1-.26-.18-.39-.26v.02c-.1-.1-.16-.16-.16-.16.03-.02.06-.03.1-.05.03-.03.08-.05.13-.08.1-.07.21-.15.31-.23.05-.03.08-.07.12-.1.08-.05.16-.11.23-.18.08-.07.16-.15.25-.23.16-.15.33-.31.51-.48.16-.18.34-.36.52-.56.21-.23.41-.46.62-.69.21-.25.43-.49.62-.74.21-.26.43-.51.64-.77.2-.25.39-.49.61-.74l5.87,5.97Z"/>
              <path class="cls-2" d="M136.65,167.15c-2.32,2.11-4.87,4.01-7.57,5.66l.03-.09.69-2.56,1.6-8.37,5.25,5.37Z"/>
            </g>
            <path class="cls-2" d="M66.31,101.81h-.21c.06-.08.12-.15.17-.21.02.06.03.14.05.21Z"/>
            <path class="cls-2" d="M75.83,107.03c-.14-.03-.27-.06-.39-.08.09-.05.18-.09.26-.14l.14.21Z"/>
            <path class="cls-2" d="M77.36,101.18c0,2.34-1.99,4.24-4.45,4.24-.3,0-.6-.03-.89-.08,2.29-.18,4.09-2.01,4.09-4.24,0-2.05-1.52-3.77-3.56-4.16.12,0,.24-.02.36-.02,2.46,0,4.45,1.9,4.45,4.25Z"/>
            <path class="cls-2" d="M126.99,153.45v.02l-.49,2.12-.23.97-1.9,8.3s-.26-.53-.79-1.38c-.05-.1-.13-.2-.2-.31-.11-.18-.25-.39-.39-.59-.13-.21-.3-.43-.46-.66-.05-.08-.1-.15-.18-.23-.15-.23-.33-.46-.54-.69-.15-.21-.33-.43-.52-.66-.16-.21-.34-.43-.57-.66-.18-.21-.39-.44-.62-.66-.23-.25-.48-.48-.72-.71-.25-.25-.51-.49-.77-.71-.16-.16-.33-.31-.51-.43-.56-.49-1.15-.94-1.79-1.36-.13-.1-.26-.18-.39-.26v.02c-.28-.16-.44-.23-.51-.25.05-.03.08-.07.12-.1,2.53-1.85,4.36-4.1,5.6-5.91.07-.08.12-.16.16-.25.12-.18.21-.34.31-.51.34-.52.62-.98.84-1.38.08.18.18.36.28.54.15.3.3.61.48.89.05.1.11.2.16.3.15.26.29.51.46.74.03.05.07.1.1.15.02.03.03.07.07.1.15.25.31.49.49.72.2.28.39.54.59.79.67.87,1.31,1.51,1.77,1.9.06.05.13.08.18.13Z"/>
            <polygon class="cls-2" points="115.37 155.33 115.38 155.33 115.38 155.33 115.37 155.33"/>
            <path class="cls-2" d="M73.67,96.8s-.03,0-.05,0c.01,0,.02,0,.03.01,0,0,.01,0,.02-.01Z"/>
            <path class="cls-2" d="M73.61,97.63s.04-.03.09-.07c-.06.02-.09.04-.09.07Z"/>
            <polygon class="cls-2" points="73.34 104.17 73.34 104.18 73.34 104.17 73.34 104.17"/>
            <path class="cls-2" d="M115.38,155.33s0,0,0,0c0,0,0,0,.02,0,.04-.03.08-.07.11-.1-.04.03-.09.07-.13.1Z"/>
            <path class="cls-2" d="M73.67,96.8s-.01,0-.02.01c-.01,0-.02,0-.03-.01.02,0,.03,0,.05,0Z"/>
            <path class="cls-2" d="M73.71,97.57s-.08.07-.09.07c0-.02.04-.05.09-.07Z"/>
            <polygon class="cls-2" points="73.34 104.17 73.34 104.17 73.34 104.18 73.34 104.17"/>
            <g>
              <g>
                <path class="cls-2" d="M125.66,188.73s-.05.02-.07.03c0-.23,0-.48-.02-.74.03-.02.05-.02.08-.03,0-.71,0-1.49-.02-2.31v-.03c-.02-2.69-.08-5.69-.2-6.94-.25-2.53-1.1-12.04-3.86-16.26-.2-.31-.41-.61-.61-.9l-.02-.02s-.07-.08-.08-.13c-.52-.94-1.08-1.82-1.67-2.54-1.12-1.38-2.03-2.28-2.69-2.82.08.07.16.13.26.2.31.2.62.43.9.67.02,0,.03.02.05.03-.46-.38-.93-.75-1.44-1.1-.13-.1-.26-.18-.39-.26v.02c-.1-.1-.16-.16-.16-.16.03-.02.06-.03.1-.05.03-.03.08-.05.13-.08.41-.26.89-.71,1.41-1.21.16-.18.34-.36.52-.56.21-.23.41-.46.62-.69.21-.25.43-.49.62-.74.21-.26.43-.51.64-.77.2-.25.39-.49.61-.74v-.02c.07-.07.11-.13.16-.2-.05.07-.12.11-.18.18l-.33.26s.13-.15.26-.33c.13-.16.3-.41.49-.69v-.02c.1-.13.2-.28.29-.44.07-.08.12-.16.16-.25.41-.64.84-1.41,1.2-2.26.62-1.74,1.08-4.4-.34-7.22,0,0-1.51-3.35-7.58-5.71-6.09-2.38-8.09-3.05-9.53-3.73-1.41-.64-3.05-1.38-3.58-3.99.2.53,1.17,2.36,5.38,2.94,4.94.67,9.73,1.61,13.21,4.02.77.53,1.41,1.08,1.95,1.67-.54-.87-1.13-1.62-1.69-2.23-.84-.95-1.64-1.62-2.18-2.03-.18-.13-.35-.23-.54-.34-.57-.26-1.33-.57-2.2-.8-.77-.25-1.66-.44-2.58-.56,0,0-1.58-.41-2.77-2.81-.03-.05-.05-.11-.08-.16-.23-.49-.41-.95-.54-1.36-.48-1.49-.36-2.35-.36-2.35,0,0-1.31.38-2.44.53-.26.02-.53.03-.75.03,0,0-.02-.16.18-.41.2-.3.69-.71,1.79-1.13,1.87-.75,2.45-3.63,2.53-5.01.03-.16.03-.3.03-.41,0-.16,0-.33-.02-.49-.02-.95-.07-1.94-.07-1.94,0,0-.98-1.38-1.95-2.03-.95-.66-1.1-.23-1.33,0-.23.25-1.15.39-1.69-.39-.54-.82-.48-1.41-.48-1.41,0,0,2.61,0,4.74,1.76,0,0,.87.77,1.07,1.02.21.26.46.46.54.13.08-.36-.61-1.18-1.31-1.87.16.11.82.54,1.2.98.39.51.51.21.38-.05-.13-.25-1.76-1.77-2.58-2.35,0,0,1,.41,1.51.87.51.48.82.54.77.16-.05-.26-1.21-1.87-3.15-2.89-.77-.41-1.64-.71-2.63-.82-.71-.07-1.39-.03-2.02.07-2.51.44-4.41,2.07-5.15,3.27,0,0-.38.51-.28.72v.02s.05.03.1.02c.26-.02.89-.48,1.54-.92.8-.49,1.03-.49,1.03-.49,0,0-1.13.69-1.82,1.43-.05.08-.11.15-.18.2-.49.57-.39.74-.21.69.08-.03.29-.25.61-.53.38-.36.92-.79,1.54-1.1-.2.16-.89.69-1.33,1.18-.12.11-.21.25-.28.34-.3.51.16.2.72-.18.15-.08.29-.2.44-.28.69-.43,2-1.3,4.27-1.38,0,0,.13,2.12.13,2.56,0,.33-.21.61-.46.79-.12.11-.25.18-.34.21-.33.1-.56.1-.41-.28.03-.05.05-.11.08-.18.13-.48.15-1.13.07-1.58-.08-.46-.23-.82-1.26-.34-.44.21-.97.54-1.39.9-.28.21-.54.44-.74.64-.18.18-.34.36-.43.49-.36.52-.46.92-.13,1.82.36.92,1.1,2.54,1.25,3,.15.48.43,1.41.98,1.15.54-.25,2.49-1.43,3.69-1,1.2.43,1.74.89,2.3.92.48.05.95-.05,1.1-.08-.33.2-2.9,1.76-3.68,2.05-.41.15-.77.21-1.23.36-.28.07-.59.2-.98.38-.25.1-.51.26-.82.44-1.67.94-1.51,2.43-1.51,3.53-.02,1.08.05,2.1,1.26,4.14,0,0,2.27,4.05,7.91,7.4,5.64,3.35,7.88,4.63,9.16,8.11.38,1.02.48,2.12.36,3.25-.03.33-.1.69-.18,1.03-.49,2.26-1.84,4.46-3.56,6.04l-.07-.03c.46-.87,2.1-4.74-2.31-9.01,0,0-2.08-2.17-6.45-3.77-4.36-1.59-11.8-5.89-11.58-11.18,0,0-1.23,5.1,3.1,8.62,0,0,1.66,1.44,5.84,3.77,4.17,2.33,6.68,3.79,7.4,6.88.74,3.07-1.31,5.05-2.63,6.33-.1.1-.23.25-.38.39-.18.2-.38.43-.57.71-1.51,1.92-3.69,5.51-4.41,9.81-.77,4.46-.72,8.2-.43,11.96v.02c0,.08,0,.16.02.23,0,.07.02.15.02.2.02.15.03.33.05.49,0,.1.02.2.03.31.08,1,.25,2.51.48,4.23,0,.05,0,.11.02.15.05.3.1.59.13.89.05.26.1.56.15.82.05.31.1.61.16.92.36,1.9.77,3.68,1.1,4.94,0,.03.02.05.02.08.07.2.1.38.16.54.1.26.18.53.28.79.02.08.05.16.08.21l.16.02c10.57-.11,18.43-3.31,18.43-3.31l.8-.31.57-.23s0-.79-.02-1.97ZM105.53,112.39c.25.02.54.34.54.34.15.08.16.2.08.23-.11.05-.62-.13-.82-.25-.2-.13-.05-.34.2-.33ZM105.44,116.1c-.34-.07-.89.03-1.23,0-.33-.05-.67-.08-.34-.34.33-.26,1.02-.18,1.02-.18.53-.02,1.08.26,1.12.39.05.15-.18.18-.56.13ZM106.4,115.23c-.18-.08-.56-.36-1.23-.56-.67-.2-1.36.13-1.36.13,0,0-.05.02-.2.1-.12.08-.53.49-.95.51-.39.02-.33-.15-.26-.16.07,0,.31-.16.62-.43.29-.28.9-.56,1.66-.62.33-.03.61.03.85.11.08.02.13.05.2.08.2.08.36.2.46.26.26.18.75.54.71.62-.05.11-.31.03-.49-.05ZM117.49,139.11s-2.63-2.05-5.3-3.22c-2.67-1.17-5.69-3.22-6.01-3.71,0,0,2.74,1.46,8.29,3.74,5.56,2.25,7.81,5.94,6.29,10.09.07-.44.49-3.61-3.27-6.91ZM109.78,194.36c-2.66-5.23-3.91-10.27-4.35-14.64h-.02v-.02c-.89-8.3,1-14.28,1.2-14.87-1.26,4.74.16,13.23.46,14.79v.02c.03.15.05.23.05.23,1.95,9.32,5.71,14.16,5.71,14.16l-3.05.33ZM116.45,155.99s-.02-.02-.03-.03c.02,0,.02.02.03.02v.02Z"/>
                <path class="cls-2" d="M111.34,107.35s.11.16.31.49c.18.3.44.79.71,1.41.13.34.28.71.41,1.13-.02-.08-.03-.15-.07-.23-.2-.82-.44-1.59-.72-2.26l.13.02c-.13-.31-.28-.62-.43-.9l-.16-.03c-.08-.18-.16-.31-.26-.46-.49-.59-2.2-2.33-4.96-2.25,0,0,2.61.52,4.6,2.59.16.16.31.31.44.49Z"/>
              </g>
              <g>
                <path class="cls-2" d="M114.73,57.04c5.28,4.96,10.97,5.11,10.97,5.11-3.42-3.38-.85-8.03-.85-8.03l-3.35-1.56c-3.38,5.05-6.78,4.47-6.78,4.47Z"/>
                <path class="cls-2" d="M93.9,57.04s-3.4.58-6.78-4.47l-3.35,1.56s2.57,4.65-.85,8.03c0,0,5.69-.15,10.97-5.11Z"/>
                <path class="cls-2" d="M138.7,97.98h.02c.71.72,1.37,1.46,2.02,2.22.33.41.68.81,1.01,1.22.33.42.65.84.96,1.27v.02c1.13,1.49,2.16,3.05,3.09,4.68.03.04.05.09.08.14.35.59.68,1.21,1,1.81.35.66.68,1.33.98,2.01,2.84,6.14,4.42,12.97,4.42,20.19,0,17.45-9.28,32.75-23.17,41.2h0s-.03.09-.03.09l-.74,2.76c15.46-8.58,25.93-25.07,25.93-43.98,0-27.74-22.55-50.3-50.28-50.3s-50.3,22.55-50.3,50.3c0,22.7,15.12,41.94,35.82,48.16.05-.42.15-1.15.33-2.13v-.03c-19.69-6.05-34-24.38-34-46.07,0-1.55.08-3.08.21-4.59.05-.56.12-1.12.2-1.67.08-.68.18-1.34.3-2.01.42-2.44,1.03-4.83,1.81-7.12.12-.38.24-.75.39-1.12.14-.39.29-.78.44-1.16.12-.35.26-.69.42-1.03.24-.62.51-1.22.8-1.81.11-.23.21-.45.32-.66.12-.23.24-.47.36-.71.69-1.39,1.46-2.73,2.31-4.03.39-.66.83-1.3,1.3-1.93.5-.72,1.03-1.42,1.57-2.11.42-.56.88-1.09,1.33-1.61.06-.06.11-.12.15-.17.51-.59,1.03-1.16,1.57-1.72.48-.5.98-1,1.48-1.48.06-.05.12-.11.17-.15.48-.45.96-.89,1.46-1.33.09-.08.18-.17.27-.24h.01c8.43-7.23,19.39-11.59,31.36-11.59,13.55,0,25.78,5.58,34.53,14.57.04.05.08.06.1.12Z"/>
                <path class="cls-2" d="M116.24,69.67c7.33-.05,16.44,3.52,16.44,3.52l15.33-22.71c-7.86-3.56-14.46,1.32-14.46,1.32,2.31,1.06,3.42,5.94-.12,9.39-3.54,3.47-8.16,3.26-11.63,2.43-3.45-.79-10.06-4-11.15-10.22-1.53-8.84,6.2-8.54,6.2-8.54-3.15-4.09-7.56-.95-7.56-.95.26-5.64-4.37-9.12-4.74-9.28h-.04c-.39.16-5.13,4.05-4.63,9.27,0,0-4.39-3.12-7.57.9,0,0,7.94.07,6.06,8.86-1.32,6.22-7.4,9.14-10.83,9.95-3.47.81-8.58,1.13-11.94-2.48-3.35-3.63-.99-7.33-.09-9.3,0,0-6.61-4.9-14.48-1.34l15.33,22.71s8.35-3.26,15.48-3.51c-28.94,5.69-50.77,31.2-50.77,61.81s20.63,54.75,48.39,61.3l-.11-1.59v-.3c-10.73-2.62-20.54-8.14-28.55-16.14-11.54-11.54-17.88-26.88-17.88-43.19s6.34-31.67,17.88-43.19c11.54-11.54,26.88-17.88,43.21-17.88s31.64,6.34,43.17,17.88c11.54,11.52,17.88,26.86,17.88,43.19s-6.34,31.65-17.88,43.19c-6.22,6.22-13.55,10.9-21.51,13.95-.02.02-.05.02-.07.04v-.04l-.88.41-.53,1.99v.12c.32-.09.62-.21.92-.32,24.45-8.67,41.98-31.99,41.98-59.43,0-30.63-21.86-56.14-50.84-61.83ZM108.54,63.56c-3.58-.62-6.59-.28-8.21.02-.14.02-.3.04-.46.05.39-.23,3.52-2.17,4.65-5.69,1.2,3.77,4.7,5.69,4.7,5.69-.23-.02-.46-.04-.69-.07Z"/>
                <path class="cls-2" d="M103.01,179.73c.01.09.01.17.03.24-.01-.15-.01-.24-.01-.24h-.01Z"/>
              </g>
            </g>
          </g>
          <g>
            <g>
              <g>
                <path class="cls-1" d="M50.86,130.88c0,.51-.11.95-.31,1.33-.2.37-.49.65-.85.85-.37.19-.8.29-1.3.28-.4,0-.75-.08-1.07-.21-.32-.13-.59-.31-.82-.55-.23-.24-.4-.52-.52-.85-.12-.33-.17-.69-.17-1.09,0-.22.03-.45.07-.67.05-.23.11-.44.18-.65.08-.21.17-.38.28-.54l1,.55v.17s-1.26,1.04-1.26,1.04v-.88s.68,0,.68,0c-.15.09-.27.21-.35.36-.08.15-.13.33-.13.53,0,.27.08.51.24.72.17.21.39.39.68.51s.61.19.97.2c.4,0,.75-.05,1.05-.18.3-.13.53-.31.7-.55.17-.24.26-.53.26-.86,0-.25-.05-.45-.16-.62-.11-.17-.28-.31-.52-.42l.14-.26c.38.11.67.32.88.64.21.32.31.7.31,1.14ZM50.9,128.86l-.69,1.06-1.18-.02-.48.56h-.15s.03-2.17.03-2.17h.15s.42.38.42.38l1.9.03v.16Z"/>
                <path class="cls-1" d="M51.32,124.73c-.07.52-.23.96-.48,1.32-.25.36-.58.62-.98.78-.4.16-.85.21-1.35.14-.52-.07-.95-.24-1.3-.51-.35-.27-.6-.61-.75-1.04-.15-.42-.19-.91-.12-1.45.07-.53.23-.97.49-1.33.25-.36.58-.62.97-.78.4-.16.85-.21,1.35-.14.51.07.94.24,1.29.51.35.27.6.61.76,1.04.15.43.19.91.12,1.45ZM50.85,124.57c.03-.26-.01-.49-.14-.69-.13-.2-.32-.37-.59-.51-.27-.13-.61-.23-1.01-.28-.44-.06-.82-.06-1.15.01s-.6.19-.8.36-.32.4-.36.68c-.04.26,0,.5.13.7.12.2.32.37.59.5.27.13.61.23,1.01.28.43.06.82.06,1.15-.01.33-.07.6-.19.8-.36.2-.18.32-.4.36-.67Z"/>
                <path class="cls-1" d="M51.79,121.05l-.15-.04-.33-.59-3.47-.87-.57.37-.15-.04.42-1.67,4.67,1.18-.42,1.67ZM49.56,119.21l-.07-.02.16-1.1c.03-.21,0-.39-.1-.53-.1-.14-.27-.24-.49-.3-.54-.14-.88.08-1.03.65l-.24.95-.39-.1.27-1.08c.17-.66.37-1.12.62-1.39.25-.27.55-.35.91-.26.37.09.61.32.71.67.1.35.07.86-.1,1.52l-.25,1ZM52.06,119.98l-.39-.1.24-.94c.09-.36.08-.65-.04-.87-.12-.22-.33-.38-.66-.46-.3-.08-.55-.05-.75.06-.2.12-.34.32-.41.62l-.24.95-.34-.09.34-1.34c.15-.6.37-1.04.64-1.29.28-.26.61-.34,1-.24.32.08.56.23.73.46.17.23.27.53.29.91.02.38-.04.83-.17,1.35l-.24.96ZM49.99,117.54l-.24-.06.06-.26.24.06-.06.26Z"/>
                <path class="cls-1" d="M53.24,115.65l-.15-.05-.28-.62-3.38-1.16-.6.32-.15-.05.72-2.1.15.05.28.62,3.38,1.16.6-.32.15.05-.72,2.1Z"/>
                <path class="cls-1" d="M54.3,112.57l-.14-.06-.23-.64-3.28-1.42-.63.27-.14-.06.68-1.58,4.42,1.91-.68,1.58ZM51.82,107.44l-1.09,2.09-.3-.13.93-2.16.46.2ZM52.41,107.72l-1.17.58-.29-.13.32-.99.05-.12,1.16.49-.07.16ZM53.5,108.82l-.8,1.59-.29-.12.6-1.67.49.21ZM53.97,108.99l-.83.36-.27-.12-.3-.85.07-.16,1.4.6-.07.16ZM54.84,111.31l-.3-.13.77-2.23.46.2-.93,2.16ZM55.39,110.04l-.29-.13-.46-1.36.07-.16,1.16.55-.48,1.1Z"/>
                <path class="cls-1" d="M56.36,107.9l-.13-.07-.17-.66-3.12-1.74-.65.2-.13-.08.84-1.51,3.66,2.05.65-.2.13.07-1.08,1.94ZM55.02,106.07l-.33-.18.51-.92c.15-.26.18-.52.1-.77-.08-.25-.24-.45-.5-.59-.26-.14-.5-.18-.74-.11-.24.07-.43.24-.58.5l-.46.82-.35-.2.67-1.2c.31-.55.63-.91.98-1.08.35-.17.7-.15,1.08.06.38.21.59.52.62.94.04.42-.1.9-.41,1.45l-.02.03.09.05-.67,1.19ZM57.98,105l-2.54.07.14-1.18,2.96-.08-1.09.16,1.13-.35.13.08-.73,1.3Z"/>
                <path class="cls-1" d="M59.16,102.98l-.13-.09-.09-.68-2.68-2.08-.85.08-.13-.09.46-.65,3.61,2.16.67-.13.13.09-.99,1.4ZM61.37,99.88l-4.91.26-.79-.56.4-.57,4.68-.25.11.34-2.97-1.58-.67.13-.13-.09.99-1.4.13.09.09.68,3.43,2.43-.37.52Z"/>
                <path class="cls-1" d="M64.48,96.28c-.35.39-.73.66-1.15.82-.41.16-.83.19-1.25.1-.42-.09-.82-.3-1.2-.64-.39-.35-.65-.73-.79-1.15-.14-.42-.15-.85-.04-1.28.11-.44.35-.86.71-1.26.35-.39.74-.67,1.15-.82.41-.15.82-.19,1.24-.1.42.09.82.3,1.2.65.38.35.65.73.78,1.15.14.42.15.85.04,1.29-.11.44-.35.86-.71,1.26ZM64.18,95.88c.17-.19.27-.41.28-.65.01-.24-.06-.49-.21-.75-.15-.26-.37-.53-.67-.8-.33-.3-.65-.51-.96-.64s-.6-.18-.86-.15c-.26.03-.49.15-.68.36-.18.2-.27.41-.28.65s.06.49.21.75c.15.26.38.53.68.8.33.29.64.51.96.64.31.13.6.18.87.15.27-.03.49-.15.67-.36Z"/>
                <path class="cls-1" d="M68.76,91.79l-.1-.12.1-.67-2.23-2.79-.68-.06-.1-.12,1.35-1.08,3,3.77-1.35,1.08ZM69.75,91.01l-.25-.32.76-.61c.25-.2.41-.43.49-.7.08-.27.08-.56-.01-.87-.09-.31-.26-.62-.51-.94-.26-.33-.53-.57-.82-.73-.28-.16-.57-.23-.85-.22-.28.01-.54.12-.79.31l-.77.61-.25-.32.87-.7c.43-.35.87-.57,1.31-.67.44-.1.86-.09,1.25.04.39.13.74.39,1.04.76.23.28.38.59.46.91.08.32.09.65.03.98-.06.33-.19.65-.39.96-.2.31-.46.6-.79.86l-.78.62Z"/>
                <path class="cls-1" d="M73.62,88.03l-.08-.13.17-.66-1.92-3.01-.67-.13-.08-.13,1.45-.93,2.59,4.06-1.45.93ZM74.44,82.39l-2.08,1.12-.18-.28,1.98-1.26.27.42ZM74.78,82.95l-1.29-.17-.17-.27.82-.64.11-.07.68,1.06-.15.09ZM75.07,84.47l-1.55.86-.17-.26,1.44-1.05.28.45ZM75.36,84.87l-.89-.16-.16-.25.23-.87.15-.09.82,1.28-.15.09ZM74.77,87.29l-.18-.28,1.89-1.41.27.42-1.98,1.26ZM75.95,86.54l-.17-.27.38-1.39.15-.09.65,1.11-1.01.65Z"/>
                <path class="cls-1" d="M77.95,85.33l-.07-.14.23-.64-1.62-3.18-.65-.19-.07-.14,1.99-1.02.07.14-.24.65,1.91,3.74-1.54.78ZM79.17,84.71l-.15-.29,1.98-1.21.23.45-2.06,1.05ZM80.3,84.13l-.15-.29.41-1.52.16-.08.67,1.33-1.09.56Z"/>
                <path class="cls-1" d="M84.66,82.18l-.05-.15.32-.6-1.16-3.38-.62-.28-.05-.15,1.63-.56,1.57,4.56-1.63.56ZM86.79,76.88l-2.28.6-.11-.31,2.23-.76.16.48ZM86.91,79.06l-1.71.48-.1-.3,1.64-.68.17.5ZM86.98,77.51l-1.22-.47-.1-.3.95-.43.13-.04.41,1.19-.17.06ZM85.96,81.73l-.11-.31,2.17-.93.16.48-2.23.76ZM87.09,79.52l-.83-.37-.1-.28.43-.8.17-.06.49,1.44-.17.06ZM87.28,81.28l-.1-.3.7-1.26.16-.06.38,1.23-1.14.39Z"/>
                <path class="cls-1" d="M91.36,80.23c-.22.05-.43.08-.65.1-.22.01-.43,0-.65-.03-.22-.03-.43-.07-.63-.13l.22-1.1.17-.04,1.29.96-.83.2-.16-.66c.11.12.27.2.5.24.22.03.46.02.72-.04.27-.07.47-.18.58-.33.12-.16.15-.34.1-.57-.04-.19-.17-.32-.38-.4-.21-.08-.54-.13-1-.16-.38-.03-.69-.08-.94-.15s-.44-.19-.57-.34c-.13-.15-.23-.34-.29-.58-.11-.45-.03-.84.24-1.19.27-.34.68-.58,1.25-.72.19-.05.39-.07.6-.08.21-.01.42,0,.63.03.21.03.42.07.61.13l-.29,1.06-.17.04-1.26-.92.88-.21.15.67c-.12-.13-.27-.22-.47-.26-.19-.04-.4-.04-.61.01-.23.05-.4.15-.51.29-.12.14-.15.29-.11.46.04.18.17.31.38.39.21.08.54.14,1,.16.38.02.7.07.94.15.24.08.43.19.57.34.13.15.23.34.29.59.08.33.07.63-.04.91-.1.28-.29.52-.55.72-.26.2-.6.35-1,.45Z"/>
                <path class="cls-1" d="M93.81,75.99l-.18-1.42.15-.02,1.03-.05.1.31-.94,1.15-.17.02ZM95.46,79.28l-.02-.15.47-.54-.56-4.02.52.12-2,.46-.07-.5,4.27-.6.07.5-2.05.11.48-.26.56,4.02.6.39.02.15-2.28.32ZM98.25,75.37l-1.22-.85v-.33s1.01-.24,1.01-.24l.16-.02.22,1.41-.17.02Z"/>
                <path class="cls-1" d="M99.09,78.76v-.15s.5-.61.5-.61l-.33.67,1.9-4.81.78-.03,2.29,4.64-.39-.64.56.57v.15s-2.2.09-2.2.09v-.15s.66-.6.66-.6l.09.63-1.98-4.03h.24s-.99,4.14-.99,4.14l-.05-.63.72.54v.15s-1.81.08-1.81.08ZM100.23,77.32l-.02-.4,2.66-.11.02.4-2.66.11ZM101.03,74.61l-.58-.58v-.15s.87-.04.87-.04l-.3.77Z"/>
                <path class="cls-1" d="M105.21,78.56v-.15s.54-.43.54-.43l.26-3.57-.46-.5v-.15s1.73.13,1.73.13l-.35,4.8-1.72-.13ZM106.46,78.65l.03-.4.97.07c.32.02.59-.04.84-.18.24-.14.43-.36.58-.65.14-.29.23-.63.26-1.04.03-.42,0-.78-.11-1.09-.1-.31-.26-.55-.47-.73-.22-.18-.48-.28-.79-.31l-.98-.07.03-.4,1.11.08c.55.04,1.03.17,1.42.39.39.22.69.52.89.88.2.36.28.79.24,1.26-.03.36-.12.69-.28.98-.16.29-.38.54-.65.74-.27.2-.58.35-.94.44-.36.1-.74.13-1.16.1l-.99-.07Z"/>
                <path class="cls-1" d="M114.1,79.71c-.52-.1-.95-.29-1.29-.56-.34-.27-.59-.61-.72-1.02-.14-.41-.16-.86-.06-1.36.1-.51.3-.93.58-1.27.29-.33.65-.56,1.08-.69.43-.13.92-.14,1.45-.03.52.1.95.29,1.29.56.34.27.58.61.72,1.02.14.4.16.86.06,1.36-.1.51-.29.93-.58,1.26-.29.33-.65.57-1.08.69-.43.13-.92.14-1.45.03ZM114.29,79.25c.26.05.49.02.7-.09.21-.11.39-.3.54-.56.15-.26.26-.59.34-.99.09-.43.11-.82.06-1.15-.05-.33-.15-.61-.31-.82-.16-.21-.38-.34-.65-.4-.26-.05-.5-.02-.7.09-.21.11-.39.3-.54.56-.15.26-.26.6-.34.99-.08.43-.1.81-.06,1.15.05.34.15.61.31.82.16.21.38.34.65.4Z"/>
                <path class="cls-1" d="M120.15,81.09l.05-.14.63-.26,1.26-3.35-.3-.61.05-.14,1.61.61-1.69,4.51-1.61-.61ZM121.32,81.53l.14-.38.91.34c.3.11.58.13.85.06.27-.07.52-.22.74-.46.22-.24.4-.54.54-.92.15-.39.22-.75.21-1.07,0-.32-.09-.6-.25-.84s-.38-.41-.67-.52l-.92-.35.14-.38,1.05.39c.52.2.94.45,1.25.78.32.32.52.69.6,1.1.09.41.05.83-.12,1.28-.13.34-.31.63-.55.86-.24.23-.51.41-.83.52-.31.12-.66.17-1.03.16-.37,0-.75-.09-1.14-.24l-.93-.35Z"/>
                <path class="cls-1" d="M125.86,83.32l.07-.14.65-.2,1.6-3.2-.23-.64.07-.14,1.54.77-2.16,4.31-1.54-.77ZM127.09,83.94l.15-.29,2.18.9-.22.45-2.1-1.05ZM129.66,82.74l-1.54-.89.14-.28,1.64.69-.24.47ZM128.34,84.56l.14-.29,1.39-.38.16.08-.61,1.13-1.07-.54ZM131.13,81.13l-2.03-1.21.15-.29,2.1,1.05-.22.45ZM129.46,83.2l-.32-.85.13-.26.87-.25.16.08-.68,1.36-.16-.08ZM130.82,81.71l-.52-1.2.14-.29.97.38.12.06-.56,1.13-.16-.08Z"/>
                <path class="cls-1" d="M134.53,88.47c-.42-.3-.72-.63-.92-1.01-.19-.38-.27-.77-.22-1.18s.21-.82.5-1.23c.23-.32.49-.58.77-.77.29-.19.59-.31.92-.37.32-.06.66-.04.99.05.34.09.67.25,1,.48.18.13.35.28.51.44.16.16.3.34.43.52.13.18.22.36.28.53l-1.02.52-.14-.1-.15-1.62.72.51-.38.55c0-.18-.02-.34-.1-.5-.08-.16-.2-.29-.36-.41-.22-.15-.46-.22-.73-.2-.27.02-.54.11-.81.27-.27.16-.51.39-.72.69-.23.33-.38.65-.44.97-.06.32-.04.62.06.89.1.28.29.51.56.7.2.14.4.21.6.22.2,0,.41-.06.64-.19l.14.26c-.3.25-.64.37-1.02.37s-.75-.13-1.12-.39ZM136.19,89.64l-.49-1.16.68-.96-.19-.71.09-.13,1.77,1.25-.09.13-.55.13-1.1,1.55-.13-.09Z"/>
                <path class="cls-1" d="M142.93,89.78l-.12-.78.1-.12,1.35,1.2-.1.11-.73.03-1.57,1.78c-.25.29-.53.48-.84.59-.31.1-.62.12-.95.04-.32-.08-.63-.24-.93-.5-.52-.46-.81-.93-.88-1.42-.07-.48.1-.95.49-1.4l1.63-1.84-.06-.68.1-.12,1.66,1.47-.1.12-.68.02-1.49,1.68c-.31.36-.48.68-.5.98-.02.29.11.56.39.81.28.24.56.34.85.28.29-.05.59-.26.91-.61l1.46-1.65Z"/>
                <path class="cls-1" d="M141.3,93.9l.11-.1h.8s-.72.17-.72.17l4.9-1.65.53.58-2.07,4.74.24-.71-.07.8-.11.1-1.49-1.63.11-.1.89.12-.43.48,1.8-4.11.17.18-3.81,1.92.45-.44.06.9-.11.1-1.23-1.34ZM143.14,93.84l.3-.27,1.8,1.96-.3.27-1.8-1.96ZM145.73,92.71l.07-.81.11-.1.59.65-.78.27Z"/>
                <path class="cls-1" d="M145.4,98.45l.12-.09.67.12,2.83-1.88.2-.83.12-.09.47.65-3.19,2.74-.09.68-.12.09-1.01-1.39ZM147.65,101.53l1.31-4.74.78-.57.41.56-1.25,4.52h-.35s2.44-2.32,2.44-2.32l.09-.68.12-.09,1.01,1.39-.12.09-.67-.13-3.4,2.48-.37-.51Z"/>
                <path class="cls-1" d="M148.65,102.93l.13-.08.78.16-.75.02,5.14-.54.39.68-3.05,4.17.39-.64-.25.76-.13.08-1.1-1.91.13-.08.84.31-.52.37,2.65-3.62.12.21-4.14,1.04.53-.33-.14.89-.13.08-.91-1.57ZM150.45,103.28l.35-.2,1.33,2.31-.35.2-1.33-2.31ZM153.22,102.74l.25-.78.13-.08.44.76-.82.09Z"/>
                <path class="cls-1" d="M152.19,109.81c-.08-.19-.14-.4-.17-.62-.03-.23-.03-.46,0-.69.03-.23.08-.44.16-.63l1.12.14.07.16-.93,1.28-.32-.71.99-.44c-.26.24-.42.46-.49.66-.07.2-.06.42.05.64.09.19.23.31.44.34.21.04.46,0,.75-.14l2.53-1.13.23-.64.14-.06.9,2.03-.14.06-.63-.26-2.34,1.04c-.51.23-.97.25-1.38.07-.41-.18-.74-.55-.99-1.1Z"/>
                <path class="cls-1" d="M158.76,115.14l.29-.74.15-.05.56,1.72-.15.05-.65-.34-2.26.74c-.36.12-.7.15-1.02.08-.32-.06-.6-.21-.84-.44s-.42-.53-.55-.9c-.22-.66-.23-1.21-.04-1.66.19-.45.56-.77,1.13-.96l2.34-.77.29-.62.15-.05.69,2.11-.15.05-.6-.33-2.13.7c-.45.15-.76.34-.92.59-.16.24-.19.54-.07.89.11.35.31.57.59.67.28.1.64.08,1.09-.07l2.09-.69Z"/>
                <path class="cls-1" d="M155.27,117.87l.15-.03.69.39-.72-.21,5.06,1.04.17.76-4.17,3.05.56-.49-.47.65-.15.03-.47-2.16.15-.03.71.55-.61.2,3.62-2.65.05.24-4.26-.26.61-.15-.4.8-.15.03-.39-1.77ZM156.89,118.75l.4-.09.57,2.6-.4.09-.57-2.6ZM159.69,119.07l.47-.67.15-.03.19.86-.81-.16Z"/>
                <path class="cls-1" d="M156.56,124.43l.15-.02.53.48,4.03-.48-.13.52-.41-2.01.5-.06.51,4.28-.5.06-.07-2.05.25.48-4.03.48-.4.59-.15.02-.27-2.29ZM159.88,122.85l1.42-.15.02.15.02,1.03-.31.09-1.13-.96-.02-.17ZM160.41,127.3l.88-1.2.33.02.22,1.01.02.16-1.42.19-.02-.17Z"/>
                <path class="cls-1" d="M156.95,131.35c0-.53.09-.99.29-1.38s.48-.7.86-.91c.37-.22.81-.33,1.32-.33.52,0,.97.1,1.36.32s.68.52.89.92c.21.4.32.87.33,1.42,0,.53-.09.99-.29,1.38-.2.39-.48.69-.85.91-.37.22-.81.33-1.32.33-.52,0-.97-.1-1.35-.32s-.68-.52-.9-.92c-.21-.4-.32-.87-.33-1.41ZM157.44,131.44c0,.26.08.48.23.67.15.18.37.32.66.42s.63.14,1.04.14c.44,0,.82-.06,1.14-.17.32-.11.56-.27.74-.47.17-.2.26-.44.26-.72,0-.27-.08-.49-.23-.67-.15-.18-.37-.32-.66-.41-.29-.09-.64-.14-1.04-.13-.44,0-.82.06-1.14.17-.32.11-.57.27-.74.47-.17.2-.26.44-.26.72Z"/>
              </g>
              <g>
                <path class="cls-1" d="M61.05,169.53l.09-.25,1.09.07c.56.04,1.03.05,1.4.04.37-.01.66-.05.89-.12.23-.07.41-.16.55-.29.22-.19.34-.4.37-.63.03-.23-.04-.43-.2-.62-.11-.13-.26-.22-.42-.27-.17-.05-.33-.06-.5-.03l.5-.4.5.57-1.4.17-.11-.12.36-1.06c.19.06.37.14.54.24s.34.21.49.33c.16.13.3.26.43.41.43.48.68.92.75,1.3.08.39-.02.71-.3.95-.12.11-.28.19-.46.24-.19.05-.42.07-.69.07-.28,0-.61-.04-1.01-.11-.4-.07-.87-.17-1.42-.29l-.48-.06.2-.1,1.35,1.53.99.07.11.13-1.18,1.01-2.45-2.77Z"/>
                <path class="cls-1" d="M67.31,176.07c-.34-.3-.57-.63-.69-.98-.12-.36-.13-.73-.04-1.11.1-.38.3-.75.62-1.11.34-.39.7-.67,1.08-.83.38-.16.76-.22,1.14-.15.38.06.74.24,1.08.54.34.29.56.62.68.98.12.36.13.73.04,1.11-.1.38-.3.75-.62,1.11-.34.39-.7.66-1.08.83-.38.17-.76.22-1.14.16-.38-.06-.74-.24-1.07-.53ZM67.59,175.75c.15.13.32.19.52.17.19-.02.41-.11.64-.28s.5-.42.78-.75c.45-.52.73-.95.85-1.31.12-.36.06-.64-.17-.84-.15-.14-.33-.19-.52-.18-.19.02-.41.11-.64.28-.24.17-.5.42-.79.74-.45.52-.73.95-.85,1.32-.11.36-.06.64.17.84Z"/>
                <path class="cls-1" d="M71.33,179.19l.02-.26,1.07-.2c.56-.1,1.01-.21,1.36-.31.35-.1.63-.21.83-.33.2-.12.36-.26.46-.41.16-.24.23-.47.21-.7-.03-.23-.14-.41-.35-.55-.14-.1-.3-.15-.48-.16-.17-.01-.34.02-.49.1l.39-.51.63.43-1.31.5-.14-.09.09-1.12c.2.01.4.04.59.09.19.05.38.12.56.2.18.08.36.18.52.29.53.36.88.72,1.05,1.08s.15.69-.06,1c-.09.14-.22.25-.39.35s-.38.17-.65.24c-.27.06-.6.11-1.01.14s-.89.05-1.45.06l-.48.06.17-.15,1.69,1.15.98-.17.14.1-.9,1.27-3.06-2.08Z"/>
                <path class="cls-1" d="M77.48,181.84v-.23s3.16-2.11,3.16-2.11l1.42.73-.08.16-4.19,1.38-.08.12-.23-.04ZM77.48,181.84l.44-.29,3.64,1.87-.21.41-3.87-1.98ZM78.31,183.51l.07-.13.76-.06.89-1.73.17-.06.91.47-.95,1.85.4.65-.07.13-2.18-1.12Z"/>
              </g>
              <g>
                <path class="cls-1" d="M129.49,183.74l-.22-.14.32-1.04c.17-.54.29-.99.37-1.35.08-.36.11-.66.1-.89,0-.23-.06-.44-.15-.6-.14-.26-.31-.43-.52-.51-.21-.08-.43-.07-.65.05-.15.08-.28.2-.37.34-.09.15-.14.31-.14.48l-.27-.58.67-.35-.17,1.39-.15.08-.95-.6c.11-.17.22-.33.36-.47.13-.14.28-.28.44-.4.16-.12.33-.23.5-.32.57-.3,1.05-.44,1.45-.42s.68.19.85.52c.08.15.12.32.12.51,0,.19-.03.42-.1.69s-.19.59-.35.96c-.16.37-.37.81-.62,1.31l-.17.45-.05-.22,1.81-.95.31-.94.15-.08.7,1.39-3.28,1.72Z"/>
                <path class="cls-1" d="M137.34,179.24c-.37.26-.74.4-1.12.43s-.74-.05-1.08-.23c-.35-.19-.65-.47-.93-.87-.3-.43-.48-.84-.54-1.25-.07-.41-.02-.79.13-1.14.15-.35.41-.66.78-.92.37-.25.74-.4,1.11-.43.38-.03.74.05,1.08.23s.65.48.93.87c.29.42.47.84.54,1.25.07.41.03.79-.12,1.15-.15.35-.41.66-.78.91ZM137.09,178.89c.16-.11.26-.27.29-.46.03-.19,0-.42-.11-.69-.11-.27-.29-.59-.53-.94-.39-.56-.75-.94-1.07-1.14-.32-.2-.61-.21-.85-.04-.17.12-.27.27-.3.46-.03.19,0,.42.11.69.11.27.28.59.53.94.39.56.75.94,1.07,1.14.32.2.61.21.86.04Z"/>
                <path class="cls-1" d="M140.74,173.28l-.12-.14c.14-.13.24-.27.3-.43.06-.16.08-.32.06-.47-.02-.16-.08-.3-.19-.42-.14-.16-.32-.24-.53-.25-.21,0-.4.08-.59.24-.14.12-.25.27-.33.42-.08.16-.12.33-.13.51l-.35-.44.57-.61.18,1.48-.13.11-1.06-.36c.1-.28.24-.55.42-.81.18-.26.41-.51.68-.75.28-.25.56-.43.83-.55s.51-.16.74-.14c.22.02.41.12.56.29.25.28.29.61.14,1-.15.39-.51.83-1.06,1.31ZM142.71,175.02c-.28.24-.56.44-.84.58s-.59.24-.9.3l-.25-1.11.13-.11,1.47.37-.64.48-.41-.42c.19.04.37.03.54-.02.17-.05.34-.15.5-.29.14-.12.23-.26.28-.41.05-.15.06-.31.02-.47-.04-.16-.11-.31-.23-.44-.12-.14-.27-.24-.44-.28-.17-.05-.34-.05-.52,0s-.35.13-.5.27l-.24-.28c.59-.52,1.1-.83,1.54-.92.44-.1.8.02,1.09.34.19.22.3.46.32.73.02.27-.05.55-.2.84-.15.29-.38.57-.7.85ZM141.25,172.89l-.12-.14.24-.21.12.14-.24.21Z"/>
                <path class="cls-1" d="M147.95,169.79c-.3.34-.63.57-.99.68-.36.12-.73.13-1.11.03-.38-.1-.75-.31-1.11-.62-.39-.34-.66-.71-.83-1.09-.16-.38-.21-.76-.15-1.14.06-.38.24-.74.54-1.08.3-.33.62-.56.98-.68.36-.12.73-.13,1.11-.03.38.1.75.31,1.11.62.39.34.66.7.83,1.08.16.38.21.76.15,1.14-.06.38-.24.74-.54,1.07ZM147.63,169.51c.13-.15.19-.32.18-.51-.02-.19-.11-.41-.28-.65-.17-.24-.42-.5-.74-.79-.51-.45-.95-.74-1.31-.86-.36-.12-.64-.06-.84.16-.14.15-.2.33-.18.52.02.19.11.41.28.65s.41.5.74.79c.51.45.95.74,1.31.85.36.12.64.06.84-.17Z"/>
              </g>
            </g>
            <g>
              <path class="cls-1" d="M115.97,155.29c.54-.36,1.21-1,1.94-1.77-.08.11-.18.21-.28.31-.1.08-.2.18-.28.3-.2.2-.38.36-.56.53-.3.26-.57.49-.82.64Z"/>
              <path class="cls-1" d="M116.29,155.83c-.13-.1-.26-.18-.39-.26v.02c-.1-.1-.16-.16-.16-.16.03-.02.06-.03.1-.05,0,0,.16.15.46.46Z"/>
              <path class="cls-1" d="M77.36,101.18c0,2.34-1.99,4.24-4.45,4.24-.3,0-.6-.03-.89-.08,2.29-.18,4.09-2.01,4.09-4.24,0-2.05-1.52-3.77-3.56-4.16.12,0,.24-.02.36-.02,2.46,0,4.45,1.9,4.45,4.25Z"/>
              <path class="cls-1" d="M135.01,115.36l-1.87,8.69-12.52-4.81c.21-.03.53-.09,1-.21,1.36-.39,13.4-3.67,13.4-3.67Z"/>
              <path class="cls-1" d="M66.76,103.53l-3.03,1.55c.36-.54.72-1.07,1.1-1.6l1.75-.47c.06.18.11.35.18.51Z"/>
              <path class="cls-1" d="M66.4,102.2l-.75.2c.15-.2.3-.39.45-.59h.21c.01.12.04.26.09.39Z"/>
              <path class="cls-1" d="M67.38,104.72c-1.49,1.21-3.71,3.02-6.52,5.33.6-1.21,1.25-2.38,1.95-3.53l4.32-2.23c.08.15.17.3.26.44Z"/>
              <path class="cls-1" d="M68.21,105.73l-.98,1.22c-.15.06-.27.12-.38.2,0,0-.03.14-.03.3v.02l-9.44,11.77c.68-2.55,1.55-5.02,2.62-7.38,3.47-2.85,6.19-5.08,7.91-6.47.08.12.18.24.3.35Z"/>
              <path class="cls-1" d="M67.45,110.26l-11.63,23.41c-.03-.69-.04-1.4-.04-2.11,0-3.56.39-7.03,1.13-10.36l10.35-12.91c0,.42.03,1.15.2,1.98Z"/>
              <path class="cls-1" d="M68.84,113.24l-9.64,36.16c-1.76-4.41-2.88-9.11-3.27-14.02l11.87-23.93c.05.14.11.26.17.39.24.54.56,1.01.87,1.39Z"/>
              <path class="cls-1" d="M70.7,124.38l-2.35,39.59c-3.56-3.89-6.49-8.39-8.61-13.29l8.84-33.1c.03.09.06.26-.03.41-.12.2-.14.59-.03.83.11.24.15.77.15.89-.02.11,0,.84.45,1.6.38.63.95,1.15,1.58,3.08Z"/>
              <path class="cls-1" d="M70.3,114.6s-.6.03-1.03.3l.24-.92c.44.41.78.62.78.62Z"/>
              <path class="cls-1" d="M83.05,174.93c-5.24-2.52-9.93-5.96-13.91-10.11l2.25-37.81c.69,3.12,1.49,7.35,1.49,7.35,0,0,.72,4.6.88,5.39.11.63,1.24,4.5,1.75,6.06,0,.06,0,.12.01.18.39,1.21,1.45,3.86,3.83,4.01l3.7,24.92Z"/>
              <path class="cls-1" d="M94.31,161.48c-.47,1.09-.95,2.38-1.46,4.01-1.63,5.2-2.53,9.52-3,12.1-2.01-.6-3.97-1.36-5.85-2.22l-3.77-25.4c.47-.08,1.01-.26,1.58-.54,2.14-1.07,4.6-2.84,6.49-4.3l6.02,16.35Z"/>
              <path class="cls-1" d="M94.79,160.37l-5.81-15.8c1.45-1.16,2.43-2.02,2.43-2.02-.78-1.76-.14-6.03-.14-6.03,0,0,.09,2.6.88,5.9.78,3.29,3.86,6.73,4.69,10.71.62,2.96-.39,3.64-2.05,7.24Z"/>
              <path class="cls-1" d="M98.82,105.78c-1,1.49-1.42,3.2-1.7,4.41l-18.36-7.08c.06-.18.11-.35.14-.53l19.93,3.2Z"/>
              <path class="cls-1" d="M96.9,111c-.36,1.34-.71,3.09-.93,4.81l-17.73-11.5c.08-.14.15-.27.21-.42l18.45,7.11Z"/>
              <path class="cls-1" d="M95.86,116.74c-.09.8-.14,1.57-.14,2.28,0,2.07-.84,3.53-1.13,3.98l-17.2-17.55c.15-.14.27-.29.36-.44l18.1,11.72Z"/>
              <path class="cls-1" d="M94.05,123.67c-1.67,2.25-2.04,5.05-2.04,5.05,0,0-.3.27-.95.91l-13.34-21.2c.12-.14.24-.5-.11-.74-.11-.08-.3-.17-.53-.26l-.68-1.09c.14-.08.26-.18.38-.29l17.26,17.61Z"/>
              <path class="cls-1" d="M90.43,130.26c-.42.42-.92.95-1.52,1.57-.84.89-2.02,2.43-3.17,3.98l-9.07-24.62s.01-.01.01-.03c.29-.88.45-1.49.53-1.9l13.22,21Z"/>
              <path class="cls-1" d="M85.15,136.63c-1.39,1.92-2.59,3.71-2.88,4.12-.08-.45-.38-1.86-1.13-3.64,0,0-1.39-2.9-2.47-4.77-.41-.71-.97-1.84-1.52-3.02l-1.87-12.61c.11-.12.21-.3.23-.62.02-.35-.21-.57-.42-.71l-.24-1.61c.44-.38.95-.89,1.34-1.52l8.98,24.38Z"/>
              <path class="cls-1" d="M75.86,126.43c-.3-.69-.53-1.22-.6-1.43-.27-.74-.83-2.32-.6-3.64,0,0,.17-.68.3-1.01l.91,6.08Z"/>
              <path class="cls-1" d="M74.14,93.66l-.38,1.31c-.19-.03-.37-.05-.56-.07l.03-.49c.3-.26.59-.52.9-.75Z"/>
              <path class="cls-1" d="M76.94,91.59l-1.96,3.72c-.16-.06-.3-.11-.46-.16l.68-2.31c.57-.43,1.15-.86,1.74-1.25Z"/>
              <path class="cls-1" d="M82.44,88.37l-6.29,7.59c-.14-.11-.29-.2-.45-.28l2.64-5c1.33-.83,2.68-1.6,4.1-2.31Z"/>
              <path class="cls-1" d="M92.66,84.64l-15.51,12.17c-.11-.12-.23-.24-.35-.34l7.4-8.91.02-.02c2.7-1.22,5.52-2.2,8.45-2.91Z"/>
              <path class="cls-1" d="M107.29,83.38l-29.33,14.5c-.08-.15-.17-.29-.29-.43l16.83-13.21c3.13-.62,6.37-.96,9.69-.96,1.03,0,2.07.03,3.1.09Z"/>
              <path class="cls-1" d="M123.54,87.25l-45.03,11.82c-.05-.15-.11-.3-.18-.46l30.63-15.13c5.13.5,10.03,1.8,14.58,3.76Z"/>
              <path class="cls-1" d="M138.36,97.14l-59.37,3.27c-.03-.17-.06-.33-.11-.5l45.99-12.09c5.02,2.33,9.58,5.5,13.49,9.32Z"/>
              <path class="cls-1" d="M147.85,111.33h.02c-.62-1.36-1.3-2.67-2.05-3.95l-4.3,1.25,1.21-5.93c2.38,3.14,4.39,6.56,5.94,10.24l-3.91-.63,3.09-.98Z"/>
              <path class="cls-1" d="M138.56,97.98l-.02.1-2.74,12.41-.8.25-23.32-3.73-.16-.03c-.08-.18-.16-.31-.26-.46.03.03.07.07.08.1.03.03.05.05.07.07,0-.02-.02-.03-.02-.05-.02-.05-.05-.15-.1-.26-.05-.11-.11-.25-.21-.41-.05-.1-.13-.21-.2-.33-.1-.13-.2-.26-.33-.41-.11-.13-.25-.28-.39-.43-.13-.13-.3-.28-.48-.43-.18-.15-.39-.31-.62-.46-2.08-1.43-4.22-1.25-4.22-1.25-2.63.08-4.32,1.07-5.45,2.36l-20.36-3.28c0-.16.02-.33.02-.49l59.52-3.27Z"/>
              <path class="cls-1" d="M133.26,111.31l-9.14,2.99s-2.04.64-3.12,2.23c-.89,1.3-1.21,2.03-1.03,2.45l-6.19-2.38c-.07-1.39-.13-2.86-.61-4.78-.07-.28-.13-.54-.21-.8,0-.02-.02-.05-.02-.07-.05-.2-.11-.38-.18-.56-.02-.08-.03-.15-.07-.23-.2-.82-.44-1.59-.72-2.26l.13.02,21.15,3.4Z"/>
              <path class="cls-1" d="M152.4,131.47l-14.21-5.48,2.35-12.36,2.4-.75,6.09.97c2.16,5.46,3.35,11.4,3.36,17.62Z"/>
              <path class="cls-1" d="M152.39,132.36c-.09,6.23-1.39,12.19-3.65,17.64l-13.44-8.7.91-4.75c.54-.78,1.49-2.19,1.98-3.18.68-1.43.06-1.22.06-2.19s.27-1.03-.27-1.45c-.18-.12-.3-.26-.41-.36l.48-2.52,14.35,5.52Z"/>
              <path class="cls-1" d="M132.96,124.88l-2.81,13.08-5.39-3.5c-.71-1.3-1.54-2.55-2.53-3.59-1.81-1.92-3.18-2.9-4.07-3.41-.65-1.4-1.6-2.53-2.34-3.49-1.31-1.67-1.66-2.53-1.9-4.83-.06-.56-.09-1.09-.11-1.63l19.14,7.36Z"/>
              <path class="cls-1" d="M129.97,138.83l-1.28,5.96c-.26-.69-.51-1.42-.74-2.08-.42-1.25-1.16-3.98-2.44-6.76l4.47,2.88Z"/>
              <path class="cls-1" d="M126.98,153.46l-.48,2.11-5.51-5.63c.86-.89,1.43-1.77,1.69-2.2,1.46,2.87,3.36,5.01,4.3,5.72Z"/>
              <path class="cls-1" d="M148.41,150.78c-2.63,5.99-6.43,11.36-11.13,15.8l-5.69-5.81,3.55-18.59,13.28,8.6Z"/>
              <path class="cls-1" d="M118.08,157.19c-.11-.09-.24-.17-.35-.26,0,0,0,0,0,0,.11.08.23.16.34.26Z"/>
              <path class="cls-1" d="M126.27,156.55l-1.9,8.3s-.26-.53-.79-1.38c-.05-.1-.13-.2-.2-.31-.11-.18-.25-.38-.39-.59-.15-.21-.3-.43-.46-.66-.05-.08-.1-.15-.18-.23-.16-.23-.34-.46-.54-.69-.15-.21-.33-.43-.52-.66-.16-.21-.34-.43-.57-.66-.2-.21-.41-.44-.62-.66-.23-.25-.48-.48-.72-.71-.25-.25-.51-.48-.77-.71-.16-.16-.33-.31-.51-.43-.56-.49-1.15-.94-1.79-1.36-.13-.1-.26-.18-.39-.26v.02c-.1-.1-.16-.16-.16-.16.03-.02.06-.03.1-.05.03-.03.08-.05.13-.08.1-.07.21-.15.31-.23.05-.03.08-.07.12-.1.08-.05.16-.11.23-.18.08-.07.16-.15.25-.23.16-.15.33-.31.51-.48.16-.18.34-.36.52-.56.21-.23.41-.46.62-.69.21-.25.43-.49.62-.74.21-.26.43-.51.64-.77.2-.25.39-.49.61-.74l5.87,5.97Z"/>
              <path class="cls-1" d="M136.65,167.15c-2.32,2.11-4.87,4.01-7.57,5.66l.03-.09.69-2.56,1.6-8.37,5.25,5.37Z"/>
            </g>
            <path class="cls-1" d="M66.31,101.81h-.21c.06-.08.12-.15.17-.21.02.06.03.14.05.21Z"/>
            <path class="cls-1" d="M75.83,107.03c-.14-.03-.27-.06-.39-.08.09-.05.18-.09.26-.14l.14.21Z"/>
            <path class="cls-1" d="M77.36,101.18c0,2.34-1.99,4.24-4.45,4.24-.3,0-.6-.03-.89-.08,2.29-.18,4.09-2.01,4.09-4.24,0-2.05-1.52-3.77-3.56-4.16.12,0,.24-.02.36-.02,2.46,0,4.45,1.9,4.45,4.25Z"/>
            <path class="cls-1" d="M126.99,153.45v.02l-.49,2.12-.23.97-1.9,8.3s-.26-.53-.79-1.38c-.05-.1-.13-.2-.2-.31-.11-.18-.25-.39-.39-.59-.13-.21-.3-.43-.46-.66-.05-.08-.1-.15-.18-.23-.15-.23-.33-.46-.54-.69-.15-.21-.33-.43-.52-.66-.16-.21-.34-.43-.57-.66-.18-.21-.39-.44-.62-.66-.23-.25-.48-.48-.72-.71-.25-.25-.51-.49-.77-.71-.16-.16-.33-.31-.51-.43-.56-.49-1.15-.94-1.79-1.36-.13-.1-.26-.18-.39-.26v.02c-.28-.16-.44-.23-.51-.25.05-.03.08-.07.12-.1,2.53-1.85,4.36-4.1,5.6-5.91.07-.08.12-.16.16-.25.12-.18.21-.34.31-.51.34-.52.62-.98.84-1.38.08.18.18.36.28.54.15.3.3.61.48.89.05.1.11.2.16.3.15.26.29.51.46.74.03.05.07.1.1.15.02.03.03.07.07.1.15.25.31.49.49.72.2.28.39.54.59.79.67.87,1.31,1.51,1.77,1.9.06.05.13.08.18.13Z"/>
            <polygon class="cls-1" points="115.37 155.33 115.38 155.33 115.38 155.33 115.37 155.33"/>
            <path class="cls-1" d="M73.67,96.8s-.03,0-.05,0c.01,0,.02,0,.03.01,0,0,.01,0,.02-.01Z"/>
            <path class="cls-1" d="M73.61,97.63s.04-.03.09-.07c-.06.02-.09.04-.09.07Z"/>
            <polygon class="cls-1" points="73.34 104.17 73.34 104.18 73.34 104.17 73.34 104.17"/>
            <g>
              <path class="cls-1" d="M115.38,155.33s0,0,0,0c0,0,0,0,.02,0,.04-.03.08-.07.11-.1-.04.03-.09.07-.13.1Z"/>
              <path class="cls-1" d="M115.38,155.33s0,0,0,0c0,0,0,0,.02,0,.04-.03.08-.07.11-.1-.04.03-.09.07-.13.1Z"/>
            </g>
            <g>
              <path class="cls-1" d="M73.67,96.8s-.01,0-.02.01c-.01,0-.02,0-.03-.01.02,0,.03,0,.05,0Z"/>
              <path class="cls-1" d="M73.67,96.8s-.01,0-.02.01c-.01,0-.02,0-.03-.01.02,0,.03,0,.05,0Z"/>
            </g>
            <g>
              <path class="cls-1" d="M73.71,97.57s-.08.07-.09.07c0-.02.04-.05.09-.07Z"/>
              <path class="cls-1" d="M73.71,97.57s-.08.07-.09.07c0-.02.04-.05.09-.07Z"/>
            </g>
            <g>
              <polygon class="cls-1" points="73.34 104.17 73.34 104.17 73.34 104.18 73.34 104.17"/>
              <polygon class="cls-1" points="73.34 104.17 73.34 104.17 73.34 104.18 73.34 104.17"/>
            </g>
            <g>
              <g>
                <path class="cls-1" d="M125.66,188.73s-.05.02-.07.03c0-.23,0-.48-.02-.74.03-.02.05-.02.08-.03,0-.71,0-1.49-.02-2.31v-.03c-.02-2.69-.08-5.69-.2-6.94-.25-2.53-1.1-12.04-3.86-16.26-.2-.31-.41-.61-.61-.9l-.02-.02s-.07-.08-.08-.13c-.52-.94-1.08-1.82-1.67-2.54-1.12-1.38-2.03-2.28-2.69-2.82.08.07.16.13.26.2.31.2.62.43.9.67.02,0,.03.02.05.03-.46-.38-.93-.75-1.44-1.1-.13-.1-.26-.18-.39-.26v.02c-.1-.1-.16-.16-.16-.16.03-.02.06-.03.1-.05.03-.03.08-.05.13-.08.41-.26.89-.71,1.41-1.21.16-.18.34-.36.52-.56.21-.23.41-.46.62-.69.21-.25.43-.49.62-.74.21-.26.43-.51.64-.77.2-.25.39-.49.61-.74v-.02c.07-.07.11-.13.16-.2-.05.07-.12.11-.18.18l-.33.26s.13-.15.26-.33c.13-.16.3-.41.49-.69v-.02c.1-.13.2-.28.29-.44.07-.08.12-.16.16-.25.41-.64.84-1.41,1.2-2.26.62-1.74,1.08-4.4-.34-7.22,0,0-1.51-3.35-7.58-5.71-6.09-2.38-8.09-3.05-9.53-3.73-1.41-.64-3.05-1.38-3.58-3.99.2.53,1.17,2.36,5.38,2.94,4.94.67,9.73,1.61,13.21,4.02.77.53,1.41,1.08,1.95,1.67-.54-.87-1.13-1.62-1.69-2.23-.84-.95-1.64-1.62-2.18-2.03-.18-.13-.35-.23-.54-.34-.57-.26-1.33-.57-2.2-.8-.77-.25-1.66-.44-2.58-.56,0,0-1.58-.41-2.77-2.81-.03-.05-.05-.11-.08-.16-.23-.49-.41-.95-.54-1.36-.48-1.49-.36-2.35-.36-2.35,0,0-1.31.38-2.44.53-.26.02-.53.03-.75.03,0,0-.02-.16.18-.41.2-.3.69-.71,1.79-1.13,1.87-.75,2.45-3.63,2.53-5.01.03-.16.03-.3.03-.41,0-.16,0-.33-.02-.49-.02-.95-.07-1.94-.07-1.94,0,0-.98-1.38-1.95-2.03-.95-.66-1.1-.23-1.33,0-.23.25-1.15.39-1.69-.39-.54-.82-.48-1.41-.48-1.41,0,0,2.61,0,4.74,1.76,0,0,.87.77,1.07,1.02.21.26.46.46.54.13.08-.36-.61-1.18-1.31-1.87.16.11.82.54,1.2.98.39.51.51.21.38-.05-.13-.25-1.76-1.77-2.58-2.35,0,0,1,.41,1.51.87.51.48.82.54.77.16-.05-.26-1.21-1.87-3.15-2.89-.77-.41-1.64-.71-2.63-.82-.71-.07-1.39-.03-2.02.07-2.51.44-4.41,2.07-5.15,3.27,0,0-.38.51-.28.72v.02s.05.03.1.02c.26-.02.89-.48,1.54-.92.8-.49,1.03-.49,1.03-.49,0,0-1.13.69-1.82,1.43-.05.08-.11.15-.18.2-.49.57-.39.74-.21.69.08-.03.29-.25.61-.53.38-.36.92-.79,1.54-1.1-.2.16-.89.69-1.33,1.18-.12.11-.21.25-.28.34-.3.51.16.2.72-.18.15-.08.29-.2.44-.28.69-.43,2-1.3,4.27-1.38,0,0,.13,2.12.13,2.56,0,.33-.21.61-.46.79-.12.11-.25.18-.34.21-.33.1-.56.1-.41-.28.03-.05.05-.11.08-.18.13-.48.15-1.13.07-1.58-.08-.46-.23-.82-1.26-.34-.44.21-.97.54-1.39.9-.28.21-.54.44-.74.64-.18.18-.34.36-.43.49-.36.52-.46.92-.13,1.82.36.92,1.1,2.54,1.25,3,.15.48.43,1.41.98,1.15.54-.25,2.49-1.43,3.69-1,1.2.43,1.74.89,2.3.92.48.05.95-.05,1.1-.08-.33.2-2.9,1.76-3.68,2.05-.41.15-.77.21-1.23.36-.28.07-.59.2-.98.38-.25.1-.51.26-.82.44-1.67.94-1.51,2.43-1.51,3.53-.02,1.08.05,2.1,1.26,4.14,0,0,2.27,4.05,7.91,7.4,5.64,3.35,7.88,4.63,9.16,8.11.38,1.02.48,2.12.36,3.25-.03.33-.1.69-.18,1.03-.49,2.26-1.84,4.46-3.56,6.04l-.07-.03c.46-.87,2.1-4.74-2.31-9.01,0,0-2.08-2.17-6.45-3.77-4.36-1.59-11.8-5.89-11.58-11.18,0,0-1.23,5.1,3.1,8.62,0,0,1.66,1.44,5.84,3.77,4.17,2.33,6.68,3.79,7.4,6.88.74,3.07-1.31,5.05-2.63,6.33-.1.1-.23.25-.38.39-.18.2-.38.43-.57.71-1.51,1.92-3.69,5.51-4.41,9.81-.77,4.46-.72,8.2-.43,11.96v.02c0,.08,0,.16.02.23,0,.07.02.15.02.2.02.15.03.33.05.49,0,.1.02.2.03.31.08,1,.25,2.51.48,4.23,0,.05,0,.11.02.15.05.3.1.59.13.89.05.26.1.56.15.82.05.31.1.61.16.92.36,1.9.77,3.68,1.1,4.94,0,.03.02.05.02.08.07.2.1.38.16.54.1.26.18.53.28.79.02.08.05.16.08.21l.16.02c10.57-.11,18.43-3.31,18.43-3.31l.8-.31.57-.23s0-.79-.02-1.97ZM105.53,112.39c.25.02.54.34.54.34.15.08.16.2.08.23-.11.05-.62-.13-.82-.25-.2-.13-.05-.34.2-.33ZM105.44,116.1c-.34-.07-.89.03-1.23,0-.33-.05-.67-.08-.34-.34.33-.26,1.02-.18,1.02-.18.53-.02,1.08.26,1.12.39.05.15-.18.18-.56.13ZM106.4,115.23c-.18-.08-.56-.36-1.23-.56-.67-.2-1.36.13-1.36.13,0,0-.05.02-.2.1-.12.08-.53.49-.95.51-.39.02-.33-.15-.26-.16.07,0,.31-.16.62-.43.29-.28.9-.56,1.66-.62.33-.03.61.03.85.11.08.02.13.05.2.08.2.08.36.2.46.26.26.18.75.54.71.62-.05.11-.31.03-.49-.05ZM117.49,139.11s-2.63-2.05-5.3-3.22c-2.67-1.17-5.69-3.22-6.01-3.71,0,0,2.74,1.46,8.29,3.74,5.56,2.25,7.81,5.94,6.29,10.09.07-.44.49-3.61-3.27-6.91ZM109.78,194.36c-2.66-5.23-3.91-10.27-4.35-14.64h-.02v-.02c-.89-8.3,1-14.28,1.2-14.87-1.26,4.74.16,13.23.46,14.79v.02c.03.15.05.23.05.23,1.95,9.32,5.71,14.16,5.71,14.16l-3.05.33ZM116.45,155.99s-.02-.02-.03-.03c.02,0,.02.02.03.02v.02Z"/>
                <path class="cls-1" d="M111.34,107.35s.11.16.31.49c.18.3.44.79.71,1.41.13.34.28.71.41,1.13-.02-.08-.03-.15-.07-.23-.2-.82-.44-1.59-.72-2.26l.13.02c-.13-.31-.28-.62-.43-.9l-.16-.03c-.08-.18-.16-.31-.26-.46-.49-.59-2.2-2.33-4.96-2.25,0,0,2.61.52,4.6,2.59.16.16.31.31.44.49Z"/>
              </g>
              <g>
                <path class="cls-1" d="M114.73,57.04c5.28,4.96,10.97,5.11,10.97,5.11-3.42-3.38-.85-8.03-.85-8.03l-3.35-1.56c-3.38,5.05-6.78,4.47-6.78,4.47Z"/>
                <path class="cls-1" d="M93.9,57.04s-3.4.58-6.78-4.47l-3.35,1.56s2.57,4.65-.85,8.03c0,0,5.69-.15,10.97-5.11Z"/>
                <path class="cls-1" d="M138.7,97.98h.02c.71.72,1.37,1.46,2.02,2.22.33.41.68.81,1.01,1.22.33.42.65.84.96,1.27v.02c1.13,1.49,2.16,3.05,3.09,4.68.03.04.05.09.08.14.35.59.68,1.21,1,1.81.35.66.68,1.33.98,2.01,2.84,6.14,4.42,12.97,4.42,20.19,0,17.45-9.28,32.75-23.17,41.2h0s-.03.09-.03.09l-.74,2.76c15.46-8.58,25.93-25.07,25.93-43.98,0-27.74-22.55-50.3-50.28-50.3s-50.3,22.55-50.3,50.3c0,22.7,15.12,41.94,35.82,48.16.05-.42.15-1.15.33-2.13v-.03c-19.69-6.05-34-24.38-34-46.07,0-1.55.08-3.08.21-4.59.05-.56.12-1.12.2-1.67.08-.68.18-1.34.3-2.01.42-2.44,1.03-4.83,1.81-7.12.12-.38.24-.75.39-1.12.14-.39.29-.78.44-1.16.12-.35.26-.69.42-1.03.24-.62.51-1.22.8-1.81.11-.23.21-.45.32-.66.12-.23.24-.47.36-.71.69-1.39,1.46-2.73,2.31-4.03.39-.66.83-1.3,1.3-1.93.5-.72,1.03-1.42,1.57-2.11.42-.56.88-1.09,1.33-1.61.06-.06.11-.12.15-.17.51-.59,1.03-1.16,1.57-1.72.48-.5.98-1,1.48-1.48.06-.05.12-.11.17-.15.48-.45.96-.89,1.46-1.33.09-.08.18-.17.27-.24h.01c8.43-7.23,19.39-11.59,31.36-11.59,13.55,0,25.78,5.58,34.53,14.57.04.05.08.06.1.12Z"/>
                <path class="cls-1" d="M116.24,69.67c7.33-.05,16.44,3.52,16.44,3.52l15.33-22.71c-7.86-3.56-14.46,1.32-14.46,1.32,2.31,1.06,3.42,5.94-.12,9.39-3.54,3.47-8.16,3.26-11.63,2.43-3.45-.79-10.06-4-11.15-10.22-1.53-8.84,6.2-8.54,6.2-8.54-3.15-4.09-7.56-.95-7.56-.95.26-5.64-4.37-9.12-4.74-9.28h-.04c-.39.16-5.13,4.05-4.63,9.27,0,0-4.39-3.12-7.57.9,0,0,7.94.07,6.06,8.86-1.32,6.22-7.4,9.14-10.83,9.95-3.47.81-8.58,1.13-11.94-2.48-3.35-3.63-.99-7.33-.09-9.3,0,0-6.61-4.9-14.48-1.34l15.33,22.71s8.35-3.26,15.48-3.51c-28.94,5.69-50.77,31.2-50.77,61.81s20.63,54.75,48.39,61.3l-.11-1.59v-.3c-10.73-2.62-20.54-8.14-28.55-16.14-11.54-11.54-17.88-26.88-17.88-43.19s6.34-31.67,17.88-43.19c11.54-11.54,26.88-17.88,43.21-17.88s31.64,6.34,43.17,17.88c11.54,11.52,17.88,26.86,17.88,43.19s-6.34,31.65-17.88,43.19c-6.22,6.22-13.55,10.9-21.51,13.95-.02.02-.05.02-.07.04v-.04l-.88.41-.53,1.99v.12c.32-.09.62-.21.92-.32,24.45-8.67,41.98-31.99,41.98-59.43,0-30.63-21.86-56.14-50.84-61.83ZM108.54,63.56c-3.58-.62-6.59-.28-8.21.02-.14.02-.3.04-.46.05.39-.23,3.52-2.17,4.65-5.69,1.2,3.77,4.7,5.69,4.7,5.69-.23-.02-.46-.04-.69-.07Z"/>
                <path class="cls-1" d="M103.01,179.73c.01.09.01.17.03.24-.01-.15-.01-.24-.01-.24h-.01Z"/>
              </g>
            </g>
          </g>
        </g>
        <g>
          <path class="cls-1" d="M246.17,125.54c0,2.2-.24,3.79-.72,4.77-.48.98-1.28,1.46-2.4,1.46s-1.87-.49-2.37-1.46c-.5-.98-.75-2.56-.75-4.77v-29.6h-12.15v29.04c0,5.77,1.26,9.96,3.77,12.56,2.51,2.6,6.35,3.89,11.5,3.89s9.04-1.3,11.53-3.89c2.49-2.6,3.74-6.78,3.74-12.56v-29.04h-12.15v29.6Z"/>
          <path class="cls-1" d="M267.14,95.99l1.45,5.92-8.97,39.54h13.02l1.18-6.09h7.85l1.18,6.09h12.9l-9.78-45.48-18.83.03ZM275.06,125.64l2.68-16.44,2.62,16.44h-5.3Z"/>
          <path class="cls-1" d="M420.91,125.54c0,2.2-.24,3.79-.72,4.77-.48.98-1.28,1.46-2.4,1.46s-1.87-.49-2.37-1.46c-.5-.98-.75-2.56-.75-4.77v-29.6h-12.15v29.04c0,5.77,1.26,9.96,3.77,12.56,2.51,2.6,6.35,3.89,11.5,3.89s9.04-1.3,11.53-3.89c2.49-2.6,3.74-6.78,3.74-12.56v-29.04h-12.15v29.6Z"/>
          <path class="cls-1" d="M441.92,95.97l1.4,5.95-8.97,39.54h13.02l1.18-6.09h7.85l1.18,6.09h12.9l-9.74-45.46-18.83-.03ZM449.8,125.64l2.68-16.44,2.62,16.44h-5.3Z"/>
          <path class="cls-1" d="M344.07,95.94l1.4,5.97-8.97,39.54h13.02l1.18-6.09h7.85l1.18,6.09h12.9l-9.77-45.48-18.81-.03ZM351.95,125.64l2.68-16.44,2.62,16.44h-5.3Z"/>
          <polygon class="cls-1" points="321.6 121.94 312.81 95.93 296.48 95.93 299.04 102.45 299.04 141.42 310.88 141.42 310.88 117.83 318.86 141.42 333.44 141.42 333.44 95.93 321.6 95.93 321.6 121.94"/>
          <path class="cls-1" d="M501.64,96.02h-36.54s2.43,10.05,2.43,10.05h9.54v35.32h12.21v-35.41h7.53c.39-3.69,2.18-7.29,4.81-9.89v-.08Z"/>
          <path class="cls-1" d="M531.94,104.72c-1.14-3.34-2.96-5.71-5.45-7.1-2.49-1.39-5.77-2.09-9.85-2.09s-7.35.7-9.85,2.09c-2.49,1.39-4.31,3.76-5.45,7.1-1.14,3.34-1.71,7.95-1.71,13.8s.57,10.46,1.71,13.8c1.14,3.34,2.96,5.71,5.45,7.1,2.49,1.39,5.77,2.09,9.85,2.09s7.35-.69,9.85-2.09c2.49-1.39,4.31-3.76,5.45-7.1,1.14-3.34,1.71-7.95,1.71-13.8s-.57-10.46-1.71-13.8ZM520.22,126.62c-.23,1.95-.62,3.31-1.18,4.08-.56.77-1.36,1.15-2.4,1.15s-1.79-.38-2.37-1.15c-.58-.77-.99-2.13-1.22-4.08-.23-1.95-.34-4.69-.34-8.23s.11-6.3.34-8.19c.23-1.89.63-3.2,1.22-3.93.58-.73,1.37-1.09,2.37-1.09s1.84.36,2.4,1.09c.56.73.95,2.04,1.18,3.93.23,1.89.34,4.62.34,8.19s-.11,6.27-.34,8.23Z"/>
          <path class="cls-1" d="M216.99,109.28l6.54-9.1s-5.54-5.89-16.38-4.23c-11.6,1.78-17.23,11.75-17.16,22.74.07,10.99,4.68,19.77,15.05,22.16,12.76,2.12,18.35-2.12,18.35-2.12v-19.99l-14.67-.07,3.48,6.22v4.9c-8.27,1.42-13.14-11.83-7.37-19.1,4.64-5.84,12.15-1.41,12.15-1.41Z"/>
          <path class="cls-1" d="M385.61,104.63v18.82c0,2.04-.12,3.6-.37,4.7-.25,1.1-.78,1.87-1.59,2.31-.81.44-2.03.65-3.65.65-.71,0-1.43-.07-2.18-.22-.68-.13-1.32-.27-1.93-.42-1.21-.4-1.82-.81-1.82-.81l2.21,10.94c1.92.76,5.57.92,6.48.94.45.02.86.03,1.22.03,2.58,0,4.75-.18,6.51-.53,1.76-.35,3.18-1.03,4.24-2.03,1.06-1,1.83-2.41,2.31-4.24.48-1.83.72-4.24.72-7.23l.05-31.54-15.68-.05,3.48,8.66Z"/>
        </g>
        <g>
          <path class="cls-1" d="M237.51,162.96c-1.34,0-2.51-.26-3.49-.79s-1.74-1.29-2.27-2.28c-.53-.99-.79-2.19-.79-3.58,0-1.03.16-1.94.48-2.74.32-.8.78-1.47,1.37-2.02.6-.55,1.3-.96,2.12-1.24s1.72-.42,2.71-.42c.85,0,1.67.09,2.45.28.78.19,1.44.41,2,.68-.07.43-.13.89-.16,1.38-.03.5-.05,1.01-.05,1.54-.24.1-.51.16-.8.19-.29.03-.57.04-.84.04-.04-.72-.17-1.28-.39-1.69-.22-.41-.52-.7-.91-.87s-.83-.25-1.33-.25c-.78,0-1.41.22-1.9.67-.49.45-.84,1.03-1.06,1.74-.22.72-.33,1.47-.33,2.26,0,1.11.14,2.09.41,2.96s.67,1.55,1.18,2.04,1.13.74,1.86.74c.23,0,.42-.01.57-.03.15-.02.29-.05.41-.1.19-.08.34-.2.45-.38s.17-.51.17-1v-.72c0-.43-.03-.75-.1-.96-.07-.21-.21-.36-.41-.43s-.51-.12-.89-.13c-.05-.17-.08-.37-.1-.59-.02-.22-.03-.46-.03-.71.34.01.74.03,1.22.04.47.01.91.02,1.33.02.39,0,.83,0,1.33,0s.91-.02,1.25-.03c0,.2,0,.41-.02.64-.01.23-.04.44-.1.64-.23.01-.39.05-.51.12s-.18.19-.21.38c-.02.18-.04.45-.04.8v.55c0,.45.02.79.06,1.03.04.23.12.49.25.78-.58.42-1.29.76-2.13,1.04-.84.28-1.76.42-2.75.42Z"/>
          <path class="cls-1" d="M252.58,162.96c-1.33,0-2.47-.28-3.43-.84-.96-.56-1.69-1.33-2.21-2.32-.52-.99-.78-2.13-.78-3.44,0-.99.16-1.89.48-2.68.32-.8.76-1.48,1.34-2.04.57-.57,1.25-1,2.03-1.3.78-.3,1.64-.45,2.57-.45,1.29,0,2.42.26,3.38.78.96.52,1.71,1.25,2.25,2.19.54.94.81,2.05.81,3.33,0,.99-.15,1.9-.45,2.72-.3.82-.74,1.54-1.3,2.14-.57.6-1.24,1.07-2.03,1.4-.79.33-1.68.5-2.66.5ZM252.84,161.62c.6,0,1.11-.21,1.53-.63.41-.42.73-1,.95-1.75.22-.75.33-1.62.33-2.63s-.14-1.92-.41-2.74c-.28-.82-.67-1.48-1.17-1.97-.5-.49-1.09-.74-1.77-.74-.57,0-1.06.19-1.47.57s-.74.92-.96,1.62c-.23.7-.34,1.55-.34,2.54,0,.77.07,1.49.21,2.18.14.69.34,1.3.61,1.84s.61.95,1.03,1.25c.41.3.9.45,1.47.45Z"/>
          <path class="cls-1" d="M262.26,150c.24.01.55.03.94.04.39.01.75.02,1.07.02s.73,0,1.21,0,.96-.01,1.44-.02c.48,0,.9,0,1.25,0,1.19,0,2.15.1,2.87.3s1.25.52,1.58.94.5.97.5,1.64c0,.74-.25,1.38-.76,1.92-.51.54-1.23.88-2.18,1.02.84.05,1.54.2,2.08.46.55.26.95.62,1.21,1.09.26.47.39,1.05.39,1.72,0,.72-.19,1.35-.56,1.9-.37.55-.96.99-1.78,1.3-.82.31-1.9.47-3.26.47h-1.55c-.53,0-1.06,0-1.59,0s-1.03.01-1.52.02c-.48,0-.94.02-1.37.03,0-.25.01-.49.03-.73.02-.23.05-.42.1-.57.34-.03.6-.09.78-.2.18-.11.31-.3.38-.58.07-.28.1-.7.1-1.25v-6.25c0-.53-.03-.92-.1-1.19s-.2-.45-.38-.56c-.18-.11-.45-.18-.8-.22-.04-.16-.07-.37-.08-.63-.02-.26-.03-.48-.03-.67ZM266.91,150.75v8.87c0,.54.06.95.17,1.22.11.28.28.46.49.56.21.09.46.14.75.14.58,0,1.05-.2,1.4-.58.36-.39.54-.93.54-1.62,0-.49-.07-.89-.21-1.21-.14-.32-.34-.57-.59-.75s-.56-.31-.92-.4c-.36-.08-.75-.12-1.18-.12h-1.07v-1.26h1.28c.51,0,.94-.09,1.27-.26.33-.18.58-.43.74-.75s.25-.72.25-1.17-.1-.85-.29-1.17c-.2-.31-.45-.55-.75-.7-.31-.15-.65-.23-1.03-.23-.21,0-.4.02-.57.06-.17.04-.35.11-.54.21l.26-.83Z"/>
          <path class="cls-1" d="M278.54,153.25c0-.53-.03-.92-.1-1.19s-.19-.45-.37-.56c-.18-.11-.44-.18-.78-.22-.05-.16-.09-.37-.11-.61-.02-.25-.04-.47-.04-.69.21.01.51.02.88.03.37,0,.76.01,1.17.02s.76,0,1.05,0,.62,0,.98,0c.37,0,.72-.01,1.07-.02.35,0,.65-.02.9-.03,0,.23,0,.45-.02.66-.01.21-.06.43-.13.64-.34.04-.6.11-.78.21-.18.1-.3.29-.37.56s-.09.67-.09,1.2v6.29c0,.54.03.95.09,1.23s.19.47.38.57.45.17.77.2c.05.15.09.35.11.59.02.25.04.48.04.71-.3-.03-.7-.04-1.21-.05s-1.04,0-1.62,0-1.16,0-1.74,0c-.58,0-1.08.02-1.48.05,0-.21.02-.45.05-.7.03-.25.07-.45.1-.6.34-.03.6-.09.78-.2.18-.11.3-.3.37-.57s.1-.69.1-1.23v-6.29Z"/>
          <path class="cls-1" d="M286.45,150c.26.01.6.02,1,.03.4,0,.83.01,1.27.02s.88,0,1.29,0h1.09v9.38c0,.54.04.96.13,1.27.09.31.24.52.46.64s.53.18.93.18l-.6,1.26c-.34,0-.78,0-1.31,0s-1.09.01-1.66.02c-.57,0-1.1.01-1.57.02s-.82.01-1.04.01c0-.25.01-.49.03-.73.02-.23.05-.42.1-.57.34-.03.6-.09.78-.2.18-.11.31-.3.38-.58.07-.28.1-.7.1-1.25v-6.25c0-.53-.03-.92-.1-1.19s-.2-.45-.38-.56c-.18-.11-.45-.18-.8-.22-.05-.16-.08-.37-.09-.63-.01-.26-.02-.48-.02-.67ZM294.55,154.21c-.01.3-.03.63-.05.98-.02.35-.03.75-.03,1.19,0,.48,0,.89.03,1.25.02.36.03.68.05.97-.3,0-.56-.01-.79-.04-.23-.02-.44-.07-.64-.13-.05-.55-.2-.92-.43-1.1-.24-.18-.67-.27-1.28-.27h-1.13v-1.26h1.13c.67,0,1.11-.1,1.33-.3s.34-.56.35-1.07c.2-.09.43-.15.7-.17.26-.03.52-.04.77-.04ZM296.19,150c.01.3.04.65.08,1.06.04.4.08.79.13,1.18.05.38.11.73.19,1.03-.2.09-.43.16-.69.22-.26.06-.57.08-.95.08-.06-.43-.18-.81-.35-1.16-.17-.34-.44-.61-.8-.81-.36-.19-.89-.29-1.56-.29h-1.87l.58-1.24c.96,0,1.76,0,2.42,0,.66,0,1.22-.01,1.67-.02.45,0,.84-.02,1.15-.03ZM295.66,159c.35.04.67.11.97.22.3.11.52.24.67.39-.14.43-.26.93-.36,1.51-.1.58-.18,1.15-.23,1.71-.34-.01-.77-.02-1.3-.02s-1.09,0-1.69,0-1.16,0-1.7,0l.6-1.26h.26c.55,0,1-.09,1.35-.27.35-.18.62-.46.84-.83.21-.37.41-.84.58-1.42Z"/>
          <path class="cls-1" d="M308.62,162.96c-.15-.33-.3-.64-.43-.95-.14-.31-.27-.62-.4-.92-.12-.31-.26-.62-.39-.95-.19-.45-.37-.83-.53-1.14-.16-.31-.34-.58-.55-.81-.2-.23-.45-.46-.75-.69l.85.15c-.34.01-.64.02-.89.03-.26,0-.55,0-.88,0l.15-1.38c.19.03.34.04.45.06.11.01.22.02.32.02.45,0,.87-.09,1.25-.27.38-.18.7-.46.94-.85.25-.38.37-.86.37-1.44,0-.79-.19-1.41-.57-1.87-.38-.45-.94-.68-1.67-.68-.2,0-.39.01-.56.04-.17.03-.35.07-.54.13l.15-.62v8.61c0,.62.03,1.07.09,1.37.06.3.17.5.31.59.14.09.34.15.59.16.05.12.08.31.1.56.01.25.02.5.02.74-.24-.01-.55-.02-.92-.03l-1.13-.02c-.38,0-.7,0-.96,0-.47,0-.94,0-1.42,0s-.93.02-1.33.05c0-.28.01-.52.03-.74.02-.21.05-.4.1-.56.34-.03.6-.09.78-.2.18-.11.31-.3.38-.57s.1-.69.1-1.23v-6.31c0-.53-.03-.93-.1-1.2s-.2-.46-.38-.56c-.18-.1-.45-.17-.8-.21-.05-.17-.08-.4-.09-.68-.01-.28-.02-.48-.02-.6.33.01.76.03,1.29.04.53.01,1.1.02,1.69.02.4,0,.94-.01,1.61-.04.67-.03,1.37-.04,2.1-.04,1.06,0,1.92.15,2.59.46.67.31,1.16.72,1.48,1.24.31.52.47,1.1.47,1.74,0,.77-.15,1.43-.44,1.99-.29.56-.7.99-1.21,1.31-.51.31-1.1.52-1.75.6l.36-.24c.38.18.68.37.91.57.23.21.46.5.7.87.23.37.52.89.88,1.57.19.35.36.62.51.82.15.19.32.33.51.41.19.08.43.13.72.16,0,.24-.01.46-.04.68-.03.21-.07.42-.13.62-.85,0-1.62.01-2.29.04-.67.03-1.21.07-1.61.13Z"/>
          <path class="cls-1" d="M324.99,162.94l-8.29-11.1c-.11-.19-.25-.32-.42-.39-.17-.07-.44-.12-.82-.16-.05-.19-.09-.4-.11-.62-.03-.22-.04-.45-.04-.68.16.01.38.02.66.03s.56.01.85.02c.29,0,.53,0,.71,0,.3,0,.64,0,1.01,0s.67-.02.91-.05l6.01,8.18-.47,4.77ZM315.3,162.84c0-.26.01-.5.03-.72.02-.21.06-.41.12-.58.38-.04.67-.13.88-.28s.36-.42.45-.79c.09-.38.14-.92.14-1.64v-7.61l1.3.11v7.5c0,.72.04,1.26.11,1.64.07.38.22.64.42.79s.51.24.89.28c.05.18.08.38.1.61.01.23.02.46.02.69-.18-.01-.39-.02-.66-.03l-.79-.02c-.26,0-.5,0-.72,0-.2,0-.46,0-.76,0-.31,0-.6.01-.88.02s-.5.02-.66.03ZM324.99,162.94l.19-3.13v-5.82c0-.72-.04-1.26-.11-1.63s-.22-.63-.44-.78c-.22-.15-.54-.25-.97-.28-.05-.21-.08-.44-.1-.67-.02-.23-.03-.44-.03-.63.19.01.42.02.7.03.28,0,.56.01.86.02.3,0,.54,0,.74,0,.31,0,.66,0,1.04-.02.38-.01.68-.02.9-.04,0,.21,0,.43-.02.64-.01.21-.04.43-.1.66-.31.03-.56.11-.73.26s-.29.41-.35.78c-.06.37-.09.92-.09,1.65v8.8c-.21.06-.44.1-.68.12-.24.02-.51.03-.81.03Z"/>
          <path class="cls-1" d="M337.35,162.96c-1.33,0-2.47-.28-3.43-.84-.96-.56-1.69-1.33-2.21-2.32-.52-.99-.78-2.13-.78-3.44,0-.99.16-1.89.48-2.68.32-.8.76-1.48,1.34-2.04.57-.57,1.25-1,2.03-1.3.78-.3,1.64-.45,2.57-.45,1.29,0,2.42.26,3.38.78.96.52,1.71,1.25,2.25,2.19.54.94.81,2.05.81,3.33,0,.99-.15,1.9-.45,2.72-.3.82-.74,1.54-1.3,2.14-.57.6-1.24,1.07-2.03,1.4-.79.33-1.68.5-2.66.5ZM337.61,161.62c.6,0,1.11-.21,1.53-.63.41-.42.73-1,.95-1.75.22-.75.33-1.62.33-2.63s-.14-1.92-.41-2.74c-.28-.82-.67-1.48-1.17-1.97-.5-.49-1.09-.74-1.77-.74-.57,0-1.06.19-1.47.57s-.74.92-.96,1.62c-.23.7-.34,1.55-.34,2.54,0,.77.07,1.49.21,2.18.14.69.34,1.3.61,1.84s.61.95,1.03,1.25c.41.3.9.45,1.47.45Z"/>
          <path class="cls-1" d="M352.68,162.84c0-.25.01-.49.03-.73.02-.23.05-.42.1-.57.34-.03.6-.09.78-.2.18-.11.31-.3.38-.58.07-.28.1-.7.1-1.25v-6.25c0-.53-.03-.92-.1-1.19s-.2-.45-.38-.56c-.18-.11-.45-.18-.8-.22-.04-.16-.07-.37-.08-.63-.02-.26-.03-.48-.03-.67.28.01.62.02,1.02.03.4,0,.83.01,1.29.02.46,0,.89,0,1.29,0,.29,0,.6,0,.94-.02.34-.01.71-.02,1.11-.02.7,0,1.39.05,2.07.14.68.1,1.31.27,1.88.52.58.25,1.08.61,1.52,1.06.44.46.78,1.04,1.03,1.75.25.71.37,1.58.37,2.61s-.13,1.89-.38,2.62c-.25.73-.58,1.34-1,1.83-.41.49-.87.89-1.38,1.19-.5.3-1.02.53-1.54.68-.53.15-1.02.25-1.48.3-.46.05-.85.08-1.18.08s-.78,0-1.31,0-1.09.01-1.66.02c-.57,0-1.1.01-1.57.02s-.82.01-1.04.01ZM358.86,161.52c.29,0,.61-.06.96-.18.35-.12.68-.35,1-.7.31-.35.57-.85.76-1.53.19-.67.29-1.57.29-2.7,0-1.01-.1-1.84-.3-2.51-.2-.67-.47-1.2-.82-1.58-.35-.38-.73-.66-1.16-.82s-.87-.24-1.34-.24c-.24,0-.47.03-.69.08s-.38.13-.48.22l.25-.73v8.61c0,.54.04.96.13,1.27.09.31.24.52.46.64s.53.18.93.18Z"/>
          <path class="cls-1" d="M368.45,150c.26.01.6.02,1,.03.4,0,.83.01,1.27.02s.88,0,1.29,0h1.09v9.38c0,.54.04.96.13,1.27.09.31.24.52.46.64s.53.18.93.18l-.6,1.26c-.34,0-.78,0-1.31,0s-1.09.01-1.66.02c-.57,0-1.1.01-1.57.02s-.82.01-1.04.01c0-.25.01-.49.03-.73.02-.23.05-.42.1-.57.34-.03.6-.09.78-.2.18-.11.31-.3.38-.58.07-.28.1-.7.1-1.25v-6.25c0-.53-.03-.92-.1-1.19s-.2-.45-.38-.56c-.18-.11-.45-.18-.8-.22-.05-.16-.08-.37-.09-.63-.01-.26-.02-.48-.02-.67ZM376.55,154.21c-.01.3-.03.63-.05.98-.02.35-.03.75-.03,1.19,0,.48,0,.89.03,1.25.02.36.03.68.05.97-.3,0-.56-.01-.79-.04-.23-.02-.44-.07-.64-.13-.05-.55-.2-.92-.43-1.1-.24-.18-.67-.27-1.28-.27h-1.13v-1.26h1.13c.67,0,1.11-.1,1.33-.3s.34-.56.35-1.07c.2-.09.43-.15.7-.17.26-.03.52-.04.77-.04ZM378.18,150c.01.3.04.65.08,1.06.04.4.08.79.13,1.18.05.38.11.73.19,1.03-.2.09-.43.16-.69.22-.26.06-.57.08-.95.08-.06-.43-.18-.81-.35-1.16-.17-.34-.44-.61-.8-.81-.36-.19-.89-.29-1.56-.29h-1.87l.58-1.24c.96,0,1.76,0,2.42,0,.66,0,1.22-.01,1.67-.02.45,0,.84-.02,1.15-.03ZM377.66,159c.35.04.67.11.97.22.3.11.52.24.67.39-.14.43-.26.93-.36,1.51-.1.58-.18,1.15-.23,1.71-.34-.01-.77-.02-1.3-.02s-1.09,0-1.69,0-1.16,0-1.7,0l.6-1.26h.26c.55,0,1-.09,1.35-.27.35-.18.62-.46.84-.83.21-.37.41-.84.58-1.42Z"/>
          <path class="cls-1" d="M394.39,161.52c.5,0,.92-.08,1.25-.25s.61-.44.83-.81.42-.86.59-1.46c.35.04.67.11.97.22.3.11.52.24.67.39-.14.43-.26.93-.36,1.51-.1.58-.18,1.15-.23,1.71-.34-.01-.77-.02-1.3-.02s-1.08,0-1.66,0c-.58,0-1.12,0-1.64,0-.34,0-.78,0-1.31,0s-1.09.01-1.66.02c-.57,0-1.1.01-1.57.02s-.82.01-1.04.01c0-.25.01-.49.03-.73.02-.23.05-.42.1-.57.34-.03.6-.09.78-.2.18-.11.31-.3.38-.58.07-.28.1-.7.1-1.25v-6.25c0-.53-.03-.92-.1-1.19s-.2-.45-.38-.56c-.18-.11-.45-.18-.8-.22-.04-.16-.07-.37-.08-.63-.02-.26-.03-.48-.03-.67.36.01.7.02,1.01.03s.62.01.94.02.67,0,1.06,0c.3,0,.64,0,1.01,0,.37,0,.74-.01,1.1-.02s.67-.02.92-.03c0,.23,0,.46-.02.69-.01.23-.06.44-.13.61-.34.04-.6.11-.78.21-.18.1-.3.29-.37.57s-.09.68-.09,1.21v6.16c0,.54.04.96.13,1.27.09.31.24.52.46.64s.53.18.93.18h.26Z"/>
          <path class="cls-1" d="M407.97,149.94l4.26,9.46c.29.59.52,1.04.68,1.35.16.31.32.51.46.61.14.1.3.16.48.19.05.16.09.35.11.57.03.22.04.46.04.73-.23-.03-.52-.04-.87-.05-.35,0-.7,0-1.05,0h-1.46c-.27,0-.56,0-.87,0s-.6.01-.88.02-.49.02-.64.03c0-.3.01-.55.04-.75.02-.2.06-.38.11-.55.44-.09.7-.24.78-.44.08-.21.02-.54-.18-1.01l-1.7-3.86c-.29-.66-.52-1.28-.71-1.86-.18-.57-.34-1.13-.46-1.69h.55c-.15.57-.32,1.14-.5,1.71-.18.58-.4,1.18-.67,1.81l-1.43,3.73c-.16.4-.19.75-.09,1.06.1.3.36.48.79.55.05.18.09.37.11.58s.04.45.04.72c-.14-.01-.33-.02-.58-.03-.25,0-.51-.01-.78-.02s-.51,0-.73,0c-.31,0-.64,0-.97,0s-.59.02-.78.05c0-.25.01-.48.04-.68.03-.2.07-.41.13-.62.21-.04.4-.12.55-.24.15-.12.3-.31.44-.57.15-.26.32-.64.52-1.13l3.97-9.57c.21-.05.41-.08.59-.08.18,0,.4,0,.65,0ZM408.66,158.26l.34,1.13c-.84,0-1.72.01-2.63.04-.91.03-1.8.08-2.66.17l.28-1.34h4.67Z"/>
          <path class="cls-1" d="M429.01,162.96c-1.34,0-2.51-.26-3.49-.79s-1.74-1.29-2.27-2.28c-.53-.99-.79-2.19-.79-3.58,0-1.03.16-1.94.48-2.74.32-.8.78-1.47,1.37-2.02s1.3-.96,2.12-1.24,1.72-.42,2.71-.42c.85,0,1.67.09,2.45.28.78.19,1.44.41,2,.68-.07.43-.13.89-.16,1.38-.03.5-.05,1.01-.05,1.54-.24.1-.51.16-.8.19-.29.03-.57.04-.84.04-.04-.72-.17-1.28-.39-1.69-.22-.41-.52-.7-.91-.87s-.83-.25-1.33-.25c-.78,0-1.41.22-1.9.67-.49.45-.84,1.03-1.06,1.74-.22.72-.33,1.47-.33,2.26,0,1.11.14,2.09.41,2.96s.67,1.55,1.18,2.04,1.13.74,1.86.74c.23,0,.42-.01.57-.03.15-.02.29-.05.41-.1.19-.08.34-.2.45-.38s.17-.51.17-1v-.72c0-.43-.03-.75-.1-.96-.07-.21-.21-.36-.41-.43s-.51-.12-.89-.13c-.05-.17-.08-.37-.1-.59-.02-.22-.03-.46-.03-.71.34.01.74.03,1.22.04.47.01.91.02,1.33.02.39,0,.83,0,1.33,0s.91-.02,1.25-.03c0,.2,0,.41-.02.64-.01.23-.04.44-.1.64-.23.01-.39.05-.51.12s-.18.19-.21.38c-.02.18-.04.45-.04.8v.55c0,.45.02.79.06,1.03.04.23.12.49.25.78-.58.42-1.29.76-2.13,1.04-.84.28-1.76.42-2.75.42Z"/>
          <path class="cls-1" d="M437.69,150c.26.01.6.02,1,.03.4,0,.83.01,1.27.02s.88,0,1.29,0h1.09v9.38c0,.54.04.96.13,1.27.09.31.24.52.46.64s.53.18.93.18l-.6,1.26c-.34,0-.78,0-1.31,0s-1.09.01-1.66.02c-.57,0-1.1.01-1.57.02s-.82.01-1.04.01c0-.25.01-.49.03-.73.02-.23.05-.42.1-.57.34-.03.6-.09.78-.2.18-.11.31-.3.38-.58.07-.28.1-.7.1-1.25v-6.25c0-.53-.03-.92-.1-1.19s-.2-.45-.38-.56c-.18-.11-.45-.18-.8-.22-.05-.16-.08-.37-.09-.63-.01-.26-.02-.48-.02-.67ZM445.79,154.21c-.01.3-.03.63-.05.98-.02.35-.03.75-.03,1.19,0,.48,0,.89.03,1.25.02.36.03.68.05.97-.3,0-.56-.01-.79-.04-.23-.02-.44-.07-.64-.13-.05-.55-.2-.92-.43-1.1-.24-.18-.67-.27-1.28-.27h-1.13v-1.26h1.13c.67,0,1.11-.1,1.33-.3s.34-.56.35-1.07c.2-.09.43-.15.7-.17.26-.03.52-.04.77-.04ZM447.43,150c.01.3.04.65.08,1.06.04.4.08.79.13,1.18.05.38.11.73.19,1.03-.2.09-.43.16-.69.22-.26.06-.57.08-.95.08-.06-.43-.18-.81-.35-1.16-.17-.34-.44-.61-.8-.81-.36-.19-.89-.29-1.56-.29h-1.87l.58-1.24c.96,0,1.76,0,2.42,0,.66,0,1.22-.01,1.67-.02.45,0,.84-.02,1.15-.03ZM446.9,159c.35.04.67.11.97.22.3.11.52.24.67.39-.14.43-.26.93-.36,1.51-.1.58-.18,1.15-.23,1.71-.34-.01-.77-.02-1.3-.02s-1.09,0-1.69,0-1.16,0-1.7,0l.6-1.26h.26c.55,0,1-.09,1.35-.27.35-.18.62-.46.84-.83.21-.37.41-.84.58-1.42Z"/>
          <path class="cls-1" d="M460.99,162.94l-8.29-11.1c-.11-.19-.25-.32-.42-.39-.17-.07-.44-.12-.82-.16-.05-.19-.09-.4-.11-.62-.03-.22-.04-.45-.04-.68.16.01.38.02.66.03s.56.01.85.02c.29,0,.53,0,.71,0,.3,0,.64,0,1.01,0s.67-.02.91-.05l6.01,8.18-.47,4.77ZM451.31,162.84c0-.26.01-.5.03-.72.02-.21.06-.41.12-.58.38-.04.67-.13.88-.28s.36-.42.45-.79c.09-.38.14-.92.14-1.64v-7.61l1.3.11v7.5c0,.72.04,1.26.11,1.64.07.38.22.64.42.79s.51.24.89.28c.05.18.08.38.1.61.01.23.02.46.02.69-.18-.01-.39-.02-.66-.03l-.79-.02c-.26,0-.5,0-.72,0-.2,0-.46,0-.76,0-.31,0-.6.01-.88.02s-.5.02-.66.03ZM460.99,162.94l.19-3.13v-5.82c0-.72-.04-1.26-.11-1.63s-.22-.63-.44-.78c-.22-.15-.54-.25-.97-.28-.05-.21-.08-.44-.1-.67-.02-.23-.03-.44-.03-.63.19.01.42.02.7.03.28,0,.56.01.86.02.3,0,.54,0,.74,0,.31,0,.66,0,1.04-.02.38-.01.68-.02.9-.04,0,.21,0,.43-.02.64-.01.21-.04.43-.1.66-.31.03-.56.11-.73.26s-.29.41-.35.78c-.06.37-.09.92-.09,1.65v8.8c-.21.06-.44.1-.68.12-.24.02-.51.03-.81.03Z"/>
          <path class="cls-1" d="M470.79,151.31c-.49,0-.89.09-1.2.27-.31.18-.55.45-.73.79-.18.34-.33.79-.45,1.33-.3,0-.6-.02-.9-.05-.29-.03-.56-.1-.78-.22.13-.52.23-1.09.31-1.73.08-.64.12-1.21.12-1.71.48.01.97.03,1.49.04.51.01,1.1.02,1.76.02h2.36c.84,0,1.59,0,2.24,0s1.25-.01,1.79-.02c.54,0,1.04-.02,1.51-.03,0,.5.03,1.06.1,1.67.06.61.16,1.2.28,1.76-.22.1-.48.17-.77.22-.29.04-.6.07-.94.07-.13-.83-.35-1.43-.66-1.82s-.8-.57-1.47-.57h-4.07ZM471.07,150.67h3.26v8.87c0,.54.04.95.13,1.23.09.28.26.47.51.57.25.11.62.17,1.11.2.05.15.09.35.11.59.03.25.04.48.04.71-.37-.03-.84-.04-1.42-.05-.58,0-1.23,0-1.93,0-.46,0-.95,0-1.45,0s-.96.01-1.38.02-.77.02-1.05.03c0-.21.02-.45.07-.7.04-.25.09-.45.14-.6.49-.03.87-.09,1.14-.2.27-.11.46-.3.56-.57s.16-.69.16-1.23v-8.87Z"/>
          <path class="cls-1" d="M481.26,150c.26.01.6.02,1,.03.4,0,.83.01,1.27.02s.88,0,1.29,0h1.09v9.38c0,.54.04.96.13,1.27.09.31.24.52.46.64s.53.18.93.18l-.6,1.26c-.34,0-.78,0-1.31,0s-1.09.01-1.66.02c-.57,0-1.1.01-1.57.02s-.82.01-1.04.01c0-.25.01-.49.03-.73.02-.23.05-.42.1-.57.34-.03.6-.09.78-.2.18-.11.31-.3.38-.58.07-.28.1-.7.1-1.25v-6.25c0-.53-.03-.92-.1-1.19s-.2-.45-.38-.56c-.18-.11-.45-.18-.8-.22-.05-.16-.08-.37-.09-.63-.01-.26-.02-.48-.02-.67ZM489.36,154.21c-.01.3-.03.63-.05.98-.02.35-.03.75-.03,1.19,0,.48,0,.89.03,1.25.02.36.03.68.05.97-.3,0-.56-.01-.79-.04-.23-.02-.44-.07-.64-.13-.05-.55-.2-.92-.43-1.1-.24-.18-.67-.27-1.28-.27h-1.13v-1.26h1.13c.67,0,1.11-.1,1.33-.3s.34-.56.35-1.07c.2-.09.43-.15.7-.17.26-.03.52-.04.77-.04ZM491,150c.01.3.04.65.08,1.06.04.4.08.79.13,1.18.05.38.11.73.19,1.03-.2.09-.43.16-.69.22-.26.06-.57.08-.95.08-.06-.43-.18-.81-.35-1.16-.17-.34-.44-.61-.8-.81-.36-.19-.89-.29-1.56-.29h-1.87l.58-1.24c.96,0,1.76,0,2.42,0,.66,0,1.22-.01,1.67-.02.45,0,.84-.02,1.15-.03ZM490.48,159c.35.04.67.11.97.22.3.11.52.24.67.39-.14.43-.26.93-.36,1.51-.1.58-.18,1.15-.23,1.71-.34-.01-.77-.02-1.3-.02s-1.09,0-1.69,0-1.16,0-1.7,0l.6-1.26h.26c.55,0,1-.09,1.35-.27.35-.18.62-.46.84-.83.21-.37.41-.84.58-1.42Z"/>
        </g>
      </g>
    </g>
  </g>
</svg>