<?xml version="1.0" encoding="UTF-8"?>
<svg id="Capa_2" data-name="Capa 2" xmlns="http://www.w3.org/2000/svg" viewBox="0 0 359.12 359.12">
  <defs>
    <style>
      .cls-1 {
        fill: #fff;
      }
    </style>
  </defs>
  <g id="Capa_1-2" data-name="Capa 1">
    <g>
      <rect width="359.12" height="359.12"/>
      <g>
        <g>
          <g>
            <g>
              <path class="cls-1" d="M122.27,164.75c0,.55-.12,1.02-.34,1.42-.22.4-.52.7-.91.91-.39.21-.85.31-1.39.3-.42,0-.81-.08-1.14-.22-.34-.14-.63-.34-.88-.59-.25-.25-.43-.56-.56-.91-.13-.35-.19-.74-.18-1.17,0-.24.03-.48.08-.72.05-.24.11-.47.2-.69.08-.22.18-.41.3-.57l1.07.59v.18s-1.34,1.12-1.34,1.12v-.94s.73,0,.73,0c-.16.1-.29.23-.38.39-.09.16-.14.35-.14.57,0,.28.08.54.26.77.18.23.42.41.73.55s.65.21,1.04.22c.43,0,.8-.06,1.13-.2.32-.14.57-.33.75-.59.18-.26.27-.57.28-.92,0-.26-.05-.49-.17-.66-.12-.18-.31-.33-.56-.45l.15-.28c.4.12.72.34.94.68.23.34.34.75.33,1.22ZM122.3,162.58l-.74,1.13-1.26-.02-.52.6h-.16s.04-2.32.04-2.32h.16s.45.41.45.41l2.03.03v.17Z"/>
              <path class="cls-1" d="M122.76,158.15c-.08.56-.25,1.03-.52,1.42-.27.39-.62.67-1.05.84-.43.17-.91.22-1.45.15-.55-.07-1.02-.26-1.39-.54-.37-.29-.64-.66-.81-1.11-.16-.45-.21-.97-.13-1.55.08-.56.25-1.04.52-1.42.27-.38.62-.66,1.04-.84.42-.17.91-.22,1.45-.15.55.07,1.01.25,1.39.54.38.29.65.66.81,1.11.16.46.21.97.13,1.55ZM122.26,157.99c.04-.28-.01-.52-.15-.74-.13-.22-.35-.4-.64-.54-.29-.14-.65-.24-1.08-.3-.47-.06-.88-.06-1.24.01s-.64.2-.85.39-.34.43-.38.73c-.04.28,0,.53.14.75.13.22.34.4.64.54.29.14.65.24,1.08.3.46.06.88.06,1.23-.01.36-.07.64-.2.86-.39.21-.19.34-.43.38-.72Z"/>
              <path class="cls-1" d="M123.26,154.21l-.16-.04-.36-.64-3.71-.94-.62.39-.16-.04.45-1.79,5,1.26-.45,1.79ZM120.87,152.24l-.07-.02.17-1.18c.04-.23,0-.42-.11-.57-.11-.15-.29-.26-.53-.32-.58-.15-.95.09-1.1.69l-.26,1.02-.42-.11.29-1.15c.18-.71.4-1.2.66-1.49.26-.29.59-.38.98-.28.4.1.65.34.76.72.11.38.07.92-.11,1.62l-.27,1.07ZM123.55,153.06l-.42-.11.25-1.01c.1-.38.08-.69-.04-.93-.12-.24-.36-.4-.7-.49-.32-.08-.59-.06-.8.07-.21.13-.36.35-.44.66l-.26,1.02-.36-.09.36-1.44c.16-.65.39-1.11.69-1.38.3-.28.65-.36,1.07-.25.34.09.6.25.78.5.18.25.28.57.31.98.02.4-.04.89-.18,1.45l-.26,1.03ZM121.33,150.46l-.26-.07.07-.28.26.07-.07.28Z"/>
              <path class="cls-1" d="M124.81,148.43l-.16-.05-.3-.66-3.62-1.24-.65.34-.16-.05.77-2.25.16.05.3.66,3.62,1.24.65-.34.16.05-.77,2.25Z"/>
              <path class="cls-1" d="M125.95,145.13l-.15-.07-.25-.69-3.51-1.52-.67.29-.15-.07.73-1.7,4.74,2.05-.73,1.7ZM123.29,139.63l-1.17,2.24-.32-.14,1-2.31.49.21ZM123.93,139.93l-1.25.63-.32-.14.34-1.06.06-.13,1.24.53-.07.17ZM125.1,141.1l-.86,1.7-.31-.13.64-1.79.52.23ZM125.6,141.29l-.89.39-.29-.12-.32-.91.07-.17,1.5.65-.07.17ZM126.53,143.78l-.32-.14.83-2.39.49.21-1,2.31ZM127.12,142.41l-.32-.14-.49-1.46.07-.17,1.25.59-.51,1.18Z"/>
              <path class="cls-1" d="M128.15,140.13l-.14-.08-.18-.71-3.34-1.87-.7.22-.14-.08.9-1.61,3.92,2.19.7-.22.14.08-1.16,2.08ZM126.72,138.16l-.35-.2.55-.99c.16-.28.19-.55.11-.82-.08-.27-.26-.48-.54-.64-.27-.15-.54-.19-.79-.11-.25.08-.46.26-.62.54l-.49.87-.38-.21.72-1.29c.33-.59.68-.97,1.05-1.15.37-.18.76-.16,1.16.06.4.23.63.56.67,1.01.04.45-.11.96-.44,1.56l-.02.03.09.05-.72,1.28ZM129.89,137.01l-2.73.08.15-1.26,3.17-.09-1.17.17,1.21-.38.14.08-.78,1.4Z"/>
              <path class="cls-1" d="M131.15,134.85l-.13-.1-.1-.72-2.87-2.23-.91.08-.13-.1.5-.7,3.87,2.31.72-.14.13.1-1.07,1.5ZM133.53,131.53l-5.26.28-.85-.6.43-.61,5.01-.26.12.36-3.18-1.69-.72.14-.13-.09,1.07-1.5.13.1.1.72,3.67,2.61-.39.56Z"/>
              <path class="cls-1" d="M136.86,127.67c-.38.42-.79.71-1.23.88-.44.17-.89.2-1.34.11-.45-.1-.88-.33-1.28-.69-.41-.37-.7-.78-.84-1.23-.15-.45-.16-.91-.04-1.37.12-.47.38-.92.77-1.35.38-.42.79-.72,1.23-.88.44-.16.88-.2,1.33-.1.45.09.88.33,1.28.69.41.37.69.78.84,1.23.15.45.16.91.04,1.38-.12.47-.38.92-.77,1.35ZM136.54,127.25c.19-.21.29-.44.3-.7.01-.26-.06-.53-.22-.81-.16-.28-.4-.57-.72-.86-.35-.32-.69-.55-1.03-.69-.33-.14-.64-.19-.92-.16-.28.03-.52.16-.72.38-.19.21-.29.44-.3.7s.06.52.22.8c.16.28.4.57.73.86.35.31.69.54,1.02.68.33.14.64.2.93.16.28-.04.52-.16.72-.38Z"/>
              <path class="cls-1" d="M141.45,122.87l-.1-.13.1-.72-2.39-2.99-.73-.06-.1-.13,1.44-1.15,3.22,4.03-1.44,1.15ZM142.5,122.03l-.27-.34.81-.65c.26-.21.44-.46.53-.75.09-.29.08-.6-.01-.93-.1-.33-.28-.67-.55-1.01-.28-.35-.57-.61-.88-.78-.3-.17-.61-.25-.91-.23-.3.01-.58.13-.84.33l-.82.66-.27-.34.94-.75c.46-.37.93-.61,1.4-.72.47-.11.92-.1,1.34.05.42.14.79.42,1.11.82.24.3.41.63.49.98.09.35.09.7.03,1.05-.07.35-.21.7-.42,1.03-.21.33-.49.64-.84.92l-.83.66Z"/>
              <path class="cls-1" d="M146.64,118.83l-.09-.14.18-.71-2.06-3.23-.72-.14-.09-.14,1.56-.99,2.77,4.35-1.56.99ZM147.53,112.79l-2.23,1.2-.19-.3,2.13-1.35.29.45ZM147.89,113.4l-1.38-.18-.18-.29.88-.68.12-.08.73,1.13-.16.1ZM148.2,115.02l-1.66.93-.18-.28,1.54-1.12.31.48ZM148.51,115.46l-.95-.17-.17-.26.25-.94.16-.1.88,1.37-.16.1ZM147.89,118.04l-.19-.3,2.02-1.51.29.45-2.13,1.35ZM149.14,117.24l-.19-.29.41-1.49.16-.1.7,1.18-1.08.69Z"/>
              <path class="cls-1" d="M151.28,115.94l-.07-.15.25-.69-1.74-3.41-.7-.2-.07-.15,2.13-1.09.07.15-.26.69,2.04,4-1.65.84ZM152.6,115.27l-.16-.31,2.12-1.29.24.48-2.21,1.12ZM153.8,114.66l-.16-.31.44-1.63.17-.08.72,1.42-1.17.59Z"/>
              <path class="cls-1" d="M158.48,112.57l-.05-.16.34-.65-1.24-3.62-.66-.3-.05-.16,1.75-.6,1.68,4.88-1.75.6ZM160.75,106.9l-2.44.64-.11-.33,2.38-.82.17.51ZM160.88,109.23l-1.83.51-.11-.32,1.76-.73.18.54ZM160.96,107.57l-1.3-.5-.11-.33,1.01-.46.13-.05.44,1.27-.18.06ZM159.87,112.09l-.11-.33,2.32-1,.17.51-2.38.82ZM161.08,109.72l-.89-.39-.1-.3.46-.85.18-.06.53,1.54-.18.06ZM161.28,111.6l-.11-.33.75-1.35.18-.06.4,1.32-1.22.42Z"/>
              <path class="cls-1" d="M165.66,110.48c-.23.06-.47.09-.7.1-.23.01-.47,0-.7-.03-.23-.03-.46-.08-.67-.14l.24-1.17.18-.04,1.39,1.03-.89.22-.17-.71c.11.13.29.22.53.25.24.04.5.02.77-.04.29-.07.5-.19.63-.36.13-.17.16-.37.1-.61-.05-.2-.18-.34-.41-.42-.22-.08-.58-.14-1.07-.17-.41-.03-.74-.08-1.01-.16s-.47-.2-.61-.36c-.14-.16-.25-.37-.31-.63-.12-.48-.03-.9.25-1.27.29-.37.73-.62,1.34-.77.2-.05.42-.08.64-.09.23-.01.45,0,.68.03.23.03.45.08.66.14l-.31,1.14-.18.04-1.35-.98.94-.23.17.71c-.13-.14-.29-.23-.5-.28-.21-.05-.43-.04-.66.01-.24.06-.43.16-.55.31-.12.15-.17.32-.12.5.05.19.18.33.41.42.22.09.58.15,1.07.18.41.02.75.08,1.01.16.26.08.46.2.61.36.14.16.25.37.31.63.08.35.07.67-.04.97-.11.3-.31.56-.59.77-.28.22-.64.38-1.07.48Z"/>
              <path class="cls-1" d="M168.28,105.94l-.19-1.52.16-.02,1.1-.05.11.33-1,1.24-.18.02ZM170.05,109.46l-.02-.16.5-.58-.6-4.3.56.12-2.14.49-.07-.53,4.57-.64.07.53-2.2.12.51-.28.6,4.3.64.42.02.16-2.44.34ZM173.04,105.27l-1.31-.91v-.35s1.09-.26,1.09-.26l.17-.02.23,1.52-.19.03Z"/>
              <path class="cls-1" d="M173.93,108.91v-.16s.53-.66.53-.66l-.35.72,2.03-5.15.84-.03,2.45,4.97-.42-.69.6.61v.16s-2.35.1-2.35.1v-.16s.71-.64.71-.64l.1.68-2.13-4.31h.26s-1.06,4.43-1.06,4.43l-.05-.67.77.57v.16s-1.94.08-1.94.08ZM175.15,107.36l-.02-.43,2.85-.12.02.43-2.85.12ZM176.01,104.46l-.62-.62v-.16s.93-.04.93-.04l-.32.82Z"/>
              <path class="cls-1" d="M180.49,108.69v-.16s.58-.46.58-.46l.28-3.82-.49-.54v-.16s1.85.13,1.85.13l-.38,5.15-1.84-.13ZM181.83,108.79l.03-.43,1.04.08c.34.02.64-.04.9-.19.26-.15.47-.38.62-.69.16-.31.25-.68.28-1.11.03-.45,0-.84-.11-1.17-.11-.33-.28-.59-.51-.79-.23-.19-.51-.3-.85-.33l-1.05-.08.03-.43,1.19.09c.59.04,1.1.18,1.52.42.42.24.74.55.95.94.21.39.3.84.26,1.35-.03.39-.13.74-.3,1.05-.17.31-.4.58-.69.79-.29.21-.62.37-1.01.47-.38.1-.8.14-1.24.1l-1.06-.08Z"/>
              <path class="cls-1" d="M190.02,109.92c-.55-.11-1.01-.31-1.38-.6-.37-.29-.63-.66-.78-1.09-.15-.44-.17-.92-.06-1.45.11-.55.32-1,.63-1.36.31-.36.7-.6,1.16-.74.46-.14.98-.15,1.55-.04.56.11,1.02.31,1.39.61.37.29.62.66.77,1.09.15.43.17.92.06,1.46-.11.54-.32.99-.63,1.35-.31.36-.7.61-1.16.74-.46.14-.98.15-1.55.04ZM190.21,109.43c.27.05.52.02.75-.1.23-.12.42-.32.58-.6.16-.28.28-.63.37-1.06.09-.46.11-.88.06-1.23-.05-.36-.16-.65-.33-.87-.17-.22-.41-.37-.7-.42-.28-.05-.53-.02-.75.1-.22.12-.42.32-.58.6-.16.28-.28.64-.37,1.06-.09.46-.11.87-.06,1.23.05.36.16.65.34.88.18.23.41.37.7.42Z"/>
              <path class="cls-1" d="M196.49,111.4l.06-.15.67-.28,1.35-3.58-.32-.66.06-.15,1.73.65-1.82,4.83-1.73-.65ZM197.75,111.87l.15-.41.97.37c.32.12.62.14.91.07.29-.07.56-.24.79-.49.24-.25.43-.58.58-.99.16-.42.23-.8.22-1.15-.01-.35-.1-.65-.27-.9s-.41-.44-.72-.55l-.99-.37.15-.41,1.12.42c.56.21,1,.49,1.34.84.34.35.55.74.65,1.17.09.43.05.89-.13,1.37-.14.36-.33.67-.59.92-.25.25-.55.44-.89.56-.34.12-.7.18-1.1.17-.4,0-.8-.09-1.22-.25l-.99-.37Z"/>
              <path class="cls-1" d="M202.62,113.79l.07-.15.7-.21,1.71-3.42-.25-.69.07-.15,1.65.83-2.31,4.61-1.65-.83ZM203.93,114.45l.16-.31,2.34.96-.24.48-2.25-1.13ZM206.68,113.17l-1.65-.95.15-.3,1.75.74-.25.51ZM205.26,115.12l.15-.31,1.49-.41.17.08-.66,1.21-1.15-.58ZM208.26,111.45l-2.17-1.3.16-.31,2.25,1.13-.24.48ZM206.47,113.66l-.34-.91.14-.28.93-.27.17.08-.73,1.46-.17-.08ZM207.92,112.07l-.55-1.28.15-.31,1.04.4.13.06-.6,1.21-.17-.08Z"/>
              <path class="cls-1" d="M211.9,119.3c-.45-.32-.78-.68-.98-1.08-.21-.4-.29-.82-.24-1.27s.23-.88.54-1.32c.24-.35.52-.62.83-.82.31-.2.63-.33.98-.39.35-.06.7-.04,1.06.05.36.09.72.26,1.07.51.2.14.38.3.55.47.17.18.32.36.46.55.14.19.24.38.31.57l-1.1.55-.15-.1-.16-1.74.77.54-.4.58c.01-.19-.03-.36-.11-.53-.08-.17-.21-.31-.39-.44-.23-.16-.49-.24-.78-.22-.29.02-.58.11-.86.29-.29.18-.54.42-.77.74-.25.35-.41.7-.47,1.04-.07.34-.05.66.07.96.11.3.31.55.6.75.22.15.43.23.65.23.21,0,.44-.07.68-.21l.15.28c-.32.27-.69.4-1.09.39-.41,0-.81-.14-1.2-.42ZM213.67,120.56l-.52-1.25.73-1.03-.2-.76.09-.13,1.89,1.34-.09.13-.59.14-1.17,1.66-.14-.1Z"/>
              <path class="cls-1" d="M220.9,120.71l-.13-.84.11-.12,1.45,1.28-.11.12-.78.04-1.68,1.9c-.27.31-.57.52-.9.63-.33.11-.67.13-1.01.05-.35-.08-.68-.26-.99-.54-.56-.49-.87-1-.94-1.52-.07-.52.11-1.02.53-1.49l1.74-1.97-.07-.73.11-.12,1.78,1.58-.11.12-.73.02-1.59,1.8c-.34.38-.52.73-.54,1.04-.02.32.12.6.41.86.29.26.6.36.91.3.31-.06.63-.28.97-.66l1.56-1.76Z"/>
              <path class="cls-1" d="M219.15,125.12l.12-.11h.85s-.78.18-.78.18l5.25-1.77.57.62-2.21,5.08.25-.76-.08.85-.12.11-1.6-1.74.12-.11.95.13-.46.51,1.93-4.41.18.19-4.08,2.06.48-.47.06.96-.12.11-1.31-1.43ZM221.13,125.06l.32-.29,1.93,2.1-.32.29-1.93-2.1ZM223.89,123.85l.07-.87.12-.11.64.69-.83.29Z"/>
              <path class="cls-1" d="M223.55,130l.13-.1.72.13,3.03-2.02.21-.89.13-.1.51.69-3.42,2.94-.09.72-.13.1-1.08-1.49ZM225.95,133.3l1.4-5.08.84-.61.44.6-1.34,4.84h-.38s2.61-2.48,2.61-2.48l.09-.72.13-.1,1.08,1.49-.13.1-.72-.13-3.64,2.65-.4-.55Z"/>
              <path class="cls-1" d="M227.02,134.8l.14-.08.83.18-.8.02,5.51-.58.42.73-3.27,4.47.42-.69-.26.82-.14.08-1.18-2.05.14-.08.9.34-.56.4,2.84-3.88.13.23-4.43,1.12.57-.35-.15.95-.14.08-.97-1.69ZM228.96,135.17l.38-.22,1.42,2.47-.38.22-1.42-2.47ZM231.92,134.59l.26-.83.14-.08.47.82-.88.1Z"/>
              <path class="cls-1" d="M230.82,142.16c-.09-.2-.15-.42-.18-.67-.03-.25-.03-.49,0-.74.03-.25.09-.47.18-.67l1.2.15.08.17-.99,1.38-.34-.77,1.06-.47c-.27.25-.45.49-.53.7-.08.22-.06.45.05.69.09.2.25.33.47.37.22.04.49-.01.8-.15l2.71-1.21.24-.69.15-.07.97,2.17-.15.07-.67-.28-2.51,1.12c-.54.24-1.03.27-1.48.07-.44-.19-.8-.58-1.06-1.18Z"/>
              <path class="cls-1" d="M237.85,147.88l.32-.79.16-.05.6,1.84-.16.05-.69-.36-2.42.79c-.39.13-.75.16-1.09.09-.34-.07-.64-.23-.9-.47s-.45-.57-.58-.97c-.23-.71-.25-1.3-.05-1.78.2-.48.6-.82,1.21-1.02l2.5-.82.31-.66.16-.05.74,2.26-.16.05-.64-.35-2.28.75c-.48.16-.81.37-.99.63-.18.26-.2.58-.08.96.12.37.33.61.63.72.3.11.69.08,1.17-.08l2.24-.73Z"/>
              <path class="cls-1" d="M234.12,150.81l.16-.04.74.42-.77-.22,5.43,1.11.18.82-4.47,3.27.6-.53-.5.7-.16.04-.5-2.31.16-.04.76.59-.65.21,3.88-2.84.06.26-4.56-.28.65-.17-.43.86-.16.03-.41-1.9ZM235.85,151.74l.42-.09.61,2.78-.42.09-.61-2.78ZM238.85,152.09l.5-.71.16-.04.2.92-.86-.17Z"/>
              <path class="cls-1" d="M235.5,157.83l.16-.02.57.51,4.31-.51-.14.56-.44-2.15.53-.06.54,4.58-.53.06-.07-2.2.26.52-4.31.51-.43.63-.16.02-.29-2.45ZM239.06,156.14l1.53-.16.02.16.03,1.1-.33.1-1.21-1.03-.02-.18ZM239.62,160.91l.94-1.29.35.02.23,1.08.02.17-1.52.2-.02-.19Z"/>
              <path class="cls-1" d="M235.92,165.25c0-.56.1-1.06.31-1.48s.52-.75.92-.98c.4-.23.87-.35,1.41-.36.56,0,1.04.11,1.45.34.41.23.73.56.96.99.23.43.34.93.35,1.52,0,.57-.1,1.06-.31,1.48-.21.42-.52.74-.91.98-.39.23-.87.35-1.41.36-.55,0-1.04-.11-1.45-.34s-.73-.56-.96-.99c-.23-.43-.34-.93-.35-1.52ZM236.44,165.34c0,.28.08.52.25.72.16.2.4.35.71.45s.68.15,1.11.14c.47,0,.88-.07,1.22-.19.34-.12.6-.29.79-.5.19-.22.28-.47.27-.77,0-.28-.08-.52-.24-.72-.16-.2-.4-.34-.71-.44s-.68-.15-1.12-.14c-.47,0-.87.07-1.22.19-.34.12-.61.29-.79.51-.19.22-.28.47-.27.77Z"/>
            </g>
            <g>
              <path class="cls-1" d="M133.18,206.15l.09-.27,1.17.07c.6.04,1.1.05,1.5.04.39-.01.71-.05.95-.12.24-.07.44-.17.59-.31.23-.21.37-.43.4-.67.03-.24-.04-.46-.22-.66-.12-.14-.27-.24-.45-.29-.18-.06-.36-.07-.53-.03l.54-.43.54.61-1.49.18-.12-.13.38-1.14c.21.07.4.15.58.25s.36.22.53.35c.17.13.32.28.46.44.46.52.73.98.81,1.4.08.42-.03.76-.32,1.02-.13.12-.3.2-.5.26-.2.05-.45.08-.74.07-.3,0-.66-.04-1.08-.12-.43-.07-.93-.18-1.52-.32l-.51-.07.21-.11,1.45,1.64,1.06.08.12.14-1.26,1.08-2.63-2.97Z"/>
              <path class="cls-1" d="M139.89,213.15c-.36-.32-.61-.67-.74-1.05-.13-.38-.14-.78-.04-1.19.1-.41.32-.8.66-1.19.37-.42.75-.72,1.16-.89.41-.18.81-.23,1.22-.17.41.07.79.26,1.16.58.36.32.6.66.73,1.05.13.38.14.78.04,1.19-.1.41-.32.8-.66,1.19-.36.41-.75.71-1.16.89-.41.18-.82.23-1.22.17-.41-.07-.79-.26-1.15-.57ZM140.19,212.81c.16.14.35.2.55.19.21-.02.44-.12.69-.3s.53-.45.84-.8c.48-.55.79-1.02.91-1.41.12-.39.06-.69-.18-.9-.17-.14-.35-.21-.55-.19-.2.02-.43.12-.69.3-.26.18-.54.45-.84.8-.48.55-.79,1.02-.91,1.41-.12.39-.06.69.18.9Z"/>
              <path class="cls-1" d="M144.2,216.49l.02-.28,1.15-.22c.6-.11,1.08-.22,1.46-.33.38-.11.68-.23.89-.35.22-.13.38-.27.5-.44.18-.26.25-.51.22-.75-.03-.24-.15-.44-.37-.59-.15-.1-.32-.16-.51-.17-.19-.01-.36.02-.52.1l.42-.54.67.46-1.41.54-.15-.1.09-1.2c.22.01.42.05.63.1.2.05.4.13.6.21.2.09.38.19.56.31.57.39.94.77,1.13,1.16s.16.74-.06,1.07c-.1.15-.24.27-.42.37s-.41.19-.7.25c-.29.07-.65.12-1.08.15s-.95.06-1.55.07l-.51.06.18-.16,1.81,1.23,1.05-.18.15.1-.96,1.36-3.27-2.23Z"/>
              <path class="cls-1" d="M150.78,219.33v-.25s3.38-2.26,3.38-2.26l1.52.78-.09.17-4.49,1.48-.08.13-.25-.05ZM150.78,219.33l.47-.31,3.9,2-.22.44-4.15-2.12ZM151.67,221.12l.07-.14.81-.06.95-1.85.18-.07.98.5-1.01,1.98.43.7-.07.14-2.33-1.2Z"/>
            </g>
            <g>
              <path class="cls-1" d="M206.5,221.37l-.24-.15.35-1.12c.18-.58.31-1.06.4-1.44.08-.38.12-.7.11-.95-.01-.25-.06-.47-.16-.65-.14-.28-.33-.46-.56-.55-.23-.09-.46-.07-.7.05-.16.09-.3.21-.39.37-.1.16-.15.33-.15.51l-.29-.62.72-.38-.18,1.49-.16.08-1.02-.64c.11-.18.24-.35.38-.51.14-.15.3-.3.47-.43.17-.13.35-.25.53-.35.61-.32,1.13-.47,1.55-.45s.73.2.91.56c.08.16.13.34.13.54,0,.21-.03.45-.1.74s-.2.63-.37,1.02c-.17.4-.4.86-.67,1.4l-.19.48-.06-.23,1.94-1.02.33-1.01.16-.09.75,1.49-3.51,1.84Z"/>
              <path class="cls-1" d="M214.91,216.55c-.4.28-.8.43-1.2.46s-.79-.05-1.16-.25c-.37-.2-.7-.51-.99-.93-.32-.46-.51-.9-.58-1.34-.07-.44-.03-.85.14-1.22.16-.38.44-.71.84-.98.39-.27.79-.43,1.19-.46.4-.03.79.05,1.16.25s.7.51.99.93c.31.45.51.9.58,1.34.07.44.03.85-.13,1.23-.16.38-.44.7-.83.98ZM214.64,216.17c.18-.12.28-.29.32-.49.03-.2,0-.45-.12-.74-.12-.29-.31-.63-.57-1.01-.42-.6-.8-1.01-1.14-1.22-.34-.21-.65-.23-.91-.04-.18.13-.29.29-.32.49-.03.2,0,.45.12.74.11.29.3.63.57,1.01.42.6.8,1.01,1.15,1.22.35.21.65.23.92.04Z"/>
              <path class="cls-1" d="M218.56,210.16l-.13-.15c.15-.14.26-.29.33-.46.06-.17.08-.34.06-.51-.02-.17-.09-.32-.2-.45-.15-.17-.34-.26-.57-.26-.22,0-.43.08-.63.25-.15.13-.27.28-.35.45-.08.17-.13.35-.14.55l-.37-.47.61-.66.19,1.59-.14.12-1.14-.39c.1-.3.25-.59.45-.87.2-.28.44-.55.73-.8.3-.27.6-.47.89-.59.29-.13.55-.18.79-.15.24.02.44.13.6.31.26.3.31.66.15,1.07-.16.42-.54.89-1.13,1.41ZM220.67,212.03c-.3.26-.6.47-.9.63s-.63.26-.97.32l-.27-1.19.14-.12,1.58.4-.68.52-.44-.45c.2.04.39.04.58-.02.18-.05.36-.16.53-.31.15-.13.25-.28.3-.44.05-.16.06-.33.02-.5-.04-.17-.12-.33-.25-.48-.13-.15-.29-.25-.47-.3-.18-.05-.37-.05-.56,0s-.37.14-.53.29l-.26-.3c.63-.56,1.18-.89,1.65-.99.47-.1.86.02,1.16.36.21.23.32.49.34.78.02.29-.05.59-.21.9-.16.31-.41.61-.75.91ZM219.1,209.75l-.13-.15.25-.22.13.15-.25.22Z"/>
              <path class="cls-1" d="M226.28,206.42c-.32.36-.67.61-1.06.73-.38.13-.78.14-1.19.03-.41-.11-.8-.33-1.19-.67-.42-.37-.71-.76-.89-1.16-.17-.41-.23-.81-.16-1.22.07-.41.26-.79.58-1.15.32-.36.67-.6,1.05-.73.38-.13.78-.14,1.19-.03.41.11.8.33,1.19.67.41.37.71.75.88,1.16.18.41.23.82.16,1.22-.07.41-.26.79-.58,1.15ZM225.93,206.12c.14-.16.21-.34.19-.55-.02-.21-.11-.44-.3-.69-.18-.25-.45-.54-.79-.84-.55-.49-1.02-.79-1.4-.92-.38-.13-.68-.07-.9.17-.15.17-.21.35-.19.55.02.2.12.44.3.69s.44.54.79.85c.55.49,1.02.79,1.41.91.39.12.69.06.9-.18Z"/>
            </g>
          </g>
          <g>
            <path class="cls-1" d="M192.01,190.89c.58-.39,1.3-1.07,2.07-1.9-.09.12-.19.23-.3.33-.11.09-.21.19-.3.32-.21.21-.4.39-.6.56-.32.28-.62.53-.88.69Z"/>
            <path class="cls-1" d="M192.36,191.47c-.14-.11-.28-.19-.42-.28v.02c-.11-.11-.18-.18-.18-.18.03-.02.07-.04.1-.05,0,0,.18.16.49.49Z"/>
            <path class="cls-1" d="M150.66,132.92c0,2.51-2.13,4.54-4.77,4.54-.32,0-.65-.03-.95-.08,2.46-.19,4.38-2.15,4.38-4.54,0-2.2-1.63-4.04-3.81-4.46.13,0,.26-.02.39-.02,2.63,0,4.77,2.04,4.77,4.56Z"/>
            <path class="cls-1" d="M212.41,148.11l-2,9.31-13.41-5.16c.23-.03.57-.1,1.07-.23,1.45-.42,14.35-3.93,14.35-3.93Z"/>
            <path class="cls-1" d="M139.3,135.44l-3.25,1.66c.39-.58.78-1.15,1.18-1.71l1.87-.5c.06.19.11.37.19.55Z"/>
            <path class="cls-1" d="M138.91,134.02l-.81.21c.16-.21.32-.42.48-.63h.23c.02.13.05.27.1.42Z"/>
            <path class="cls-1" d="M139.96,136.72c-1.6,1.29-3.98,3.23-6.98,5.71.65-1.29,1.34-2.55,2.08-3.78l4.62-2.39c.08.16.18.32.27.47Z"/>
            <path class="cls-1" d="M140.85,137.8l-1.05,1.31c-.16.06-.29.13-.4.21,0,0-.03.15-.03.32v.02l-10.12,12.61c.73-2.73,1.66-5.38,2.81-7.9,3.72-3.05,6.63-5.45,8.47-6.93.08.13.19.26.32.37Z"/>
            <path class="cls-1" d="M140.04,142.65l-12.46,25.08c-.03-.74-.05-1.5-.05-2.26,0-3.81.42-7.53,1.21-11.1l11.09-13.83c0,.45.03,1.23.21,2.12Z"/>
            <path class="cls-1" d="M141.53,145.85l-10.33,38.74c-1.89-4.72-3.09-9.76-3.51-15.01l12.72-25.63c.05.15.11.27.18.42.26.58.6,1.08.94,1.49Z"/>
            <path class="cls-1" d="M143.52,157.78l-2.52,42.41c-3.81-4.17-6.95-8.99-9.23-14.24l9.47-35.46c.03.1.06.27-.03.44-.13.21-.15.63-.03.89.11.26.16.82.16.95-.02.11,0,.91.48,1.71.4.68,1.02,1.23,1.7,3.3Z"/>
            <path class="cls-1" d="M143.1,147.3s-.65.03-1.1.32l.26-.99c.47.44.84.66.84.66Z"/>
            <path class="cls-1" d="M156.75,211.93c-5.61-2.7-10.63-6.38-14.9-10.83l2.41-40.5c.74,3.35,1.6,7.87,1.6,7.87,0,0,.78,4.93.94,5.77.11.68,1.32,4.82,1.88,6.5,0,.06,0,.13.02.19.42,1.29,1.55,4.14,4.11,4.3l3.96,26.7Z"/>
            <path class="cls-1" d="M168.81,197.52c-.5,1.16-1.02,2.55-1.57,4.3-1.75,5.58-2.71,10.2-3.22,12.96-2.15-.65-4.25-1.45-6.27-2.38l-4.04-27.22c.5-.08,1.08-.27,1.7-.58,2.29-1.15,4.93-3.04,6.95-4.61l6.45,17.52Z"/>
            <path class="cls-1" d="M169.33,196.34l-6.22-16.92c1.55-1.24,2.6-2.17,2.6-2.17-.84-1.89-.15-6.46-.15-6.46,0,0,.1,2.78.94,6.32.84,3.52,4.14,7.21,5.03,11.47.66,3.17-.42,3.9-2.2,7.76Z"/>
            <path class="cls-1" d="M173.64,137.85c-1.07,1.6-1.52,3.43-1.83,4.72l-19.67-7.58c.06-.19.11-.37.15-.57l21.35,3.43Z"/>
            <path class="cls-1" d="M171.59,143.44c-.39,1.44-.76,3.31-1,5.16l-18.99-12.31c.08-.15.16-.29.23-.45l19.77,7.61Z"/>
            <path class="cls-1" d="M170.47,149.6c-.1.86-.15,1.68-.15,2.44,0,2.21-.91,3.78-1.21,4.27l-18.42-18.8c.16-.15.29-.31.39-.47l19.39,12.56Z"/>
            <path class="cls-1" d="M168.53,157.02c-1.79,2.41-2.18,5.41-2.18,5.41,0,0-.32.29-1.02.97l-14.29-22.71c.13-.15.26-.53-.11-.79-.11-.08-.32-.18-.57-.27l-.73-1.16c.15-.08.28-.19.4-.31l18.49,18.86Z"/>
            <path class="cls-1" d="M164.65,164.08c-.45.45-.99,1.02-1.63,1.68-.91.95-2.17,2.6-3.39,4.27l-9.71-26.38s.02-.02.02-.03c.31-.94.48-1.6.57-2.04l14.16,22.5Z"/>
            <path class="cls-1" d="M159,170.9c-1.49,2.05-2.78,3.98-3.09,4.41-.08-.48-.4-1.99-1.21-3.89,0,0-1.49-3.1-2.65-5.11-.44-.76-1.03-1.97-1.63-3.23l-2-13.51c.11-.13.23-.32.24-.66.02-.37-.23-.61-.45-.76l-.26-1.73c.47-.4,1.02-.95,1.44-1.63l9.62,26.12Z"/>
            <path class="cls-1" d="M149.04,159.97c-.32-.74-.57-1.31-.65-1.54-.29-.79-.89-2.49-.65-3.89,0,0,.18-.73.32-1.08l.97,6.51Z"/>
            <path class="cls-1" d="M147.2,124.86l-.41,1.4c-.2-.04-.39-.06-.6-.07l.04-.52c.32-.28.63-.56.97-.8Z"/>
            <path class="cls-1" d="M150.2,122.65l-2.1,3.99c-.17-.07-.32-.12-.49-.17l.73-2.48c.61-.46,1.24-.92,1.87-1.34Z"/>
            <path class="cls-1" d="M156.1,119.2l-6.74,8.13c-.15-.12-.31-.21-.48-.3l2.82-5.35c1.42-.89,2.87-1.72,4.39-2.48Z"/>
            <path class="cls-1" d="M167.04,115.21l-16.62,13.04c-.11-.13-.24-.26-.38-.36l7.93-9.54.02-.02c2.89-1.31,5.92-2.35,9.05-3.12Z"/>
            <path class="cls-1" d="M182.72,113.86l-31.42,15.54c-.08-.16-.18-.31-.31-.46l18.03-14.15c3.36-.67,6.83-1.03,10.38-1.03,1.11,0,2.22.03,3.32.1Z"/>
            <path class="cls-1" d="M200.12,118.01l-48.24,12.67c-.05-.16-.11-.33-.2-.49l32.82-16.2c5.49.54,10.74,1.92,15.62,4.03Z"/>
            <path class="cls-1" d="M216.01,128.59l-63.6,3.5c-.03-.18-.07-.36-.11-.54l49.27-12.95c5.37,2.49,10.26,5.9,14.45,9.98Z"/>
            <path class="cls-1" d="M226.17,143.8h.02c-.66-1.45-1.39-2.86-2.2-4.23l-4.61,1.34,1.29-6.35c2.55,3.36,4.7,7.03,6.37,10.97l-4.19-.68,3.31-1.05Z"/>
            <path class="cls-1" d="M216.22,129.5l-.02.11-2.94,13.29-.86.26-24.98-3.99-.18-.04c-.09-.19-.18-.33-.28-.49.04.04.07.07.09.11.04.04.05.05.07.07,0-.02-.02-.04-.02-.05-.02-.05-.05-.16-.11-.28-.05-.12-.12-.26-.23-.44-.05-.11-.14-.23-.21-.35-.11-.14-.21-.28-.35-.44-.12-.14-.26-.3-.42-.46-.14-.14-.32-.3-.51-.46-.19-.16-.42-.33-.67-.49-2.23-1.53-4.52-1.34-4.52-1.34-2.81.09-4.62,1.14-5.84,2.53l-21.82-3.52c0-.18.02-.35.02-.53l63.76-3.5Z"/>
            <path class="cls-1" d="M210.54,143.77l-9.79,3.2s-2.18.69-3.34,2.39c-.95,1.39-1.3,2.18-1.11,2.62l-6.63-2.55c-.07-1.49-.14-3.06-.65-5.12-.07-.3-.14-.58-.23-.86,0-.02-.02-.05-.02-.07-.05-.21-.12-.4-.19-.6-.02-.09-.04-.16-.07-.25-.21-.88-.47-1.71-.77-2.43l.14.02,22.66,3.64Z"/>
            <path class="cls-1" d="M231.05,165.37l-15.22-5.87,2.52-13.24,2.57-.81,6.53,1.03c2.31,5.85,3.59,12.22,3.6,18.88Z"/>
            <path class="cls-1" d="M231.03,166.33c-.1,6.67-1.49,13.06-3.91,18.89l-14.4-9.33.97-5.09c.58-.84,1.6-2.34,2.12-3.41.73-1.54.06-1.31.06-2.34s.29-1.1-.29-1.55c-.19-.13-.32-.28-.44-.39l.52-2.7,15.37,5.92Z"/>
            <path class="cls-1" d="M210.21,158.31l-3.01,14.01-5.77-3.75c-.76-1.39-1.65-2.73-2.72-3.85-1.94-2.05-3.41-3.1-4.36-3.65-.7-1.5-1.71-2.72-2.51-3.73-1.41-1.79-1.78-2.72-2.04-5.17-.06-.6-.1-1.16-.11-1.75l20.51,7.89Z"/>
            <path class="cls-1" d="M207.01,173.26l-1.37,6.38c-.28-.74-.55-1.52-.79-2.23-.45-1.34-1.24-4.27-2.62-7.24l4.78,3.09Z"/>
            <path class="cls-1" d="M203.81,188.93l-.52,2.26-5.9-6.03c.92-.95,1.53-1.89,1.81-2.36,1.57,3.07,3.6,5.37,4.61,6.12Z"/>
            <path class="cls-1" d="M226.76,186.06c-2.81,6.42-6.88,12.17-11.93,16.92l-6.09-6.22,3.8-19.91,14.22,9.21Z"/>
            <path class="cls-1" d="M194.28,192.93c-.12-.1-.25-.18-.37-.28,0,0,0,0,0,0,.12.09.25.18.37.28Z"/>
            <path class="cls-1" d="M203.05,192.24l-2.04,8.9s-.28-.56-.84-1.48c-.05-.11-.14-.21-.21-.33-.12-.19-.26-.4-.42-.63-.16-.23-.32-.46-.49-.7-.05-.09-.11-.16-.19-.25-.18-.25-.37-.49-.58-.74-.16-.23-.35-.46-.56-.7-.18-.23-.37-.46-.62-.7-.21-.23-.44-.47-.67-.7-.25-.26-.51-.51-.77-.76-.26-.26-.55-.51-.83-.76-.18-.18-.35-.33-.55-.46-.6-.53-1.23-1-1.92-1.46-.14-.11-.28-.19-.42-.28v.02c-.11-.11-.18-.18-.18-.18.03-.02.07-.04.1-.05.04-.04.09-.05.14-.09.11-.07.23-.16.33-.25.05-.04.09-.07.12-.11.09-.05.18-.12.25-.19.09-.07.18-.16.26-.25.18-.16.35-.33.55-.51.18-.19.37-.39.56-.6.23-.25.44-.49.67-.74.23-.26.46-.53.67-.79.23-.28.46-.55.69-.83.21-.26.42-.53.65-.79l6.29,6.4Z"/>
            <path class="cls-1" d="M214.17,203.59c-2.49,2.26-5.22,4.3-8.11,6.06l.03-.1.74-2.75,1.71-8.97,5.62,5.75Z"/>
          </g>
          <path class="cls-1" d="M138.81,133.6h-.23c.06-.08.13-.16.18-.23.02.06.03.15.05.23Z"/>
          <path class="cls-1" d="M149.01,139.19c-.15-.03-.29-.06-.42-.08.1-.05.19-.1.27-.15l.15.23Z"/>
          <path class="cls-1" d="M150.66,132.92c0,2.51-2.13,4.54-4.77,4.54-.32,0-.65-.03-.95-.08,2.46-.19,4.38-2.15,4.38-4.54,0-2.2-1.63-4.04-3.81-4.46.13,0,.26-.02.39-.02,2.63,0,4.77,2.04,4.77,4.56Z"/>
          <path class="cls-1" d="M203.82,188.92v.02l-.53,2.27-.25,1.04-2.04,8.9s-.28-.56-.84-1.48c-.05-.11-.14-.21-.21-.33-.12-.19-.26-.42-.42-.63-.14-.23-.32-.46-.49-.7-.05-.09-.11-.16-.19-.25-.16-.25-.35-.49-.58-.74-.16-.23-.35-.46-.56-.7-.18-.23-.37-.46-.62-.7-.19-.23-.42-.47-.67-.7-.25-.26-.51-.51-.77-.76-.26-.26-.55-.53-.83-.76-.18-.18-.35-.33-.55-.46-.6-.53-1.23-1-1.92-1.46-.14-.11-.28-.19-.42-.28v.02c-.3-.18-.47-.25-.55-.26.05-.04.09-.07.12-.11,2.71-1.99,4.68-4.39,5.99-6.33.07-.09.12-.18.18-.26.12-.19.23-.37.33-.55.37-.56.67-1.05.9-1.48.09.19.19.39.3.58.16.32.32.65.51.95.05.11.12.21.18.32.16.28.32.55.49.79.04.05.07.11.11.16.02.04.04.07.07.11.16.26.33.53.53.77.21.3.42.58.63.84.72.93,1.41,1.62,1.9,2.04.07.05.14.09.19.14Z"/>
          <polygon class="cls-1" points="191.38 190.93 191.38 190.93 191.38 190.93 191.38 190.93"/>
          <path class="cls-1" d="M146.7,128.23s-.04,0-.05,0c.01,0,.02,0,.03.01,0,0,.01,0,.02-.01Z"/>
          <path class="cls-1" d="M146.64,129.12s.05-.03.1-.07c-.06.02-.1.04-.1.07Z"/>
          <polygon class="cls-1" points="146.35 136.13 146.35 136.13 146.35 136.13 146.35 136.13"/>
          <path class="cls-1" d="M191.38,190.93s0,0,0,0c0,0,0,0,.02,0,.04-.04.08-.07.12-.11-.05.03-.09.07-.14.1Z"/>
          <path class="cls-1" d="M146.7,128.23s-.01,0-.02.01c-.01,0-.02,0-.03-.01.02,0,.04,0,.05,0Z"/>
          <path class="cls-1" d="M146.74,129.05c-.05.04-.09.07-.1.07,0-.03.04-.05.1-.07Z"/>
          <polygon class="cls-1" points="146.35 136.13 146.35 136.13 146.35 136.13 146.35 136.13"/>
          <g>
            <g>
              <path class="cls-1" d="M202.4,226.72s-.05.02-.07.03c0-.25,0-.51-.02-.79.03-.02.05-.02.09-.04,0-.76,0-1.6-.02-2.48v-.04c-.02-2.88-.09-6.1-.21-7.44-.26-2.71-1.18-12.9-4.13-17.42-.21-.33-.44-.65-.65-.97l-.02-.02c-.04-.05-.07-.09-.09-.14-.56-1-1.16-1.95-1.79-2.72-1.19-1.48-2.18-2.44-2.88-3.02.09.07.18.14.28.21.33.21.67.46.97.72.02,0,.03.02.05.03-.49-.41-.99-.81-1.55-1.18-.14-.11-.28-.19-.42-.28v.02c-.11-.11-.18-.18-.18-.18.03-.02.07-.04.1-.05.04-.04.09-.05.14-.09.44-.28.95-.76,1.51-1.3.18-.19.37-.39.56-.6.23-.25.44-.49.67-.74.23-.26.46-.53.67-.79.23-.28.46-.55.69-.83.21-.26.42-.53.65-.79v-.02c.07-.07.12-.14.18-.21-.05.07-.12.12-.19.19l-.35.28c.04-.05.14-.16.28-.35.14-.18.32-.44.53-.74v-.02c.11-.14.21-.3.32-.47.07-.09.12-.18.18-.26.44-.69.9-1.51,1.28-2.43.67-1.86,1.16-4.71-.37-7.74,0,0-1.62-3.59-8.12-6.12-6.52-2.55-8.67-3.27-10.21-3.99-1.51-.69-3.27-1.48-3.83-4.27.21.56,1.25,2.53,5.77,3.15,5.29.72,10.42,1.72,14.15,4.31.83.56,1.51,1.16,2.09,1.79-.58-.93-1.21-1.74-1.81-2.39-.9-1.02-1.76-1.74-2.34-2.18-.19-.14-.37-.25-.58-.37-.62-.28-1.42-.62-2.36-.86-.83-.26-1.78-.47-2.76-.6,0,0-1.69-.44-2.97-3.01-.04-.05-.05-.12-.09-.18-.25-.53-.44-1.02-.58-1.46-.51-1.6-.39-2.51-.39-2.51,0,0-1.41.4-2.62.56-.28.02-.56.03-.81.03,0,0-.02-.18.19-.44.21-.32.74-.76,1.92-1.21,2-.81,2.62-3.88,2.71-5.36.04-.18.04-.32.04-.44,0-.18,0-.35-.02-.53-.02-1.02-.07-2.07-.07-2.07,0,0-1.05-1.48-2.09-2.18-1.02-.7-1.18-.25-1.42,0-.25.26-1.23.42-1.81-.42-.58-.88-.51-1.51-.51-1.51,0,0,2.8,0,5.08,1.88,0,0,.93.83,1.14,1.09.23.28.49.49.58.14.09-.39-.65-1.27-1.41-2,.18.12.88.58,1.28,1.05.42.55.55.23.4-.05-.14-.26-1.88-1.9-2.76-2.51,0,0,1.07.44,1.62.93.55.51.88.58.83.18-.05-.28-1.3-2-3.38-3.09-.83-.44-1.76-.76-2.81-.88-.76-.07-1.49-.04-2.16.07-2.69.47-4.73,2.22-5.52,3.5,0,0-.4.55-.3.77v.02s.05.04.11.02c.28-.02.95-.51,1.65-.98.86-.53,1.11-.53,1.11-.53,0,0-1.21.74-1.95,1.53-.05.09-.12.16-.19.21-.53.62-.42.79-.23.74.09-.04.32-.26.65-.56.4-.39.98-.84,1.65-1.18-.21.18-.95.74-1.42,1.27-.12.12-.23.26-.3.37-.32.55.18.21.77-.19.16-.09.32-.21.47-.3.74-.46,2.14-1.39,4.57-1.48,0,0,.14,2.27.14,2.74,0,.35-.23.65-.49.84-.12.12-.26.19-.37.23-.35.11-.6.11-.44-.3.04-.05.05-.12.09-.19.14-.51.16-1.21.07-1.69-.09-.49-.25-.88-1.35-.37-.47.23-1.04.58-1.49.97-.3.23-.58.47-.79.69-.19.19-.37.39-.46.53-.39.56-.49.98-.14,1.95.39.98,1.18,2.72,1.34,3.22.16.51.46,1.51,1.05,1.23.58-.26,2.67-1.53,3.96-1.07,1.28.46,1.86.95,2.46.98.51.05,1.02-.05,1.18-.09-.35.21-3.11,1.88-3.94,2.2-.44.16-.83.23-1.32.39-.3.07-.63.21-1.05.4-.26.11-.55.28-.88.47-1.79,1-1.62,2.6-1.62,3.78-.02,1.16.05,2.25,1.35,4.43,0,0,2.43,4.34,8.47,7.93,6.05,3.59,8.44,4.96,9.81,8.68.4,1.09.51,2.27.39,3.48-.04.35-.11.74-.19,1.11-.53,2.43-1.97,4.78-3.81,6.47l-.07-.04c.49-.93,2.25-5.08-2.48-9.65,0,0-2.23-2.32-6.91-4.04-4.68-1.71-12.64-6.31-12.41-11.97,0,0-1.32,5.47,3.32,9.23,0,0,1.78,1.55,6.26,4.04,4.47,2.5,7.16,4.06,7.93,7.37.79,3.29-1.41,5.41-2.81,6.79-.11.11-.25.26-.4.42-.19.21-.4.46-.62.76-1.62,2.06-3.96,5.91-4.73,10.51-.83,4.78-.77,8.79-.46,12.82v.02c0,.09,0,.18.02.25,0,.07.02.16.02.21.02.16.04.35.05.53,0,.11.02.21.04.33.09,1.07.26,2.69.51,4.54,0,.05,0,.12.02.16.05.32.11.63.14.95.05.28.11.6.16.88.05.33.11.65.18.98.39,2.04.83,3.94,1.18,5.29,0,.04.02.05.02.09.07.21.11.4.18.58.1.28.19.56.3.84.02.09.05.18.09.23l.18.02c11.32-.12,19.74-3.55,19.74-3.55l.86-.33.61-.25s0-.84-.02-2.11ZM180.83,144.94c.26.02.58.37.58.37.16.09.18.21.09.25-.12.05-.67-.14-.88-.26-.21-.14-.05-.37.21-.35ZM180.74,148.91c-.37-.07-.95.04-1.32,0-.35-.05-.72-.09-.37-.37.35-.28,1.09-.19,1.09-.19.56-.02,1.16.28,1.2.42.05.16-.19.19-.6.14ZM181.76,147.98c-.19-.09-.6-.39-1.32-.6-.72-.21-1.46.14-1.46.14,0,0-.05.02-.21.11-.12.09-.56.53-1.02.55-.42.02-.35-.16-.28-.18.07,0,.33-.18.67-.46.32-.3.97-.6,1.78-.67.35-.04.65.04.91.12.09.02.14.05.21.09.21.09.39.21.49.28.28.19.81.58.76.67-.05.12-.33.04-.53-.05ZM193.64,173.56s-2.81-2.2-5.68-3.45c-2.87-1.25-6.1-3.45-6.43-3.97,0,0,2.94,1.56,8.88,4.01,5.96,2.41,8.37,6.36,6.73,10.81.07-.47.53-3.87-3.5-7.4ZM185.38,232.75c-2.85-5.61-4.18-11-4.66-15.68h-.02v-.02c-.95-8.9,1.07-15.29,1.28-15.93-1.35,5.08.18,14.17.49,15.84v.02c.04.16.05.25.05.25,2.09,9.98,6.12,15.17,6.12,15.17l-3.27.35ZM192.54,191.65s-.02-.02-.04-.04c.02,0,.02.02.04.02v.02Z"/>
              <path class="cls-1" d="M187.06,139.54s.12.18.33.53c.19.32.47.84.76,1.51.14.37.3.76.44,1.21-.02-.09-.04-.16-.07-.25-.21-.88-.47-1.71-.77-2.43l.14.02c-.14-.33-.3-.67-.46-.97l-.18-.04c-.09-.19-.18-.33-.28-.49-.53-.63-2.36-2.5-5.31-2.41,0,0,2.8.56,4.92,2.78.18.18.33.33.47.53Z"/>
            </g>
            <g>
              <path class="cls-1" d="M190.68,85.64c5.66,5.32,11.76,5.48,11.76,5.48-3.66-3.62-.91-8.6-.91-8.6l-3.59-1.67c-3.62,5.41-7.26,4.79-7.26,4.79Z"/>
              <path class="cls-1" d="M168.38,85.64s-3.64.62-7.26-4.79l-3.59,1.67s2.75,4.98-.91,8.6c0,0,6.1-.16,11.76-5.48Z"/>
              <path class="cls-1" d="M216.37,129.49h.02c.76.78,1.47,1.57,2.17,2.38.36.44.73.87,1.08,1.31.36.45.69.91,1.03,1.36v.02c1.21,1.6,2.31,3.26,3.31,5.01.03.05.05.1.08.15.37.63.73,1.29,1.07,1.94.37.71.73,1.42,1.05,2.15,3.04,6.58,4.73,13.9,4.73,21.62,0,18.7-9.94,35.09-24.82,44.14v.02l-.03.08-.79,2.96c16.57-9.2,27.78-26.86,27.78-47.11,0-29.72-24.16-53.88-53.87-53.88s-53.88,24.16-53.88,53.88c0,24.32,16.19,44.93,38.37,51.59.05-.45.16-1.23.36-2.28v-.03c-21.09-6.48-36.43-26.12-36.43-49.36,0-1.66.08-3.3.23-4.91.05-.6.13-1.2.21-1.79.08-.73.19-1.44.32-2.15.45-2.62,1.1-5.17,1.94-7.63.13-.4.26-.81.42-1.2.15-.42.31-.84.47-1.24.13-.37.27-.74.45-1.1.26-.66.55-1.31.86-1.94.11-.24.23-.48.34-.71.13-.24.26-.5.39-.76.74-1.49,1.57-2.93,2.47-4.32.42-.71.89-1.39,1.39-2.07.53-.78,1.1-1.52,1.68-2.26.45-.6.94-1.16,1.42-1.73.06-.06.11-.13.16-.18.55-.63,1.1-1.24,1.68-1.84.52-.53,1.05-1.07,1.58-1.58.06-.05.13-.11.18-.16.52-.48,1.03-.95,1.57-1.42.1-.08.19-.18.29-.26h.02c9.04-7.74,20.77-12.41,33.6-12.41,14.51,0,27.62,5.98,36.99,15.61.05.05.08.06.11.13Z"/>
              <path class="cls-1" d="M192.31,99.17c7.85-.06,17.61,3.77,17.61,3.77l16.42-24.32c-8.42-3.81-15.49,1.42-15.49,1.42,2.47,1.13,3.66,6.36-.13,10.06-3.79,3.72-8.74,3.49-12.45,2.6-3.7-.85-10.78-4.28-11.95-10.95-1.64-9.47,6.64-9.15,6.64-9.15-3.38-4.38-8.1-1.02-8.1-1.02.28-6.04-4.68-9.78-5.08-9.94h-.04c-.42.17-5.49,4.34-4.96,9.93,0,0-4.7-3.34-8.11.96,0,0,8.51.08,6.49,9.49-1.42,6.66-7.93,9.79-11.61,10.66-3.72.87-9.19,1.21-12.79-2.66-3.59-3.89-1.06-7.85-.09-9.96,0,0-7.08-5.25-15.51-1.43l16.42,24.32s8.94-3.49,16.59-3.76c-31,6.1-54.39,33.42-54.39,66.22s22.1,58.65,51.84,65.67l-.11-1.7v-.32c-11.49-2.81-22-8.72-30.59-17.29-12.36-12.36-19.15-28.8-19.15-46.27s6.79-33.93,19.15-46.27c12.36-12.36,28.8-19.15,46.29-19.15s33.89,6.79,46.25,19.15c12.36,12.34,19.15,28.78,19.15,46.27s-6.79,33.91-19.15,46.27c-6.66,6.66-14.51,11.68-23.04,14.95-.02.02-.06.02-.08.04v-.04l-.94.43-.57,2.13v.13c.34-.09.66-.23.98-.34,26.19-9.28,44.97-34.27,44.97-63.67,0-32.82-23.42-60.14-54.46-66.24ZM184.06,92.62c-3.83-.66-7.06-.3-8.79.02-.15.02-.32.04-.49.06.42-.25,3.77-2.32,4.98-6.1,1.28,4.04,5.04,6.1,5.04,6.1-.25-.02-.49-.04-.74-.08Z"/>
              <path class="cls-1" d="M178.13,217.07c.02.1.02.18.03.26-.02-.16-.02-.26-.02-.26h-.02Z"/>
            </g>
          </g>
        </g>
        <g>
          <path class="cls-1" d="M88.52,262.32c0,1.73-.19,2.97-.56,3.74-.38.77-1,1.15-1.88,1.15s-1.47-.38-1.86-1.15c-.39-.77-.59-2.01-.59-3.74v-23.22h-9.53v22.78c0,4.53.99,7.81,2.96,9.85,1.97,2.04,4.98,3.06,9.02,3.06s7.09-1.02,9.05-3.06c1.96-2.04,2.93-5.32,2.93-9.85v-22.78h-9.53v23.22Z"/>
          <path class="cls-1" d="M104.98,239.14l1.13,4.65-7.04,31.02h10.22l.93-4.78h6.16l.93,4.78h10.12l-7.67-35.69-14.78.02ZM111.19,262.39l2.1-12.9,2.05,12.9h-4.16Z"/>
          <path class="cls-1" d="M225.62,262.32c0,1.73-.19,2.97-.56,3.74-.38.77-1,1.15-1.88,1.15s-1.47-.38-1.86-1.15c-.39-.77-.59-2.01-.59-3.74v-23.22h-9.53v22.78c0,4.53.99,7.81,2.96,9.85,1.97,2.04,4.98,3.06,9.02,3.06s7.09-1.02,9.05-3.06c1.96-2.04,2.93-5.32,2.93-9.85v-22.78h-9.53v23.22Z"/>
          <path class="cls-1" d="M242.11,239.11l1.1,4.67-7.04,31.02h10.22l.93-4.78h6.16l.93,4.78h10.12l-7.64-35.66-14.78-.02ZM248.29,262.39l2.1-12.9,2.05,12.9h-4.16Z"/>
          <path class="cls-1" d="M165.33,239.09l1.1,4.69-7.04,31.02h10.22l.93-4.78h6.16l.93,4.78h10.12l-7.66-35.69-14.76-.02ZM171.52,262.39l2.1-12.9,2.05,12.9h-4.16Z"/>
          <polygon class="cls-1" points="147.71 259.5 140.81 239.09 128 239.09 130.01 244.2 130.01 274.77 139.3 274.77 139.3 256.27 145.55 274.78 156.99 274.78 156.99 239.09 147.71 239.09 147.71 259.5"/>
          <path class="cls-1" d="M288.96,239.16h-28.67s1.91,7.89,1.91,7.89h7.49v27.71h9.58v-27.78h5.9c.31-2.89,1.71-5.72,3.78-7.76v-.06Z"/>
          <path class="cls-1" d="M312.74,245.98c-.9-2.62-2.32-4.48-4.28-5.57-1.96-1.09-4.53-1.64-7.72-1.64s-5.77.55-7.72,1.64c-1.96,1.09-3.38,2.95-4.28,5.57-.9,2.62-1.34,6.23-1.34,10.83s.45,8.21,1.34,10.83c.9,2.62,2.32,4.48,4.28,5.57,1.96,1.09,4.53,1.64,7.72,1.64s5.77-.55,7.72-1.64c1.96-1.09,3.38-2.95,4.28-5.57.9-2.62,1.34-6.23,1.34-10.83s-.45-8.21-1.34-10.83ZM303.54,263.17c-.18,1.53-.49,2.6-.93,3.2-.44.6-1.07.9-1.88.9s-1.4-.3-1.86-.9c-.46-.6-.77-1.67-.95-3.2-.18-1.53-.27-3.68-.27-6.45s.09-4.95.27-6.43c.18-1.48.5-2.51.95-3.08.46-.57,1.08-.86,1.86-.86s1.44.29,1.88.86c.44.57.75,1.6.93,3.08.18,1.48.27,3.63.27,6.43s-.09,4.92-.27,6.45Z"/>
          <path class="cls-1" d="M65.63,249.56l5.13-7.14s-4.35-4.62-12.85-3.32c-9.1,1.4-13.52,9.22-13.47,17.84.05,8.62,3.67,15.51,11.81,17.39,10.01,1.66,14.4-1.66,14.4-1.66v-15.69l-11.51-.05,2.73,4.88v3.84c-6.49,1.11-10.31-9.28-5.78-14.98,3.64-4.58,9.53-1.1,9.53-1.1Z"/>
          <path class="cls-1" d="M197.93,245.91v14.77c0,1.6-.1,2.83-.29,3.69-.2.86-.61,1.47-1.25,1.81-.64.34-1.59.51-2.86.51-.55,0-1.12-.06-1.71-.17-.53-.1-1.04-.21-1.52-.33-.95-.32-1.42-.63-1.42-.63l1.73,8.59c1.51.6,4.37.72,5.09.74.35.02.68.03.96.03,2.02,0,3.72-.14,5.11-.42,1.38-.28,2.49-.81,3.32-1.59.83-.78,1.43-1.89,1.81-3.32.37-1.43.56-3.32.56-5.67l.04-24.75-12.3-.04,2.73,6.8Z"/>
        </g>
        <g>
          <path class="cls-1" d="M81.73,291.67c-1.05,0-1.97-.21-2.74-.62-.77-.41-1.37-1.01-1.78-1.79-.41-.78-.62-1.71-.62-2.81,0-.81.13-1.52.38-2.15s.61-1.15,1.08-1.58c.47-.43,1.02-.75,1.66-.98.64-.22,1.35-.33,2.13-.33.67,0,1.31.07,1.92.22s1.13.33,1.57.53c-.06.34-.1.7-.13,1.09-.02.39-.04.79-.04,1.21-.19.08-.4.13-.63.15-.23.02-.45.03-.66.03-.03-.56-.13-1-.3-1.32-.17-.32-.41-.55-.71-.68-.3-.13-.65-.2-1.04-.2-.61,0-1.11.18-1.49.52-.38.35-.66.81-.84,1.37-.17.56-.26,1.15-.26,1.77,0,.87.11,1.64.33,2.32.22.68.52,1.22.92,1.6.4.39.88.58,1.46.58.18,0,.33,0,.44-.02.12-.02.23-.04.33-.08.15-.06.27-.16.35-.3.09-.14.13-.4.13-.78v-.56c0-.34-.03-.59-.08-.75s-.16-.28-.33-.34-.4-.09-.7-.1c-.04-.14-.07-.29-.08-.47-.02-.17-.02-.36-.02-.56.27.01.58.02.95.03.37.01.72.01,1.04.01.31,0,.65,0,1.04,0s.72-.01.98-.02c0,.16,0,.32-.01.5,0,.18-.03.34-.07.5-.18.01-.31.04-.4.1s-.14.15-.16.3-.03.35-.03.63v.43c0,.35.01.62.04.81s.09.39.19.61c-.45.33-1.01.6-1.67.81s-1.38.32-2.16.32Z"/>
          <path class="cls-1" d="M93.55,291.67c-1.04,0-1.94-.22-2.69-.66-.75-.44-1.33-1.04-1.74-1.82s-.61-1.67-.61-2.7c0-.78.13-1.48.38-2.1.25-.63.6-1.16,1.05-1.6.45-.45.98-.78,1.6-1.02.62-.24,1.29-.35,2.02-.35,1.02,0,1.9.2,2.65.61.75.41,1.34.98,1.77,1.72s.64,1.61.64,2.62c0,.78-.12,1.49-.35,2.14-.24.65-.58,1.2-1.02,1.68-.44.47-.98.84-1.6,1.1-.62.26-1.32.39-2.08.39ZM93.76,290.62c.47,0,.87-.16,1.2-.49.32-.33.57-.79.75-1.37.17-.59.26-1.27.26-2.06s-.11-1.51-.33-2.15c-.22-.65-.52-1.16-.92-1.54s-.86-.58-1.39-.58c-.44,0-.83.15-1.15.44-.33.3-.58.72-.75,1.27-.18.55-.27,1.22-.27,1.99,0,.6.05,1.17.16,1.71.11.54.27,1.02.48,1.44.21.42.48.75.81.98s.71.35,1.15.35Z"/>
          <path class="cls-1" d="M101.15,281.5c.19.01.43.02.74.03.3.01.59.02.84.02s.57,0,.95,0c.37,0,.75,0,1.13-.01s.71,0,.98,0c.94,0,1.69.08,2.25.24.57.16.98.4,1.24.74.26.33.39.76.39,1.29,0,.58-.2,1.08-.6,1.51-.4.42-.97.69-1.71.8.66.04,1.2.16,1.63.36.43.2.75.49.95.86.21.37.31.82.31,1.35,0,.56-.15,1.06-.44,1.49s-.76.77-1.4,1.02c-.64.25-1.49.37-2.56.37h-1.22c-.42,0-.84,0-1.25,0-.41,0-.81.01-1.19.01-.38,0-.74.01-1.07.02,0-.2,0-.39.02-.57s.04-.33.08-.45c.27-.02.47-.07.61-.15.14-.08.24-.24.3-.46s.08-.55.08-.98v-4.91c0-.41-.03-.72-.08-.93-.05-.21-.15-.35-.3-.43-.14-.08-.35-.14-.63-.17-.03-.13-.05-.29-.07-.49-.02-.2-.02-.38-.02-.52ZM104.8,282.1v6.96c0,.42.04.75.13.96.09.22.22.36.38.43s.36.11.59.11c.45,0,.82-.15,1.1-.46.28-.3.42-.73.42-1.27,0-.38-.05-.7-.16-.95-.11-.25-.26-.45-.47-.59-.2-.14-.44-.25-.72-.31s-.59-.1-.92-.1h-.84v-.99h1.01c.4,0,.74-.07,1-.21.26-.14.46-.34.58-.59.13-.26.19-.56.19-.92s-.08-.67-.23-.92c-.15-.25-.35-.43-.59-.55-.24-.12-.51-.18-.81-.18-.17,0-.32.02-.45.04-.13.03-.27.08-.42.16l.21-.65Z"/>
          <path class="cls-1" d="M113.92,284.06c0-.41-.02-.72-.07-.93-.05-.21-.15-.35-.29-.43-.14-.08-.35-.14-.61-.17-.04-.13-.07-.29-.09-.48-.02-.19-.03-.37-.03-.54.17.01.4.02.69.02.29,0,.6.01.92.01.32,0,.59,0,.82,0s.48,0,.77,0c.29,0,.57,0,.84-.01.28,0,.51-.01.71-.02,0,.18,0,.35-.01.52,0,.17-.04.34-.1.5-.27.03-.47.08-.61.16-.14.08-.24.23-.29.44-.05.21-.07.52-.07.94v4.94c0,.42.02.74.07.96.05.22.15.37.3.45.15.08.35.13.61.15.04.12.07.27.09.47.02.19.03.38.03.55-.24-.02-.55-.03-.95-.04-.39,0-.82,0-1.27,0s-.91,0-1.37,0c-.46,0-.84.02-1.16.04,0-.17.01-.35.04-.55.02-.2.05-.36.08-.47.27-.02.47-.07.61-.15.14-.08.24-.24.29-.45.05-.22.07-.54.07-.96v-4.94Z"/>
          <path class="cls-1" d="M120.12,281.5c.21.01.47.02.78.02s.65.01,1,.01c.35,0,.69,0,1.01,0h.86v7.36c0,.42.03.76.1,1,.07.24.19.41.36.5.17.09.42.14.73.14l-.47.99c-.27,0-.61,0-1.03,0-.42,0-.85.01-1.3.01-.45,0-.86.01-1.23.02-.37,0-.65,0-.81,0,0-.2,0-.39.02-.57s.04-.33.08-.45c.27-.02.47-.07.61-.15.14-.08.24-.24.3-.46.05-.22.08-.55.08-.98v-4.91c0-.41-.03-.72-.08-.93-.05-.21-.15-.35-.3-.43-.14-.08-.35-.14-.63-.17-.04-.13-.06-.29-.07-.49,0-.2-.02-.38-.02-.52ZM126.48,284.82c0,.24-.02.49-.04.77s-.02.59-.02.93c0,.37,0,.7.02.98s.03.53.04.76c-.24,0-.44-.01-.62-.03-.18-.02-.34-.05-.5-.1-.04-.43-.15-.72-.34-.86-.19-.14-.52-.21-1-.21h-.89v-.99h.89c.52,0,.87-.08,1.04-.24.17-.16.26-.44.27-.84.16-.07.34-.11.55-.13.21-.02.41-.03.61-.03ZM127.77,281.5c0,.24.03.51.06.83.03.31.06.62.1.92.04.3.09.57.15.81-.16.07-.34.13-.54.17s-.45.07-.75.07c-.05-.34-.14-.64-.27-.91-.13-.27-.34-.48-.63-.64s-.69-.23-1.23-.23h-1.46l.46-.97c.75,0,1.38,0,1.9,0,.52,0,.95,0,1.31-.01s.66-.01.9-.02ZM127.35,288.57c.28.03.53.09.76.17.23.08.41.18.52.3-.11.34-.2.73-.28,1.18-.08.45-.14.9-.18,1.35-.27-.01-.61-.02-1.02-.02s-.85,0-1.32,0c-.47,0-.91,0-1.34,0l.47-.99h.21c.43,0,.79-.07,1.06-.21.27-.14.49-.36.66-.65s.32-.66.46-1.12Z"/>
          <path class="cls-1" d="M137.52,291.67c-.12-.26-.23-.51-.34-.75-.11-.24-.21-.48-.31-.72-.1-.24-.2-.49-.31-.75-.15-.36-.29-.65-.41-.9-.13-.24-.27-.45-.43-.64-.16-.18-.35-.36-.59-.54l.66.12c-.27.01-.5.02-.7.02s-.43,0-.69,0l.12-1.08c.15.02.27.03.35.04.09.01.17.01.25.01.35,0,.68-.07.98-.21.3-.14.55-.36.74-.67.19-.3.29-.68.29-1.13,0-.62-.15-1.11-.45-1.46s-.74-.53-1.31-.53c-.16,0-.3,0-.44.03-.13.02-.27.05-.42.1l.12-.49v6.75c0,.48.02.84.07,1.08.05.24.13.39.24.47s.27.12.47.13c.04.1.06.25.07.44,0,.2.02.39.02.58-.19,0-.43-.02-.72-.02-.3,0-.59-.01-.89-.01-.3,0-.55,0-.75,0-.36,0-.74,0-1.12,0-.38,0-.73.02-1.04.04,0-.22,0-.41.02-.58s.04-.32.08-.44c.27-.02.47-.07.61-.15.14-.08.24-.24.3-.45.05-.22.08-.54.08-.96v-4.95c0-.41-.03-.73-.08-.94-.05-.21-.15-.36-.3-.44-.14-.08-.35-.13-.63-.16-.04-.14-.06-.32-.07-.53s-.02-.37-.02-.47c.26.01.59.02,1.01.03.42.01.86.02,1.32.02.32,0,.74-.01,1.26-.03.53-.02,1.08-.03,1.65-.03.83,0,1.51.12,2.03.36.53.24.91.57,1.16.98.25.41.37.86.37,1.37,0,.6-.12,1.12-.35,1.56-.23.44-.55.78-.95,1.03-.4.25-.86.4-1.37.47l.28-.19c.3.14.53.29.72.45.18.16.36.39.55.68s.41.7.69,1.24c.15.27.28.49.4.64.12.15.25.26.4.32s.34.1.56.13c0,.19-.01.36-.03.53-.02.17-.05.33-.1.49-.67,0-1.27,0-1.8.03-.53.02-.95.05-1.26.1Z"/>
          <path class="cls-1" d="M150.36,291.66l-6.5-8.7c-.09-.15-.2-.25-.33-.3-.13-.05-.35-.1-.64-.13-.04-.15-.07-.31-.09-.49-.02-.18-.03-.36-.03-.53.13.01.3.02.52.02s.44.01.66.01c.23,0,.41,0,.56,0,.24,0,.5,0,.79,0,.29,0,.53-.02.72-.04l4.71,6.41-.37,3.74ZM142.77,291.58c0-.21,0-.39.02-.56.01-.17.05-.32.1-.46.3-.03.52-.1.69-.22.16-.12.28-.32.35-.62s.11-.73.11-1.29v-5.97l1.02.09v5.88c0,.56.03.99.09,1.29.06.3.17.5.33.62.16.12.4.19.7.22.04.14.06.3.07.48,0,.18.01.36.01.54-.14,0-.31-.02-.52-.02-.21,0-.41-.01-.62-.01-.21,0-.39,0-.56,0-.16,0-.36,0-.6,0-.24,0-.47.01-.69.01-.22,0-.39.01-.52.02ZM150.36,291.66l.15-2.45v-4.57c0-.56-.03-.99-.09-1.28-.06-.29-.17-.49-.35-.61-.17-.12-.43-.19-.76-.22-.04-.17-.07-.34-.08-.52-.02-.18-.02-.35-.02-.49.15.01.33.02.55.02s.44.01.67.01c.23,0,.43,0,.58,0,.25,0,.52,0,.81-.02.3,0,.53-.02.71-.03,0,.17,0,.34-.01.5,0,.17-.03.34-.07.52-.25.02-.44.09-.57.21-.13.12-.22.32-.27.61s-.07.72-.07,1.29v6.9c-.17.05-.34.08-.53.1-.19.01-.4.02-.64.02Z"/>
          <path class="cls-1" d="M160.06,291.67c-1.04,0-1.94-.22-2.69-.66-.75-.44-1.33-1.04-1.74-1.82s-.61-1.67-.61-2.7c0-.78.13-1.48.38-2.1.25-.63.6-1.16,1.05-1.6.45-.45.98-.78,1.6-1.02.62-.24,1.29-.35,2.02-.35,1.02,0,1.9.2,2.65.61.75.41,1.34.98,1.77,1.72.42.74.64,1.61.64,2.62,0,.78-.12,1.49-.35,2.14s-.58,1.2-1.02,1.68c-.44.47-.98.84-1.6,1.1-.62.26-1.32.39-2.08.39ZM160.27,290.62c.47,0,.87-.16,1.2-.49.32-.33.57-.79.75-1.37s.26-1.27.26-2.06-.11-1.51-.33-2.15c-.22-.65-.52-1.16-.92-1.54s-.86-.58-1.39-.58c-.44,0-.83.15-1.15.44-.33.3-.58.72-.75,1.27-.18.55-.27,1.22-.27,1.99,0,.6.05,1.17.16,1.71.11.54.27,1.02.48,1.44.21.42.48.75.81.98s.71.35,1.15.35Z"/>
          <path class="cls-1" d="M172.09,291.58c0-.2,0-.39.02-.57.01-.18.04-.33.08-.45.27-.02.47-.07.61-.15.14-.08.24-.24.3-.46s.08-.55.08-.98v-4.91c0-.41-.03-.72-.08-.93-.05-.21-.15-.35-.3-.43-.14-.08-.35-.14-.63-.17-.03-.13-.05-.29-.07-.49-.02-.2-.02-.38-.02-.52.22.01.48.02.8.02s.65.01,1.01.01c.36,0,.7,0,1.01,0,.23,0,.47,0,.74-.02.27,0,.56-.01.87-.01.55,0,1.09.04,1.63.11s1.02.21,1.48.41c.45.2.85.48,1.2.84.34.36.61.82.81,1.37.19.56.29,1.24.29,2.05s-.1,1.48-.3,2.06c-.2.57-.46,1.05-.78,1.43-.33.38-.68.69-1.08.93s-.8.41-1.21.53c-.41.12-.8.2-1.16.24s-.67.06-.92.06-.61,0-1.03,0c-.42,0-.85.01-1.3.01-.45,0-.86.01-1.23.02s-.65,0-.81,0ZM176.94,290.55c.23,0,.48-.05.75-.14.28-.09.54-.28.78-.55.25-.27.45-.67.6-1.2.15-.53.23-1.23.23-2.12,0-.79-.08-1.45-.24-1.97-.16-.53-.37-.94-.64-1.24-.27-.3-.57-.51-.91-.64-.34-.13-.68-.19-1.05-.19-.19,0-.37.02-.54.07-.17.04-.3.1-.38.17l.19-.58v6.75c0,.42.03.76.1,1s.19.41.36.5c.17.09.42.14.73.14Z"/>
          <path class="cls-1" d="M184.46,281.5c.21.01.47.02.78.02.31,0,.65.01,1,.01.35,0,.69,0,1.01,0h.86v7.36c0,.42.03.76.1,1s.19.41.36.5c.17.09.42.14.73.14l-.47.99c-.27,0-.61,0-1.03,0-.42,0-.85.01-1.3.01-.45,0-.86.01-1.23.02s-.65,0-.81,0c0-.2,0-.39.02-.57.01-.18.04-.33.08-.45.27-.02.47-.07.61-.15.14-.08.24-.24.3-.46s.08-.55.08-.98v-4.91c0-.41-.03-.72-.08-.93-.05-.21-.15-.35-.3-.43-.14-.08-.35-.14-.63-.17-.04-.13-.06-.29-.07-.49-.01-.2-.01-.38-.01-.52ZM190.82,284.82c0,.24-.02.49-.04.77s-.02.59-.02.93c0,.37,0,.7.02.98s.03.53.04.76c-.24,0-.44-.01-.62-.03-.18-.02-.35-.05-.5-.1-.04-.43-.15-.72-.34-.86s-.52-.21-1.01-.21h-.89v-.99h.89c.52,0,.87-.08,1.04-.24.17-.16.26-.44.27-.84.16-.07.34-.11.55-.13s.41-.03.61-.03ZM192.1,281.5c0,.24.03.51.06.83.03.31.06.62.1.92.04.3.09.57.15.81-.16.07-.34.13-.54.17s-.45.07-.75.07c-.05-.34-.14-.64-.27-.91s-.34-.48-.63-.64c-.29-.15-.7-.23-1.23-.23h-1.46l.46-.97c.75,0,1.38,0,1.9,0,.52,0,.95,0,1.31-.01s.66-.01.9-.02ZM191.69,288.57c.28.03.53.09.76.17.23.08.41.18.52.3-.11.34-.2.73-.28,1.18s-.14.9-.18,1.35c-.27-.01-.61-.02-1.02-.02s-.85,0-1.32,0c-.47,0-.91,0-1.34,0l.47-.99h.21c.43,0,.79-.07,1.06-.21.27-.14.49-.36.66-.65s.32-.66.46-1.12Z"/>
          <path class="cls-1" d="M204.81,290.55c.39,0,.72-.07.98-.2s.48-.35.65-.64.33-.67.47-1.15c.28.03.53.09.76.17.23.08.41.18.52.3-.11.34-.2.73-.28,1.18-.08.45-.14.9-.18,1.35-.27-.01-.61-.02-1.02-.02s-.85,0-1.3,0c-.45,0-.88,0-1.29,0-.27,0-.61,0-1.03,0-.42,0-.85.01-1.3.01-.45,0-.86.01-1.23.02s-.65,0-.81,0c0-.2,0-.39.02-.57.01-.18.04-.33.08-.45.27-.02.47-.07.61-.15.14-.08.24-.24.3-.46s.08-.55.08-.98v-4.91c0-.41-.03-.72-.08-.93-.05-.21-.15-.35-.3-.43-.14-.08-.35-.14-.63-.17-.03-.13-.05-.29-.07-.49-.02-.2-.02-.38-.02-.52.29.01.55.02.79.02s.49.01.74.01c.25,0,.53,0,.84,0,.24,0,.5,0,.79,0,.29,0,.58,0,.86-.01.29,0,.53-.01.72-.02,0,.18,0,.36-.01.54-.01.18-.04.34-.1.48-.27.03-.47.08-.61.16s-.24.23-.29.44c-.05.22-.07.53-.07.95v4.83c0,.42.03.76.1,1s.19.41.36.5c.17.09.42.14.73.14h.21Z"/>
          <path class="cls-1" d="M215.47,281.46l3.34,7.42c.23.46.4.82.53,1.06.13.24.25.4.36.48s.24.13.38.15c.04.13.07.28.09.45s.03.36.03.57c-.18-.02-.4-.03-.68-.04-.28,0-.55,0-.83,0h-1.15c-.21,0-.44,0-.68,0-.24,0-.47.01-.69.01-.22,0-.38.01-.5.02,0-.24.01-.43.03-.59.02-.16.05-.3.09-.43.34-.07.55-.19.61-.35.06-.16.02-.43-.14-.79l-1.33-3.03c-.23-.52-.41-1.01-.55-1.46s-.26-.89-.36-1.32h.43c-.12.44-.25.89-.39,1.35-.14.45-.32.93-.52,1.42l-1.12,2.93c-.13.31-.15.59-.07.83.08.24.29.38.62.43.04.14.07.29.09.46.02.17.03.36.03.56-.11,0-.26-.02-.46-.02-.2,0-.4-.01-.61-.01-.21,0-.4,0-.57,0-.25,0-.5,0-.76,0-.26,0-.47.02-.61.04,0-.2,0-.37.03-.53s.05-.32.1-.49c.17-.03.31-.09.43-.19.12-.09.23-.24.35-.45s.25-.5.41-.89l3.12-7.51c.17-.04.32-.06.47-.07.14,0,.31,0,.51,0ZM216.01,287.99l.27.89c-.66,0-1.35.01-2.06.03-.71.02-1.41.07-2.09.13l.22-1.05h3.67Z"/>
          <path class="cls-1" d="M231.98,291.67c-1.06,0-1.97-.21-2.74-.62-.77-.41-1.37-1.01-1.78-1.79-.41-.78-.62-1.71-.62-2.81,0-.81.13-1.52.38-2.15.25-.63.61-1.15,1.08-1.58.47-.43,1.02-.75,1.66-.98.64-.22,1.35-.33,2.13-.33.67,0,1.31.07,1.92.22s1.13.33,1.57.53c-.06.34-.1.7-.13,1.09-.02.39-.04.79-.04,1.21-.19.08-.4.13-.63.15-.23.02-.45.03-.66.03-.03-.56-.13-1-.3-1.32-.17-.32-.41-.55-.71-.68-.3-.13-.65-.2-1.04-.2-.61,0-1.11.18-1.49.52-.38.35-.66.81-.84,1.37s-.26,1.15-.26,1.77c0,.87.11,1.64.33,2.32.22.68.52,1.22.92,1.6.4.39.88.58,1.46.58.18,0,.33,0,.44-.02.12-.02.23-.04.33-.08.15-.06.27-.16.35-.3.09-.14.13-.4.13-.78v-.56c0-.34-.03-.59-.08-.75s-.16-.28-.32-.34c-.16-.06-.4-.09-.7-.1-.04-.14-.07-.29-.08-.47s-.02-.36-.02-.56c.27.01.58.02.95.03.37.01.72.01,1.04.01.31,0,.65,0,1.04,0s.72-.01.98-.02c0,.16,0,.32-.01.5-.01.18-.03.34-.07.5-.18.01-.31.04-.4.1-.09.05-.14.15-.16.3s-.03.35-.03.63v.43c0,.35.01.62.04.81.03.18.09.39.19.61-.45.33-1.01.6-1.67.81s-1.38.32-2.16.32Z"/>
          <path class="cls-1" d="M238.79,281.5c.21.01.47.02.78.02s.65.01,1,.01c.35,0,.69,0,1.01,0h.86v7.36c0,.42.03.76.1,1,.07.24.19.41.36.5.17.09.42.14.73.14l-.47.99c-.27,0-.61,0-1.03,0-.42,0-.85.01-1.3.01-.45,0-.86.01-1.23.02s-.65,0-.81,0c0-.2,0-.39.02-.57s.04-.33.08-.45c.27-.02.47-.07.61-.15.14-.08.24-.24.3-.46.05-.22.08-.55.08-.98v-4.91c0-.41-.03-.72-.08-.93-.05-.21-.15-.35-.3-.43-.14-.08-.35-.14-.63-.17-.04-.13-.06-.29-.07-.49,0-.2-.01-.38-.01-.52ZM245.15,284.82c-.01.24-.02.49-.04.77-.02.28-.02.59-.02.93,0,.37,0,.7.02.98.01.28.03.53.04.76-.24,0-.44-.01-.62-.03-.18-.02-.35-.05-.5-.1-.04-.43-.15-.72-.34-.86s-.52-.21-1-.21h-.89v-.99h.89c.52,0,.87-.08,1.04-.24.17-.16.26-.44.27-.84.16-.07.34-.11.55-.13s.41-.03.61-.03ZM246.43,281.5c.01.24.03.51.06.83.03.31.06.62.1.92.04.3.09.57.15.81-.16.07-.34.13-.54.17-.2.04-.45.07-.75.07-.05-.34-.14-.64-.27-.91-.13-.27-.34-.48-.63-.64-.29-.15-.69-.23-1.23-.23h-1.46l.46-.97c.75,0,1.38,0,1.9,0,.52,0,.95,0,1.31-.01s.65-.01.9-.02ZM246.02,288.57c.27.03.53.09.76.17.23.08.41.18.52.3-.11.34-.2.73-.28,1.18s-.14.9-.18,1.35c-.27-.01-.61-.02-1.02-.02s-.85,0-1.32,0c-.47,0-.91,0-1.34,0l.47-.99h.21c.43,0,.79-.07,1.06-.21.27-.14.49-.36.66-.65s.32-.66.46-1.12Z"/>
          <path class="cls-1" d="M257.07,291.66l-6.5-8.7c-.09-.15-.2-.25-.33-.3-.13-.05-.35-.1-.64-.13-.04-.15-.07-.31-.09-.49s-.03-.36-.03-.53c.13.01.3.02.52.02s.44.01.66.01c.23,0,.41,0,.56,0,.24,0,.5,0,.79,0,.29,0,.53-.02.72-.04l4.71,6.41-.37,3.74ZM249.48,291.58c0-.21,0-.39.02-.56.01-.17.05-.32.1-.46.3-.03.52-.1.69-.22.16-.12.28-.32.35-.62s.11-.73.11-1.29v-5.97l1.02.09v5.88c0,.56.03.99.09,1.29.06.3.17.5.33.62.16.12.4.19.7.22.04.14.06.3.07.48,0,.18.01.36.01.54-.14,0-.31-.02-.52-.02-.21,0-.41-.01-.62-.01-.21,0-.39,0-.56,0-.16,0-.36,0-.6,0-.24,0-.47.01-.69.01-.22,0-.39.01-.52.02ZM257.07,291.66l.15-2.45v-4.57c0-.56-.03-.99-.09-1.28-.06-.29-.18-.49-.35-.61-.17-.12-.43-.19-.76-.22-.04-.17-.07-.34-.08-.52-.01-.18-.02-.35-.02-.49.15.01.33.02.55.02.22,0,.44.01.67.01.23,0,.43,0,.58,0,.25,0,.52,0,.81-.02.3,0,.53-.02.71-.03,0,.17,0,.34-.01.5-.01.17-.04.34-.07.52-.25.02-.44.09-.57.21-.13.12-.22.32-.27.61s-.07.72-.07,1.29v6.9c-.17.05-.34.08-.53.1-.19.01-.4.02-.64.02Z"/>
          <path class="cls-1" d="M264.76,282.54c-.38,0-.7.07-.94.21s-.43.35-.57.62c-.14.27-.26.62-.35,1.04-.24,0-.47-.01-.7-.04-.23-.02-.44-.08-.61-.17.1-.4.18-.86.24-1.36.06-.5.1-.95.1-1.35.37.01.76.02,1.17.03.4.01.86.02,1.38.02h1.85c.66,0,1.25,0,1.76,0,.51,0,.98,0,1.4-.01s.82-.01,1.18-.02c0,.39.02.83.07,1.31.05.48.12.94.22,1.38-.18.08-.38.14-.61.17s-.47.05-.74.05c-.1-.65-.27-1.13-.52-1.43-.25-.3-.63-.45-1.15-.45h-3.19ZM264.98,282.04h2.56v6.96c0,.42.03.74.1.96s.2.37.4.45c.2.08.49.13.87.15.04.12.07.27.09.47.02.19.03.38.03.55-.29-.02-.66-.03-1.12-.04-.46,0-.96,0-1.51,0-.36,0-.74,0-1.14,0-.39,0-.76.01-1.09.01-.33,0-.6.01-.82.02,0-.17.02-.35.05-.55s.07-.36.11-.47c.38-.02.68-.07.89-.15.21-.08.36-.24.44-.45.08-.22.13-.54.13-.96v-6.96Z"/>
          <path class="cls-1" d="M272.98,281.5c.21.01.47.02.78.02.31,0,.65.01,1,.01.35,0,.69,0,1.01,0h.86v7.36c0,.42.03.76.1,1s.19.41.36.5c.17.09.42.14.73.14l-.47.99c-.27,0-.61,0-1.03,0-.42,0-.85.01-1.3.01-.45,0-.86.01-1.23.02s-.65,0-.81,0c0-.2,0-.39.02-.57.01-.18.04-.33.08-.45.27-.02.47-.07.61-.15.14-.08.24-.24.3-.46s.08-.55.08-.98v-4.91c0-.41-.03-.72-.08-.93-.05-.21-.15-.35-.3-.43-.14-.08-.35-.14-.63-.17-.04-.13-.06-.29-.07-.49-.01-.2-.01-.38-.01-.52ZM279.33,284.82c0,.24-.02.49-.04.77s-.02.59-.02.93c0,.37,0,.7.02.98s.03.53.04.76c-.24,0-.44-.01-.62-.03-.18-.02-.35-.05-.5-.1-.04-.43-.15-.72-.34-.86s-.52-.21-1.01-.21h-.89v-.99h.89c.52,0,.87-.08,1.04-.24.17-.16.26-.44.27-.84.16-.07.34-.11.55-.13s.41-.03.61-.03ZM280.62,281.5c0,.24.03.51.06.83.03.31.06.62.1.92.04.3.09.57.15.81-.16.07-.34.13-.54.17s-.45.07-.75.07c-.05-.34-.14-.64-.27-.91s-.34-.48-.63-.64c-.29-.15-.7-.23-1.23-.23h-1.46l.46-.97c.75,0,1.38,0,1.9,0,.52,0,.95,0,1.31-.01s.66-.01.9-.02ZM280.2,288.57c.28.03.53.09.76.17.23.08.41.18.52.3-.11.34-.2.73-.28,1.18s-.14.9-.18,1.35c-.27-.01-.61-.02-1.02-.02s-.85,0-1.32,0c-.47,0-.91,0-1.34,0l.47-.99h.21c.43,0,.79-.07,1.06-.21.27-.14.49-.36.66-.65s.32-.66.46-1.12Z"/>
        </g>
      </g>
    </g>
  </g>
</svg>